<?xml version="1.0" standalone="no"?>
<!DOCTYPE svg PUBLIC "-//W3C//DTD SVG 20010904//EN"
 "http://www.w3.org/TR/2001/REC-SVG-20010904/DTD/svg10.dtd">
<svg version="1.0" xmlns="http://www.w3.org/2000/svg"
 width="1000.000000pt" height="1000.000000pt" viewBox="0 0 1000.000000 1000.000000"
 preserveAspectRatio="xMidYMid meet">
<metadata>
Created by potrace 1.11, written by Peter Selinger 2001-2013
</metadata>
<g transform="translate(0.000000,1000.000000) scale(0.100000,-0.100000)"
fill="#000000" stroke="none">
<path d="M4749 9865 c-2 -2 -53 -6 -114 -10 -60 -4 -121 -8 -135 -10 -14 -2
-50 -6 -80 -10 -61 -7 -291 -42 -330 -50 -14 -2 -68 -14 -120 -25 -52 -12
-104 -23 -114 -25 -157 -34 -430 -121 -636 -202 -146 -58 -388 -166 -430 -192
-8 -5 -46 -26 -85 -45 -38 -20 -77 -41 -85 -46 -8 -5 -62 -37 -120 -71 -348
-205 -719 -501 -1016 -810 -436 -452 -799 -1022 -1027 -1614 -30 -77 -60 -158
-66 -180 -7 -22 -16 -49 -21 -60 -20 -45 -115 -399 -134 -497 -2 -13 -12 -61
-21 -108 -9 -47 -18 -94 -19 -105 -2 -11 -7 -45 -11 -75 -4 -30 -9 -64 -11
-75 -2 -11 -7 -47 -10 -80 -3 -33 -7 -70 -9 -82 -27 -174 -27 -774 0 -993 3
-19 7 -57 10 -85 6 -57 25 -190 31 -220 6 -29 25 -136 30 -165 13 -72 68 -293
113 -445 79 -272 221 -613 376 -900 73 -135 159 -276 249 -408 45 -65 88 -128
96 -140 27 -41 203 -262 264 -332 161 -186 434 -444 701 -663 37 -30 290 -207
345 -241 178 -111 185 -115 330 -193 435 -235 944 -414 1415 -497 33 -6 69
-13 80 -15 11 -2 42 -7 68 -10 27 -4 56 -9 65 -11 10 -1 46 -6 82 -10 36 -3
78 -8 93 -10 222 -27 739 -27 992 0 126 13 173 19 265 35 30 5 71 12 90 15 19
3 46 8 60 10 53 11 76 15 105 21 200 36 676 184 850 263 11 5 58 26 105 47
226 98 472 233 695 379 124 82 301 208 367 263 300 250 480 424 675 657 42 50
79 92 83 95 3 3 40 50 82 105 373 495 638 1020 803 1591 25 84 47 163 50 176
25 111 68 320 80 394 15 93 17 106 30 209 3 33 8 70 10 83 26 168 26 866 0
1002 -2 8 -6 44 -10 80 -3 36 -13 108 -22 160 -8 52 -17 109 -20 125 -3 24
-33 165 -58 275 -42 192 -168 580 -234 725 -5 11 -26 58 -47 105 -93 214 -254
511 -371 685 -18 28 -39 59 -46 69 -53 83 -212 293 -306 405 -147 175 -460
487 -626 622 -121 99 -388 299 -399 299 -2 0 -39 23 -81 50 -313 208 -701 393
-1100 525 -277 92 -646 177 -873 201 -30 3 -65 8 -76 10 -12 2 -55 7 -96 10
-41 3 -91 8 -110 11 -43 6 -616 14 -621 8z"/>
</g>
</svg>
