<?xml version="1.0" encoding="utf-8"?>
<!-- Generator: Adobe Illustrator 19.2.1, SVG Export Plug-In . SVG Version: 6.00 Build 0)  -->
<svg version="1.1" id="Layer_1" xmlns="http://www.w3.org/2000/svg" xmlns:xlink="http://www.w3.org/1999/xlink" x="0px" y="0px"
	 width="500px" height="500px" viewBox="0 0 500 500" style="enable-background:new 0 0 500 500;" xml:space="preserve">
<style type="text/css">
	.st0{fill:#E0E0E0;}
	.st1{fill:#FFFFFF;}
	.st2{fill:#CFE4AB;}
	.st3{fill:#B7B7B7;}
	.st4{fill:#7F7F7F;}
	.st5{fill:#231F20;}
	.st6{fill:#BABABA;}
</style>
<path class="st0" d="M95.9,229l-0.4,9.6l0,0v25.8c0,23.1-16.5,41.8-36.5,41.8s-36.5-18.9-36.5-41.8c0-1.8,0.4-25.4,0.4-25.4l0,0
	v-10.2c-5.6-4.4-8.7-11.1-8.5-18.2c0-12.2,8.7-22.2,19.6-22.2c9.1,0,17.4,7.6,19.1,17.8c0.2,1.6,0.4,2.9,0.4,4.4c0,1.1,0-0.2,0,8.9
	c0,0,0.2,6.9,6,6.9c0,0,5.1-0.2,5.1-6.9c0-9.1,0-7.6,0-8.7c0-1.6,0.2-2.9,0.4-4.4C67,196,75,188.5,84.3,188.5
	c10.7,0,18,10,19.6,22.2C104.1,217.6,101.4,224.5,95.9,229z"/>
<path class="st1" d="M84.8,185.6c-11.8,0-21.8,6-25.8,14.2c-4-8.5-14-14.2-25.8-14.2c-15.3,0-27.6,10-27.6,22.2s12.5,22.2,27.6,22.2
	c11.8,0,21.8-6,25.8-14.2c4,8.5,14,14.2,25.8,14.2c18.5,0,27.6-10,27.6-22.2S100.1,185.6,84.8,185.6z"/>
<path class="st2" d="M104.1,187.1l0.7-22c0-0.2-0.2-0.4-0.4-0.4s-0.2,0-0.4,0.2L89.2,174l0,0c-9.6-4.2-20.2-6.5-30.7-6
	c-12,0-23.1,1.6-32,6.2L12,164.9c-0.2-0.2-0.4-0.2-0.7,0l-0.2,0.2l0.7,22c-5.1,7.6-8.2,17.1-8.2,29.6l6.5,43.4
	c5.3,30.9,11.3,42.9,35.1,50.1c4.2,1.6,8.7,2.4,13.1,2.4c3.8,0,7.6-0.4,11.1-1.8c25.4-5.8,35.4-19.8,39.6-50.7l4.9-43.4
	C113.9,206,110.6,195.8,104.1,187.1z M95.9,229l-0.4,9.6l0,0v25.8c0,23.1-16.5,41.8-36.5,41.8s-36.5-18.9-36.5-41.8
	c0-1.8,0.4-25.4,0.4-25.4l0,0v-10.2c-5.6-4.4-8.7-11.1-8.5-18.2c0-12.2,8.7-22.2,19.6-22.2c9.1,0,17.4,7.6,19.1,17.8
	c0.2,1.6,0.4,2.9,0.4,4.4c0,1.1,0-0.2,0,8.9c0,0,0.2,6.9,6,6.9c0,0,5.1-0.2,5.1-6.9c0-9.1,0-7.6,0-8.7c0-1.6,0.2-2.9,0.4-4.4
	C67,196,75,188.5,84.3,188.5c10.7,0,18,10,19.6,22.2C104.1,217.6,101.4,224.5,95.9,229z"/>
<path class="st3" d="M104.1,187.1l0.7-22c0-0.2-0.2-0.4-0.4-0.4s-0.2,0-0.4,0.2L89.2,174l0,0c-9.6-4.2-20.2-6.5-30.7-6
	c-12,0-23.1,1.6-32,6.2L12,164.9c-0.2-0.2-0.4-0.2-0.7,0l-0.2,0.2l0.7,22c-5.1,7.6-8.2,17.1-8.2,29.6l6.5,43.4
	c5.3,30.9,11.3,42.9,35.1,50.1c4.2,1.6,8.7,2.4,13.1,2.4c3.8,0,7.6-0.4,11.1-1.8c25.4-5.8,35.4-19.8,39.6-50.7l4.9-43.4
	C113.9,206,110.6,195.8,104.1,187.1z M95.9,229l-0.4,9.6l0,0v25.8c0,23.1-16.5,41.8-36.5,41.8s-36.5-18.9-36.5-41.8
	c0-1.8,0.4-25.4,0.4-25.4l0,0v-10.2c-5.6-4.4-8.7-11.1-8.5-18.2c0-12.2,8.7-22.2,19.6-22.2c9.1,0,17.4,7.6,19.1,17.8
	c0.2,1.6,0.4,2.9,0.4,4.4c0,1.1,0-0.2,0,8.9c0,0,0.2,6.9,6,6.9c0,0,5.1-0.2,5.1-6.9c0-9.1,0-7.6,0-8.7c0-1.6,0.2-2.9,0.4-4.4
	C67,196,75,188.5,84.3,188.5c10.7,0,18,10,19.6,22.2C104.1,217.6,101.4,224.5,95.9,229z"/>
<path class="st4" d="M104.1,187.1l0.7-22c0-0.2-0.2-0.4-0.4-0.4s-0.2,0-0.4,0.2L89.2,174l0,0c-9.6-4.2-20.2-6.5-30.7-6h-0.4v58.1
	c0.2,0,0.7,0,0.9,0c0,0,5.1-0.2,5.1-6.9c0-9.1,0-7.6,0-8.7c0-1.6,0.2-2.9,0.4-4.4c1.8-10.2,9.8-17.8,19.1-17.8
	c10.7,0,18,10,19.6,22.2c0.9,7.1-1.8,14-7.3,18.7l-0.4,9.6l0,0v25.6c0,23.1-16.5,41.8-36.5,41.8h-0.7v6.5l0,0
	c3.8,0,7.6-0.4,11.1-1.8c25.4-5.8,35.4-19.8,39.6-50.7l4.9-43.4C113.9,206,110.6,195.8,104.1,187.1z"/>
<path class="st5" d="M36.7,199.4c-0.9,0-1.8,0.2-2.7,0.4c1.8,0.4,3.1,2,3.1,3.8c0,2.2-2,4-4.2,4c-2,0-3.6-1.1-4.2-3.1
	c-0.9,1.8-1.6,3.8-1.3,5.8c0,6,4.2,10.7,9.3,10.7s9.3-4.9,9.3-10.7C46.1,204.5,41.8,199.4,36.7,199.4z"/>
<path class="st5" d="M81.4,199.4c-0.9,0-2,0.2-2.9,0.4c1.8,0.4,2.9,2,2.9,3.6c0,2.2-2,4-4.2,4c-1.8,0-3.1-0.9-4-2.4
	c-0.7,1.6-1.1,3.3-1.1,5.1c0,6,4.2,10.7,9.3,10.7s9.3-4.9,9.3-10.7C90.8,204.3,86.8,199.4,81.4,199.4z"/>
<path class="st1" d="M76.8,311.7c0.2,2-1.3,3.6-3.1,3.8l0,0l0,0c-2-0.2-3.3-1.8-3.1-3.8v-6c0-1.8,1.3-3.6,3.1-3.6l0,0
	c2,0.2,3.3,1.8,3.3,3.8v5.8H76.8z"/>
<path class="st1" d="M85,315.3c0.2,2-1.3,3.6-3.3,3.8l0,0c-2-0.2-3.3-1.8-3.3-3.8v-6c-0.2-2,1.3-3.6,3.3-3.8l0,0
	c2,0.2,3.3,1.8,3.3,3.8V315.3z"/>
<path class="st1" d="M93.7,318.2c0.2,2-1.3,3.6-3.3,3.8l0,0c-2-0.2-3.3-1.8-3.3-3.8v-6c-0.2-2,1.3-3.6,3.3-3.8l0,0
	c2,0.2,3.3,1.8,3.3,3.8V318.2L93.7,318.2z"/>
<path class="st5" d="M90.3,306.1c-1.3,0-2.7,0.7-3.6,1.8c-0.2-2.4-2.2-4.4-4.9-4.7c-1.3,0-2.7,0.7-3.6,1.8c-0.2-2.7-2.2-4.7-4.9-4.9
	c-2.9,0.2-5.1,2.7-4.9,5.3v6.9c-0.2,2.9,2,5.3,4.9,5.3c1.3,0,2.7-0.7,3.6-1.8c0,2.7,2.2,4.9,4.9,4.9c1.3,0,2.7-0.7,3.6-1.8
	c0.2,2.4,2.2,4.4,4.9,4.7c2.9-0.2,5.1-2.7,4.9-5.3v-6.9C95.4,308.8,93.2,306.4,90.3,306.1z M75.9,312.6c0.2,1.3-0.7,2.9-2.2,3.1
	c-1.3,0.2-2.9-0.7-3.1-2.2c0-0.2,0-0.7,0-0.9v-6.9c-0.2-1.3,0.7-2.9,2.2-3.1c1.3-0.2,2.9,0.7,3.1,2.2c0,0.2,0,0.7,0,0.9V312.6
	L75.9,312.6z M84.5,315.7c0.2,1.3-0.7,2.9-2,3.1c-1.3,0.2-2.9-0.7-3.1-2c0-0.4,0-0.7,0-1.1v-6.9c-0.2-1.3,0.7-2.9,2-3.1
	c1.3-0.2,2.9,0.7,3.1,2c0,0.4,0,0.7,0,1.1V315.7z M93,318.6c0.2,1.3-0.7,2.9-2.2,3.1c-1.3,0.2-2.9-0.7-3.1-2.2c0-0.2,0-0.7,0-0.9
	v-6.9c-0.2-1.3,0.7-2.9,2.2-3.1c1.3-0.2,2.9,0.7,3.1,2.2c0,0.2,0,0.7,0,0.9V318.6L93,318.6z"/>
<path class="st1" d="M40.1,311.7c-0.2,2,1.3,3.6,3.1,3.8l0,0l0,0c2-0.2,3.3-1.8,3.3-3.8v-6c0-1.8-1.3-3.6-3.3-3.6l0,0
	c-2,0.2-3.3,1.8-3.3,3.8v5.8H40.1z"/>
<path class="st1" d="M31.6,315.3c-0.2,2,1.3,3.6,3.3,3.8l0,0c2-0.2,3.3-1.8,3.3-3.8v-6c0.2-2-1.3-3.6-3.3-3.8l0,0
	c-2,0.2-3.3,1.8-3.3,3.8l0,0V315.3z"/>
<path class="st1" d="M23.1,318.2c-0.2,2,1.3,3.6,3.3,3.8l0,0c2-0.2,3.3-1.8,3.3-3.8v-6c0.2-2-1.3-3.6-3.3-3.8l0,0
	c-2,0.2-3.3,1.8-3.3,3.8V318.2L23.1,318.2z"/>
<path class="st5" d="M21.6,311.7v6.9c-0.2,2.7,2,5.1,4.9,5.3c2.4-0.2,4.7-2,4.9-4.7c0.9,1.1,2.2,1.8,3.6,1.8
	c2.7-0.2,4.7-2.2,4.9-4.9c0.9,1.1,2.2,1.8,3.6,1.8c2.9-0.2,5.1-2.7,4.9-5.3v-6.9c0.2-2.9-2-5.3-4.9-5.3c-2.7,0.2-4.7,2.2-4.9,4.9
	c-0.9-1.1-2.2-1.8-3.6-1.8c-2.4,0.2-4.7,2.2-4.9,4.7c-0.9-1.1-2.2-1.8-3.6-1.8C23.6,306.4,21.6,308.8,21.6,311.7z M40.9,305.7
	c-0.2-1.6,1.1-2.9,2.7-3.1c1.6,0.2,2.7,1.6,2.7,3.1v6.9c0.2,1.6-1.1,2.9-2.7,3.1c-1.6-0.2-2.7-1.6-2.7-3.1V305.7L40.9,305.7z
	 M32.5,308.8c-0.2-1.6,1.1-2.9,2.7-3.1c1.6,0.2,2.7,1.6,2.4,3.1v6.9c0.2,1.6-1.1,2.9-2.7,3.1c-1.6-0.2-2.7-1.6-2.4-3.1V308.8z
	 M23.8,311.7c-0.2-1.6,1.1-2.9,2.7-3.1c1.6,0.2,2.7,1.6,2.7,3.1v6.9c0.2,1.6-1.1,2.9-2.7,3.1c-1.6-0.2-2.7-1.6-2.7-3.1V311.7z"/>
<path class="st5" d="M163.1,203.8c3.8-8.7,7.3-17.6,10-26.7c2,9.3,2.7,12,8.2,26.7c-4.9,0.2-6.7,0.2-10,0.2
	C168.2,204,166.6,204,163.1,203.8z M138.6,231.4c2.9,0,4.2,0,6.7,0c2.2,0,4.2,0,6.5,0h1.3c2.7-7.6,3.3-9.8,7.1-19.1h2.2h19.1h2.9
	c3.1,8.9,3.8,11.1,6.7,19.1c4-0.2,5.3-0.2,8.9-0.2c3.1,0,6.2,0,9.1,0h1.6l-3.8-9.8l-20-48.3l-4.4-11.1c-4.4,1.1-8.9,1.8-13.3,2.2
	l-3.3,6.7C149.5,205.8,146.8,211.4,138.6,231.4L138.6,231.4z"/>
<path class="st5" d="M214.5,225.4l0.2-24v-2c0-5.8-0.4-11.6-1.1-17.4c2.9,0.2,3.6,0.2,6.9,0.2c2.7,0,5.6,0,8.5-0.2h1.1l0.2,1.3
	c0.4,2.4,0.7,4.9,0.7,7.1c2.7-6.7,8.5-9.8,17.6-9.8c4.9-0.2,9.6,1.1,13.6,4c4.4,3.6,5.8,7.1,5.8,17.4v0.7l-0.2,26.5l0.2,2.2
	c-4-0.2-5.6-0.2-8.9-0.2c-3.3,0-4.9,0-9.1,0.2V229c0.4-5.8,0.4-11.6,0.4-17.1c0-2.9-0.2-5.8-0.2-8.7c0.2-2.9-0.2-6-0.9-8.9
	c-0.7-3.3-3.6-5.3-6.9-5.1c-6.7,0-10.5,4.7-10.5,13.1v13.6c0.2,10,0.2,10.9,0.4,15.6h-1.8c-2.9,0-5.8,0-8.7,0s-4.2,0-7.6,0.2
	L214.5,225.4z"/>
<path class="st5" d="M270.5,227.4c1.8-2.2,3.1-4.4,4.4-6.9c3.1,2.2,6.7,3.6,10.5,3.8c4.2,0,6.7-1.8,6.7-4.9c0-0.7,0-1.1-0.2-1.6
	c-0.9-1.8-2-2.9-6.7-6.2c-8.9-6.2-12-10.5-12-16c0-9.1,8.7-14.9,21.6-14.9c5.3-0.2,10.5,0.9,15.1,3.3c-0.2,0.2-0.4,0.7-0.7,0.9
	c-0.4,0.7-1.8,2.7-3.3,6l-0.4,0.9c-3.3-1.8-7.1-2.7-10.9-2.7s-6.2,1.3-6.2,3.6c0,1.3,1.3,3.1,3.8,4.9l4.4,3.1
	c8.2,5.6,12.5,11.8,12.5,17.1c0,8.9-8.7,15.1-20.9,15.1c-6.5,0.2-12.7-1.3-18.2-4.7L270.5,227.4z"/>
<path class="st5" d="M312.6,182.2h15.8h1.1l7.3,24.9c1.1,3.1,1.8,6.2,2.2,9.6c0.2-3.3,1.1-6.7,2.2-10l8.9-24.5
	c2.7,0.2,5.1,0.4,7.8,0.2c2.2,0,4.2,0,6.5-0.2l10.5,27.8c0.2,0.2,0.2,1.1,0.7,2.4c0.4,1.3,0.4,2.2,1.1,4.2
	c4.7-18.7,5.8-22.2,8.2-34.3c2,0.2,4,0.2,6,0.2c2.2,0,4.4,0,6.7-0.2h1.1l-2,6.2l-13.8,40.7l-1.1,2.2h-1.1c-2.2,0-4.4-0.2-6.9-0.2
	c-2.4,0-3.3,0-6,0.2l-9.3-25.4c-0.2-0.4-0.4-0.7-0.4-1.1c-1.6-4.4-2.4-7.1-2.7-8c0-0.4-0.2-1.6-0.4-3.1l-0.7,2.7l-2.7,9.8l-7.8,24.9
	c-2.4-0.2-5.1-0.4-7.8-0.4c-2.4,0-5.1,0.2-7.6,0.4l-0.9-2.7l-7.3-22.2l-6.9-19.4l-1.8-5.1L312.6,182.2z"/>
<path class="st5" d="M488.7,194.7c-0.9-0.7-1.6-1.1-2-1.3c-2-1.1-4.4-1.6-6.7-1.6c-2.4,0-4.7,0.7-6.7,2.2c-2,1.8-2.7,3.8-3.1,8.7
	v13.3c0,9.8,0.2,10.9,0.2,15.6h-1.8c-2.9,0-5.8-0.2-8.9-0.2c-3.1,0-4.2,0-7.6,0.2l0.2-2.4c0.2-5.8,0.2-15.1,0.2-27.6v-6.5
	c0-4.2-0.4-8.7-1.1-12.9c2.9,0.2,3.6,0.2,6.9,0.2c2.7,0,5.6,0,8.5-0.2h1.1l0.2,1.3l0.2,4.7l0.2,3.8c1.6-3.3,4-6.2,7.1-8.5
	c3.1-1.8,6.5-2.7,10-2.4c3.3,0,6.7,0.7,9.8,2.2c-0.2,0.4-0.4,0.9-0.7,1.3c-3.1,5.8-4.7,8.9-4.9,9.6c0,0.4-0.2,0.7-0.2,1.1
	L488.7,194.7z"/>
<path class="st6" d="M431.8,201.2h-18.2c0.9-5.6,3.3-10.2,9.1-10.2S430.9,194.7,431.8,201.2z M413.3,209.8H448
	c0-20.2-11.8-28.7-24.7-28.7c-13.8,0-25.8,10.2-25.8,26.7s10.7,26.2,26.2,26.2c14.2,0,18.2-2.4,21.6-4l-2.9-8.5
	c-4.2,1.6-8.7,2.4-13.1,2.4C418,224.1,413.3,217.8,413.3,209.8L413.3,209.8z"/>
<path class="st5" d="M136.2,326.2l5.1-20l1.1-4.4l6.2-27.1c-4.7,0-5.1,0-8.5,0c0.4-1.3,0.9-2.7,1.1-4.2c2.9,0.2,3.8,0.2,7.3,0.2h0.9
	l0.9-4.4c1.6-8,3.1-11.1,7.1-14.2c3.1-2,6.9-3.1,10.7-3.1c3.3,0,6.7,0.7,9.6,2.2c-0.9,1.1-1.6,2.2-2.2,3.6c-2.2-1.1-4.4-1.8-6.9-1.8
	c-2.4-0.2-4.9,0.7-6.7,2.4c-2.4,2.7-3.6,5.6-5.3,15.1h3.6c4.4,0,5.3,0,9.3-0.2c-0.4,1.6-0.7,2.9-0.9,4.4c-4.2-0.2-5.3-0.2-10.7-0.2
	h-2l-6.2,27.4l-1.1,4.9l-4.9,19.6l-2.7,10.2l-1.1-0.2c-2.9-0.7-3.6-0.9-6-1.3L136.2,326.2z"/>
<path class="st5" d="M180.2,270.1c1.3,0,2.2,0,3.8,0l-0.9,4l-8.5,36.3l-0.9,4c-1.8,0-2.4,0-3.8,0c-1.3,0-2.2,0-4,0l0.9-4l8.5-36.5
	l0.9-4C178,270.1,178.6,270.1,180.2,270.1z M181.8,261.9c-1.8,0-2.7-1.3-2.7-3.8c0-3.8,2.4-7.1,5.1-7.1c1.8,0.2,2.9,1.6,2.9,3.3v0.2
	C187.1,258.5,184.6,261.9,181.8,261.9L181.8,261.9z"/>
<path class="st5" d="M187.8,311.5l5.3-21.4c1.8-6.5,2.9-13.3,3.3-20c1.3,0,2,0,3.3,0c1.3,0,2,0,3.8,0c-0.7,6.2-1.8,12.5-3.3,18.7
	c1.8-3.6,4-7.1,6.5-10c5.1-6.5,10.9-9.6,17.1-9.6s9.1,3.8,9.1,10.2c0,1.1,0,2-0.2,3.1c-0.9,6-4.7,20.9-7.6,30.7l-0.2,1.3
	c-2,0-2.7,0-4.2,0s-2,0-3.8,0c5.6-18.9,8-29.6,8-34s-1.3-6-4.7-6c-3.8,0-8.7,3.6-14,10c-1.3,1.6-2.4,3.1-3.8,4.9
	c-1.8,2.2-3.1,4.9-3.8,7.8l-4.2,17.6c-2,0-2.7,0-4.2,0c-1.1,0-1.8,0-3.1,0L187.8,311.5z"/>
<path class="st5" d="M275.6,281.2l-2,8.2c-2.2,5.1-5.3,9.8-9.6,13.8c-2.2,2.2-4.9,4-7.6,5.6c-1.6,0.7-3.3,1.1-5.1,1.3
	c-3.8,0-5.8-2.7-5.8-7.8c0-11.8,7.8-24.7,17.1-28c1.3-0.4,2.9-0.9,4.4-0.9C271.6,273.4,275.4,276.8,275.6,281.2z M268.3,314.6
	c1.3,0,1.8,0,2.7,0h2.7h1.3c1.8-11.3,4.4-22.7,7.8-33.8c0.2-0.7,0.4-1.3,0.7-2c0.9-2.9,2-5.8,3.3-8.7c-2.4,0-3.3,0-4.4,0
	s-1.3,0-2.4,0c-0.7,1.8-1.3,3.3-2,5.1c-2-4-6.5-6.5-10.9-6.2c-14.9,0-29.6,16.2-29.6,32.9c0,8.5,4.2,13.1,11.3,13.1
	c3.6,0,7.1-1.1,10.2-2.9c4.7-2.9,8.7-6.9,11.3-11.6c0.9-1.1,1.6-2.4,2.4-3.8C270.5,305.9,269.8,308.1,268.3,314.6z"/>
<path class="st5" d="M289,311.5l5.3-21.4c1.8-6.5,2.9-13.3,3.3-20c1.3,0,2,0,3.3,0c1.3,0,2,0,3.8,0c-0.7,6.2-1.8,12.5-3.3,18.7
	c1.8-3.6,4-7.1,6.5-10c5.1-6.5,10.9-9.6,17.1-9.6s9.1,3.8,9.1,10.2c0,1.1,0,2-0.2,3.1c-1.1,6-4.7,20.9-7.8,30.9l-0.2,1.3
	c-2,0-2.7,0-4.2,0s-2,0-3.6,0c5.6-19.1,8.2-29.6,8.2-34s-1.3-6-4.7-6c-3.8,0-8.7,3.6-14,10c-1.3,1.6-2.4,3.1-3.6,4.9
	c-1.8,2.2-3.1,4.9-3.8,7.8l-4.2,17.6c-2,0-2.7,0-4.2,0c-1.1,0-1.8,0-3.1,0L289,311.5z"/>
<path class="st5" d="M366.8,272.8c-9.3,0-18.5,11.6-18.5,23.8c0,8.9,4.7,13.8,12.7,13.8c4,0,7.8-0.9,11.3-2.7l2,2.9
	c-4.7,3.1-10.5,4.9-16.2,4.9c-10.9,0-18.2-7.6-18.2-18.5c-0.2-15.1,11.8-27.6,26.7-27.8c0.2,0,0.2,0,0.4,0c8.5,0,13.6,3.8,14.7,11.1
	c-2.7,0.2-5.1,0.9-7.8,1.8C373.7,275.9,371.3,272.8,366.8,272.8z"/>
<path class="st5" d="M395.3,270.1c1.3,0,2.2,0,3.8,0l-0.9,4l-8.7,36.5l-0.9,4c-1.8,0-2.4,0-3.8,0s-2.2,0-4,0l0.9-4l8.5-36.5l0.9-4
	C393.1,270.1,393.7,270.1,395.3,270.1z M396.9,261.9c-1.8,0-2.7-1.3-2.7-3.8c0-3.8,2.4-7.1,5.1-7.1c1.8,0.2,2.9,1.6,2.9,3.3v0.2
	C402.2,258.5,399.8,261.9,396.9,261.9L396.9,261.9z"/>
<path class="st5" d="M439.8,281.2l-2,8.2c-2.2,5.1-5.3,9.8-9.6,13.8c-2.2,2.2-4.9,4-7.6,5.6c-1.6,0.7-3.3,1.1-5.1,1.3
	c-3.6,0-5.8-2.7-5.8-7.8c0-11.8,7.8-24.7,17.1-28c1.3-0.4,2.9-0.9,4.4-0.9C435.8,273.4,439.6,276.8,439.8,281.2z M432.5,314.6
	c1.3,0,1.8,0,2.7,0h2.7h1.3c1.8-11.3,4.4-22.7,7.8-33.8c0.2-0.7,0.4-1.3,0.7-2c0.9-2.9,2-5.8,3.3-8.7c-2.4,0-3.3,0-4.4,0
	s-1.3,0-2.4,0c-0.7,1.8-1.3,3.3-2,5.1c-2-4-6.5-6.5-10.9-6.2c-14.9,0-29.6,16.2-29.6,32.9c0,8.5,4.2,13.1,11.3,13.1
	c3.6,0,7.1-1.1,10.2-2.9c4.7-2.9,8.7-6.9,11.3-11.6c0.9-1.1,1.6-2.4,2.4-3.8C434.5,305.9,433.8,308.1,432.5,314.6L432.5,314.6z"/>
<path class="st5" d="M453.4,309.9l13.3-56.9l0.9-4h0.4h6.7h0.4l-0.9,4l-13.3,56.9l-1.1,4.7h-0.2c-1.3,0-2.9,0-4.2,0
	c-1.3,0-1.6,0-3.1,0L453.4,309.9z"/>
<path class="st5" d="M475.8,299.5c4,0.2,7.1,3.6,7.1,7.6c-0.2,4-3.6,7.1-7.6,6.9s-7.1-3.6-6.9-7.6
	C468.7,302.4,471.8,299.5,475.8,299.5z M474.3,306.4V303h0.9c0.9-0.2,1.8,0.4,2,1.3v0.2c0,1.1-0.7,1.8-1.8,1.8h-0.2H474.3
	L474.3,306.4z M480.1,311.9l-3.1-4.9c1.1-0.2,2-1.3,2-2.4c0-1.6-1.3-2.4-3.3-2.4h-2.9v10h1.6v-4.4h1.1l2.7,4.7h2V311.9z
	 M475.8,297.9c-4.9,0-8.9,4-8.9,8.9c0,4.9,4,8.9,8.9,8.9c4.9,0,8.9-4,8.9-8.9l0,0c0.2-4.7-3.6-8.7-8.5-8.9
	C476.1,297.9,476.1,297.9,475.8,297.9z"/>
</svg>
