<?xml version="1.0" encoding="utf-8"?>
<!-- Generator: Adobe Illustrator 19.1.0, SVG Export Plug-In . SVG Version: 6.00 Build 0)  -->
<svg version="1.1" id="Layer_1" xmlns="http://www.w3.org/2000/svg" xmlns:xlink="http://www.w3.org/1999/xlink" x="0px" y="0px"
	 viewBox="-231 233 36 36" style="enable-background:new -231 233 36 36;" xml:space="preserve">
<style type="text/css">
	.st0{fill:#FFFFFF;}
</style>
<rect x="-221.1" y="243" width="15.9" height="15.9"/>
<g>
	<path class="st0" d="M-147.9,248.8"/>
</g>
<path class="st0" d="M-211.3,249.3l-0.6,3.5c-0.1,0.8-0.3,1.2-1.5,1.2h-1.5l1.1-5.9h1.3c0.9,0,1.2,0.3,1.2,0.8
	C-211.2,248.9-211.2,249.1-211.3,249.3 M-211.9,246.2h-3.7l-1.7,9.8h4c2.8,0,3.3-1.2,3.5-2.5l0.7-4.3c0-0.2,0.1-0.4,0.1-0.5
	C-209.1,247.3-209.8,246.2-211.9,246.2"/>
</svg>
