<?xml version="1.0" encoding="utf-8"?>
<!-- Generator: Adobe Illustrator 19.2.1, SVG Export Plug-In . SVG Version: 6.00 Build 0)  -->
<svg version="1.1" xmlns="http://www.w3.org/2000/svg" xmlns:xlink="http://www.w3.org/1999/xlink" x="0px" y="0px"
	 viewBox="0 0 500 500" style="enable-background:new 0 0 500 500;" xml:space="preserve">
<style type="text/css">
	.st0{fill-rule:evenodd;clip-rule:evenodd;}
	.st1{fill-rule:evenodd;clip-rule:evenodd;fill:#FFFFFF;}
	.st2{fill:none;stroke:#000000;stroke-width:3;}
	.st3{fill:#FFFFFF;}
	.st4{fill:none;}
	.st5{clip-path:url(#SVGID_2_);}
	.st6{fill-rule:evenodd;clip-rule:evenodd;fill:none;}
	.st7{enable-background:new    ;}
	.st8{stroke:#FFFFFF;stroke-width:0.45;stroke-miterlimit:3.8637;}
	.st9{fill:#424242;}
	.st10{display:none;}
	.st11{fill:#E8E8E8;}
	.st12{fill:#B2B2B2;}
	.st13{fill:#262626;}
	.st14{fill:#C2C2C2;}
	.st15{fill:#383838;}
	.st16{fill:#FFFFFF;stroke:#000000;stroke-width:0.7;stroke-linecap:round;stroke-linejoin:round;}
	.st17{fill:#FFFFFF;stroke:#000000;stroke-width:1.5;stroke-linecap:round;stroke-linejoin:round;}
	.st18{fill:#FFFFFF;stroke:#000000;stroke-width:0.7;}
	.st19{fill:#BABABA;}
	.st20{fill:#939393;}
	.st21{fill:#E6E6E6;}
	.st22{fill:#545454;}
	.st23{filter:url(#Adobe_OpacityMaskFilter);}
	.st24{mask:url(#SVGID_3_);}
	.st25{fill:url(#SVGID_4_);}
	.st26{opacity:0.42;fill:url(#SVGID_5_);}
	.st27{fill:none;stroke:#FFFFFF;stroke-width:2;}
	.st28{fill:#FFFFFF;stroke:#000000;stroke-width:0.25;stroke-miterlimit:10;}
	.st29{fill:none;stroke:#000000;stroke-miterlimit:10;}
	.st30{fill:#F5F5F5;}
	.st31{fill:#FAFAFA;}
	.st32{fill:#ECECEC;}
	.st33{fill:#C1C1C1;}
	.st34{fill:#A5A5A5;}
	.st35{fill:#C3C3C3;}
	.st36{fill:#D0D0D0;}
	.st37{fill:#8C8C8C;}
	.st38{fill:#C0C0C0;}
	.st39{fill:#C5C5C5;}
	.st40{fill:#CBCBCB;}
	.st41{fill:#C9C9C9;}
	.st42{fill:#BFBFBF;}
	.st43{fill:#BDBDBD;}
	.st44{fill:#BCBCBC;}
	.st45{fill:#B9B9B9;}
	.st46{fill:#B8B8B8;}
	.st47{fill:#8B8B8B;}
	.st48{fill:#FCFCFC;}
	.st49{fill:#F7F7F7;}
	.st50{fill:#ADADAD;}
	.st51{fill:#CCCCCC;}
	.st52{fill:#E1E1E1;}
	.st53{fill:#D8D8D8;}
	.st54{fill:#CECECE;}
	.st55{fill:#EBEBEB;}
	.st56{fill:#CFCFCF;}
	.st57{fill:#A8A8A8;}
	.st58{fill:#A0A0A0;}
	.st59{fill:#AFAFAF;}
	.st60{fill:#B6B6B6;}
	.st61{fill:#ABABAB;}
	.st62{fill:#8A8A8A;}
	.st63{fill:#C6C6C6;}
	.st64{fill:#191919;}
	.st65{fill:#818181;}
	.st66{fill:#DEDEDE;}
	.st67{fill:#F1F1F1;}
	.st68{fill:#B7B7B7;}
	.st69{fill:#5A5A5A;}
	.st70{fill:#B5B5B5;}
	.st71{fill:#AAAAAA;}
	.st72{fill:#212121;}
	.st73{fill:#B1B1B1;}
	.st74{fill:#5B5B5B;}
	.st75{fill:#595959;}
	.st76{fill:#F8F8F8;}
	.st77{fill:#858585;}
	.st78{fill:#696969;}
	.st79{fill:#7C7C7C;}
	.st80{fill:#666666;}
	.st81{fill:#6F6F6F;}
	.st82{fill:#A2A2A2;}
	.st83{fill:#494949;}
	.st84{fill:#D4D4D4;}
	.st85{fill:#757575;}
	.st86{fill:#3E3E3E;}
	.st87{fill:#EDEDED;}
	.st88{fill:#111111;}
	.st89{fill:#F2F2F2;}
	.st90{fill:#FEFEFE;}
	.st91{fill:#898989;}
	.st92{fill:#040404;}
	.st93{fill:#8E8E8E;}
	.st94{fill:#080808;}
	.st95{fill:#8D8D8D;}
	.st96{fill:#929292;}
	.st97{fill:#8F8F8F;}
	.st98{fill:#242424;}
	.st99{fill:#2F2F2F;}
	.st100{fill:#181818;}
	.st101{fill:#3A3A3A;}
	.st102{fill:#A6A6A6;}
	.st103{fill:#141414;}
	.st104{fill:#B4B4B4;}
	.st105{fill:#787878;}
	.st106{fill:#585858;}
	.st107{fill:#1B1B1B;}
	.st108{fill:#4C4C4C;}
	.st109{fill:#CDCDCD;}
	.st110{fill:#7B7B7B;}
	.st111{fill:#888888;}
	.st112{fill:#161616;}
	.st113{fill:#636363;}
	.st114{fill:#515151;}
	.st115{fill:#151515;}
	.st116{fill:#1F1F1F;}
	.st117{fill:#0C0C0C;}
	.st118{fill:#838383;}
	.st119{fill:#444444;}
	.st120{fill:#101010;}
	.st121{fill:#010101;}
	.st122{fill:#282828;}
	.st123{fill:#5D5D5D;}
	.st124{fill:#828282;}
	.st125{fill:#7E7E7E;}
	.st126{fill:#727272;}
	.st127{fill:#555555;}
	.st128{fill:#2A2A2A;}
	.st129{fill:#434343;}
	.st130{fill:#5F5F5F;}
	.st131{fill:#878787;}
	.st132{fill:#4B4B4B;}
	.st133{fill:#767676;}
	.st134{fill:#BBBBBB;}
	.st135{fill:#050505;}
	.st136{fill:#0B0B0B;}
	.st137{fill:#252525;}
	.st138{fill:#808080;}
	.st139{fill:#969696;}
	.st140{fill:#737373;}
	.st141{fill:#3D3D3D;}
	.st142{fill:#5E5E5E;}
	.st143{fill:#484848;}
	.st144{fill:#232323;}
	.st145{fill:#747474;}
	.st146{fill:#505050;}
	.st147{fill:#454545;}
	.st148{fill:#171717;}
	.st149{fill:#7F7F7F;}
	.st150{fill:#3C3C3C;}
	.st151{fill:#B0B0B0;}
	.st152{fill:#A9A9A9;}
	.st153{fill:#222222;}
	.st154{fill:#575757;}
	.st155{fill:#4A4A4A;}
	.st156{fill:#7A7A7A;}
	.st157{fill:#404040;}
	.st158{fill:#646464;}
	.st159{fill:#1A1A1A;}
	.st160{fill:#303030;}
	.st161{fill:#343434;}
	.st162{fill:#979797;}
	.st163{fill:#DDDDDD;}
	.st164{fill:#CACACA;}
	.st165{fill:#D3D3D3;}
	.st166{fill:#ACACAC;}
	.st167{fill:#AEAEAE;}
	.st168{fill:#999999;}
	.st169{fill:#676767;}
	.st170{fill:#292929;}
	.st171{fill:#9E9E9E;}
	.st172{fill:#9A9A9A;}
	.st173{fill:#464646;}
	.st174{fill:#474747;}
	.st175{fill:#202020;}
	.st176{fill:#323232;}
	.st177{fill:#4E4E4E;}
	.st178{fill:#9D9D9D;}
	.st179{fill:#C7C7C7;}
	.st180{fill:#3B3B3B;}
	.st181{fill:#C8C8C8;}
	.st182{fill:#D2D2D2;}
	.st183{fill:#BEBEBE;}
	.st184{fill:#C4C4C4;}
	.st185{fill:#717171;}
	.st186{fill:#020202;}
	.st187{fill:#606060;}
	.st188{fill:#414141;}
	.st189{fill:#6B6B6B;}
	.st190{fill:#5C5C5C;}
	.st191{fill:#2E2E2E;}
	.st192{fill:#909090;}
	.st193{fill:#2C2C2C;}
	.st194{fill:#686868;}
	.st195{fill:#070707;}
	.st196{fill:#4D4D4D;}
	.st197{fill:#9C9C9C;}
	.st198{fill:#949494;}
	.st199{fill:#6C6C6C;}
	.st200{fill:#363636;}
	.st201{display:inline;}
	.st202{fill-rule:evenodd;clip-rule:evenodd;fill:#1683C6;}
</style>
<g id="Layer_1">
	<g>
		<path class="st6" d="M221.3,132.8c10.5-3.5,20.6,9.3,20.6,9.3l5.9-1h7c22.3,4.3,39.7,25.2,50.9,39.4c6,7.6,20.6,13.9,29.9,15.9
			c5,1.1,3.3,0.9,8.3,5c5.6,4.6,1.3,12.9-3.7,19.5c-2.5,3.3-11.3,13.3-14,15.9c-9.3,9.3-30.2,20.5-43.5,27.8
			c-10,5.5-53,24.5-67.5,24.5c-10,0-36.2,1-25.3-20.9l4-7.9c2.3-5.6,5-14,5-17.9c2.3-12.3-12.3-46.1,0-68.6
			c3.4-6.3,10.4-15.5,10.3-16.2c-1.3-7.6,0-12.3,2.3-16.9C216,136.5,215.3,134.8,221.3,132.8L221.3,132.8z"/>
		<path class="st0" d="M263,283.9h71.3v-50.8C310.1,260.1,269,282.2,263,283.9L263,283.9z"/>
		<path class="st0" d="M229.9,130.9c10,1.8,13.2,8.9,12.9,8.7c22.6-2.7,31.9,3.6,43,13.4c13.4,11.8,22.4,24.3,26,27.9
			c7.5,7.4,16.1,8.7,20.6,8.9c-5.6-16.1-13.7-35.7-41.1-50.9C266.4,125.1,235.1,128.7,229.9,130.9L229.9,130.9z"/>
		<path class="st0" d="M241.4,145.9c16.3,0.6,20.9,8.3,20.9,8.3c11,10.3,19.6,32.4,27.6,38.4c3.1-0.9,5.6-1.8,14.4-2
			c-6.2-0.6-17-18-17-18.1c-3.1-5.7-10.9-17.8-22.6-24C252.5,142.2,241.4,145.9,241.4,145.9L241.4,145.9z"/>
		<path class="st0" d="M211.6,136.7c-7.4,7.1-6.7,17.2-5.8,21.9c-13.7,12-18.2,32.1-16.9,51.8c-0.2,10,3.6,24.6,2.9,32.5
			c0.2,4.4-0.3,10.7-7,20.7c-6.1,9.1-7.2,14.7-7.5,19.6h-15.3c0,0,0-78.2,0-78.4C164.8,161.2,198.9,141.8,211.6,136.7L211.6,136.7z"
			/>
		<path class="st0" d="M216,136.5c-7.7,7.2-2.6,18.3-2.6,18.3c0.8-1.4,13-8.9,20.7-10c-29.5,13-34.1,28.8-29.8,56.5
			c1.9,11.9,4.3,19.6,5.5,31.9c-7.2,6-11.8,15.4-11.8,15.4c1.7-10.9-2.6-25.6-4.3-40c-2.3-19.4,1.7-36.8,15.3-50.4
			C209,158.2,204.4,144,216,136.5L216,136.5z"/>
		<path class="st0" d="M257.9,221c60.7-28.8,69.3-10,69.3-10c9.8,21-45.2,51.3-49,52.7c-1.7,1.6-59.2,30.1-72,9.2
			c-0.5-1.8-6-16.7,34.1-47.3c19.9-15.2,45.8-25.9,67.2-31.7c-10.4,1.5-28.8,3.8-67.4,24.7c-34.6,19.9-58.9,52.2-52.3,65.2
			c18.7,17.4,66.8-4.2,88.3-14.7c32.6-14.9,78-48.6,70.3-67.4C329.4,179.3,257.7,219.7,257.9,221L257.9,221z"/>
		<polygon class="st0" points="152.8,301.2 199.4,301.2 195.8,308.7 184.9,308.7 184.9,330.6 167.5,330.6 167.5,308.7 156.7,308.7 
			152.8,301.2 		"/>
		<path class="st0" d="M206.3,301.2h22.5l15.8,29.4h-17.6l-2.2-5.8h-15.1l-2.5,5.8h-17.2L206.3,301.2L206.3,301.2z M212.5,317.6h9.1
			l-4.4-8.9L212.5,317.6L212.5,317.6z"/>
		<path class="st4" d="M206.3,301.2h22.5l15.8,29.4h-17.6l-2.2-5.8h-15.1l-2.5,5.8h-17.2L206.3,301.2L206.3,301.2z M212.5,317.6h9.1
			l-4.4-8.9L212.5,317.6L212.5,317.6z"/>
		<polygon class="st0" points="215.5,342.2 256.8,342.2 253.4,349.1 232.7,349.1 232.7,353.1 252,353.1 252,359.8 232.7,359.8 
			232.7,364.1 255.8,364.1 255.8,371.2 215.5,371.2 215.5,342.2 		"/>
		<path class="st0" d="M259.4,342.2h18.3v21.9h21.9l-3.6,7.1h-31.2c-4.6,0-5.5-4-5.5-4V342.2L259.4,342.2z"/>
		<path class="st0" d="M302.3,342.2h18.4v21.9h21.9l-3.6,7.1h-31.2c-4.6,0-5.5-4-5.5-4V342.2L302.3,342.2z"/>
		<path class="st0" d="M282.5,308.7c0,0-12.5-0.9-15.7,0.7c0,0.2-6,0.4-6.2,6.5c0.5,8.9,12,7.6,12,7.6c2.4,0.6,12-1.1,12-1.1v7.4
			c0,0-7.7,1.5-15.1,1.5c-2.1-0.7-26.6,1.1-27.1-13.8c-2.6-17,27.6-16.3,27.6-16.3c10.5,0,15.6,1.3,15.6,1.3L282.5,308.7
			L282.5,308.7z"/>
		<path class="st0" d="M305.3,316.7c0-4.4,1.9-9.1,7.4-8.9c4.3,0,7.2,4,6.9,8.9c0.3,5.1-2.1,8.1-6.9,8.1
			C307.6,324.8,305.3,321.2,305.3,316.7L305.3,316.7z M287.2,316.3c0-8.3,10.8-15,25.1-15c14.2,0,25.7,5.3,25.7,15
			c0.1,10.2-11.5,15-25.7,15C298,331.3,287,326.1,287.2,316.3L287.2,316.3z"/>
		<path class="st4" d="M305.3,316.7c0-4.4,1.9-9.1,7.4-8.9c4.3,0,7.2,4,6.9,8.9c0.3,5.1-2.1,8.1-6.9,8.1
			C307.6,324.8,305.3,321.2,305.3,316.7 M287.2,316.3c0-8.3,10.8-15,25.1-15c14.2,0,25.7,5.3,25.7,15c0.1,10.2-11.5,15-25.7,15
			C298,331.3,287,326.1,287.2,316.3"/>
		<path class="st0" d="M167.5,342.2H202c0,0,9.6,0.7,8.8,6.9c0.8,5.8-5.3,6.9-5.3,6.9s5.5,0.7,6.2,6.7c0.9,7.4-8.2,8.5-8.2,8.5
			h-35.8V342.2L167.5,342.2z M184.2,347.8v5.3h8.6c0,0,3.1,0,2.4-2.9c0-2-2.2-2.4-2.2-2.4H184.2v11.3v5.6h8.6c0,0,3.8-0.2,3.1-3.1
			c0-1.8-2.9-2.5-2.9-2.5h-8.8V347.8L184.2,347.8z"/>
		<path class="st4" d="M167.5,342.2H202 M202,342.2c0,0,9.6,0.7,8.8,6.9c0.8,5.8-5.3,6.9-5.3,6.9s5.5,0.7,6.2,6.7
			c0.9,7.4-8.2,8.5-8.2,8.5 M203.4,371.2h-35.8v-29 M184.2,347.8v5.3h8.6 M192.7,353.1c0,0,3.1,0,2.4-2.9c0-2-2.2-2.4-2.2-2.4
			 M192.9,347.8h-8.8 M184.2,359.1v5.6h8.6 M192.7,364.7c0,0,3.8-0.2,3.1-3.1c0-1.8-2.9-2.5-2.9-2.5 M192.9,359.1h-8.8"/>
		<path class="st0" d="M213.7,269.1c-4-9,16.8-28.1,46.3-42.7c29.6-14.6,56.8-19.1,60.8-10.1c4,9-16.8,28.1-46.4,42.7
			C244.8,273.6,217.6,278.1,213.7,269.1L213.7,269.1z"/>
		<path class="st1" d="M221.3,255.9c-0.1-0.3,3.3-2.9,3.5-2.9c1.4,2.6,8,8,23.8,4.4c-11.6,0.7-18.8-9.6-12.7-12.3
			c1.5-0.9,23.3-13.9,26.4-11.4c5,13.8-4.4,25.5-14.2,28.8C239.9,265.2,228.4,265.7,221.3,255.9L221.3,255.9z"/>
	</g>
</g>
<g id="Layer_2">
</g>
</svg>
