<?xml version="1.0" encoding="utf-8"?>
<!-- Generator: Adobe Illustrator 19.2.1, SVG Export Plug-In . SVG Version: 6.00 Build 0)  -->
<svg version="1.1" xmlns="http://www.w3.org/2000/svg" xmlns:xlink="http://www.w3.org/1999/xlink" x="0px" y="0px"
	 viewBox="0 0 500 500" style="enable-background:new 0 0 500 500;" xml:space="preserve">
<style type="text/css">
	.st0{fill-rule:evenodd;clip-rule:evenodd;}
	.st1{fill-rule:evenodd;clip-rule:evenodd;fill:#FFFFFF;}
	.st2{fill:none;stroke:#000000;stroke-width:3;}
	.st3{fill:#FFFFFF;}
	.st4{fill:none;}
	.st5{clip-path:url(#SVGID_2_);}
	.st6{fill-rule:evenodd;clip-rule:evenodd;fill:none;}
	.st7{enable-background:new    ;}
	.st8{stroke:#FFFFFF;stroke-width:0.45;stroke-miterlimit:3.8637;}
	.st9{fill:#424242;}
	.st10{display:none;}
	.st11{fill:#E8E8E8;}
	.st12{fill:#B2B2B2;}
	.st13{fill:#262626;}
	.st14{fill:#C2C2C2;}
	.st15{fill:#383838;}
	.st16{fill:#FFFFFF;stroke:#000000;stroke-width:0.7;stroke-linecap:round;stroke-linejoin:round;}
	.st17{fill:#FFFFFF;stroke:#000000;stroke-width:1.5;stroke-linecap:round;stroke-linejoin:round;}
	.st18{fill:#FFFFFF;stroke:#000000;stroke-width:0.7;}
	.st19{fill:#BABABA;}
	.st20{fill:#939393;}
	.st21{fill:#E6E6E6;}
	.st22{fill:#545454;}
	.st23{filter:url(#Adobe_OpacityMaskFilter);}
	.st24{mask:url(#SVGID_3_);}
	.st25{fill:url(#SVGID_4_);}
	.st26{opacity:0.42;fill:url(#SVGID_5_);}
	.st27{fill:none;stroke:#FFFFFF;stroke-width:2;}
	.st28{fill:#FFFFFF;stroke:#000000;stroke-width:0.25;stroke-miterlimit:10;}
	.st29{fill:none;stroke:#000000;stroke-miterlimit:10;}
	.st30{fill:#F5F5F5;}
	.st31{fill:#FAFAFA;}
	.st32{fill:#ECECEC;}
	.st33{fill:#C1C1C1;}
	.st34{fill:#A5A5A5;}
	.st35{fill:#C3C3C3;}
	.st36{fill:#D0D0D0;}
	.st37{fill:#8C8C8C;}
	.st38{fill:#C0C0C0;}
	.st39{fill:#C5C5C5;}
	.st40{fill:#CBCBCB;}
	.st41{fill:#C9C9C9;}
	.st42{fill:#BFBFBF;}
	.st43{fill:#BDBDBD;}
	.st44{fill:#BCBCBC;}
	.st45{fill:#B9B9B9;}
	.st46{fill:#B8B8B8;}
	.st47{fill:#8B8B8B;}
	.st48{fill:#FCFCFC;}
	.st49{fill:#F7F7F7;}
	.st50{fill:#ADADAD;}
	.st51{fill:#CCCCCC;}
	.st52{fill:#E1E1E1;}
	.st53{fill:#D8D8D8;}
	.st54{fill:#CECECE;}
	.st55{fill:#EBEBEB;}
	.st56{fill:#CFCFCF;}
	.st57{fill:#A8A8A8;}
	.st58{fill:#A0A0A0;}
	.st59{fill:#AFAFAF;}
	.st60{fill:#B6B6B6;}
	.st61{fill:#ABABAB;}
	.st62{fill:#8A8A8A;}
	.st63{fill:#C6C6C6;}
	.st64{fill:#191919;}
	.st65{fill:#818181;}
	.st66{fill:#DEDEDE;}
	.st67{fill:#F1F1F1;}
	.st68{fill:#B7B7B7;}
	.st69{fill:#5A5A5A;}
	.st70{fill:#B5B5B5;}
	.st71{fill:#AAAAAA;}
	.st72{fill:#212121;}
	.st73{fill:#B1B1B1;}
	.st74{fill:#5B5B5B;}
	.st75{fill:#595959;}
	.st76{fill:#F8F8F8;}
	.st77{fill:#858585;}
	.st78{fill:#696969;}
	.st79{fill:#7C7C7C;}
	.st80{fill:#666666;}
	.st81{fill:#6F6F6F;}
	.st82{fill:#A2A2A2;}
	.st83{fill:#494949;}
	.st84{fill:#D4D4D4;}
	.st85{fill:#757575;}
	.st86{fill:#3E3E3E;}
	.st87{fill:#EDEDED;}
	.st88{fill:#111111;}
	.st89{fill:#F2F2F2;}
	.st90{fill:#FEFEFE;}
	.st91{fill:#898989;}
	.st92{fill:#040404;}
	.st93{fill:#8E8E8E;}
	.st94{fill:#080808;}
	.st95{fill:#8D8D8D;}
	.st96{fill:#929292;}
	.st97{fill:#8F8F8F;}
	.st98{fill:#242424;}
	.st99{fill:#2F2F2F;}
	.st100{fill:#181818;}
	.st101{fill:#3A3A3A;}
	.st102{fill:#A6A6A6;}
	.st103{fill:#141414;}
	.st104{fill:#B4B4B4;}
	.st105{fill:#787878;}
	.st106{fill:#585858;}
	.st107{fill:#1B1B1B;}
	.st108{fill:#4C4C4C;}
	.st109{fill:#CDCDCD;}
	.st110{fill:#7B7B7B;}
	.st111{fill:#888888;}
	.st112{fill:#161616;}
	.st113{fill:#636363;}
	.st114{fill:#515151;}
	.st115{fill:#151515;}
	.st116{fill:#1F1F1F;}
	.st117{fill:#0C0C0C;}
	.st118{fill:#838383;}
	.st119{fill:#444444;}
	.st120{fill:#101010;}
	.st121{fill:#010101;}
	.st122{fill:#282828;}
	.st123{fill:#5D5D5D;}
	.st124{fill:#828282;}
	.st125{fill:#7E7E7E;}
	.st126{fill:#727272;}
	.st127{fill:#555555;}
	.st128{fill:#2A2A2A;}
	.st129{fill:#434343;}
	.st130{fill:#5F5F5F;}
	.st131{fill:#878787;}
	.st132{fill:#4B4B4B;}
	.st133{fill:#767676;}
	.st134{fill:#BBBBBB;}
	.st135{fill:#050505;}
	.st136{fill:#0B0B0B;}
	.st137{fill:#252525;}
	.st138{fill:#808080;}
	.st139{fill:#969696;}
	.st140{fill:#737373;}
	.st141{fill:#3D3D3D;}
	.st142{fill:#5E5E5E;}
	.st143{fill:#484848;}
	.st144{fill:#232323;}
	.st145{fill:#747474;}
	.st146{fill:#505050;}
	.st147{fill:#454545;}
	.st148{fill:#171717;}
	.st149{fill:#7F7F7F;}
	.st150{fill:#3C3C3C;}
	.st151{fill:#B0B0B0;}
	.st152{fill:#A9A9A9;}
	.st153{fill:#222222;}
	.st154{fill:#575757;}
	.st155{fill:#4A4A4A;}
	.st156{fill:#7A7A7A;}
	.st157{fill:#404040;}
	.st158{fill:#646464;}
	.st159{fill:#1A1A1A;}
	.st160{fill:#303030;}
	.st161{fill:#343434;}
	.st162{fill:#979797;}
	.st163{fill:#DDDDDD;}
	.st164{fill:#CACACA;}
	.st165{fill:#D3D3D3;}
	.st166{fill:#ACACAC;}
	.st167{fill:#AEAEAE;}
	.st168{fill:#999999;}
	.st169{fill:#676767;}
	.st170{fill:#292929;}
	.st171{fill:#9E9E9E;}
	.st172{fill:#9A9A9A;}
	.st173{fill:#464646;}
	.st174{fill:#474747;}
	.st175{fill:#202020;}
	.st176{fill:#323232;}
	.st177{fill:#4E4E4E;}
	.st178{fill:#9D9D9D;}
	.st179{fill:#C7C7C7;}
	.st180{fill:#3B3B3B;}
	.st181{fill:#C8C8C8;}
	.st182{fill:#D2D2D2;}
	.st183{fill:#BEBEBE;}
	.st184{fill:#C4C4C4;}
	.st185{fill:#717171;}
	.st186{fill:#020202;}
	.st187{fill:#606060;}
	.st188{fill:#414141;}
	.st189{fill:#6B6B6B;}
	.st190{fill:#5C5C5C;}
	.st191{fill:#2E2E2E;}
	.st192{fill:#909090;}
	.st193{fill:#2C2C2C;}
	.st194{fill:#686868;}
	.st195{fill:#070707;}
	.st196{fill:#4D4D4D;}
	.st197{fill:#9C9C9C;}
	.st198{fill:#949494;}
	.st199{fill:#6C6C6C;}
	.st200{fill:#363636;}
	.st201{display:inline;}
	.st202{fill-rule:evenodd;clip-rule:evenodd;fill:#1683C6;}
</style>
<g id="Layer_1">
	<g>
		<path d="M127.3,250c0-67.8,54.9-122.7,122.7-122.7c67.8,0,122.7,54.9,122.7,122.7c0,67.8-55,122.7-122.7,122.7
			C182.2,372.7,127.3,317.8,127.3,250z M250,331.5c45,0,81.5-36.5,81.5-81.5c0-45-36.5-81.5-81.5-81.5c-45,0-81.5,36.5-81.5,81.5
			C168.5,295,205,331.5,250,331.5z M250,291.5c23.4,0,42.3-18.9,42.3-42.3c0-23.4-18.9-42.3-42.3-42.3c-23.4,0-42.3,18.9-42.3,42.3
			C207.7,272.6,226.6,291.5,250,291.5z"/>
		<path class="st0" d="M329.8,372.4c5.8,0,10.7-4.5,10.7-10.6c0-6.1-4.9-10.6-10.7-10.6c-5.8,0-10.8,4.5-10.8,10.6
			C319,367.9,323.9,372.4,329.8,372.4z M321.1,361.8c0-5,3.8-8.8,8.7-8.8c4.8,0,8.6,3.8,8.6,8.8c0,5.1-3.8,8.9-8.6,8.9
			C324.9,370.6,321.1,366.9,321.1,361.8z M327.5,362.6h2.1l3.2,5.3h2.1l-3.5-5.4c1.8-0.2,3.2-1.2,3.2-3.4c0-2.4-1.4-3.5-4.3-3.5
			h-4.7v12.2h1.9V362.6z M327.5,361v-3.8h2.5c1.3,0,2.7,0.3,2.7,1.8c0,1.9-1.4,2-3,2H327.5z"/>
	</g>
</g>
<g id="Layer_2">
</g>
</svg>
