<?xml version="1.0" encoding="utf-8"?>
<!-- Generator: Adobe Illustrator 19.2.1, SVG Export Plug-In . SVG Version: 6.00 Build 0)  -->
<svg version="1.1" xmlns="http://www.w3.org/2000/svg" xmlns:xlink="http://www.w3.org/1999/xlink" x="0px" y="0px"
	 viewBox="0 0 500 500" style="enable-background:new 0 0 500 500;" xml:space="preserve">
<style type="text/css">
	.st0{fill-rule:evenodd;clip-rule:evenodd;}
	.st1{fill-rule:evenodd;clip-rule:evenodd;fill:#FFFFFF;}
	.st2{fill:none;stroke:#000000;stroke-width:3;}
	.st3{fill:#FFFFFF;}
	.st4{fill:none;}
	.st5{clip-path:url(#SVGID_2_);}
	.st6{fill-rule:evenodd;clip-rule:evenodd;fill:none;}
	.st7{enable-background:new    ;}
	.st8{stroke:#FFFFFF;stroke-width:0.45;stroke-miterlimit:3.8637;}
	.st9{fill:#424242;}
	.st10{display:none;}
	.st11{fill:#E8E8E8;}
	.st12{fill:#B2B2B2;}
	.st13{fill:#262626;}
	.st14{fill:#C2C2C2;}
	.st15{fill:#383838;}
	.st16{fill:#FFFFFF;stroke:#000000;stroke-width:0.7;stroke-linecap:round;stroke-linejoin:round;}
	.st17{fill:#FFFFFF;stroke:#000000;stroke-width:1.5;stroke-linecap:round;stroke-linejoin:round;}
	.st18{fill:#FFFFFF;stroke:#000000;stroke-width:0.7;}
	.st19{fill:#BABABA;}
	.st20{fill:#939393;}
	.st21{fill:#E6E6E6;}
	.st22{fill:#545454;}
	.st23{filter:url(#Adobe_OpacityMaskFilter);}
	.st24{mask:url(#SVGID_3_);}
	.st25{fill:url(#SVGID_4_);}
	.st26{opacity:0.42;fill:url(#SVGID_5_);}
	.st27{fill:none;stroke:#FFFFFF;stroke-width:2;}
	.st28{fill:#FFFFFF;stroke:#000000;stroke-width:0.25;stroke-miterlimit:10;}
	.st29{fill:none;stroke:#000000;stroke-miterlimit:10;}
	.st30{fill:#F5F5F5;}
	.st31{fill:#FAFAFA;}
	.st32{fill:#ECECEC;}
	.st33{fill:#C1C1C1;}
	.st34{fill:#A5A5A5;}
	.st35{fill:#C3C3C3;}
	.st36{fill:#D0D0D0;}
	.st37{fill:#8C8C8C;}
	.st38{fill:#C0C0C0;}
	.st39{fill:#C5C5C5;}
	.st40{fill:#CBCBCB;}
	.st41{fill:#C9C9C9;}
	.st42{fill:#BFBFBF;}
	.st43{fill:#BDBDBD;}
	.st44{fill:#BCBCBC;}
	.st45{fill:#B9B9B9;}
	.st46{fill:#B8B8B8;}
	.st47{fill:#8B8B8B;}
	.st48{fill:#FCFCFC;}
	.st49{fill:#F7F7F7;}
	.st50{fill:#ADADAD;}
	.st51{fill:#CCCCCC;}
	.st52{fill:#E1E1E1;}
	.st53{fill:#D8D8D8;}
	.st54{fill:#CECECE;}
	.st55{fill:#EBEBEB;}
	.st56{fill:#CFCFCF;}
	.st57{fill:#A8A8A8;}
	.st58{fill:#A0A0A0;}
	.st59{fill:#AFAFAF;}
	.st60{fill:#B6B6B6;}
	.st61{fill:#ABABAB;}
	.st62{fill:#8A8A8A;}
	.st63{fill:#C6C6C6;}
	.st64{fill:#191919;}
	.st65{fill:#818181;}
	.st66{fill:#DEDEDE;}
	.st67{fill:#F1F1F1;}
	.st68{fill:#B7B7B7;}
	.st69{fill:#5A5A5A;}
	.st70{fill:#B5B5B5;}
	.st71{fill:#AAAAAA;}
	.st72{fill:#212121;}
	.st73{fill:#B1B1B1;}
	.st74{fill:#5B5B5B;}
	.st75{fill:#595959;}
	.st76{fill:#F8F8F8;}
	.st77{fill:#858585;}
	.st78{fill:#696969;}
	.st79{fill:#7C7C7C;}
	.st80{fill:#666666;}
	.st81{fill:#6F6F6F;}
	.st82{fill:#A2A2A2;}
	.st83{fill:#494949;}
	.st84{fill:#D4D4D4;}
	.st85{fill:#757575;}
	.st86{fill:#3E3E3E;}
	.st87{fill:#EDEDED;}
	.st88{fill:#111111;}
	.st89{fill:#F2F2F2;}
	.st90{fill:#FEFEFE;}
	.st91{fill:#898989;}
	.st92{fill:#040404;}
	.st93{fill:#8E8E8E;}
	.st94{fill:#080808;}
	.st95{fill:#8D8D8D;}
	.st96{fill:#929292;}
	.st97{fill:#8F8F8F;}
	.st98{fill:#242424;}
	.st99{fill:#2F2F2F;}
	.st100{fill:#181818;}
	.st101{fill:#3A3A3A;}
	.st102{fill:#A6A6A6;}
	.st103{fill:#141414;}
	.st104{fill:#B4B4B4;}
	.st105{fill:#787878;}
	.st106{fill:#585858;}
	.st107{fill:#1B1B1B;}
	.st108{fill:#4C4C4C;}
	.st109{fill:#CDCDCD;}
	.st110{fill:#7B7B7B;}
	.st111{fill:#888888;}
	.st112{fill:#161616;}
	.st113{fill:#636363;}
	.st114{fill:#515151;}
	.st115{fill:#151515;}
	.st116{fill:#1F1F1F;}
	.st117{fill:#0C0C0C;}
	.st118{fill:#838383;}
	.st119{fill:#444444;}
	.st120{fill:#101010;}
	.st121{fill:#010101;}
	.st122{fill:#282828;}
	.st123{fill:#5D5D5D;}
	.st124{fill:#828282;}
	.st125{fill:#7E7E7E;}
	.st126{fill:#727272;}
	.st127{fill:#555555;}
	.st128{fill:#2A2A2A;}
	.st129{fill:#434343;}
	.st130{fill:#5F5F5F;}
	.st131{fill:#878787;}
	.st132{fill:#4B4B4B;}
	.st133{fill:#767676;}
	.st134{fill:#BBBBBB;}
	.st135{fill:#050505;}
	.st136{fill:#0B0B0B;}
	.st137{fill:#252525;}
	.st138{fill:#808080;}
	.st139{fill:#969696;}
	.st140{fill:#737373;}
	.st141{fill:#3D3D3D;}
	.st142{fill:#5E5E5E;}
	.st143{fill:#484848;}
	.st144{fill:#232323;}
	.st145{fill:#747474;}
	.st146{fill:#505050;}
	.st147{fill:#454545;}
	.st148{fill:#171717;}
	.st149{fill:#7F7F7F;}
	.st150{fill:#3C3C3C;}
	.st151{fill:#B0B0B0;}
	.st152{fill:#A9A9A9;}
	.st153{fill:#222222;}
	.st154{fill:#575757;}
	.st155{fill:#4A4A4A;}
	.st156{fill:#7A7A7A;}
	.st157{fill:#404040;}
	.st158{fill:#646464;}
	.st159{fill:#1A1A1A;}
	.st160{fill:#303030;}
	.st161{fill:#343434;}
	.st162{fill:#979797;}
	.st163{fill:#DDDDDD;}
	.st164{fill:#CACACA;}
	.st165{fill:#D3D3D3;}
	.st166{fill:#ACACAC;}
	.st167{fill:#AEAEAE;}
	.st168{fill:#999999;}
	.st169{fill:#676767;}
	.st170{fill:#292929;}
	.st171{fill:#9E9E9E;}
	.st172{fill:#9A9A9A;}
	.st173{fill:#464646;}
	.st174{fill:#474747;}
	.st175{fill:#202020;}
	.st176{fill:#323232;}
	.st177{fill:#4E4E4E;}
	.st178{fill:#9D9D9D;}
	.st179{fill:#C7C7C7;}
	.st180{fill:#3B3B3B;}
	.st181{fill:#C8C8C8;}
	.st182{fill:#D2D2D2;}
	.st183{fill:#BEBEBE;}
	.st184{fill:#C4C4C4;}
	.st185{fill:#717171;}
	.st186{fill:#020202;}
	.st187{fill:#606060;}
	.st188{fill:#414141;}
	.st189{fill:#6B6B6B;}
	.st190{fill:#5C5C5C;}
	.st191{fill:#2E2E2E;}
	.st192{fill:#909090;}
	.st193{fill:#2C2C2C;}
	.st194{fill:#686868;}
	.st195{fill:#070707;}
	.st196{fill:#4D4D4D;}
	.st197{fill:#9C9C9C;}
	.st198{fill:#949494;}
	.st199{fill:#6C6C6C;}
	.st200{fill:#363636;}
	.st201{display:inline;}
	.st202{fill-rule:evenodd;clip-rule:evenodd;fill:#1683C6;}
</style>
<g id="Layer_1">
	<g>
		<g>
			<g>
				<g>
					<g>
						<g>
							<path d="M298.4,200.2c1.7,2.5,5.2,4,10.4,4.5l0,0c4.5,0.4,9.5,0.2,15.1-0.4c-3.7,7.2-9.6,18.9-12.9,25.7
								c-2.2,0.2-4.5,0.3-6.9,0.3c0,0-2.5,0-2.5,0l0,0.3c0,0.1,0.3,5.7,5.9,6.9c-4,9.2-9.1,22.7-9.6,30.5c-0.1,2.4,0.3,4.2,1.3,5.3
								c0.9,1,2.3,1.5,4.1,1.4c4.3-0.2,7.9-3.2,8.1-3.3l0.2-0.2l-0.2-0.2c0,0-1.1-1.4-1.5-2.9c-0.5-2.4,0.4-12,6.7-26.1
								c0.8-1.7,1.6-3.4,2.4-5.2c1.9-0.4,3.9-0.8,6-1.2l9-1.8c9-1.5,13-1.2,13.1-1.2l0.3,0l0-0.3c0-0.1-0.1-2-1.5-3.5
								c-1.3-1.4-2.9-2.9-11.4-2l-7.5,1.1c-1.2,0.2-2.4,0.4-3.7,0.6c5.5-10.5,11.5-20.5,15.2-26.1c7.3-1,14.9-2.1,22.9-2.6
								c20.7-1.4,27.1,2.9,27.1,2.9l0.2,0.1l0.1-0.3c0,0,1.3-3.1-1.8-6.1c-4.6-4.4-12.9-6.1-25.5-5.2c-4.7,0.3-11.1,1.2-17.9,2.1
								c-6.4,0.9-13,1.8-19.4,2.4l-2.2,0.2c-7.1,0.7-13.8,1.4-18.4,1.2c-3.1-0.1-5.6-0.8-5.9-0.9l-0.3-0.1l-0.1,0.3c0,0,0,0,0,0h0v0
								c0,0,0,0,0,0c0,0,0,0.1,0,0.3C297.3,197.5,297.4,198.8,298.4,200.2z M388.5,225c0.2,1.3,0.8,2.4,1.8,3.2
								c2.3,1.8,3.5,1.7,3.5,1.7l0.2,0l0-0.2c0,0,0.2-1.4,2.7-4c1.5-1.6,2.2-3,2.1-4.3c-0.1-1-0.6-1.9-1.6-2.7c0,0-0.1,0.1-0.1,0.2
								c0.1-0.1,0.1-0.2,0.1-0.2c-3.7-2.4-6.2,0.1-7.7,2.2C388.7,222.2,388.3,223.6,388.5,225z M186.3,188.2
								c29.1-6.6,47,0.2,47.2,0.3l0.5,0.2l-0.2-0.6c-0.1-0.1-1.3-3-5.5-4.7c-0.2-0.1-18.5-7.2-44-1.9c-16.1,3.3-35.9,10.2-59.9,35.4
								C106,236.2,96.2,254.7,93,261.2c1.6-6.1,5.1-21.7,5.1-38.7c0-2.8-0.1-5.6-0.3-8.4c-1.2-16.5-6.5-25.3-16.3-27.1
								c-4.7-0.8-9.6,0.8-12.3,2.9c-6,4.4-9.2,12.1-10,14.7c-0.7,2.6-0.6,6.6,0.2,7c0.2,0.1,0.5,0.1,0.8-0.6c0-0.1,1.5-4.2,4-8.6
								c2.6-4.5,7.3-9.4,11.6-9.5c6.8-0.1,10.1,6.6,10.7,21.6c0.6,13.8-1.8,32-6.9,54.2l-0.3,1.3c-1,4.6-0.4,7.6,1.9,9.9
								c3,2.8,7.9,3.5,8.1,3.5l0.2,0l0.1-0.2c0-0.1,4.8-13.2,18.7-33.6C131.3,215.8,158.3,194.6,186.3,188.2z M347.8,287.2
								c-7.4,0.3-26.2-2.1-31.8-2.8c-13-1.7-26.2-3.4-38.7-4.1c10.5-21.1,14.4-39,14.4-39.2c0.1-0.6,0.2-1.2,0.2-1.6
								c0-1.9-0.9-2.8-1.8-3.7l-0.1-0.1c-0.9-0.9-2.8-1.7-4.2-1.5c-0.6,0.1-1,0.4-1.2,0.8c-0.1,0.1-7.4,12-13.7,19.4
								c-5.4,6.4-6.4,6.2-6.5,6.2c0,0-0.2-0.2-0.2-0.2c-0.4-1.1,0.7-4.9,3.3-11.2c3.2-7.8,4.7-11.7,2.3-14c-1.2-1.2-4.8-1.4-5-1.4
								l-0.2,0l-0.1,0.2l-0.5,1.3c-1.8,2.8-8.1,12-15.2,20.8c-4.8,5.9-7.4,7.4-8.2,6.9c-0.3-0.2-1.9-2.1,2-15.3
								c1.8-6.3,4.2-11.2,6.2-15.6c0.2-0.3,0.3-0.6,0.4-0.9c0.9-0.1,1.8-0.3,2.7-0.4l7.5-1.2c9.9-1.4,14.6-0.5,14.6-0.4l0.3,0.1
								l0-0.3c0-0.1,0-2.2-1.5-3.3c-1.6-1.2-3.7-2.1-13-1.2l-7.2,0.8c-0.3,0-0.6,0.1-0.9,0.1l0.4-0.9c1.3-3,2.7-6.5,0.3-8.5
								c-1.3-1.1-4.5-2-4.6-2l-0.2-0.1l-0.1,0.2l-1.4,3.5c-0.5,1.1-2.2,4.7-4.3,8.9c-3.8,0.4-7.8,0.6-11.8,0.7l-1.1-0.2l-1.4-0.2
								l0,0.3c0,0-0.2,4.8,6,5.5c1.5,0.2,3.2,0.2,5.1,0c-0.3,0.5-0.5,1-0.8,1.5c-3.3,6-7.5,12.8-15.8,22.6c-5.5,6.5-6.9,6.3-7.2,6.1
								c-0.4-0.3-1-3.4,3-12.7l0.7-1.6c2.9-6.8,3.6-8.6,1.5-10.7c-1.2-1.2-4.4-2.3-4.5-2.3l-0.1,0l-0.1,0.1c0,0-0.6,0.6-0.9,1.2
								c0,0,0,0,0,0c-0.1,0.1-10.2,13.2-16.5,20.5c-5.6,6.4-6.9,6.5-7.1,6.4l-0.2-0.3c-0.4-1.2,0.4-5.1,3.8-12.4l0.4-0.9
								c3.2-6.7,4.9-10.4,1.8-14.5c-2.5-3.3-6.1-3.5-10.8-0.5c-4.9,3.1-10.4,9.2-12.7,11.9c0.9-2,2.4-5.4,3-6.8
								c0.3-0.8,0.4-1.5,0.4-2.2c0-1.4-0.6-2.6-1.8-3.4c-0.7-0.5-2-1.2-3-1.7c-1.3-0.6-2.4,1-3.9,3.2l-0.7,1
								c-1.5,2.2-5.8,8.2-13.6,17.7c-4.6,5.6-7.1,7.3-7.8,6.9c-0.1-0.1-0.2-0.2-0.3-0.4c-0.4-1.2-0.1-4.6,2.3-10.4
								c1.7-4.3,3.9-8.2,4.8-9.8l0.5-0.9c0.6-1.4,1.1-3-0.6-4.3c-0.9-0.7-2.9-1.4-3.9-1.6c-1.2-0.3-1.9,0.9-2.7,2.1
								c0,0-0.4,0.7-0.5,0.9c-0.6-1.1-1.8-2.5-3.3-3.3c-5.6-2.9-15.2-0.5-24.2,11.3c-5.4,7.2-7.8,14.4-6.6,19.8
								c0.7,3,2.5,5.2,5.2,6.3c5.6,2.4,10.9-2.3,14.8-6.5c2.4-2.7,4.5-5.5,5.5-6.9c-0.1,0.7-0.2,1.6-0.2,2.6c0,2.5,0.6,5.6,3.3,7.2
								c5.3,3.3,9.9-1.6,13.3-5.2c1.9-2.1,4.5-5.3,7.6-9.6c-2.1,4.9-4,10.7-4.4,12.2c-0.1,0.3-0.1,0.6-0.1,0.8c0,1.2,0.7,2.1,1.8,3
								c1.3,1.1,4.7,1.7,5.4,0.7l1.7-2.7c2.6-4.1,7.4-11.8,12.9-17.7c6.2-6.7,9.7-9,11-9.7c-1,2.2-4.2,9.4-5.5,13.6
								c-1.3,4-1.9,7.2-1.9,9.7c0,3.3,1.1,5.5,3.3,6.7c5.7,3.2,10.7-1.7,15.3-7.5c2.8-3.5,5.7-7.6,7.3-9.8c0,0.1-0.1,0.4-0.1,0.4
								c-0.8,2.8-1.6,5.9-1.6,8.7c0,2.8,0.7,5.3,2.9,6.9c5.5,4.2,11.7-2.2,15.9-7.3c2.5-3,5.6-7.2,7.9-10.5c0,0.1-0.1,0.2-0.1,0.3
								l-0.1,0.6c-1,3.8-1.4,7.1-1.4,9.8c0,4.1,1.1,7,3.2,8.5c6.5,4.3,12.6-2,17.2-8c1.8-2.4,3.4-4.6,4.7-6.5
								c-1.7,6.4-1,10.1,2.3,12.5c5,3.7,12-3.9,14.8-7.3c2.7-3.3,4.7-6.2,5.9-7.8c-1.6,4.4-6.2,16.6-11.6,27.9
								c-9.1,0-17.7,0.8-25.4,2.9c-19,5.2-28.4,16.3-29,24.4c-0.4,4.9,2.1,8.8,7,11.2c8.5,4.1,33.2,3.2,50.8-26.4
								c1.1-1.9,2.2-3.8,3.2-5.7c11,0.9,22.2,2.8,32.3,4.6l4.3,0.7c19.4,3.3,32.2,3.9,39.2,2c3.4-0.9,6-2.5,7.9-4.5
								c2-2.2,2.8-5,2.9-5.1l0.2-0.8l-0.6,0.5C360.4,283.9,356.8,286.9,347.8,287.2z M130.9,256c-7.3,8.8-10,9.8-11.1,9.1
								c-0.2-0.1-0.3-0.4-0.3-0.8c-0.3-2.3,1.3-8.5,6.1-14.8c6.4-8.4,13.4-12.7,15.5-10.8c0.6,0.5,0.7,1.3,0.8,2.4
								C138,246.9,134.3,251.9,130.9,256z M263.6,287.7c-9.4,17.1-20.9,23.1-25.4,24.8c-5.3,2.1-12.2,3-15.8,0.3
								c-1.3-1-1.9-3-1.6-5.4c0.7-5.4,6-13.4,18.7-18.1c7.2-2.7,15.8-3.5,24.9-3.4C264.2,286.5,263.9,287.1,263.6,287.7z
								 M229.1,209.9c-2.1-0.3-3.7,0.6-5.3,2.9c-1.1,1.5-1.6,3.2-1.4,4.5c0.2,1,0.7,1.9,1.5,2.5c2.4,1.8,4.3,1.9,4.4,1.9l0.2,0
								l0.1-0.2c0,0,0.8-2,2.4-4.1l0.3-0.4c0.8-1,1.8-2.3,1.8-3.7c0,0,0-0.1,0-0.1c0-0.8-0.4-1.6-1.1-2.3
								C231.9,210.9,230.7,210.1,229.1,209.9z M441.1,230.7c0,0-0.3-0.8-1-1.4c-2.3-1.9-7.9-2-12.2-0.3c-8,3.2-15.5,13-18.7,17.5
								c1.1-2.4,2.6-5.8,3-7.2c0.3-0.9,0.4-1.6,0.4-2.2c0-0.8-0.3-1.3-0.6-1.8l-0.1-0.1c-0.5-0.8-3.2-1.7-3.7-1.9
								c-0.9-0.3-1.4-0.2-1.7,0.4c0,0-0.8,1-0.8,1c-2.6,3.4-9.6,12.5-15.7,19.3c-4.7,5.3-6.6,7.2-7.3,7.2c0,0-0.1,0-0.2-0.1
								c-0.4-0.7-0.1-4,3.2-11.9l1.6-3.7c2.3-5.3,3.3-7.7,1.3-9.6c-1.2-1.2-4.7-2.2-4.9-2.3l-0.2,0l-0.2,0.3l-2.4,3.7
								c-2.9,4.1-8.4,11.4-13,16.8c-1.7,2-7,8.1-8.7,7.7c-0.1,0-0.2-0.1-0.2-0.2c-0.6-1.4,0.5-6.9,3-12.4c2.2-4.8,3.9-7.7,4.6-9
								l0.3-0.5c0.6-1,0.8-1.8,0.6-2.5c-0.1-0.6-0.5-1.1-1.3-1.5c-0.6-0.4-3-1.8-3.9-2c-1.1-0.3-1.8,0.8-2.7,2.1
								c0,0-0.3,0.4-0.4,0.7c-0.7-1.3-1.7-2.3-3.1-3.1c-5.4-2.9-14.9-0.7-23.9,11c-6.9,8.9-7.4,15.2-6.6,19c0.7,3.1,2.6,5.6,5.2,6.9
								c4.6,2.2,10.4-2.4,14.5-6.5c2.3-2.4,4.4-5,5.4-6.2c-0.1,0.6-0.2,1.3-0.2,2.2c0,2.4,0.5,5.6,3.1,7.2c4.2,2.6,8.8,1,13.9-4.9
								c3-3.4,5.3-6.2,7.4-9.1c-0.9,3.1-1.4,5.6-1.4,7.7c0,3.1,1,5.2,3.2,6.6c4.9,3.2,10.4-2.5,15.6-8.6c2.1-2.4,7.3-9.3,9.6-12.3
								c-1,2.3-3.1,7.6-3.1,7.6l-1.6,4.3c-1.4,3.7-2.5,6.4-2.8,7.9c-0.1,0.3-0.1,0.5-0.1,0.8c0,1.3,0.6,2.5,1.7,3.4
								c1.2,1,3.7,1.6,4.9,1.3c0.4-0.1,0.6-0.3,0.7-0.5c0,0,0.3-0.6,0.3-0.6c1.6-3.7,5.2-12.3,12.8-22.5c8.2-11,15.5-14.6,18.2-15.6
								c4.1-1.5,7.8-1.6,7.8-1.6l0.3,0L441.1,230.7z M345.7,255.7c-6,6.9-10,9.7-11.3,9.4c-0.1,0-0.1-0.2-0.2-0.3
								c-0.5-1.8,1.2-8.8,6.4-15.9c6.8-9.2,13.8-12.3,15.3-10.9c0.6,0.5,0.8,1.4,0.9,2.8C352.9,246.6,349.2,251.6,345.7,255.7z"/>
						</g>
					</g>
				</g>
			</g>
		</g>
	</g>
</g>
<g id="Layer_2">
</g>
</svg>
