<?xml version="1.0" encoding="utf-8"?>
<!-- Generator: Adobe Illustrator 19.2.1, SVG Export Plug-In . SVG Version: 6.00 Build 0)  -->
<svg version="1.1" xmlns="http://www.w3.org/2000/svg" xmlns:xlink="http://www.w3.org/1999/xlink" x="0px" y="0px"
	 viewBox="0 0 500 500" style="enable-background:new 0 0 500 500;" xml:space="preserve">
<style type="text/css">
	.st0{fill-rule:evenodd;clip-rule:evenodd;}
	.st1{fill-rule:evenodd;clip-rule:evenodd;fill:#FFFFFF;}
	.st2{fill:none;stroke:#000000;stroke-width:3;}
	.st3{fill:#FFFFFF;}
	.st4{fill:none;}
	.st5{clip-path:url(#SVGID_2_);}
	.st6{fill-rule:evenodd;clip-rule:evenodd;fill:none;}
	.st7{enable-background:new    ;}
	.st8{stroke:#FFFFFF;stroke-width:0.45;stroke-miterlimit:3.8637;}
	.st9{fill:#424242;}
	.st10{display:none;}
	.st11{fill:#E8E8E8;}
	.st12{fill:#B2B2B2;}
	.st13{fill:#262626;}
	.st14{fill:#C2C2C2;}
	.st15{fill:#383838;}
	.st16{fill:#FFFFFF;stroke:#000000;stroke-width:0.7;stroke-linecap:round;stroke-linejoin:round;}
	.st17{fill:#FFFFFF;stroke:#000000;stroke-width:1.5;stroke-linecap:round;stroke-linejoin:round;}
	.st18{fill:#FFFFFF;stroke:#000000;stroke-width:0.7;}
	.st19{fill:#BABABA;}
	.st20{fill:#939393;}
	.st21{fill:#E6E6E6;}
	.st22{fill:#545454;}
	.st23{filter:url(#Adobe_OpacityMaskFilter);}
	.st24{mask:url(#SVGID_3_);}
	.st25{fill:url(#SVGID_4_);}
	.st26{opacity:0.42;fill:url(#SVGID_5_);}
	.st27{fill:none;stroke:#FFFFFF;stroke-width:2;}
	.st28{fill:#FFFFFF;stroke:#000000;stroke-width:0.25;stroke-miterlimit:10;}
	.st29{fill:none;stroke:#000000;stroke-miterlimit:10;}
	.st30{fill:#F5F5F5;}
	.st31{fill:#FAFAFA;}
	.st32{fill:#ECECEC;}
	.st33{fill:#C1C1C1;}
	.st34{fill:#A5A5A5;}
	.st35{fill:#C3C3C3;}
	.st36{fill:#D0D0D0;}
	.st37{fill:#8C8C8C;}
	.st38{fill:#C0C0C0;}
	.st39{fill:#C5C5C5;}
	.st40{fill:#CBCBCB;}
	.st41{fill:#C9C9C9;}
	.st42{fill:#BFBFBF;}
	.st43{fill:#BDBDBD;}
	.st44{fill:#BCBCBC;}
	.st45{fill:#B9B9B9;}
	.st46{fill:#B8B8B8;}
	.st47{fill:#8B8B8B;}
	.st48{fill:#FCFCFC;}
	.st49{fill:#F7F7F7;}
	.st50{fill:#ADADAD;}
	.st51{fill:#CCCCCC;}
	.st52{fill:#E1E1E1;}
	.st53{fill:#D8D8D8;}
	.st54{fill:#CECECE;}
	.st55{fill:#EBEBEB;}
	.st56{fill:#CFCFCF;}
	.st57{fill:#A8A8A8;}
	.st58{fill:#A0A0A0;}
	.st59{fill:#AFAFAF;}
	.st60{fill:#B6B6B6;}
	.st61{fill:#ABABAB;}
	.st62{fill:#8A8A8A;}
	.st63{fill:#C6C6C6;}
	.st64{fill:#191919;}
	.st65{fill:#818181;}
	.st66{fill:#DEDEDE;}
	.st67{fill:#F1F1F1;}
	.st68{fill:#B7B7B7;}
	.st69{fill:#5A5A5A;}
	.st70{fill:#B5B5B5;}
	.st71{fill:#AAAAAA;}
	.st72{fill:#212121;}
	.st73{fill:#B1B1B1;}
	.st74{fill:#5B5B5B;}
	.st75{fill:#595959;}
	.st76{fill:#F8F8F8;}
	.st77{fill:#858585;}
	.st78{fill:#696969;}
	.st79{fill:#7C7C7C;}
	.st80{fill:#666666;}
	.st81{fill:#6F6F6F;}
	.st82{fill:#A2A2A2;}
	.st83{fill:#494949;}
	.st84{fill:#D4D4D4;}
	.st85{fill:#757575;}
	.st86{fill:#3E3E3E;}
	.st87{fill:#EDEDED;}
	.st88{fill:#111111;}
	.st89{fill:#F2F2F2;}
	.st90{fill:#FEFEFE;}
	.st91{fill:#898989;}
	.st92{fill:#040404;}
	.st93{fill:#8E8E8E;}
	.st94{fill:#080808;}
	.st95{fill:#8D8D8D;}
	.st96{fill:#929292;}
	.st97{fill:#8F8F8F;}
	.st98{fill:#242424;}
	.st99{fill:#2F2F2F;}
	.st100{fill:#181818;}
	.st101{fill:#3A3A3A;}
	.st102{fill:#A6A6A6;}
	.st103{fill:#141414;}
	.st104{fill:#B4B4B4;}
	.st105{fill:#787878;}
	.st106{fill:#585858;}
	.st107{fill:#1B1B1B;}
	.st108{fill:#4C4C4C;}
	.st109{fill:#CDCDCD;}
	.st110{fill:#7B7B7B;}
	.st111{fill:#888888;}
	.st112{fill:#161616;}
	.st113{fill:#636363;}
	.st114{fill:#515151;}
	.st115{fill:#151515;}
	.st116{fill:#1F1F1F;}
	.st117{fill:#0C0C0C;}
	.st118{fill:#838383;}
	.st119{fill:#444444;}
	.st120{fill:#101010;}
	.st121{fill:#010101;}
	.st122{fill:#282828;}
	.st123{fill:#5D5D5D;}
	.st124{fill:#828282;}
	.st125{fill:#7E7E7E;}
	.st126{fill:#727272;}
	.st127{fill:#555555;}
	.st128{fill:#2A2A2A;}
	.st129{fill:#434343;}
	.st130{fill:#5F5F5F;}
	.st131{fill:#878787;}
	.st132{fill:#4B4B4B;}
	.st133{fill:#767676;}
	.st134{fill:#BBBBBB;}
	.st135{fill:#050505;}
	.st136{fill:#0B0B0B;}
	.st137{fill:#252525;}
	.st138{fill:#808080;}
	.st139{fill:#969696;}
	.st140{fill:#737373;}
	.st141{fill:#3D3D3D;}
	.st142{fill:#5E5E5E;}
	.st143{fill:#484848;}
	.st144{fill:#232323;}
	.st145{fill:#747474;}
	.st146{fill:#505050;}
	.st147{fill:#454545;}
	.st148{fill:#171717;}
	.st149{fill:#7F7F7F;}
	.st150{fill:#3C3C3C;}
	.st151{fill:#B0B0B0;}
	.st152{fill:#A9A9A9;}
	.st153{fill:#222222;}
	.st154{fill:#575757;}
	.st155{fill:#4A4A4A;}
	.st156{fill:#7A7A7A;}
	.st157{fill:#404040;}
	.st158{fill:#646464;}
	.st159{fill:#1A1A1A;}
	.st160{fill:#303030;}
	.st161{fill:#343434;}
	.st162{fill:#979797;}
	.st163{fill:#DDDDDD;}
	.st164{fill:#CACACA;}
	.st165{fill:#D3D3D3;}
	.st166{fill:#ACACAC;}
	.st167{fill:#AEAEAE;}
	.st168{fill:#999999;}
	.st169{fill:#676767;}
	.st170{fill:#292929;}
	.st171{fill:#9E9E9E;}
	.st172{fill:#9A9A9A;}
	.st173{fill:#464646;}
	.st174{fill:#474747;}
	.st175{fill:#202020;}
	.st176{fill:#323232;}
	.st177{fill:#4E4E4E;}
	.st178{fill:#9D9D9D;}
	.st179{fill:#C7C7C7;}
	.st180{fill:#3B3B3B;}
	.st181{fill:#C8C8C8;}
	.st182{fill:#D2D2D2;}
	.st183{fill:#BEBEBE;}
	.st184{fill:#C4C4C4;}
	.st185{fill:#717171;}
	.st186{fill:#020202;}
	.st187{fill:#606060;}
	.st188{fill:#414141;}
	.st189{fill:#6B6B6B;}
	.st190{fill:#5C5C5C;}
	.st191{fill:#2E2E2E;}
	.st192{fill:#909090;}
	.st193{fill:#2C2C2C;}
	.st194{fill:#686868;}
	.st195{fill:#070707;}
	.st196{fill:#4D4D4D;}
	.st197{fill:#9C9C9C;}
	.st198{fill:#949494;}
	.st199{fill:#6C6C6C;}
	.st200{fill:#363636;}
	.st201{display:inline;}
	.st202{fill-rule:evenodd;clip-rule:evenodd;fill:#1683C6;}
</style>
<g id="Layer_1">
	<g>
		<path class="st0" d="M58.5,202.7h94.6v94.6H58.5V202.7z M110,220.8c-4.1,1.9-16,11.1-22.4,15.9c7.8-2.6,26.5-6.7,36.1-7
			C120.7,227.7,112.3,222,110,220.8z M72.6,280.1c2.6-1.2,27.7-9.5,50.7-10.9c0.5-1.9,3-8.4,3.5-10.2c-23.9,1.7-43.3,8.8-51.1,12.4
			L72.6,280.1z M125.5,231c0,0-23.2,23.3-26.9,26.7c7.1-2.6,21.5-5.6,30.7-6.1c1.1-3.3,2.2-5.6,2.2-5.6l12.3-1.2
			C143.8,244.7,134.5,237.2,125.5,231z M76.6,269c7.3-7.5,33.6-31.8,33.6-31.8c-13.7,3.2-28,7.5-33.1,9.9l-7.7,7.9
			c6.4-1.4,8.5-1.6,13.2-2.3L76.6,269z M221,285.3l3.5-11h-22.7c-2.7,0-5.7,0-5.7,0s1.1-2,2.5-4.4l25.6-44.8v-9.8h-40.3l-3,11.2
			h20.7c4.1,0,5.5,0.1,5.5,0.1s-1,2.4-2.8,5.5l-25.4,43.7v9.5H221L221,285.3z M239.9,236c4.5,0,8-3.6,8-8c0-4.5-3.5-8-7.9-8
			c-4.5,0-8.1,3.6-8.1,8C231.9,232.4,235.5,236,239.9,236L239.9,236z M233.4,285.4h13l0-46.5l-12.9,2.9L233.4,285.4L233.4,285.4z
			 M259.1,285.3l-0.1-68.7l13.3-3l0.1,71.7H259.1L259.1,285.3z M284.9,285.3l-0.1-68.7l13.3-3l0.1,71.7H284.9L284.9,285.3z
			 M409.5,285.3l14.1-49.6h-13.4l-3.8,17.7c-1.4,6.3-2.4,14-2.7,16.2c0,0-1.4-8.3-3.7-17.5l-4-16.4h-12.2l-4.6,16.7
			c-2.3,8.4-3.6,17.2-3.6,17.2s-1.5-9.7-2.8-15.4l-4-18.5h-13.3l13.8,49.6h12.1l2.5-10.2c1.2-4.6,3.3-13.2,4.3-17.4
			c0.8-3.6,0.9-4.3,1.2-6.4c0.3,1.9,0.4,2.6,0.8,4.9c0.6,3.3,1.7,8,2.8,12l4.5,17H409.5L409.5,285.3z M336.1,246.9
			c1.7,2.2,2.6,6.6,2.6,13.3c0,11.7-2.4,16.8-8,16.8c-2.5,0-5.4-1.4-6.6-4.1c-1.1-2.5-1.6-6.8-1.6-12.5c0-4.9,0.5-8.4,1.4-11
			c1.1-3.1,3.6-5,6.7-5C332.8,244.3,334.8,245.3,336.1,246.9L336.1,246.9z M346.7,279.5c4.3-4.8,6.2-10.7,6.2-19.2
			c0-8-1.7-13.5-5.7-18.1c-4.3-5-9.8-7.5-16.9-7.5c-13.4,0-22.3,10.4-22.3,26c0,15.6,8.8,25.7,22.3,25.7
			C337.9,286.4,342.9,283.8,346.7,279.5L346.7,279.5z"/>
		<path d="M434.3,225.2v2.2h0.6c0.6,0,0.9-0.1,1.1-0.3c0.2-0.2,0.3-0.5,0.3-0.9c0-0.7-0.4-1.1-1.4-1.1H434.3L434.3,225.2z
			 M436.6,231.3l-0.6-1.1c-0.5-0.9-0.8-1.3-1.2-1.7c-0.1-0.1-0.2-0.2-0.5-0.2v3.1h-1.2v-7.1h2.2c1.6,0,2.3,0.9,2.3,2
			c0,1.1-0.7,1.9-1.8,1.9c0.3,0.1,0.7,0.8,1.1,1.4l1,1.7H436.6L436.6,231.3z M435.2,222.5c-2.8,0-5,2.3-5,5.3c0,3,2.2,5.3,5,5.3
			c2.8,0,5.1-2.3,5.1-5.3C440.3,224.8,438,222.5,435.2,222.5L435.2,222.5z M435.2,234.1c-3.4,0-6.3-2.8-6.3-6.3
			c0-3.6,2.8-6.3,6.3-6.3c3.4,0,6.3,2.8,6.3,6.3C441.5,231.4,438.6,234.1,435.2,234.1L435.2,234.1z"/>
	</g>
</g>
<g id="Layer_2">
</g>
</svg>
