<?xml version="1.0" encoding="utf-8"?>
<!-- Generator: Adobe Illustrator 19.1.0, SVG Export Plug-In . SVG Version: 6.00 Build 0)  -->
<svg version="1.1" id="Layer_1" xmlns="http://www.w3.org/2000/svg" xmlns:xlink="http://www.w3.org/1999/xlink" x="0px" y="0px"
	 viewBox="-133 135 500 500" style="enable-background:new -133 135 500 500;" xml:space="preserve">
<style type="text/css">
	.st0{fill:#FFFFFF;}
</style>
<path class="st0" d="M-32.9,338.8c3.8-8.7,7.3-17.6,10-26.7c2,9.3,2.7,12,8.2,26.7c-4.9,0.2-6.7,0.2-10,0.2
	C-27.8,339-29.4,339-32.9,338.8z M-57.4,366.4c2.9,0,4.2,0,6.7,0c2.2,0,4.2,0,6.5,0h1.3c2.7-7.6,3.3-9.8,7.1-19.1h2.2h19.1h2.9
	c3.1,8.9,3.8,11.1,6.7,19.1c4-0.2,5.3-0.2,8.9-0.2c3.1,0,6.2,0,9.1,0h1.6l-3.8-9.8l-20-48.3l-4.4-11.1c-4.4,1.1-8.9,1.8-13.3,2.2
	l-3.3,6.7C-46.5,340.8-49.2,346.4-57.4,366.4L-57.4,366.4z"/>
<path class="st0" d="M18.5,360.4l0.2-24v-2c0-5.8-0.4-11.6-1.1-17.4c2.9,0.2,3.6,0.2,6.9,0.2c2.7,0,5.6,0,8.5-0.2h1.1l0.2,1.3
	c0.4,2.4,0.7,4.9,0.7,7.1c2.7-6.7,8.5-9.8,17.6-9.8c4.9-0.2,9.6,1.1,13.6,4c4.4,3.6,5.8,7.1,5.8,17.4v0.7l-0.2,26.5l0.2,2.2
	c-4-0.2-5.6-0.2-8.9-0.2c-3.3,0-4.9,0-9.1,0.2V364c0.4-5.8,0.4-11.6,0.4-17.1c0-2.9-0.2-5.8-0.2-8.7c0.2-2.9-0.2-6-0.9-8.9
	c-0.7-3.3-3.6-5.3-6.9-5.1c-6.7,0-10.5,4.7-10.5,13.1v13.6c0.2,10,0.2,10.9,0.4,15.6h-1.8c-2.9,0-5.8,0-8.7,0s-4.2,0-7.6,0.2
	L18.5,360.4z"/>
<path class="st0" d="M74.5,362.4c1.8-2.2,3.1-4.4,4.4-6.9c3.1,2.2,6.7,3.6,10.5,3.8c4.2,0,6.7-1.8,6.7-4.9c0-0.7,0-1.1-0.2-1.6
	c-0.9-1.8-2-2.9-6.7-6.2c-8.9-6.2-12-10.5-12-16c0-9.1,8.7-14.9,21.6-14.9c5.3-0.2,10.5,0.9,15.1,3.3c-0.2,0.2-0.4,0.7-0.7,0.9
	c-0.4,0.7-1.8,2.7-3.3,6l-0.4,0.9c-3.3-1.8-7.1-2.7-10.9-2.7s-6.2,1.3-6.2,3.6c0,1.3,1.3,3.1,3.8,4.9l4.4,3.1
	c8.2,5.6,12.5,11.8,12.5,17.1c0,8.9-8.7,15.1-20.9,15.1c-6.5,0.2-12.7-1.3-18.2-4.7L74.5,362.4z"/>
<path class="st0" d="M116.6,317.2h15.8h1.1l7.3,24.9c1.1,3.1,1.8,6.2,2.2,9.6c0.2-3.3,1.1-6.7,2.2-10l8.9-24.5
	c2.7,0.2,5.1,0.4,7.8,0.2c2.2,0,4.2,0,6.5-0.2l10.5,27.8c0.2,0.2,0.2,1.1,0.7,2.4c0.4,1.3,0.4,2.2,1.1,4.2
	c4.7-18.7,5.8-22.2,8.2-34.3c2,0.2,4,0.2,6,0.2c2.2,0,4.4,0,6.7-0.2h1.1l-2,6.2l-13.8,40.7l-1.1,2.2h-1.1c-2.2,0-4.4-0.2-6.9-0.2
	c-2.4,0-3.3,0-6,0.2l-9.3-25.4c-0.2-0.4-0.4-0.7-0.4-1.1c-1.6-4.4-2.4-7.1-2.7-8c0-0.4-0.2-1.6-0.4-3.1l-0.7,2.7l-2.7,9.8l-7.8,24.9
	c-2.4-0.2-5.1-0.4-7.8-0.4c-2.4,0-5.1,0.2-7.6,0.4l-0.9-2.7l-7.3-22.2l-6.9-19.4l-1.8-5.1L116.6,317.2z"/>
<path class="st0" d="M292.7,329.7c-0.9-0.7-1.6-1.1-2-1.3c-2-1.1-4.4-1.6-6.7-1.6c-2.4,0-4.7,0.7-6.7,2.2c-2,1.8-2.7,3.8-3.1,8.7
	V351c0,9.8,0.2,10.9,0.2,15.6h-1.8c-2.9,0-5.8-0.2-8.9-0.2s-4.2,0-7.6,0.2l0.2-2.4c0.2-5.8,0.2-15.1,0.2-27.6v-6.5
	c0-4.2-0.4-8.7-1.1-12.9c2.9,0.2,3.6,0.2,6.9,0.2c2.7,0,5.6,0,8.5-0.2h1.1l0.2,1.3l0.2,4.7l0.2,3.8c1.6-3.3,4-6.2,7.1-8.5
	c3.1-1.8,6.5-2.7,10-2.4c3.3,0,6.7,0.7,9.8,2.2c-0.2,0.4-0.4,0.9-0.7,1.3c-3.1,5.8-4.7,8.9-4.9,9.6c0,0.4-0.2,0.7-0.2,1.1
	L292.7,329.7z"/>
<path class="st0" d="M235.8,336.2h-18.2c0.9-5.6,3.3-10.2,9.1-10.2S234.9,329.7,235.8,336.2z M217.3,344.8H252
	c0-20.2-11.8-28.7-24.7-28.7c-13.8,0-25.8,10.2-25.8,26.7s10.7,26.2,26.2,26.2c14.2,0,18.2-2.4,21.6-4l-2.9-8.5
	c-4.2,1.6-8.7,2.4-13.1,2.4C222,359.1,217.3,352.8,217.3,344.8L217.3,344.8z"/>
<path class="st0" d="M-59.8,461.2l5.1-20l1.1-4.4l6.2-27.1c-4.7,0-5.1,0-8.5,0c0.4-1.3,0.9-2.7,1.1-4.2c2.9,0.2,3.8,0.2,7.3,0.2h0.9
	l0.9-4.4c1.6-8,3.1-11.1,7.1-14.2c3.1-2,6.9-3.1,10.7-3.1c3.3,0,6.7,0.7,9.6,2.2c-0.9,1.1-1.6,2.2-2.2,3.6c-2.2-1.1-4.4-1.8-6.9-1.8
	c-2.4-0.2-4.9,0.7-6.7,2.4c-2.4,2.7-3.6,5.6-5.3,15.1h3.6c4.4,0,5.3,0,9.3-0.2c-0.4,1.6-0.7,2.9-0.9,4.4c-4.2-0.2-5.3-0.2-10.7-0.2
	h-2l-6.2,27.4l-1.1,4.9l-4.9,19.6l-2.7,10.2l-1.1-0.2c-2.9-0.7-3.6-0.9-6-1.3L-59.8,461.2z"/>
<path class="st0" d="M-15.8,405.1c1.3,0,2.2,0,3.8,0l-0.9,4l-8.5,36.3l-0.9,4c-1.8,0-2.4,0-3.8,0c-1.3,0-2.2,0-4,0l0.9-4l8.5-36.5
	l0.9-4C-18,405.1-17.4,405.1-15.8,405.1z M-14.2,396.9c-1.8,0-2.7-1.3-2.7-3.8c0-3.8,2.4-7.1,5.1-7.1c1.8,0.2,2.9,1.6,2.9,3.3v0.2
	C-8.9,393.5-11.4,396.9-14.2,396.9L-14.2,396.9z"/>
<path class="st0" d="M-8.2,446.5l5.3-21.4c1.8-6.5,2.9-13.3,3.3-20c1.3,0,2,0,3.3,0s2,0,3.8,0c-0.7,6.2-1.8,12.5-3.3,18.7
	c1.8-3.6,4-7.1,6.5-10c5.1-6.5,10.9-9.6,17.1-9.6s9.1,3.8,9.1,10.2c0,1.1,0,2-0.2,3.1c-0.9,6-4.7,20.9-7.6,30.7l-0.2,1.3
	c-2,0-2.7,0-4.2,0s-2,0-3.8,0c5.6-18.9,8-29.6,8-34s-1.3-6-4.7-6c-3.8,0-8.7,3.6-14,10c-1.3,1.6-2.4,3.1-3.8,4.9
	c-1.8,2.2-3.1,4.9-3.8,7.8l-4.2,17.6c-2,0-2.7,0-4.2,0c-1.1,0-1.8,0-3.1,0L-8.2,446.5z"/>
<path class="st0" d="M79.6,416.2l-2,8.2c-2.2,5.1-5.3,9.8-9.6,13.8c-2.2,2.2-4.9,4-7.6,5.6c-1.6,0.7-3.3,1.1-5.1,1.3
	c-3.8,0-5.8-2.7-5.8-7.8c0-11.8,7.8-24.7,17.1-28c1.3-0.4,2.9-0.9,4.4-0.9C75.6,408.4,79.4,411.8,79.6,416.2z M72.3,449.6
	c1.3,0,1.8,0,2.7,0h2.7H79c1.8-11.3,4.4-22.7,7.8-33.8c0.2-0.7,0.4-1.3,0.7-2c0.9-2.9,2-5.8,3.3-8.7c-2.4,0-3.3,0-4.4,0
	s-1.3,0-2.4,0c-0.7,1.8-1.3,3.3-2,5.1c-2-4-6.5-6.5-10.9-6.2c-14.9,0-29.6,16.2-29.6,32.9c0,8.5,4.2,13.1,11.3,13.1
	c3.6,0,7.1-1.1,10.2-2.9c4.7-2.9,8.7-6.9,11.3-11.6c0.9-1.1,1.6-2.4,2.4-3.8C74.5,440.9,73.8,443.1,72.3,449.6z"/>
<path class="st0" d="M93,446.5l5.3-21.4c1.8-6.5,2.9-13.3,3.3-20c1.3,0,2,0,3.3,0s2,0,3.8,0c-0.7,6.2-1.8,12.5-3.3,18.7
	c1.8-3.6,4-7.1,6.5-10c5.1-6.5,10.9-9.6,17.1-9.6s9.1,3.8,9.1,10.2c0,1.1,0,2-0.2,3.1c-1.1,6-4.7,20.9-7.8,30.9l-0.2,1.3
	c-2,0-2.7,0-4.2,0s-2,0-3.6,0c5.6-19.1,8.2-29.6,8.2-34s-1.3-6-4.7-6c-3.8,0-8.7,3.6-14,10c-1.3,1.6-2.4,3.1-3.6,4.9
	c-1.8,2.2-3.1,4.9-3.8,7.8L100,450c-2,0-2.7,0-4.2,0c-1.1,0-1.8,0-3.1,0L93,446.5z"/>
<path class="st0" d="M170.8,407.8c-9.3,0-18.5,11.6-18.5,23.8c0,8.9,4.7,13.8,12.7,13.8c4,0,7.8-0.9,11.3-2.7l2,2.9
	c-4.7,3.1-10.5,4.9-16.2,4.9c-10.9,0-18.2-7.6-18.2-18.5c-0.2-15.1,11.8-27.6,26.7-27.8c0.2,0,0.2,0,0.4,0c8.5,0,13.6,3.8,14.7,11.1
	c-2.7,0.2-5.1,0.9-7.8,1.8C177.7,410.9,175.3,407.8,170.8,407.8z"/>
<path class="st0" d="M199.3,405.1c1.3,0,2.2,0,3.8,0l-0.9,4l-8.7,36.5l-0.9,4c-1.8,0-2.4,0-3.8,0s-2.2,0-4,0l0.9-4l8.5-36.5l0.9-4
	C197.1,405.1,197.7,405.1,199.3,405.1z M200.9,396.9c-1.8,0-2.7-1.3-2.7-3.8c0-3.8,2.4-7.1,5.1-7.1c1.8,0.2,2.9,1.6,2.9,3.3v0.2
	C206.2,393.5,203.8,396.9,200.9,396.9L200.9,396.9z"/>
<path class="st0" d="M243.8,416.2l-2,8.2c-2.2,5.1-5.3,9.8-9.6,13.8c-2.2,2.2-4.9,4-7.6,5.6c-1.6,0.7-3.3,1.1-5.1,1.3
	c-3.6,0-5.8-2.7-5.8-7.8c0-11.8,7.8-24.7,17.1-28c1.3-0.4,2.9-0.9,4.4-0.9C239.8,408.4,243.6,411.8,243.8,416.2z M236.5,449.6
	c1.3,0,1.8,0,2.7,0h2.7h1.3c1.8-11.3,4.4-22.7,7.8-33.8c0.2-0.7,0.4-1.3,0.7-2c0.9-2.9,2-5.8,3.3-8.7c-2.4,0-3.3,0-4.4,0
	s-1.3,0-2.4,0c-0.7,1.8-1.3,3.3-2,5.1c-2-4-6.5-6.5-10.9-6.2c-14.9,0-29.6,16.2-29.6,32.9c0,8.5,4.2,13.1,11.3,13.1
	c3.6,0,7.1-1.1,10.2-2.9c4.7-2.9,8.7-6.9,11.3-11.6c0.9-1.1,1.6-2.4,2.4-3.8C238.5,440.9,237.8,443.1,236.5,449.6L236.5,449.6z"/>
<path class="st0" d="M257.4,444.9l13.3-56.9l0.9-4h0.4h6.7h0.4l-0.9,4l-13.3,56.9l-1.1,4.7h-0.2c-1.3,0-2.9,0-4.2,0
	c-1.3,0-1.6,0-3.1,0L257.4,444.9z"/>
<path class="st0" d="M279.8,434.5c4,0.2,7.1,3.6,7.1,7.6c-0.2,4-3.6,7.1-7.6,6.9s-7.1-3.6-6.9-7.6
	C272.7,437.4,275.8,434.5,279.8,434.5z M278.3,441.4V438h0.9c0.9-0.2,1.8,0.4,2,1.3v0.2c0,1.1-0.7,1.8-1.8,1.8h-0.2h-0.9V441.4z
	 M284.1,446.9L281,442c1.1-0.2,2-1.3,2-2.4c0-1.6-1.3-2.4-3.3-2.4h-2.9v10h1.6v-4.4h1.1l2.7,4.7h2v-0.6H284.1z M279.8,432.9
	c-4.9,0-8.9,4-8.9,8.9s4,8.9,8.9,8.9s8.9-4,8.9-8.9l0,0c0.2-4.7-3.6-8.7-8.5-8.9C280.1,432.9,280.1,432.9,279.8,432.9z"/>
</svg>
