<?xml version="1.0" encoding="utf-8"?>
<!-- Generator: Adobe Illustrator 19.2.1, SVG Export Plug-In . SVG Version: 6.00 Build 0)  -->
<svg version="1.1" xmlns="http://www.w3.org/2000/svg" xmlns:xlink="http://www.w3.org/1999/xlink" x="0px" y="0px"
	 viewBox="0 0 500 500" style="enable-background:new 0 0 500 500;" xml:space="preserve">
<style type="text/css">
	.st0{fill-rule:evenodd;clip-rule:evenodd;}
	.st1{fill-rule:evenodd;clip-rule:evenodd;fill:#FFFFFF;}
	.st2{fill:none;stroke:#000000;stroke-width:3;}
	.st3{fill:#FFFFFF;}
	.st4{fill:none;}
	.st5{clip-path:url(#SVGID_2_);}
	.st6{fill-rule:evenodd;clip-rule:evenodd;fill:none;}
	.st7{enable-background:new    ;}
	.st8{stroke:#FFFFFF;stroke-width:0.45;stroke-miterlimit:3.8637;}
	.st9{fill:#424242;}
	.st10{display:none;}
	.st11{fill:#E8E8E8;}
	.st12{fill:#B2B2B2;}
	.st13{fill:#262626;}
	.st14{fill:#C2C2C2;}
	.st15{fill:#383838;}
	.st16{fill:#FFFFFF;stroke:#000000;stroke-width:0.7;stroke-linecap:round;stroke-linejoin:round;}
	.st17{fill:#FFFFFF;stroke:#000000;stroke-width:1.5;stroke-linecap:round;stroke-linejoin:round;}
	.st18{fill:#FFFFFF;stroke:#000000;stroke-width:0.7;}
	.st19{fill:#BABABA;}
	.st20{fill:#939393;}
	.st21{fill:#E6E6E6;}
	.st22{fill:#545454;}
	.st23{filter:url(#Adobe_OpacityMaskFilter);}
	.st24{mask:url(#SVGID_3_);}
	.st25{fill:url(#SVGID_4_);}
	.st26{opacity:0.42;fill:url(#SVGID_5_);}
	.st27{fill:none;stroke:#FFFFFF;stroke-width:2;}
	.st28{fill:#FFFFFF;stroke:#000000;stroke-width:0.25;stroke-miterlimit:10;}
	.st29{fill:none;stroke:#000000;stroke-miterlimit:10;}
	.st30{fill:#F5F5F5;}
	.st31{fill:#FAFAFA;}
	.st32{fill:#ECECEC;}
	.st33{fill:#C1C1C1;}
	.st34{fill:#A5A5A5;}
	.st35{fill:#C3C3C3;}
	.st36{fill:#D0D0D0;}
	.st37{fill:#8C8C8C;}
	.st38{fill:#C0C0C0;}
	.st39{fill:#C5C5C5;}
	.st40{fill:#CBCBCB;}
	.st41{fill:#C9C9C9;}
	.st42{fill:#BFBFBF;}
	.st43{fill:#BDBDBD;}
	.st44{fill:#BCBCBC;}
	.st45{fill:#B9B9B9;}
	.st46{fill:#B8B8B8;}
	.st47{fill:#8B8B8B;}
	.st48{fill:#FCFCFC;}
	.st49{fill:#F7F7F7;}
	.st50{fill:#ADADAD;}
	.st51{fill:#CCCCCC;}
	.st52{fill:#E1E1E1;}
	.st53{fill:#D8D8D8;}
	.st54{fill:#CECECE;}
	.st55{fill:#EBEBEB;}
	.st56{fill:#CFCFCF;}
	.st57{fill:#A8A8A8;}
	.st58{fill:#A0A0A0;}
	.st59{fill:#AFAFAF;}
	.st60{fill:#B6B6B6;}
	.st61{fill:#ABABAB;}
	.st62{fill:#8A8A8A;}
	.st63{fill:#C6C6C6;}
	.st64{fill:#191919;}
	.st65{fill:#818181;}
	.st66{fill:#DEDEDE;}
	.st67{fill:#F1F1F1;}
	.st68{fill:#B7B7B7;}
	.st69{fill:#5A5A5A;}
	.st70{fill:#B5B5B5;}
	.st71{fill:#AAAAAA;}
	.st72{fill:#212121;}
	.st73{fill:#B1B1B1;}
	.st74{fill:#5B5B5B;}
	.st75{fill:#595959;}
	.st76{fill:#F8F8F8;}
	.st77{fill:#858585;}
	.st78{fill:#696969;}
	.st79{fill:#7C7C7C;}
	.st80{fill:#666666;}
	.st81{fill:#6F6F6F;}
	.st82{fill:#A2A2A2;}
	.st83{fill:#494949;}
	.st84{fill:#D4D4D4;}
	.st85{fill:#757575;}
	.st86{fill:#3E3E3E;}
	.st87{fill:#EDEDED;}
	.st88{fill:#111111;}
	.st89{fill:#F2F2F2;}
	.st90{fill:#FEFEFE;}
	.st91{fill:#898989;}
	.st92{fill:#040404;}
	.st93{fill:#8E8E8E;}
	.st94{fill:#080808;}
	.st95{fill:#8D8D8D;}
	.st96{fill:#929292;}
	.st97{fill:#8F8F8F;}
	.st98{fill:#242424;}
	.st99{fill:#2F2F2F;}
	.st100{fill:#181818;}
	.st101{fill:#3A3A3A;}
	.st102{fill:#A6A6A6;}
	.st103{fill:#141414;}
	.st104{fill:#B4B4B4;}
	.st105{fill:#787878;}
	.st106{fill:#585858;}
	.st107{fill:#1B1B1B;}
	.st108{fill:#4C4C4C;}
	.st109{fill:#CDCDCD;}
	.st110{fill:#7B7B7B;}
	.st111{fill:#888888;}
	.st112{fill:#161616;}
	.st113{fill:#636363;}
	.st114{fill:#515151;}
	.st115{fill:#151515;}
	.st116{fill:#1F1F1F;}
	.st117{fill:#0C0C0C;}
	.st118{fill:#838383;}
	.st119{fill:#444444;}
	.st120{fill:#101010;}
	.st121{fill:#010101;}
	.st122{fill:#282828;}
	.st123{fill:#5D5D5D;}
	.st124{fill:#828282;}
	.st125{fill:#7E7E7E;}
	.st126{fill:#727272;}
	.st127{fill:#555555;}
	.st128{fill:#2A2A2A;}
	.st129{fill:#434343;}
	.st130{fill:#5F5F5F;}
	.st131{fill:#878787;}
	.st132{fill:#4B4B4B;}
	.st133{fill:#767676;}
	.st134{fill:#BBBBBB;}
	.st135{fill:#050505;}
	.st136{fill:#0B0B0B;}
	.st137{fill:#252525;}
	.st138{fill:#808080;}
	.st139{fill:#969696;}
	.st140{fill:#737373;}
	.st141{fill:#3D3D3D;}
	.st142{fill:#5E5E5E;}
	.st143{fill:#484848;}
	.st144{fill:#232323;}
	.st145{fill:#747474;}
	.st146{fill:#505050;}
	.st147{fill:#454545;}
	.st148{fill:#171717;}
	.st149{fill:#7F7F7F;}
	.st150{fill:#3C3C3C;}
	.st151{fill:#B0B0B0;}
	.st152{fill:#A9A9A9;}
	.st153{fill:#222222;}
	.st154{fill:#575757;}
	.st155{fill:#4A4A4A;}
	.st156{fill:#7A7A7A;}
	.st157{fill:#404040;}
	.st158{fill:#646464;}
	.st159{fill:#1A1A1A;}
	.st160{fill:#303030;}
	.st161{fill:#343434;}
	.st162{fill:#979797;}
	.st163{fill:#DDDDDD;}
	.st164{fill:#CACACA;}
	.st165{fill:#D3D3D3;}
	.st166{fill:#ACACAC;}
	.st167{fill:#AEAEAE;}
	.st168{fill:#999999;}
	.st169{fill:#676767;}
	.st170{fill:#292929;}
	.st171{fill:#9E9E9E;}
	.st172{fill:#9A9A9A;}
	.st173{fill:#464646;}
	.st174{fill:#474747;}
	.st175{fill:#202020;}
	.st176{fill:#323232;}
	.st177{fill:#4E4E4E;}
	.st178{fill:#9D9D9D;}
	.st179{fill:#C7C7C7;}
	.st180{fill:#3B3B3B;}
	.st181{fill:#C8C8C8;}
	.st182{fill:#D2D2D2;}
	.st183{fill:#BEBEBE;}
	.st184{fill:#C4C4C4;}
	.st185{fill:#717171;}
	.st186{fill:#020202;}
	.st187{fill:#606060;}
	.st188{fill:#414141;}
	.st189{fill:#6B6B6B;}
	.st190{fill:#5C5C5C;}
	.st191{fill:#2E2E2E;}
	.st192{fill:#909090;}
	.st193{fill:#2C2C2C;}
	.st194{fill:#686868;}
	.st195{fill:#070707;}
	.st196{fill:#4D4D4D;}
	.st197{fill:#9C9C9C;}
	.st198{fill:#949494;}
	.st199{fill:#6C6C6C;}
	.st200{fill:#363636;}
	.st201{display:inline;}
	.st202{fill-rule:evenodd;clip-rule:evenodd;fill:#1683C6;}
</style>
<g id="Layer_1">
	<g>
		<g>
			<defs>
				<rect id="SVGID_1_" x="49" y="195.3" width="402" height="109.5"/>
			</defs>
			<clipPath id="SVGID_2_">
				<use xlink:href="#SVGID_1_"  style="overflow:visible;"/>
			</clipPath>
			<path class="st5" d="M444.2,276.1c1.1,0,2.5,0.2,2.5-1.3c0-1.1-0.9-1.2-1.8-1.2h-2.1v2.5H444.2z M442.9,280.4h-1v-7.6h3.3
				c2,0,2.6,0.7,2.6,2.1c0,1.5-1,2-2.3,2.1l2.3,3.4h-1.1l-2.1-3.4h-1.6V280.4z M449.9,276.6c0-3.2-2.3-5.6-5.6-5.6
				c-3.2,0-5.6,2.3-5.6,5.6c0,3.3,2.3,5.6,5.6,5.6C447.6,282.2,449.9,279.9,449.9,276.6 M437.7,276.6c0-3.6,3-6.6,6.6-6.6
				c3.6,0,6.6,3,6.6,6.6c0,3.7-3,6.6-6.6,6.6C440.7,283.3,437.7,280.3,437.7,276.6"/>
			<path class="st5" d="M324.5,250.6H305v-5.5c0-3.6,1-6.6,3-8.5c1.7-1.7,4.1-2.7,6.7-2.7c6.3,0,9.7,4,9.8,11.2V250.6z M331.6,236
				c-4.2-3.7-10-5.6-16.8-5.6c-6.1,0-12.2,2.8-16.7,7.7c-4.8,5.2-7.5,12.3-7.5,20c0,7.6,2.7,14.5,7.8,19.5c4.8,4.8,11.2,7.4,18,7.4
				c13.1,0,20.5-9.7,21.8-18.8l0.1-0.5h-0.5h-3.2h-0.4l0,0.4c-0.9,7.3-7.1,15.1-16.9,15.1c-7.7,0-12.2-5.3-12.2-14.5
				c0,0,0-10.3,0-12.2h33.6h0.4l0-0.4C338.8,246.2,336.3,240.1,331.6,236"/>
			<path class="st5" d="M225.1,273.2h-0.5h-3h-0.3l-0.1,0.3c-0.5,2.4-2,6.5-6.9,6.4c-3.8,0-5.8-2.7-5.8-7.9v-36.7h12.1h0.4V235
				l0-2.8v-0.4h-0.4h-12.1v-15.4v-0.5l-0.5,0c-2.9,0.3-8.9,0.8-12,0.8h-0.4v0.4v14.6h-7.9h-0.4v0.4v2.8v0.4h0.4h7.9v31.9
				c0,11.7,5,17.7,15,17.7c11.4,0,13.8-8.7,14.2-11.3L225.1,273.2z"/>
			<path class="st5" d="M82.5,217.8l12,34.4H71.2L82.5,217.8z M179.4,280v-32.4c0-5-1.6-9.3-4.7-12.4c-3.1-3.1-7.5-4.8-12.5-4.8
				c-6.8,0-12.3,2.8-16.3,8.2l-0.1-6.3l0-0.4h-0.4h-19.6h-0.4v0.4v2.7v0.4h0.4h7.6V280h-14.3l-29.4-84.5l-0.1-0.3h-0.3h-3H86
				l-0.1,0.3L57.1,280h-7.7H49v0.4v2.7v0.4h0.4h23.2H73v-0.4v-2.7V280h-0.4H62l8-24.1h25.7l8.1,24.1H93h-0.4v0.4v2.7v0.4H93h60.5
				h0.4v-0.4v-2.7V280h-0.4H146v-24.8c0-14.8,7.9-20.1,13.2-20.1c5.1,0,7.7,3.3,7.7,9.9v35h-7.1h-0.4v0.4v2.7v0.4h0.4h27.4h0.4v-0.4
				v-2.7V280h-0.4H179.4z"/>
			<path class="st5" d="M280.8,280v-33c0-7.7-4.7-16.7-17.8-16.7c-10.2,0-15.5,5-17.7,7.5v-42v-0.4h-0.4h-19.6h-0.4v0.4v2.9v0.4h0.4
				h7.2V280h-7.9h-0.4v0.4v2.7v0.4h0.4h28.2h0.4v-0.4v-2.7V280h-0.4h-7.5v-25.1c0-8.7,3-13.5,5.4-15.9c2.4-2.4,5.5-3.7,8.7-3.7
				c7,0,8.5,5.8,8.5,10.6V280h-7.5H260v0.4v2.7v0.4h0.4h28.2h0.4v-0.4v-2.7V280h-0.4H280.8z"/>
			<path class="st5" d="M434.1,280h-7.9v-34.9c0-9.1-6.2-14.7-16.2-14.7c-9.5,0-14.6,4.8-17,7.9c-2.6-5.1-7.7-7.9-14.7-7.9
				c-6.7,0-12.7,2.6-16.8,6.9l-0.1-5.1l0-0.4H361h-20h-0.4v0.4v2.7v0.4h0.4h8.1V280h-8h-0.4v0.4v2.7v0.4h0.4h27.5h0.4v-0.4v-2.7V280
				h-0.4h-6.8v-24.6c0.2-7.2,0.6-11.8,3.1-15.3c2.2-2.9,5.7-4.8,9.2-4.8c4.3,0,5.8,3.2,5.9,3.6c1.1,2,1.1,5.6,1.1,9V280H374h-0.4
				v0.4v2.7v0.4h0.4h27h0.4v-0.4v-2.7V280H401h-6.8v-24.6c0.2-7.2,0.6-11.8,3.1-15.3c2.2-2.9,5.7-4.8,9.2-4.8c4.3,0,5.8,3.2,5.9,3.6
				c1.1,2,1.1,5.6,1.1,9V280h-7.1H406v0.4v2.7v0.4h0.4h27.6h0.4v-0.4v-2.7V280H434.1z"/>
		</g>
		<polygon points="57.5,297.9 57.5,304.7 440.2,304.7 442.5,297.9 		"/>
	</g>
</g>
<g id="Layer_2">
</g>
</svg>
