<?xml version="1.0" encoding="utf-8"?>
<!-- Generator: Adobe Illustrator 19.2.1, SVG Export Plug-In . SVG Version: 6.00 Build 0)  -->
<svg version="1.1" xmlns="http://www.w3.org/2000/svg" xmlns:xlink="http://www.w3.org/1999/xlink" x="0px" y="0px"
	 viewBox="0 0 500 500" style="enable-background:new 0 0 500 500;" xml:space="preserve">
<style type="text/css">
	.st0{fill:#FFFFFF;}
</style>
<g id="Layer_1">
	<g>
		<g>
			<defs>
				<rect class="st0" id="SVGID_1_" x="49" y="195.3" width="402" height="109.5"/>
			</defs>
			<clipPath id="SVGID_2_">
				<use xlink:href="#SVGID_1_"  style="overflow:visible;"/>
			</clipPath>
			<path class="st0" d="M444.2,276.1c1.1,0,2.5,0.2,2.5-1.3c0-1.1-0.9-1.2-1.8-1.2h-2.1v2.5H444.2z M442.9,280.4h-1v-7.6h3.3
				c2,0,2.6,0.7,2.6,2.1c0,1.5-1,2-2.3,2.1l2.3,3.4h-1.1l-2.1-3.4h-1.6V280.4z M449.9,276.6c0-3.2-2.3-5.6-5.6-5.6
				c-3.2,0-5.6,2.3-5.6,5.6c0,3.3,2.3,5.6,5.6,5.6C447.6,282.2,449.9,279.9,449.9,276.6 M437.7,276.6c0-3.6,3-6.6,6.6-6.6
				c3.6,0,6.6,3,6.6,6.6c0,3.7-3,6.6-6.6,6.6C440.7,283.3,437.7,280.3,437.7,276.6"/>
			<path class="st0" d="M324.5,250.6H305v-5.5c0-3.6,1-6.6,3-8.5c1.7-1.7,4.1-2.7,6.7-2.7c6.3,0,9.7,4,9.8,11.2V250.6z M331.6,236
				c-4.2-3.7-10-5.6-16.8-5.6c-6.1,0-12.2,2.8-16.7,7.7c-4.8,5.2-7.5,12.3-7.5,20c0,7.6,2.7,14.5,7.8,19.5c4.8,4.8,11.2,7.4,18,7.4
				c13.1,0,20.5-9.7,21.8-18.8l0.1-0.5h-0.5h-3.2h-0.4l0,0.4c-0.9,7.3-7.1,15.1-16.9,15.1c-7.7,0-12.2-5.3-12.2-14.5
				c0,0,0-10.3,0-12.2h33.6h0.4l0-0.4C338.8,246.2,336.3,240.1,331.6,236"/>
			<path class="st0" d="M225.1,273.2h-0.5h-3h-0.3l-0.1,0.3c-0.5,2.4-2,6.5-6.9,6.4c-3.8,0-5.8-2.7-5.8-7.9v-36.7h12.1h0.4V235
				l0-2.8v-0.4h-0.4h-12.1v-15.4v-0.5l-0.5,0c-2.9,0.3-8.9,0.8-12,0.8h-0.4v0.4v14.6h-7.9h-0.4v0.4v2.8v0.4h0.4h7.9v31.9
				c0,11.7,5,17.7,15,17.7c11.4,0,13.8-8.7,14.2-11.3L225.1,273.2z"/>
			<path class="st0" d="M82.5,217.8l12,34.4H71.2L82.5,217.8z M179.4,280v-32.4c0-5-1.6-9.3-4.7-12.4c-3.1-3.1-7.5-4.8-12.5-4.8
				c-6.8,0-12.3,2.8-16.3,8.2l-0.1-6.3l0-0.4h-0.4h-19.6h-0.4v0.4v2.7v0.4h0.4h7.6V280h-14.3l-29.4-84.5l-0.1-0.3h-0.3h-3H86
				l-0.1,0.3L57.1,280h-7.7H49v0.4v2.7v0.4h0.4h23.2H73v-0.4v-2.7V280h-0.4H62l8-24.1h25.7l8.1,24.1H93h-0.4v0.4v2.7v0.4H93h60.5
				h0.4v-0.4v-2.7V280h-0.4H146v-24.8c0-14.8,7.9-20.1,13.2-20.1c5.1,0,7.7,3.3,7.7,9.9v35h-7.1h-0.4v0.4v2.7v0.4h0.4h27.4h0.4v-0.4
				v-2.7V280h-0.4H179.4z"/>
			<path class="st0" d="M280.8,280v-33c0-7.7-4.7-16.7-17.8-16.7c-10.2,0-15.5,5-17.7,7.5v-42v-0.4h-0.4h-19.6h-0.4v0.4v2.9v0.4h0.4
				h7.2V280h-7.9h-0.4v0.4v2.7v0.4h0.4h28.2h0.4v-0.4v-2.7V280h-0.4h-7.5v-25.1c0-8.7,3-13.5,5.4-15.9c2.4-2.4,5.5-3.7,8.7-3.7
				c7,0,8.5,5.8,8.5,10.6V280h-7.5H260v0.4v2.7v0.4h0.4h28.2h0.4v-0.4v-2.7V280h-0.4H280.8z"/>
			<path class="st0" d="M434.1,280h-7.9v-34.9c0-9.1-6.2-14.7-16.2-14.7c-9.5,0-14.6,4.8-17,7.9c-2.6-5.1-7.7-7.9-14.7-7.9
				c-6.7,0-12.7,2.6-16.8,6.9l-0.1-5.1l0-0.4H361h-20h-0.4v0.4v2.7v0.4h0.4h8.1V280h-8h-0.4v0.4v2.7v0.4h0.4h27.5h0.4v-0.4v-2.7V280
				h-0.4h-6.8v-24.6c0.2-7.2,0.6-11.8,3.1-15.3c2.2-2.9,5.7-4.8,9.2-4.8c4.3,0,5.8,3.2,5.9,3.6c1.1,2,1.1,5.6,1.1,9V280H374h-0.4
				v0.4v2.7v0.4h0.4h27h0.4v-0.4v-2.7V280H401h-6.8v-24.6c0.2-7.2,0.6-11.8,3.1-15.3c2.2-2.9,5.7-4.8,9.2-4.8c4.3,0,5.8,3.2,5.9,3.6
				c1.1,2,1.1,5.6,1.1,9V280h-7.1H406v0.4v2.7v0.4h0.4h27.6h0.4v-0.4v-2.7V280H434.1z"/>
		</g>
		<polygon class="st0" points="57.5,297.9 57.5,304.7 440.2,304.7 442.5,297.9 		"/>
	</g>
</g>
<g id="Layer_2">
</g>
</svg>
