<?xml version="1.0" encoding="utf-8"?>
<!-- Generator: Adobe Illustrator 19.1.0, SVG Export Plug-In . SVG Version: 6.00 Build 0)  -->
<svg version="1.1" id="Layer_1" xmlns="http://www.w3.org/2000/svg" xmlns:xlink="http://www.w3.org/1999/xlink" x="0px" y="0px"
	 viewBox="-133 135 500 500" style="enable-background:new -133 135 500 500;" xml:space="preserve">
<style type="text/css">
	.st0{fill:#FFFFFF;}
	.st1{fill:#AF3F3F;}
</style>
<g id="Layer_1_1_">
</g>
<g>
	<path class="st0" d="M238.5,341.8l1-0.6l-0.7-1l-28.6-41.3l-0.7-1l-1,0.7c-0.2,0.1-17.1,12.8-35.6,12.8c-7.6,0-12.6-1.9-18-4.2
		l7.6-16.3l0.4-0.9l-0.5-0.3c2-0.3,3.9-1.2,5.4-2.6c1.7-1.7,2.7-4.1,2.7-6.6s-1-4.8-2.7-6.6c-1.7-1.7-4.1-2.7-6.6-2.7
		c-2,0-3.8,0.6-5.3,1.7c-0.2-2.1-1.2-4-2.6-5.5c-1.7-1.7-4.1-2.7-6.6-2.7c-2.8,0-5.3,1.3-7,3.2c-0.4-1.6-1.2-3.2-2.4-4.3
		c-3.6-3.6-9.5-3.6-13.1,0c-0.3,0.3-0.6,0.7-0.9,1c-0.5-1-1.1-1.8-1.8-2.6c-1.7-1.7-4.1-2.7-6.6-2.7c-3.7,0-6.9,2.2-8.4,5.3
		c-0.3-0.4-0.6-0.7-0.9-1.1c-1.7-1.7-4.1-2.7-6.6-2.7c-4.4,0-8,3-9,7.1c-0.2-0.2-0.3-0.4-0.5-0.5c-1.7-1.7-4.1-2.7-6.6-2.7
		c-4.7,0-8.7,3.6-9.2,8.2c-1.6-1.1-3.4-1.7-5.3-1.7c-5.1,0-9.3,4.2-9.3,9.3c0,2.5,1,4.8,2.7,6.6c1.4,1.5,3.3,2.4,5.4,2.6l-0.5,0.3
		l0.4,0.9l7.6,16.3c-5.4,2.3-10.5,4.2-18,4.2c-18.5,0-35.5-12.6-35.6-12.8l-1-0.7l-0.7,1l-28.7,41.3l-0.7,1l1,0.6
		c0.2,0.1,15.5,9.8,15.5,23.9c0,9.4-3,18.8-6.1,28.8c-3.6,11.3-7.3,22.9-7.3,36.2c0,24.3,25,45.7,55.7,47.8
		c4.8,0.3,9.4,0.5,13.9,0.7c21.9,1,39.3,1.8,51,14.2l0.8,0.9l0.8-0.9c11.8-12.4,29.1-13.2,51-14.2c4.5-0.2,9.1-0.4,13.9-0.7
		c30.7-2,55.7-23.5,55.7-47.8c0-13.2-3.7-24.9-7.3-36.2c-3.1-10-6.1-19.4-6.1-28.8C223,351.6,238.4,341.9,238.5,341.8L238.5,341.8z
		 M154.4,279.3c0.6-0.9,1.1-2,1.4-3.1c1.3-1.7,3.4-2.7,5.5-2.7c1.9,0,3.6,0.7,4.9,2s2,3.1,2,4.9c0,3.9-3.1,7-7,7
		c-1.9,0-3.6-0.7-4.9-2C154.7,283.8,154,281.5,154.4,279.3L154.4,279.3z M141.8,269c1.3-1.3,3.1-2,4.9-2s3.6,0.7,4.9,2
		c1.3,1.3,2.1,3.1,2,4.9c0,0.4,0,0.8-0.1,1.2c-0.6,0.9-1.1,2-1.4,3.1c-2.4,3-6.7,3.6-9.8,1.2c-0.2-0.2-0.5-0.4-0.7-0.6
		c-1.3-1.3-2-3.1-2-4.9S140.5,270.4,141.8,269L141.8,269z M153,284.6c-1.3-0.6-2.6-1.1-3.9-1.7c1.1-0.3,2.1-0.7,3-1.4
		C152.2,282.7,152.5,283.7,153,284.6L153,284.6z M139.4,279.7c-1.6-0.4-3.1-0.8-4.7-1.2c0.9-0.5,1.8-1.1,2.5-1.8
		c0.2-0.2,0.3-0.3,0.5-0.5C138.1,277.5,138.6,278.6,139.4,279.7L139.4,279.7z M124.1,267.8c1-2.8,3.6-4.6,6.6-4.6
		c1.9,0,3.6,0.7,4.9,2c1.3,1.3,2.1,3.1,2,4.9c0,3.9-3.1,7-7,7c-1.9,0-3.6-0.7-4.9-2c-1-1-1.7-2.4-2-3.9c0.3-0.9,0.4-1.7,0.4-2.6
		C124.2,268.3,124.2,268,124.1,267.8L124.1,267.8z M124.1,276.7L124.1,276.7c-1.4-0.1-2.8-0.2-4.2-0.3c0.6-0.4,1.1-0.8,1.5-1.2
		c0.3-0.3,0.6-0.7,0.9-1C122.8,275.1,123.4,276,124.1,276.7z M109.9,263.7c1.3-1.3,3.1-2,4.9-2c1.9,0,3.6,0.7,4.9,2
		c1.1,1.1,1.7,2.4,2,3.9c-0.3,0.8-0.4,1.7-0.4,2.6c0,0.3,0,0.6,0,0.8c-1,2.8-3.6,4.6-6.6,4.6c-1.9,0-3.6-0.7-4.9-2
		c-0.8-0.8-1.3-1.7-1.7-2.7c0-0.2,0-0.5,0-0.7c0-0.8-0.1-1.7-0.3-2.5C108.2,266.1,108.9,264.7,109.9,263.7L109.9,263.7z
		 M107.4,274.1c0.3,0.4,0.6,0.7,0.9,1.1c0.5,0.5,1,0.9,1.5,1.2c-1.4,0.1-2.9,0.2-4.3,0.3l0,0C106.3,276,107,275.1,107.4,274.1z
		 M94.1,265.2c1.3-1.3,3.1-2.1,4.9-2c3,0,5.6,1.9,6.6,4.7c0,0.2,0,0.5,0,0.7c0,0.9,0.1,1.7,0.3,2.5c-0.5,3.5-3.4,6-6.9,6
		c-1.9,0-3.6-0.7-4.9-2s-2-3.1-2-4.9S92.8,266.5,94.1,265.2z M92,276.2c0.2,0.2,0.3,0.4,0.5,0.5c0.7,0.7,1.6,1.3,2.5,1.8
		c-1.6,0.3-3.1,0.7-4.7,1.2C91.1,278.7,91.7,277.5,92,276.2L92,276.2z M78,269c1.3-1.3,3.1-2,4.9-2c1.9,0,3.6,0.7,4.9,2
		s2.1,3.1,2,4.9c0,3.9-3.1,7-7,7c-2.2,0-4.2-1-5.5-2.7c-0.3-1.1-0.7-2.2-1.4-3.1C75.7,273,76.4,270.6,78,269L78,269z M80.6,283
		c-1.3,0.5-2.6,1.1-3.9,1.7c0.5-0.9,0.8-2,0.9-3C78.6,282.2,79.6,282.7,80.6,283z M63.5,285.4c-1.3-1.3-2.1-3.1-2-4.9
		c0-1.9,0.7-3.6,2-4.9s3.1-2.1,4.9-2c2.2,0,4.2,1,5.5,2.7c0.3,1.1,0.7,2.1,1.4,3.1c0.1,0.4,0.1,0.8,0.1,1.2c0,3.9-3.1,7-7,7
		C66.6,287.5,64.8,286.7,63.5,285.4L63.5,285.4z M69.7,290.9c13.1-7.8,29.5-12.3,45.1-12.3s32,4.5,45.1,12.3l-7.2,15.4
		c-8.3-3.6-17.9-7.5-37.9-7.5c-20.1,0-29.7,3.9-37.9,7.5L69.7,290.9L69.7,290.9z M220.7,365.7c0,9.8,3,19.4,6.2,29.5
		c3.5,11.1,7.1,22.6,7.1,35.5c0,23.1-24,43.5-53.6,45.5c-4.8,0.3-9.4,0.5-13.9,0.7c-22,1-39.4,1.8-51.8,14.1
		c-12.4-12.2-29.8-13.1-51.8-14.1c-4.5-0.2-9.1-0.4-13.9-0.7c-29.5-2-53.6-22.4-53.6-45.5c0-12.9,3.6-24.4,7.1-35.5
		c3.2-10.1,6.2-19.7,6.2-29.5c0-13.3-12-22.6-15.6-25.2l27.3-39.4c3.9,2.8,19.1,12.5,36,12.5c8.7,0,14.2-2.3,20.4-5.1
		c8.2-3.6,17.5-7.6,37.6-7.6s29.4,4,37.6,7.6c6.3,2.7,11.7,5.1,20.4,5.1c16.9,0,32.1-9.8,36-12.5l27.3,39.4
		C232.7,343.1,220.7,352.4,220.7,365.7L220.7,365.7z"/>
	<path class="st1" d="M110.4,317.6h-0.9l0.5-0.6C110.1,317,110.5,317.3,110.4,317.6z M122.1,318.1c-0.1,0.6,0.4,1.7-0.6,1.7
		c-0.5-0.7-0.2-1.4,0-2.2C121.7,317.6,121.8,317.9,122.1,318.1z M108.3,317.7c-0.5,1.7,0.3,3.2-0.8,4.6c-1.9-1,0-2.9-0.3-4.5
		C107.5,317.6,108,317.8,108.3,317.7L108.3,317.7z M99.6,320.7c-0.5,0-1.1,0.1-1.1-0.5c0.6-0.6,0.1-2.2,1.1-2.3V320.7z M29.9,321.5
		c2.1,1.1,4.5,1.8,6.8,2.6c-0.1,1.8-2.1,2.4-2.6,3.8c-5.3,4.8-8.5,10.1-14,14.9h-0.5c-0.6-1.4,0.6-2.4-0.7-3.5
		c-0.8-0.1-1.7-0.3-1.9-1.1c0.1-1,0.6-2.1-0.5-2.8c-0.7-0.6-1.8-0.8-2.8-0.5c0.1-0.9,0.4-2.2,1.1-3c3.2-4.2,6.2-8.9,9.6-13.1
		C26.5,319,27.9,321,29.9,321.5L29.9,321.5z M132,322.4c-0.1,0.7,0.1,1.7,0.5,2.5c0.2,0.7,0.2,1.8,0.6,2.6l0.7,4.1l-0.7,0.2
		c-0.9-3.2-1.5-6.5-2.6-9.6c0-1.1-0.7-2.3,0-3.3C131.7,319.6,130.8,321.5,132,322.4L132,322.4z M118.9,319.7
		c0.7-0.1,0.8,0.7,1.2,1.1c-0.1,1.1,0.3,2.5-1.2,2.6c-2.6-0.1-5.7,1.1-7.6-1c-0.2-1.3,0.3-2.2,0.8-3.2
		C114.2,320.5,116.7,320.1,118.9,319.7z M88.1,327.1c-0.2,1.1,0.7,2,1.7,2.4l5.1,0.1c-0.4,2.8-1.2,5.3-1.8,8
		c-2.1-0.6-5.4-0.1-5.9-2.8c-1-1.1-3.9-0.4-2.7-2.8c0.1-2.2,4.3-4.8,0.9-6.5c0.3-1.9,1-4.5,2.6-5.7C88.4,322,84.6,325.1,88.1,327.1
		L88.1,327.1z M128.4,320.7c0.4,0.8,0,1.6-0.7,2h-3.6c-0.6-0.5-0.4-1.5-0.2-2.2C125.3,320.4,127.2,319.4,128.4,320.7z M97.1,320.7
		c0.4,1-0.6,1.7-0.8,2.6c-0.7-0.5-1.9,0.3-2.3-0.6c0.1-0.9,0.5-1.5-0.3-2.2C94.6,320,96.2,320.1,97.1,320.7z M135.1,320.5
		c0.1,0.5-0.6,0.5-0.9,0.7c-0.2,0.1-0.3-0.2-0.5-0.3C134,320.4,134.5,320.5,135.1,320.5L135.1,320.5z M101.4,323.5h-1.3l0.2-2
		C101.1,321.9,101.3,322.7,101.4,323.5z"/>
	<path class="st0" d="M85.5,300c3,0,5.9-1.2,8.1-3.3c1.4-1.4,2.4-3.1,2.9-5c0.1,0.1,0.2,0.2,0.3,0.3c2.1,2.1,5,3.2,8.1,3.2
		c2.9,0,5.8-1.1,7.8-3.2c0.9-0.9,1.6-2,2.2-3.1c0.5,1.4,1.2,2.5,2.2,3.4c2.1,2.1,4.9,3.2,7.8,3.2c3.1,0,6-1.2,8.1-3.2
		c0.1-0.1,0.2-0.2,0.3-0.3c0.5,1.9,1.5,3.6,2.9,5c2.1,2.1,5,3.4,8.1,3.3c5,0,9.4-3.2,10.9-7.9c0.2-0.6-0.1-1.2-0.7-1.4
		c-0.6-0.2-1.2,0.1-1.4,0.7c-1.2,3.8-4.7,6.4-8.7,6.3c-2.4,0-4.7-1-6.5-2.7c-1.7-1.7-2.6-3.9-2.7-6.2c0.6-1.4,1-3,1-4.6
		c0.2-0.6,0-1.3-0.6-1.5c-0.6-0.2-1.3,0-1.5,0.6c-0.1,0.1-0.1,0.3-0.1,0.4c-0.5,1.2-1,2.9-1.1,4.5c-1.5,2.8-4.4,4.7-8,4.7
		c-2.3,0-4.6-0.9-6.2-2.6c-1.6-1.6-2.5-3.7-2.6-6.1v-2.7c0-0.6-0.5-1.2-1.1-1.2c-0.6,0-1.2,0.5-1.2,1.1v0.1v1.9c0,0.1,0,0.2,0,0.2
		c0,5.1-3.9,9.1-8.9,9.1c-2.5,0-4.8-0.9-6.5-2.6c-0.6-0.6-1.1-1.3-1.5-2.1c-0.1-1.6-0.6-3.4-1.1-4.5c-0.2-0.6-0.9-0.9-1.5-0.6
		c-0.4,0.2-0.7,0.6-0.7,1.1c0,1.6,0.3,3.2,1,4.6c-0.1,4.9-4.2,8.9-9.1,8.9c-4,0-7.5-2.6-8.7-6.3c-0.2-0.6-0.8-0.9-1.4-0.8
		c-0.6,0.2-0.9,0.8-0.8,1.4C76.1,296.8,80.5,300.1,85.5,300z"/>
	<path class="st1" d="M81.9,323.3c-0.1,1.1-1.8,2.2-0.5,3.3c-1,1.5-2.2,2.6-3.8,3.8c-1.6,0.7-3.1-0.5-3.8-1.8c0.1-1.1,1.8-2.8,0-3.6
		c0.3-1.3,1.6-0.1,2.5-0.7C77.6,322,80.1,323.9,81.9,323.3z M98.3,324.1c0.1,1,0.1,2.4-0.6,3.3c-0.1-0.3-0.5-0.1-0.7-0.2l0.5-3.2
		h0.8V324.1z M56.2,326.7c-6.7,9.3-14.2,17.7-21.6,26.5c-0.9,0.7-1.7,2.2-3,1.1c-1.2-0.3-2.3-2-3.6-1.1c-1.7,1.4,0.3,3.2-0.3,4.8
		c-2.4,0.6-1.9-2.9-4.1-3.3c-0.3-0.3-0.1-0.9-0.2-1.3c-0.6-1.5-3.3-1.4-2.5-3c2.5,0.3,4.6,1.8,6.9,2.2c0.2-0.7,0.3-1.2-0.2-1.8
		c-1.3-0.6-3.1-1.2-3.5-2.8c0.5-1.8-2.4-2.6-1.1-4.3l5.3-6.1c4-4.2,7.8-8,11.6-12.2c4.7-0.5,8.9,1.4,13.9,1L56.2,326.7L56.2,326.7z
		 M129.2,325.4c0,0.9,1.5,2.4-0.3,2.6c-1.1-0.1-2.2,0.2-3-0.9C125,324.7,127.9,325.5,129.2,325.4z M197.7,331
		c3.6,3.8,7.9,7.5,11.2,11.7c1.4,0.4,2.2,1.8,2.5,3.2c-6.4-5.3-11.9-12.7-18.5-17.5c-0.7,1-2,0.8-2.6,2c2,1.9-2,3.3,0.3,5.1
		c-0.6,1.4,1,2.4,1.1,3.7c0.7,1.1,2.4,0.9,2.5,2.6c0.5,1.8-1.2,5.9,2,6.4c0.2,1.3,0.2,2.2,0,3.5c-3.3-2.6-5.3-6.8-8.7-10.1
		l-11.1-12.4l0.2-0.7c5.3-0.1,10.1-1.5,15-2.6C194.6,326.1,195.2,329.7,197.7,331L197.7,331z M121.1,329.9c0.3,2.8,0.7,6.4,0.3,9.3
		c-0.8-0.9-3.6-0.1-2.6-2c0.6-0.7-0.1-1-0.5-1.5c-1,0.1-2-0.6-2.5-1.5c0.1-0.7-0.3-2.1,0.3-2.8c0.6-0.6,1.6-0.2,1.8-1.1
		c-0.3-0.9,0.5-1.2,1-1.5C119.9,328.6,120.8,329,121.1,329.9L121.1,329.9z M65.1,332.9l2.1,0.3c-4.2,8.4-8.7,16.7-13.4,24.9
		c-0.9,1.4-1.6,3.2-3,4c-5-1.3-9.6-3.6-14.4-5.4c-1.6-0.7,0.2-1.7,0.3-2.4c6.9-7.8,13.1-16.8,20.6-24.4
		C59.8,331.5,62.9,331.1,65.1,332.9z M81.9,330.6l-0.8,0.8c-0.4-0.4-0.2-0.7,0-1.1C81.6,330.2,82.2,329.7,81.9,330.6z M169.6,334.6
		c0.1,0.3-0.2,0.5-0.3,0.6c-0.8,0.2-1-0.7-0.7-1.3C169,334,169.5,334.1,169.6,334.6L169.6,334.6z M138.6,335.4
		c1.7,0.2,4.4-0.6,5.4,1.1l-0.2,1.5c-2.1,0.8-4.5,0.6-6.8,0.9c-0.6-1.5-1.5-3.1-1.1-4.8C137.2,333.5,137.6,335,138.6,335.4
		L138.6,335.4z"/>
	<path class="st0" d="M84.6,342.2c2.2-0.9,4.9,1.2,6.5-1.1h1.6c0.3,1.9-0.3,3.8-1.3,5.4c-0.7,0.5-2.1-0.3-2.6,0.7
		c1.3,1.1,3.3,0.9,4.1,2.6c-1.5,4.9-2.1,10.2-4,15c-0.3,0.2-0.6,0.3-1,0.5c-1.9-1.4,0.2-3.2,0-4.8c-0.2-1.8,1.7-3.3,0.6-5.1
		c-0.9,0.3-1.7-0.5-2.3-1.1c-0.5-1.5,1-2.8,0.3-4c-0.5-1.7-1.9-3-3.6-3.6c-1.4-0.1-2.7-0.3-3.7-1.1c-1.8,1.3-2.2,3.7-3.2,5.6
		c-1.9,4.6-3.8,9.2-5.9,13.7c-0.5,0.2-1,0.2-1.3-0.2l-0.3-0.6c2.7-7.3,6-14.3,8.7-21.4c0.4-0.7,1-0.7,1.8-0.8c1.8-0.6,1.5-5.4,4-2.8
		L84.6,342.2L84.6,342.2z"/>
	<path class="st1" d="M20.2,345c0.1,0.9-0.9,1.2-1.3,1.8h-0.7C18.2,346.2,19.1,345,20.2,345z M136.6,346.3c0.2,0.8-0.4,1.2-0.9,1.7
		c-0.5,0.1-1.1-0.1-1.5-0.5c-0.2-0.9,0.2-1.5,0.7-2C135.7,345.2,136.4,345.8,136.6,346.3L136.6,346.3z M161.8,346.8
		c-0.1,0.7-1,1.1-0.6,2l1,1l-2.8,2.1c-1.7-2.1-5.9-0.7-6-4.4l-0.5-2C156,345.7,158.9,346.3,161.8,346.8L161.8,346.8z M138.7,349.6
		l-0.3,0.3c0.1-0.5-0.7-0.7-0.3-1.1C138.5,348.6,138.5,349.3,138.7,349.6L138.7,349.6z"/>
	<path class="st0" d="M123.5,354.5c0.3,1.2,0.1,2.6,0.8,3.7v6.1c-1.5,1.6-5.4-0.7-5.6,2.6c-1.3,0.7-1.9,1.9-3.5,1.7
		c-0.8-0.8,0.5-3-1.5-3c-1.9-0.5-4.3-0.2-5.4-2.1c0-0.6,0.3-1.3,1-1.3c1.5-0.5,2.9,2.4,3.8,0.2c-0.1-1.4-0.6-2.7,0.3-3.8
		c2.6-2.4,6.4,0.8,8.6-2.1c-0.1-1.1-1.8-1.1-1.5-2.3C121.4,352.8,123,353.7,123.5,354.5L123.5,354.5z"/>
	<path class="st1" d="M28.6,362.8c-1.4,1.9-2.5,4.1-4.5,6.1l-0.8,0.2c0.1-2.5,2.9-4,4-6.1C27.8,362.6,28,362.5,28.6,362.8z"/>
	<path class="st0" d="M174.2,368.1c-0.1,1.3,0.5,3.2-1.1,3.8c-1.7,0.2-3.6,2.1-5.3,0.5c0.2-1.5-2-2.1-2.2-3.4
		c2.7-0.5,5.3-1.7,8.1-1.5L174.2,368.1L174.2,368.1z"/>
	<path class="st1" d="M25.6,384.3c0.1,0.6-0.3,1.1-0.8,1.5c-0.9,0.1-1.1-0.8-1.3-1.3C23.1,383.1,25.3,383.4,25.6,384.3z M210.8,397
		v0.6c-1.8,0.7-3.4,2.1-5.3,2c0.1-0.7-1.1-0.9-0.7-1.7C207.2,398.6,208.7,396.8,210.8,397L210.8,397z"/>
	<path class="st0" d="M195.7,401.8c0.1,1.7-2.7,1.3-3.7,2.6c1.6,1.5-2.9,2.8,0.3,3.5c1.1,0.3,2.6,0.2,3-1c0.1-0.7-0.7-1.5-0.2-2.1
		c0.6-0.4,1.4-0.7,2.1-0.3c2.6,4.8,4.5,9.4,6.7,14.4c2.9,6.1,5.4,12.3,8.3,18.5c0.4,1.1-0.6,2.1-1.5,2.2c-7.7,3-15.2,6.1-23.2,8.4
		c-0.9,0.5-1.9-0.2-2.3-1c-1-5.3-3.2-9.9-4-15.2c-0.1-2.2-3-0.9-3.2-3c-0.5-2.2-1.1-4.2-1.8-6.4c-0.6-0.6-0.1-1.8-1.2-2.3
		c-1,1.3-1.8,3.3-3.4,3.8c-0.8,0.1-1.3-0.8-1.7-1.3c1-2.6,2.3-5.3,4.1-7.5c1.7,0.1,0.6,3.5,3.2,2.4c1.5,2.9,1.7,6.4,3,9.4l0.8,0.8
		c2.1-1.6,4.3-2.8,6.4-4.1c0.1-1-0.9-1.5-1.4-2.3c-0.3-1.1,0.6-3.6-1.3-3.6c-1.3-0.4-2.5,0.7-3.5-0.3c-0.2-0.5,0.2-1,0.7-1.1
		c1.7-0.7,4.2,0.3,5.3-1.8c0.3-1.1-0.6-1.8-1.3-2.1c-1.5-1.1-3.3-0.8-4.8,0c-1.7,0.7-2.9,3.6-4.8,2.8c0.2-1.2-1.1-2-0.5-3.2
		c3.9-2.4,8.7-2.7,12.7-4.8c-0.5-1.1,1.7-2.2,0-2.8c-0.6,0.2-1.5-0.3-1.8,0.5l-0.2,1.5c-3.1,1-5.7,2.9-9.2,2.8
		c-1-1.1,0.3-1.5,0.8-2.5c2-1.4,1.9-5.3,5.2-5c3.9,1.5,7.6-1.5,11.7,0L195.7,401.8L195.7,401.8z"/>
	<path class="st0" d="M173.3,402.5c0.7,2.3,1.9,4.6,1.8,7.1c-1.8,1-0.3,3.3-2.8,3.3c-5.8,1.1-11.3,3-17.4,3.4
		c-0.5-0.3-0.4-0.7-0.6-1.1c2.6-2,6.4-1.4,9.4-2.5s6.7-1,9.2-3.2l-1.7-6.9C171.6,401.8,172.7,402.1,173.3,402.5z"/>
	<path class="st1" d="M36,405.4c0.3,1.5,1.3,2.8,1.1,4.3c-0.7-2.5-4.9-3-4.8-6.1C33.7,404,35,404.5,36,405.4L36,405.4z"/>
	<path class="st0" d="M180.8,434.8c0.9,4.6,2.9,8.8,3.3,13.7l-0.8,0.7c-5.2,1.5-10.3,2.9-15.5,4.1c-2.2-0.5-0.1-2.4-0.5-3.7
		c1.3-0.8-0.6-4.4,2-3.1c1.4,0.9-1,4.1,1.7,4c1.7-2-0.5-3.9-0.5-6c1-0.7,1.6,1,2.6,0.2c3-2.5-0.7-7.7,3.6-9.2
		C177.8,434.9,179.8,432.1,180.8,434.8L180.8,434.8z"/>
	<path class="st0" d="M217.6,401.6c-3.7-13.8-7.9-29.5-7.9-39.3c0-10.2,9.2-20,12-22.8l1.2-1.2l-1-1.4L207.4,316l-1-1.4l-1.5,0.8
		c-3.8,1.8-17.4,7.9-32,7.9c-8.3,0-14.1-2.1-20.7-4.6c-8.7-3.2-18.7-6.9-37.4-6.9c-18.7,0-28.6,3.7-37.4,6.9
		c-6.6,2.5-12.4,4.6-20.7,4.6c-14.6,0-28.2-6-32-7.9l-1.5-0.8l-1,1.4L7.7,336.9l-1,1.4l1.2,1.2c2.8,2.8,12,12.6,12,22.8
		c0,9.8-4.2,25.4-7.9,39.3c-2.8,10.5-5.5,20.5-5.5,25.3c0,12,8.3,27.9,26.6,34.4c7.6,2.8,19.5,3.7,32.1,4.8
		c19.1,1.6,38.8,3.2,48.3,10.9l1.3,1l1.3-1c9.6-7.7,29.3-9.3,48.3-10.9c12.6-1,24.4-2,32.1-4.8c18.2-6.6,26.6-22.5,26.6-34.4
		C223.1,422.1,220.4,412.1,217.6,401.6z M208.2,402.2l0.9,1.2c-0.6,1.1,0.1,2.2,1.1,2.8c-0.5,1.6-2.8,1-4.1,1.5
		c-1,0-1.3,0.6-2.3,0.2c-1.5-1-2.5-2.9-3-4.6C202.8,401.7,205.7,400.8,208.2,402.2z M122,323.6c0.7,0.9,0.6,2.9,2.4,3.1
		c1.3,1.1-0.3,2.3-0.3,3.3c-0.1-1-0.1-1.9-0.2-2.8c-0.5-0.3-1.1,0-1.7,0.2C121.5,326.2,121.6,324.6,122,323.6z M24.7,443.4
		c-4-1.8-7.7-3.8-11.8-5.3c-0.2-0.5-0.5-1.1,0.3-1.2c4.4,1.2,8.3,3.4,12.4,5.5h1.1c0.5-3.3,4-6.1,2-9.6c0.4-2.9,3.2-4.9,3.8-7.7
		c0.3-3,3.6-4.4,3.5-7.6c-0.6-1.8-0.2-4.1-1-5.8c2.5,0,1.8,4.6,4.6,3.3c1.9-2.6,0-5.7-0.7-8.3c4,1.2,7.5,3,11.1,4.1
		c-0.2,3.1-1.7,6.1-2.8,9.1c-1.9,6.7-4.2,13.2-6.6,19.8c-0.6,2.3-1.4,4.5-2.5,6.7h-1.5c-3-1.4-6.2-2.5-9.4-3.7
		C27.1,444,25.4,443.8,24.7,443.4z M28.6,455.6c-2.2-2.5,1.6-5.6-1.3-7.7c0.1-0.8-0.3-2,0.3-2.4c3.4,0.8,6.5,2.3,9.6,3.8
		c-0.6,2.9-1.4,5.7-3.2,8.1C32.2,456.8,30.2,456.7,28.6,455.6z M65.2,460.6c-0.2,0.9-0.3,1.9-1.3,2.2c-9-1.1-18.2-1.7-26.7-4
		c0-2.9,1.8-5.5,2.6-8.3c2.1-0.6,3.8,0.9,5.8,1.3l1.3,0.2c2,1,4.4,1.2,6.6,1.8c3.9,0.6,7.4,2.2,11.4,2.5
		C67,456.9,65.1,459.2,65.2,460.6z M92.7,465.8c-8-1.7-16.7-1.3-24.8-2.8c-0.6-0.2-0.6-0.9-0.3-1.4c0.4-1.6,0.5-3.5,1.5-4.8
		c8.1,0.9,15.9,2.5,24.1,3.3c1.1,0,1.1,1.2,1.3,1.9C93.9,463.3,94.6,465.8,92.7,465.8z M126.3,464.5c-0.1,0.9,0.3,2.7-1,3
		c-4.1,1.2-8.1,3-11.4,5.8c-2.4-0.3-3.9-2.6-6.1-3.4c-3.4-1.5-6.8-2.9-10.5-3.3l-0.5-0.5c0.1-1.9-0.2-3.9,0.9-5.4
		c9.2,0.6,19.8-0.2,28.3,0.5C126.9,462.2,125.7,463.4,126.3,464.5z M155.2,464.2c-8.8-0.1-17.4,2.1-26.1,2.3
		c-0.1-1.8-0.6-3.5-0.2-5.3c1.5-1,3.8-0.2,5.6-0.7c6.3-0.6,12.6-1.4,18.6-2.5c1.2,0.1,3.4-0.3,2.8,1.6
		C155.3,461.3,157.3,463.2,155.2,464.2z M161.8,462.7c-0.3,1-1.5,0.7-2.5,0.8c-1.3-1.5-0.3-4-1-5.8c0.9-1.4,3.4-0.6,4.9-1.3l1.1,0.2
		C163.1,458.5,161.8,460.3,161.8,462.7z M214.5,440.8c-0.6,0.1-1.9-1.1-3-0.5c-6.9,2.1-13.2,5.5-20.1,7.4c-1.6,1-3.8,0.6-5,2.4
		c-0.1,3.6,2.2,6.2,1.8,9.7c-1.8-2.5-1.9-6-3.2-8.8c-0.5-1-1.8-1-2.5-0.5c-5.3,1.8-10.8,3.1-16.3,4.3c-2.2-2.5-5.5-0.1-8.3-0.2
		c-1.6-5.7-1.6-12.2-2.6-18.1c-0.1-0.6-0.3-1.3-1-1.5c-0.6-0.1-1.3-0.1-1.4,0.6c0.2,6.5,1.4,12.7,2.1,19c-0.7,1.1-2.5,0.6-3.6,1.2
		c-7.4,0.9-14.6,2.2-22.3,2.1l-0.3-0.3l-0.3-21.3c-0.3-0.5-0.8-0.9-1.5-0.7c-1.8,1.9-0.5,5.4-1.1,7.6c0.5,5.1,0.6,9.9-0.2,14.7
		l-1,0.5c-9.7,0.1-17.8,0-27.1-0.9l-0.3-0.6c0.9-5.6,1-12,1.8-17.2c-0.1-1.5,1-4.5-1-4.9c-2.1,1.4-1.3,4.8-1.9,7.1
		c-0.4,5.1-0.5,10.1-1.5,15.2c-8.5-0.5-17.3-1.4-25.5-3.2c1-6.1,2.5-12,3.8-18c-0.1-0.6-0.4-1.4-1.2-1.3c-1.3,0.1-0.8,1.7-1.6,2.3
		c-1.3,5.4-1.9,11.1-3.7,16.3c-2.4,0.8-4.8-0.7-7.2-0.6c-6.2-1.5-12.6-2.8-18.3-5.3c0.1-2.9,1.7-5.8,2.5-8.8l6-17
		c0.9-3.3,2.1-6.6,3.4-9.7c3.2,0.2,6.2,1.5,9.3,2.2c3.9,0.6,7.7,2.1,11.7,2c0.4-0.3,0.4-1,0.2-1.4c-2.4-1.4-5.4-1.3-8.1-2
		c-4-1-7.9-2-11.8-3.3v-1.6c0.8-2.5,2.1-4.6,2.4-7.3c-0.5-0.6-1.4-1-2-0.3c-1.1,0.7-0.5,2.2-1.3,3c-0.7,1.7-1.2,3.4-2.1,4.9
		c-4.7-0.7-8.7-3-12.9-4.8c-1.1-1.3,0.6-2.5-0.7-3.8c-1.7-1.4-3.7-2-5.7-2.5c-1,0.6-0.9,1.7-1.3,2.5c-3.9,6.9-7.5,14.2-10.9,21.4
		c-1.6,2.6-3.3,5.1-4.1,7.9c-1.5,1.4-1.4,4.1-3.3,4.8c0.7-3.9,3-7.1,4.9-10.4c0.7-2,1.9-3.8,2.8-5.7c2.5-5.6,5.5-10.2,8-15.9
		c-0.2-2.1-2.6-2.6-4.1-3.3c-2-0.8-4.1-1.6-6-2.6v-0.8l1.8,0.2c3.2,0.9,6,3.4,9.4,3.6c2-2.2,2.2-4.5,1.9-7.6
		c-1.8-2.4-3.3-5.2-2.5-8.3c-0.9-2,1-4.1,0-6.1c-0.1-2.6,1.5-4.5,1.3-7.1c0.8-1.3,3.8-0.5,3-3c-1.5-0.9-2.6-2.1-3.5-3.6
		c0.7-1.7,3.7-2.7,1.7-4.6c0.3-0.5,0.8-1,1.5-0.8c0.2,0.7-0.6,1.5,0.3,2c1.1,0.5,1.4-0.9,2.3-1c6.9,2.8,13.5,6.7,21.7,6.7l0.5-0.5
		c-0.5-1.3-2.1-0.9-3-1.7c2.3-5.1,5.3-9.9,7.6-15c2.7-4.5,5.2-9.3,8.1-13.9l0.6-0.3c1.2,2.2,3.2,3.6,5.4,4.1
		c0.3,0.9,0.9,1.9,1.8,2.2c0.5-0.1,1-0.5,1-1c-0.1-1.5-0.3-3.3-1.9-3.8c-2.8,0.2-4.5-2.9-6.9-2.5c-3.2-2.8-7.7-3.4-11.1-6.1
		c-0.2-0.6,0.3-0.7,0.6-0.9l9.1,4.1c1.4,0.7,2-1.1,2.5-1.9c0.5-1.3-2.6-1.6-0.5-2.5c1.8,0.2-0.1,2.4,1.7,2.8
		c0.3,0.9-1.1,1.5-0.6,2.6c2.6,1.9,5.8,2.5,8.9,3.3l1.3-0.8c0.4,3.2,5.3,1.1,4.5,4.6c1.8,1.1,4,1.8,6.3,1.8c0.5-0.5,0.7-1.1,0.9-1.8
		c1.2,0.3,2.6-0.2,3-1.5c2.8,1.6,5.7,2.6,9.2,2.6c1.7-0.7,0.9-3.2,1.3-4.8c-1.1-1.9-3.8,1.1-3.8-1.8c-0.9-1.3-2.8-1.2-3-3
		c-0.3-1.5,1.1-2.3,2.1-2.8c0.9-0.2,2-0.7,2.6,0.2c0.5,0.9,1.7,0.5,2.4,0.3c0.5-0.6,1.4-0.6,1.7-1.5c-0.3-0.4-0.2-1-0.2-1.5
		c0.2-0.2,0.5-0.2,0.6-0.5c0.7,1-0.9,2.9,1.1,2.9h1.5c1,1.9-1.7,2.4-1.9,4c0.3,1.8-0.8,3.1,0.3,4.6c2.3,0.7,2.1,3.6,4,4.6h6.9
		c0.4,0.2,0.3,0.6,0.3,1c-4.3,1.3-9.7-1.1-13.7,1.3c-2.8-0.1-1.7,3.5-2.5,5.3c-1.3-0.2-1-1.8-1.5-2.8c-1.1-1.3-3.2-1.3-2.8-3.4
		c-1.3-2-3.8-1.6-6.1-1.7c-0.6,0.2-1,1.1-0.3,1.5c1.1,1,3,0.7,3.6,2.1c-1,0.2-2.1,0.3-2.6,1.2v0.8c-0.8,0.5-1.5-0.9-2.3,0
		c-0.4,0.5-0.7,1.2-0.3,1.8c1.2,1.4,2.3,2.6,4,3.3c1.1,0.1,2.2,0.1,2.8-0.8c-0.2-0.6,0.3-1.7,1-1c1,2,3.6,0.7,4.5,2.3
		c-0.1,3.9-1.1,7.7-1,11.9c-0.5,0.7-0.2,1.6,0.2,2.4c0.5,0.5,1.1,0.6,1.7,0.1l0.6-1.1c0.5-6.5,1-12.1,2-18.3
		c1.3,0.5,1.7,3.6,3.4,1.9c0.7-0.7-0.2-3.2,1.5-2.5c0.5,0.6,1.3,1.1,1,2c-0.5,0.9-1.2,1.9-0.6,2.9c0.6,0.9,1.5,0.9,2.3,1.3
		c0.7,0,1.4-0.4,1.5-1.1c0.2-2.4,3-4.4,2-7.1c0.7-0.4,1.5-0.3,2.1,0.3c0.4,3.2,0.5,5.7,1.1,8.8c0.3,0.6,1,0.2,1.5,0.3l0.9-1
		l-0.5-8.4c1-0.6,0.7-1.7-0.2-2.5c-0.5-3.4-0.6-7-0.8-10.5c0,0.3,0.3,0.6,0.8,0.9c0.5,0.4,1.3,0.7,1.8,0.2c2-2.7,3.2,2.4,5.8,1.7
		c0.1,1.5,1.1,3.1,0.3,4.6c-2.1,0.6-4,0.1-5.6,1.7c0.7,2.4,3,0.3,4.6,0.7h2v1l-5.8,1c-1.1,1.2,1.2,1.8,1.1,3.2
		c-0.1,1.3-1.3,2.2-0.8,3.5c0.7,0.9,0.7,2,0.8,3.1c-2.1,1.8-5.5,4.5-4.1,8.1c0.8,1.7-0.4,4.2,1.7,5.2c2,0.1,4.6-0.6,5.4,1.8
		c0.6,1.5,0.9,3.5,2.8,4c1.5,0.3,2.9-0.2,3.6-1.4c-0.2-2,1.7-3,2.6-4.1c-0.1-2.6-0.2-5.3-1.8-7.3c-1.7-0.1-3.4,0.2-4.5-1
		c-0.4-0.7-0.9-1.4-0.7-2.4c0.6-1.7,2.3-1.2,3.5-0.8c0.2,0.8,0.2,1.8,1.1,2.1c0.6-0.1,1.4,0.3,1.8-0.3c0.9-1.8-2.1-3.7,0.6-4.3
		c0.6-0.6,0.9-1.5,0.7-2.2c-1.7-0.9-2.7-2.2-2.6-4.1c-0.4-1.2-2.6-2.7-0.9-3.6c3.1-0.2,6.1-0.7,9.1-1.5c1.9,7,6,13.1,7.9,20.1
		c-3.1,0.5-7.1,1-9.1-2.1c-1.5-0.9-3.3-1.7-5.1-1.3c-0.6,1.1-0.1,3.2,0,4.5c0.5,0.7,0.2,2.1,1.5,2.3c3-1.2,5.6,0.6,8.1,1.7
		c2.2,0.2,4.8,0.3,6.9-0.2c1.3-1.5-1.7-3.2,0-4.1c1.5-2.3-1.5-4-1.1-6.5c0.5-0.7,1.2,0.1,1.8,0c1.4,1.5,5.1,0.7,4.6,3.5
		c-1.1,1.3-3.7-0.7-3.6,1.7c0.9,1.9,4.3,0.9,3.8,3.3c-1.5,1-3-1.3-4.1,0.2c0.9,1.5,0.9,3.7,2.6,4.6c5.4-0.2,10.5-1.3,15.5-2.6
		l0.6-0.9c-3.1-6.6-6.4-12.2-10.2-18.5c-0.5-2-2.2-3.1-2.6-5.1c-1-0.5-0.6-1.5-1.1-2.2c-1-0.9-1.3-2.6-2.6-3
		c-4.1,1.8-8.9,2.5-13.1,4.5c-1-1.7-1.3-3.2-1.7-5.1c-1.2-4.4-3.4-8.4-4.5-12.7l0.2-0.5c1.7,1,2,3.2,2.3,5c1,1.7,1.2,3.8,2.1,5.6
		c0.6,1.9,1.3,4,2.6,5.4c4.1-0.2,7.6-1.9,11.1-3.7c0.7-1.9-1.3-3.1-1.7-4.8c-0.3-1.1-2-2.3-1.1-3.7c1.3,2.1,2.9,4,3.7,6.3
		c2.6,2.4,5.1-1.3,7.7-1.7c1.4,2.2,3.3-0.6,4.9,0.5c6.4,6.7,13.2,14.2,18.5,21.8c0.9,0.5,1.1,1.3,1.8,1.9c-2,0.9-0.9-1.5-2.4-1.6
		c-3.1,1.2-5.6-1.1-8.3-2c-2.3-1.2-4.8-2.8-6.4-4.9c-1.9-0.6-3.4-1.9-4.5-3.5c-0.4-0.9,0.7-1.4,1.1-1.8c-0.8-2.1,0.5-4.6-2-5.8
		c-0.2-1.3-1.4-2.4-2.5-3c-2.3-0.1-4.6,1.1-6.1,3c0,1.5,1.5,2.5,1.7,4c1.8,3.3,4.5,6.5,5.6,10.2c2.3,3.3,4,6.7,6,10.3
		c1.6,1.7,1.7,6.1,5.4,4.5c4.6-1.7,9.1-3.8,13.7-5.8c1.3-0.7,0.9-2.1,0.3-3v-0.2c1.3-0.4,2,2.1,3.5,1.1c2.6-1.4,5.2-3,8.1-3.8v0.7
		c-2.6,1.9-6,2.7-7.9,5.1c2.1,2,2.8,4.8,4.9,6.9c0,0.3,0.1,0.8-0.3,1c-2.3-2.1-3.6-4.9-5.7-7.3c-2.4-0.4-4.3,1.3-6.3,2.4
		c-3,1.4-6.1,2.5-9.1,4c-0.2,0.4,0.3,0.7,0.6,0.8c2.4,0.5,5.7-0.6,6.6,2.5c3.1,8.5,5.6,17.3,9.5,25.4c0.6,0.6,1,0.9,1.8,0.5
		c0.5-0.4,0.6-0.7,1.1-0.9c1.3,2.8-3.1,3.7-1.3,6.3c-0.9,1.2-3.7,0.9-3.1,2.8c1.8,5.9,4.7,11.4,7.1,17c0.9,3,2.8,5.6,3.8,8.6
		c2,3.3,2.5,8.1,6.1,10.6C214.9,439.1,213.8,440,214.5,440.8z"/>
	<path class="st0" d="M139.5,391.4l-8.5-23h-11v0.1c0.9,0.6,1.7,1.4,1.7,2.6c0,0.9-0.7,2.7-1,3.6l-6.2,17.8c-0.7,2-1.2,3.2-2.5,4.6
		v-22.2c0-2.6,0-4.6,2-6.4v-0.1h-8.6v0.1c1.9,1.8,2,3.8,2,6.4v11.6l-13.7-18v-0.1h-9.3v0.1c2.4,2.7,2.6,3.9,2.6,7.3v15.4
		c0,2.1,0,3.8-1.1,5.4c-1.6-1.7-1.9-2.8-2.8-5.2l-8.5-23h-11v0.1c0.9,0.6,1.7,1.4,1.7,2.6c0,0.9-0.7,2.7-1,3.6l-6.1,17.6
		c-2,0.8-4.1,1.4-6.4,1.4c-6.7,0-9.7-5-9.7-11.2c0-5.4,1.7-10.3,7.9-10.3c2.7,0,5.3,0.8,7.5,2.3l-0.3-6.3l-6.8-0.6
		c-4.4,0-9.1,1.1-12.5,4c-3.1,2.8-4.9,7.1-4.9,11.2c0,4.6,1.8,8.8,5.3,11.7c3.6,3.1,7.4,3.8,12,3.8c2.3,0,4.5-0.2,6.8-0.6h7.1v-0.1
		c-0.8-0.7-1.6-1.3-1.6-2.5c0-0.9,0.5-2.3,0.8-3.2l1.1-3h8.9l1.5,4.3c0.3,0.7,0.4,0.9,0.4,1.7c0,1.4-0.8,2.1-1.8,2.7v0.1h20.2v-0.1
		c-1.9-1.8-2-3.8-2-6.4v-11.8h0.1l8.6,11.4c2.2,2.9,3,4.4,6.4,6c1.3,0.7,3.8,1.8,5.4,1.8v-0.8h8.6v-0.1c-0.8-0.7-1.6-1.3-1.6-2.5
		c0-0.9,0.5-2.3,0.8-3.2l1.1-3h8.9l1.5,4.3c0.3,0.7,0.4,0.9,0.4,1.7c0,1.4-0.8,2.1-1.8,2.7v0.1h13.5v-0.1
		C140.8,395.3,140.6,394.3,139.5,391.4z M65.9,384.8l3-8.8l3.1,8.8H65.9z M122.3,384.8l3-8.8l3.1,8.8H122.3z"/>
	<path class="st0" d="M165,371c-4.1-2.8-8.6-2.6-13.4-2.6h-9.5v0.1c0.8,0.4,1.5,1.4,1.7,2.3c0.2,1.3,0.2,5.4,0.2,6.9l-0.1,13.7
		c0,2.4,0.3,4.9-1.9,6.3v0.1h10.1c5.1,0,9.5,0.3,13.6-3c3.5-2.7,5.3-7.2,5.3-11.5C171,378.4,169,373.8,165,371z M160.8,390.1
		c-1.5,2.5-3.3,3.3-6.1,3.3c-0.8,0-1.6-0.1-2.4-0.4v-19.5c1-0.2,2-0.3,3-0.3c5.5,0,7.1,5.5,7.1,10.1
		C162.4,385.6,162,388,160.8,390.1z"/>
	<path class="st0" d="M196.9,391.4l-8.5-23h-11v0.1c0.9,0.6,1.7,1.4,1.7,2.6c0,1-0.7,2.7-1,3.6l-6.2,17.8c-0.8,2.2-1.4,3.5-3.1,5.1
		v0.1h9.2v-0.1c-0.8-0.7-1.6-1.2-1.6-2.5c0-0.9,0.5-2.3,0.8-3.2l1.1-3l8.8,0.1l1.5,4.3c0.3,0.7,0.4,0.9,0.4,1.7c0,1.4-0.8,2-1.8,2.7
		v0.1h13.5v-0.1C198.2,395.3,198,394.3,196.9,391.4z M179.5,384.8l3-8.8l3.1,8.8H179.5z"/>
	<path class="st0" d="M99.5,406.8c-4.1-2.8-8.6-2.6-13.4-2.6h-9.5v0.1c0.9,0.4,1.5,1.4,1.7,2.3c0.2,1.3,0.2,5.4,0.2,6.9v13.7
		c0,2.4,0.3,4.9-1.9,6.3v0.1h10c5.1,0,9.5,0.3,13.6-3c3.5-2.7,5.3-7.2,5.3-11.5C105.5,414.2,103.5,409.6,99.5,406.8z M95.2,426
		c-1.5,2.4-3.3,3.3-6.1,3.3c-0.8,0-1.6-0.2-2.4-0.4v-19.5c1-0.2,2-0.3,3-0.3c5.5,0,7.1,5.5,7.1,10.1C96.8,421.5,96.4,423.9,95.2,426
		z"/>
	<path class="st0" d="M130.3,428.1l-5.3-8.9c2.9-1.3,5.3-3.7,5.3-7.1c0-3-1.4-5.4-4-6.8c-2-1-3.8-1-6-1h-13.2v0.1
		c2.2,1.4,1.9,4,1.9,6.3v16.6c0,2.4,0.3,4.9-1.9,6.3v0.1h12v-0.1c-2.2-1.4-1.9-4-1.9-6.3v-6.2l5.2,9.8c1.6,2.8,3,3.2,6,3l6.2-0.4
		C132.8,432,131.5,430.1,130.3,428.1z M117.2,418.7v-10.1h0.4c0.9,0,1.8,0.1,2.6,0.6c1.2,0.8,1.8,2.4,1.8,3.8
		C122,415.8,120,418.2,117.2,418.7z"/>
	<path class="st0" d="M148.2,427.1c0,2.6,0,4.6,2,6.4v0.1h-12.1v-0.1c2.2-1.4,1.9-4,1.9-6.3v-6.9l-6.8-12.5
		c-0.8-1.4-1.5-2.6-2.8-3.4v-0.1h10.4v0.1L146,415l2.5-5.1c0.4-0.8,1-2.1,1-3.1c0-1.2-0.4-1.8-1.4-2.4v-0.1h8v0.1l-8,16L148.2,427.1
		L148.2,427.1L148.2,427.1z M246,436.7c-3.4,0-6.3,2.8-6.3,6.2l0,0c0,3.5,2.7,6.3,6.2,6.3c3.4,0,6.3-2.8,6.3-6.3
		C252.2,439.5,249.5,436.7,246,436.7z M246,448.4c-3,0-5.3-2.5-5.3-5.5c0-2.9,2.4-5.4,5.3-5.4c3,0,5.4,2.4,5.4,5.4
		C251.4,446,249,448.4,246,448.4L246,448.4z"/>
	<path class="st0" d="M249.5,441.2c0-1.7-1.2-2.1-2.7-2.1h-3.3v7.5h1v-3.4h1.6l2,3.4h1.2l-2.1-3.4
		C248.5,443.2,249.5,442.6,249.5,441.2L249.5,441.2z M244.5,442.4v-2.5h2.1c0.8,0,1.9,0.1,1.9,1.2c0,1.2-1.1,1.3-2,1.3H244.5z"/>
</g>
</svg>
