<?xml version="1.0" encoding="utf-8"?>
<!-- Generator: Adobe Illustrator 19.1.0, SVG Export Plug-In . SVG Version: 6.00 Build 0)  -->
<svg version="1.1" id="Layer_1" xmlns="http://www.w3.org/2000/svg" xmlns:xlink="http://www.w3.org/1999/xlink" x="0px" y="0px"
	 viewBox="-133 135 500 500" style="enable-background:new -133 135 500 500;" xml:space="preserve">
<style type="text/css">
	.st0{fill:#FFFFFF;}
</style>
<g id="Layer_2">
</g>
<g>
	<path class="st0" d="M111.9,516L98,480.8H86.1l0.7,1.6l20.4,49.4h9l21-51.1h-11.8L111.9,516 M235.9,512.1l-24-31.2h-9.7v50.7h10.7
		v-32.1l24.8,32.1h8.9v-50.7h-10.7L235.9,512.1L235.9,512.1z M160.1,480.5l-22.3,51.1h11.1l9.3-21.6l0,0l6.5-15.3l0,0l0.1-0.3
		l6,14.4l-4.1,9.4h8l2.9,6.8l2.7,6.4h11.5l-22.3-51h-9.4V480.5z M289.6,480.5h-9.4l-22.3,51.1H269l9.3-21.6l0,0l6.5-15.2l0,0
		l0.1-0.4l6,14.4l-4.1,9.4h8.1l2.9,6.8l2.7,6.4H312L289.6,480.5z"/>
	<path class="st0" d="M-38.6,520.6c-2.1,2.1-4.4,3.9-7.1,5.4c-2.6,1.3-5.6,2.1-9.3,2.1c-2.9,0-5.5-0.5-8-1.7
		c-2.5-1.2-4.6-2.6-6.4-4.6c-1.8-2-3.3-4.2-4.3-6.9c-1-2.6-1.6-5.4-1.6-8.4v-0.1c0-3,0.5-5.8,1.6-8.4c1-2.6,2.5-5,4.3-6.9
		c1.8-2,3.9-3.5,6.4-4.6c2.5-1.2,5.1-1.7,8.1-1.7c2,0,3.7,0.1,5.2,0.5c1.6,0.4,3,0.9,4.3,1.6s2.5,1.3,3.5,2.2c1,0.9,2.1,1.7,3.1,2.7
		l0.8,0.8l3.3-3.4l-0.9-0.8c-1.2-1.2-2.5-2.2-3.7-3.1c-1.3-0.9-2.7-1.8-4.3-2.5c-1.6-0.8-3.3-1.3-5.1-1.7c-1.8-0.4-3.9-0.7-6.3-0.7
		c-3.7,0-6.9,0.7-10.1,2.1c-3,1.4-5.8,3.3-8,5.8c-2.2,2.4-3.9,5.2-5.2,8.4c-1.2,3.1-1.8,6.5-1.8,10.1v0.1c0,3.5,0.7,6.9,1.8,10.2
		c1.2,3.1,3,5.9,5.2,8.2c2.2,2.4,4.8,4.2,7.8,5.6s6.4,2.1,9.9,2.1c2.2,0,4.3-0.3,6.1-0.7c1.8-0.4,3.7-1,5.4-1.8
		c1.7-0.8,3.1-1.7,4.6-2.7c1.3-1,2.6-2.2,3.8-3.4l0.8-0.8l-3.4-3.3L-38.6,520.6 M-1.3,480.5l-24,51.1h5l20.8-44.4L12.4,512l-3,6.3h6
		l6.3,13.2h4.8l-24-51.1h-3.7 M62.9,510.4c1.6-0.3,3-0.7,4.3-1.2c2-0.8,3.7-1.7,5.2-3c1.4-1.3,2.6-2.7,3.4-4.6
		c0.8-1.8,1.2-3.8,1.2-6v-0.1c0-2-0.4-3.8-1-5.5c-0.7-1.7-1.6-3.1-2.9-4.3c-1.6-1.6-3.7-2.9-6.1-3.7c-2.5-0.9-5.4-1.3-8.5-1.3H37.6
		v50.7h4.7v-20.5h15.4l15.8,20.6h5.9L62.9,510.4 M42.1,506.5v-21h16.3c4.6,0,8.1,1,10.5,2.9c2.4,1.8,3.5,4.2,3.5,7.6v0.1
		c0,1.6-0.3,2.9-0.9,4.2c-0.7,1.3-1.4,2.4-2.7,3.3c-1.2,0.9-2.7,1.7-4.6,2.2c-1.8,0.5-3.9,0.8-6.3,0.8H42.1"/>
</g>
<g>
	<g>
		<g>
			<path class="st0" d="M117.5,286c-6.3,0-12,0.4-16.3,1.2c-3.4,0.5-6.1,1.3-7.3,2l0.4,0.3c1,0.5,2.9,1,5.2,1.4
				c4.6,0.9,11,1.4,18.2,1.4c6.3,0,12-0.4,16.3-1.2c3.4-0.5,6.1-1.4,7.3-2l-0.4-0.3c-1-0.5-2.9-1-5.2-1.4
				C131.1,286.5,124.6,286,117.5,286 M117.5,295.9c-6.4,0-12.3-0.4-17-1.2c-4.7-0.8-8-1.6-9.9-3.4c-0.5-0.5-1.2-1.3-1.2-2.4
				c0-1.1,0.5-1.8,1.2-2.4c0.7-0.5,1.3-0.9,2-1.3c1.6-0.7,3.5-1.3,6-1.7c4.8-0.9,11.5-1.4,18.8-1.4c6.4,0,12.3,0.4,16.9,1.2
				c4.7,0.8,8,1.6,9.9,3.4c0.5,0.5,1.2,1.3,1.2,2.4s-0.5,1.8-1.2,2.4c-0.5,0.5-1.3,0.9-2,1.3c-1.6,0.7-3.5,1.3-6,1.7
				C131.5,295.4,124.9,295.9,117.5,295.9"/>
			<path class="st0" d="M160.4,336.2c-1.8-2.2-5.2-7.7-5.5-8.5c0.3,0,0.4-0.1,0.4-0.1s10.6-0.5,8.6-4.2c0,0-2.1-4.4-9.8-4.4
				c-0.3,0-0.7,0-1,0l0,0c-0.4,0-0.9,0.1-1,2.9c-6.4-11.9-10.8-14.4-10.8-14.4c-0.8-0.5-1.4-0.8-3.7-1.2c-2.2-0.4-18.9-0.5-20.4-0.5
				l0,0l0,0l0,0l0,0c-1.4,0-18.2,0.1-20.4,0.5c-2.2,0.4-2.7,0.8-3.7,1.2c0,0-4.4,2.5-10.8,14.4c-0.3-2.6-0.7-2.9-1-2.9l0,0
				c-0.4,0-0.7,0-1,0c-7.7,0-9.8,4.4-9.8,4.4c-2,3.7,8.6,4.2,8.6,4.2s0.3,0,0.4,0.1c-0.4,0.8-3.7,6.3-5.5,8.5
				c-0.4,0.4-2.4,2.6-3,4.4c-0.1,0.4-0.9,2.2-0.8,5c0.1,2.8,0.4,15,0.4,15V376c0,0.9,0.5,1.6,1.3,1.6H84c0.7,0,1.3-0.7,1.3-1.6v-2
				c0,0,30.2,0,32,0s32,0,32,0v2c0,0.9,0.5,1.6,1.3,1.6h12.2c0.8,0,1.3-0.7,1.3-1.6v-15.4c0,0,0.3-12.2,0.4-15
				c0.1-2.7-0.7-4.7-0.8-5C162.8,338.9,160.8,336.6,160.4,336.2z M86.6,324.4c0,0,4.7-10.3,8.4-14.8c0,0,6.9-0.3,16.1-0.4l-0.3,0.7
				v1.6c0,0.7,0.5,1,1,1h5.2h0.1h5.2c0.7,0,1-0.5,1-1v-1.6l-0.3-0.7c9.1,0.1,16.1,0.4,16.1,0.4c3.7,4.4,8.4,14.8,8.4,14.8
				c0.7,1.7-0.8,1.7-0.8,1.7c-4.1,0-24.6,0-29.7,0h0c-5.2,0-25.7,0-29.8,0C87.4,326.1,85.9,326.1,86.6,324.4z M75.3,349.8
				c-2.4-0.5-2.6-2-2.6-2c-0.4-3.1,0.8-6.1,0.8-6.1c0.8-2.1,2.7-2.2,4.3-2.2c1.7,0,6.9,3.3,6.9,3.3c3.9,2.1,4.4,9,4.4,9
				C84.3,351.5,77.7,350.3,75.3,349.8z M140.7,352.1c-7.1,0.7-17.4,0.7-23.5,0.7c-6.3,0-16.5,0-23.5-0.7c0,0-2.1-4.3,1-4.4
				c0.4,0,9.5-0.4,22.5-0.4s22.1,0.4,22.5,0.4C142.8,347.8,140.7,352.1,140.7,352.1z M161.4,347.8c0,0-0.3,1.4-2.6,2
				c-2.4,0.5-9,1.7-13.9,2.1c0,0,0.5-7.1,4.4-9c0,0,5.1-3.3,6.9-3.3c1.4,0,3.5,0.1,4.3,2.2C160.7,341.7,161.8,344.6,161.4,347.8z"/>
		</g>
	</g>
</g>
<path class="st0" d="M117.5,434.2c-13.5,0-26.7-2.6-38.9-7.8C66.7,421.3,56,414.1,46.7,405c-9.1-9.1-16.5-19.9-21.4-31.9
	c-5.2-12.4-7.8-25.5-7.8-38.9c0-13.6,2.6-26.7,7.8-38.9c5-12,12.3-22.7,21.4-31.9c9.1-9.1,19.9-16.5,31.9-21.4
	c12.4-5.2,25.5-7.8,38.9-7.8s26.7,2.6,38.9,7.8c11.9,5.1,22.6,12.3,31.9,21.4c9.1,9.1,16.5,19.9,21.4,31.9
	c5.2,12.4,7.8,25.5,7.8,38.9c0,13.6-2.6,26.7-7.8,38.9c-5.1,11.9-12.3,22.6-21.4,31.9c-9.1,9.1-19.9,16.5-31.9,21.4
	C144.2,431.6,131.1,434.2,117.5,434.2z M117.5,236.9c-13.1,0-25.9,2.6-37.8,7.6c-11.6,4.8-22,11.9-30.8,20.8
	c-8.8,8.9-15.9,19.3-20.8,30.8c-5.1,12-7.6,24.7-7.6,37.8c0,13.1,2.6,25.9,7.6,37.8c4.8,11.6,11.9,22,20.8,30.8
	c8.9,8.9,19.3,15.9,30.8,20.8c12,5.1,24.7,7.6,37.8,7.6s25.9-2.6,37.8-7.6c11.6-4.8,22-11.9,30.8-20.8c8.9-8.9,15.9-19.3,20.8-30.8
	c5.1-12,7.6-24.7,7.6-37.8s-2.6-25.9-7.6-37.8c-4.8-11.6-11.9-22-20.8-30.8c-8.8-8.8-19.2-15.8-30.7-20.6
	C143.4,239.5,130.7,236.9,117.5,236.9z"/>
</svg>
