<?xml version="1.0" encoding="utf-8"?>
<!-- Generator: Adobe Illustrator 19.2.1, SVG Export Plug-In . SVG Version: 6.00 Build 0)  -->
<svg version="1.1" xmlns="http://www.w3.org/2000/svg" xmlns:xlink="http://www.w3.org/1999/xlink" x="0px" y="0px"
	 viewBox="0 0 500 500" style="enable-background:new 0 0 500 500;" xml:space="preserve">
<style type="text/css">
	.st0{fill-rule:evenodd;clip-rule:evenodd;}
	.st1{fill-rule:evenodd;clip-rule:evenodd;fill:#FFFFFF;}
	.st2{fill:none;stroke:#000000;stroke-width:3;}
	.st3{fill:#FFFFFF;}
	.st4{fill:none;}
	.st5{clip-path:url(#SVGID_2_);}
	.st6{fill-rule:evenodd;clip-rule:evenodd;fill:none;}
	.st7{enable-background:new    ;}
	.st8{stroke:#FFFFFF;stroke-width:0.45;stroke-miterlimit:3.8637;}
	.st9{fill:#424242;}
	.st10{display:none;}
	.st11{fill:#E8E8E8;}
	.st12{fill:#B2B2B2;}
	.st13{fill:#262626;}
	.st14{fill:#C2C2C2;}
	.st15{fill:#383838;}
	.st16{fill:#FFFFFF;stroke:#000000;stroke-width:0.7;stroke-linecap:round;stroke-linejoin:round;}
	.st17{fill:#FFFFFF;stroke:#000000;stroke-width:1.5;stroke-linecap:round;stroke-linejoin:round;}
	.st18{fill:#FFFFFF;stroke:#000000;stroke-width:0.7;}
	.st19{fill:#BABABA;}
	.st20{fill:#939393;}
	.st21{fill:#E6E6E6;}
	.st22{fill:#545454;}
	.st23{filter:url(#Adobe_OpacityMaskFilter);}
	.st24{mask:url(#SVGID_3_);}
	.st25{fill:url(#SVGID_4_);}
	.st26{opacity:0.42;fill:url(#SVGID_5_);}
	.st27{fill:none;stroke:#FFFFFF;stroke-width:2;}
	.st28{fill:#FFFFFF;stroke:#000000;stroke-width:0.25;stroke-miterlimit:10;}
	.st29{fill:none;stroke:#000000;stroke-miterlimit:10;}
	.st30{fill:#F5F5F5;}
	.st31{fill:#FAFAFA;}
	.st32{fill:#ECECEC;}
	.st33{fill:#C1C1C1;}
	.st34{fill:#A5A5A5;}
	.st35{fill:#C3C3C3;}
	.st36{fill:#D0D0D0;}
	.st37{fill:#8C8C8C;}
	.st38{fill:#C0C0C0;}
	.st39{fill:#C5C5C5;}
	.st40{fill:#CBCBCB;}
	.st41{fill:#C9C9C9;}
	.st42{fill:#BFBFBF;}
	.st43{fill:#BDBDBD;}
	.st44{fill:#BCBCBC;}
	.st45{fill:#B9B9B9;}
	.st46{fill:#B8B8B8;}
	.st47{fill:#8B8B8B;}
	.st48{fill:#FCFCFC;}
	.st49{fill:#F7F7F7;}
	.st50{fill:#ADADAD;}
	.st51{fill:#CCCCCC;}
	.st52{fill:#E1E1E1;}
	.st53{fill:#D8D8D8;}
	.st54{fill:#CECECE;}
	.st55{fill:#EBEBEB;}
	.st56{fill:#CFCFCF;}
	.st57{fill:#A8A8A8;}
	.st58{fill:#A0A0A0;}
	.st59{fill:#AFAFAF;}
	.st60{fill:#B6B6B6;}
	.st61{fill:#ABABAB;}
	.st62{fill:#8A8A8A;}
	.st63{fill:#C6C6C6;}
	.st64{fill:#191919;}
	.st65{fill:#818181;}
	.st66{fill:#DEDEDE;}
	.st67{fill:#F1F1F1;}
	.st68{fill:#B7B7B7;}
	.st69{fill:#5A5A5A;}
	.st70{fill:#B5B5B5;}
	.st71{fill:#AAAAAA;}
	.st72{fill:#212121;}
	.st73{fill:#B1B1B1;}
	.st74{fill:#5B5B5B;}
	.st75{fill:#595959;}
	.st76{fill:#F8F8F8;}
	.st77{fill:#858585;}
	.st78{fill:#696969;}
	.st79{fill:#7C7C7C;}
	.st80{fill:#666666;}
	.st81{fill:#6F6F6F;}
	.st82{fill:#A2A2A2;}
	.st83{fill:#494949;}
	.st84{fill:#D4D4D4;}
	.st85{fill:#757575;}
	.st86{fill:#3E3E3E;}
	.st87{fill:#EDEDED;}
	.st88{fill:#111111;}
	.st89{fill:#F2F2F2;}
	.st90{fill:#FEFEFE;}
	.st91{fill:#898989;}
	.st92{fill:#040404;}
	.st93{fill:#8E8E8E;}
	.st94{fill:#080808;}
	.st95{fill:#8D8D8D;}
	.st96{fill:#929292;}
	.st97{fill:#8F8F8F;}
	.st98{fill:#242424;}
	.st99{fill:#2F2F2F;}
	.st100{fill:#181818;}
	.st101{fill:#3A3A3A;}
	.st102{fill:#A6A6A6;}
	.st103{fill:#141414;}
	.st104{fill:#B4B4B4;}
	.st105{fill:#787878;}
	.st106{fill:#585858;}
	.st107{fill:#1B1B1B;}
	.st108{fill:#4C4C4C;}
	.st109{fill:#CDCDCD;}
	.st110{fill:#7B7B7B;}
	.st111{fill:#888888;}
	.st112{fill:#161616;}
	.st113{fill:#636363;}
	.st114{fill:#515151;}
	.st115{fill:#151515;}
	.st116{fill:#1F1F1F;}
	.st117{fill:#0C0C0C;}
	.st118{fill:#838383;}
	.st119{fill:#444444;}
	.st120{fill:#101010;}
	.st121{fill:#010101;}
	.st122{fill:#282828;}
	.st123{fill:#5D5D5D;}
	.st124{fill:#828282;}
	.st125{fill:#7E7E7E;}
	.st126{fill:#727272;}
	.st127{fill:#555555;}
	.st128{fill:#2A2A2A;}
	.st129{fill:#434343;}
	.st130{fill:#5F5F5F;}
	.st131{fill:#878787;}
	.st132{fill:#4B4B4B;}
	.st133{fill:#767676;}
	.st134{fill:#BBBBBB;}
	.st135{fill:#050505;}
	.st136{fill:#0B0B0B;}
	.st137{fill:#252525;}
	.st138{fill:#808080;}
	.st139{fill:#969696;}
	.st140{fill:#737373;}
	.st141{fill:#3D3D3D;}
	.st142{fill:#5E5E5E;}
	.st143{fill:#484848;}
	.st144{fill:#232323;}
	.st145{fill:#747474;}
	.st146{fill:#505050;}
	.st147{fill:#454545;}
	.st148{fill:#171717;}
	.st149{fill:#7F7F7F;}
	.st150{fill:#3C3C3C;}
	.st151{fill:#B0B0B0;}
	.st152{fill:#A9A9A9;}
	.st153{fill:#222222;}
	.st154{fill:#575757;}
	.st155{fill:#4A4A4A;}
	.st156{fill:#7A7A7A;}
	.st157{fill:#404040;}
	.st158{fill:#646464;}
	.st159{fill:#1A1A1A;}
	.st160{fill:#303030;}
	.st161{fill:#343434;}
	.st162{fill:#979797;}
	.st163{fill:#DDDDDD;}
	.st164{fill:#CACACA;}
	.st165{fill:#D3D3D3;}
	.st166{fill:#ACACAC;}
	.st167{fill:#AEAEAE;}
	.st168{fill:#999999;}
	.st169{fill:#676767;}
	.st170{fill:#292929;}
	.st171{fill:#9E9E9E;}
	.st172{fill:#9A9A9A;}
	.st173{fill:#464646;}
	.st174{fill:#474747;}
	.st175{fill:#202020;}
	.st176{fill:#323232;}
	.st177{fill:#4E4E4E;}
	.st178{fill:#9D9D9D;}
	.st179{fill:#C7C7C7;}
	.st180{fill:#3B3B3B;}
	.st181{fill:#C8C8C8;}
	.st182{fill:#D2D2D2;}
	.st183{fill:#BEBEBE;}
	.st184{fill:#C4C4C4;}
	.st185{fill:#717171;}
	.st186{fill:#020202;}
	.st187{fill:#606060;}
	.st188{fill:#414141;}
	.st189{fill:#6B6B6B;}
	.st190{fill:#5C5C5C;}
	.st191{fill:#2E2E2E;}
	.st192{fill:#909090;}
	.st193{fill:#2C2C2C;}
	.st194{fill:#686868;}
	.st195{fill:#070707;}
	.st196{fill:#4D4D4D;}
	.st197{fill:#9C9C9C;}
	.st198{fill:#949494;}
	.st199{fill:#6C6C6C;}
	.st200{fill:#363636;}
	.st201{display:inline;}
	.st202{fill-rule:evenodd;clip-rule:evenodd;fill:#1683C6;}
</style>
<g id="Layer_1">
	<g>
		<path class="st2" d="M250,362.6c-56.3,0-103.1-41.6-111.3-95.6c-3.7,0.4-7.5,0.7-11.2,1.1c-5.6,0.6-12-4.1-12-11.2
			c0,0.1-0.5-52.2-0.5-52.2c0-5.5,3.8-10.5,10.5-11.3c1.4-0.2,19.1-1.9,28.8-2.7c19.9-32,55.3-53.4,95.7-53.4s75.8,21.4,95.7,53.4
			c9.7,0.8,27.4,2.5,28.8,2.7c6.6,0.7,10.5,5.8,10.5,11.3c0,0-0.5,52.3-0.5,52.2c0,7.1-6.4,11.8-12,11.2c-3.7-0.4-7.4-0.7-11.2-1.1
			C353.1,321.1,306.3,362.6,250,362.6z"/>
		<g>
			<g>
				<g>
					<path d="M195.6,260h7.6l6.1,13.9l6.4-13.9h7.7l4.5,25.9h-7.8L218,271h-0.1l-7.2,14.9h-3.1l-6.9-14.9h-0.1l-2.5,14.9h-7.7
						L195.6,260z"/>
					<path d="M244.9,285.9h-7.8V260h7.8V285.9z"/>
					<path d="M263.7,280.2h9.3v5.7h-17.1V260h7.8V280.2z"/>
					<path d="M298.7,260h9.6l-11.9,12.3l13,13.6h-10.1l-10-11.2h-0.1v11.2h-7.8V260h7.8v10.7h0.1L298.7,260z"/>
				</g>
				<g>
					<path d="M218.6,189.5l-3.7-7.8h-1.7v7.8H208v-20.9h8.3c4.6,0,7.1,3.3,7.1,6.7c0,2.9-1.8,4.6-3.4,5.5l4.5,8.7H218.6z M216,173.2
						h-2.9v4.2h2.9c1.4,0,2.2-1,2.2-2.1C218.3,174.2,217.4,173.2,216,173.2z"/>
					<path d="M231.7,189.5v-20.9h14.2v4.6h-9.1v3.5h7.8v4.6h-7.8v3.7h9.1v4.6H231.7z"/>
					<path d="M265.8,189.5l-1-3.1h-6.4l-1,3.1H252l7.6-20.9h4l7.6,20.9H265.8z M261.7,176.5l-1.9,5.6h3.6L261.7,176.5z"/>
					<path d="M277.8,189.5v-20.9h5.1v16.3h8.8v4.6H277.8z"/>
				</g>
				<path d="M377.7,204.6c0-2.2-1.8-3.9-3.9-3.9l0,0c-10.6-1.1-21.4-2.1-32.3-3c-18.2-31.7-52.3-53-91.4-53
					c-39.1,0-73.2,21.4-91.4,53c-11,0.8-21.8,1.8-32.4,3v0c-2.2,0-3.9,1.8-3.9,3.9l0,0l0.5,52.3l0,0c0,2.2,1.8,3.9,3.9,3.9l0,0
					c6.1-0.6,12.2-1.2,18.4-1.8c4.6,53.9,49.9,96.3,104.9,96.3c55,0,100.3-42.4,104.9-96.3c6.2,0.6,12.3,1.1,18.4,1.8l0,0
					c2.2,0,3.9-1.8,3.9-3.9c0,0,0,0,0,0L377.7,204.6L377.7,204.6z M250,153.7c33.6,0,63.1,17.2,80.4,43.2c-26-1.8-52.9-2.7-80.4-2.7
					c-27.5,0-54.3,0.9-80.4,2.7C186.9,170.9,216.4,153.7,250,153.7z M232.8,332.4c-1.9,0.1-3.3,0.5-4.4,0.7c-0.5-0.4-1.1-0.8-1.2-1
					c-0.2-0.4-0.6-0.8-0.9-1.3c-0.2-0.5-0.2-1.9-0.2-2.8c0-2.3,0-3.3,0.6-4.4c0.4-0.6,0.9-2.5,1.3-2.9c0.4-0.4,1.3-1.9,1.3-1.9
					c0.4,0.9,1,0.6,1.5,1c0,0-0.2,1-0.5,1.4c-0.3,0.4,0,0.8,0.2,1.3c0.2,0.4,2.4,8.8,2.4,9C232.9,331.7,232.8,332.1,232.8,332.4z
					 M259.3,333c0.1,0,0.1,0.1,0.2,0.1c-6.1-0.1-5.8,2-13.7,0.4c-4.3-0.8-7.6-1.2-10.2-1.2c-0.6-0.9-1.6-5.5-1.5-6.7
					c0.1-1.1,0.2-2.7,0.3-3.1c0-0.4,0.8-2.1,1-2.4c0.2-0.3,0.4-0.2,0.4,0.1c0,0.4,0,0.9,0.3,1c0.3,0.1,0.6-1,0.7-1.3
					c0.1-0.3,0.7-0.7,0.7-0.7c0.2,0.2,0,1.1,0.4,1.1c0.2,0,0.3-0.2,0.3-0.4c0.3-1.2,0.2-1.2,1.2-1.7c0.6-0.3,2-2,2-2
					c7.5,3.2,13.8-1.3,18.5,1.1c0,0,0.1,2.9,0,3.9c-0.1,1,0.1,1.8,0.3,3.1c0.2,1.3-0.7,5-1,5.5c-0.2,0.5-0.5,0.6-0.5,0.9
					c0,0.2,0.5,0.1,0.7,0.5c0.2,0.4-0.1,0.8-0.2,1C259.2,332.4,259.1,332.7,259.3,333z M259.7,333c0.2,0,0.3-0.1,0.4-0.1
					c0.1,0,0.1,0.1,0.2,0.1C260.1,333.1,259.9,333.1,259.7,333z M263.4,333.3c-0.4-0.7-1.7-2.5-1.7-3c0-0.5-0.2-4.2,0.3-5
					c0.4-0.5,0.6-1.2,0.8-1.5c-0.1-0.1-0.1-0.2-0.2-0.3h0.3c0,0,0,0.1-0.1,0.3c0.2,0.4,0.5,1,0.5,1.8c0,0.8,0,3.8-0.2,4.3
					c-0.2,0.5-0.1,0.8,0,1c0.1,0.2-0.1,0.5-0.1,0.7c0,0.2,0.5,0.2,0.8,0.4c0.2,0.2,0.2,1,0.2,1.4c0,0,0,0,0,0
					C263.8,333.4,263.6,333.3,263.4,333.3z M332.6,299.6l-0.7-12.6l-4.6,12.3l-4.2-12.6l-1.3,13.1l-7.3-11.1l2.2,13l-9.9-8.8l5.5,12
					l-11.8-6l8.4,10.2l-13-2.7l10.7,7.7l-13.2,0.8l12.3,4.6l-12.6,4.2l13.1,1.3c-12.7,3.9-10.4,12.7-38.5,9c-0.1-0.3-0.8-0.8-1-1
					c-0.2-0.2-0.4-0.9-0.8-1.2c-0.3-0.2-0.5-1.1-0.5-1.5c0-0.4-0.4-2.3-0.3-3.8c0-0.5,0-0.9,0.3-1.3c0.2-0.4,0.1-0.6,0.3-1
					c0.2-0.4,0.3-1.1,0.3-1.8c0-0.8,0.6-4.3,0.6-4.3c1.4-0.2,2.8-1,3.5-2.5c0.1-0.2,0.8-0.9,1.7-2.2c0.9-1.3,1.4-5.2,1.6-5.6
					c0.2-0.3,0.7-2.6,0.8-2.9c0.1-0.3,1.4-1.7,2.1-2.8c0.7-1.1,0.3-1,1-1.7c0.7-0.8,1.8-0.4,2-0.2c0.3,0.1,4.5,0,4.9-0.2
					c0.5-0.1,1.4-0.7,1.6-0.7s0.7,0.2,1,0.1c0.4,0,1-0.6,1.2-0.8c0.1-0.2,0.3-0.2,0.5-0.4c0.2-0.2,0.4-0.8,0.4-1.3
					c0-0.5-0.4-1.2-0.7-1.3c-0.2-0.1-0.9-0.1-1.2-0.2c-0.3-0.1-1-0.7-1.9-1.5c-0.9-0.7-2.9-1.9-3-2.1c-0.5-1-0.7-0.9-0.8-1.2
					c-0.2-0.4,0.1-0.6-0.1-0.9c-0.3-0.5-1.4,0.1-1.4,0.1c-0.1,0-0.9-0.6-1.2-1c-0.4-0.4-1-0.9-1.5-0.9c-0.4,0-0.6,0.3-0.5,0.7
					c0.1,0.5-0.2,0.5-0.1,0.7c0.1,0.2,0.2,0.5-0.1,0.7c-0.4,0.2-1.2,0.3-1.9,0.9c-0.6,0.6-4.1,3.1-8.5,3.7c-0.8,0.1-1.3-0.6-3.5-0.1
					c-3.2,0.7-20.7,1.2-22.4,1l-0.1,0c-0.5,0-1.7-0.4-3.6-0.5c-1.9-0.1-4.9-0.4-6.3-0.4c-2,0-3.5,0.9-4.1,1.7
					c-0.5,0.6-1.2,1.2-1.5,2.3c-0.2,0.8,0.2,7.5-0.2,9.9c-0.3,1.5-1,5.1-1,5.1c-0.3,0.1-1.2,0.1-1.7,1.7c-0.5,1.7-1.2,1.8-1.6,2.3
					c-0.4,0.5-0.5,1.3-0.5,1.3c0.2-0.7,1.1-1.4,1.5-1.6c-0.7,0.6-1.4,2.6-1.4,3.4c0.3-0.8,1.2-1.7,1.5-1.8c-0.9,0.8-1.8,2.5-1.8,3.6
					c0.2-0.3,0.6-0.8,0.6-0.8c0,0.2-0.1,0.7-0.1,0.7c0.3-0.2,0.8-0.6,0.8-0.6c-0.8,0.9-1.3,2.5-1.3,2.5c0.3-0.8,1.3-1.6,1.3-1.6
					c-0.7,0.9-1,3.5-1,3.5c0.1-0.4,0.8-2.1,2-3c1.6-1.2,1.7-2.6,1.7-3.1c0.1-0.5,0.5-1.4,1.2-3.1c0.7-1.7-0.4-2.8-0.4-2.8
					c0.2-1,0.5-2.6,0.8-5.4c0.3-2.7,0.6-4.4,0.5-6.5c-0.2-2.8,0.4-3,0.4-3c-0.2,1.5,0.4,5.1,0.7,6.2c0.2,1.1,0,8.2-0.3,9.4
					c-0.3,1.2-1.1,2.6-1.5,3.2c-0.4,0.6-0.5,1.4-0.5,2.3c0,0.9-0.1,9.2-0.3,9.5c-0.2,0.3-0.4,0.9-0.4,1.2c0,0.4,0.5,0.4,0.6,0.6
					c0.1,0.2,0.5,1,1,1.6c-5-1.1-15.5-7.5-36.9-9.5c-19-16-31.8-39.2-34-65.5c30.9-2.5,63-3.8,96-3.9c33,0,65.1,1.4,96,3.9
					C344.7,273.3,340,287.3,332.6,299.6z"/>
				<g>
					<path class="st3" d="M154.9,237.6c0,6.6-0.3,8-2.3,10.5c-2,2.4-5.2,3.8-8.8,3.9c-3.6,0.1-7-1.1-8.9-3.4
						c-1.9-2.4-2.3-3.7-2.3-10.3v-17.5c0-6.5,0.3-7.9,2.3-10.4c2-2.4,5.2-3.8,8.9-3.9c3.6-0.1,7,1.1,8.8,3.4c2,2.5,2.3,3.7,2.3,10.3
						v2.8l-7,0.2v-6c0-4.1-1.1-5.6-4-5.5c-3.1,0.1-4.2,1.6-4.2,5.9v23.7c0,4.2,1.1,5.7,4,5.6c3.1-0.1,4.2-1.6,4.2-5.9v-7.8l7-0.2
						V237.6z"/>
					<path class="st3" d="M166.7,241.5l-1.3,8.6l-6.6,0.5l7.1-45.6l8.3-0.6l8.3,44.6l-6.7,0.4l-1.6-8.3L166.7,241.5z M171.3,220.7
						l-0.6-4.4l-0.5-3.7l-0.3,3.6l-0.6,4.6l-1.8,15.1l5.9-0.3L171.3,220.7z"/>
					<polygon class="st3" points="194.8,242.8 206,242.3 206,247.9 187.9,248.7 187.9,203.7 194.8,203.3 					"/>
					<polygon class="st3" points="218.8,247.6 211.8,247.8 211.8,202.7 218.8,202.5 					"/>
					<polygon class="st3" points="232,226.8 232,247.4 225,247.5 225,202.4 242.8,202.1 242.8,207.7 232,207.8 232,221.1 241.9,221 
						241.9,226.6 					"/>
					<path class="st3" d="M269.8,233.4c0,6.6-0.3,8-2.3,10.4c-2,2.4-5.2,3.6-8.9,3.6c-3.6,0-7-1.4-8.9-3.6
						c-1.9-2.5-2.2-3.8-2.2-10.3v-17.4c0-6.6,0.3-7.9,2.2-10.3c2-2.3,5.2-3.6,8.9-3.6c3.7,0,7,1.4,8.9,3.6c2,2.6,2.3,3.8,2.3,10.3
						V233.4z M254.5,236.6c0,4.2,1.1,5.7,4,5.7c3.1,0,4.2-1.5,4.2-5.7V213c0-4.2-1.1-5.7-4-5.7c-3.1,0-4.2,1.5-4.2,5.7V236.6z"/>
					<path class="st3" d="M287.6,202.5c4.5,0.1,6.1,0.5,7.3,2.2c1.2,1.6,1.6,4.2,1.6,8.5v3.2c0,6.1-1.1,7.9-5.2,8.5
						c4.2,1.1,5.2,3,5.2,9.5v5.6c0,3.9,0.4,5.5,1.4,8l-7.1-0.3c-0.8-2-1.2-5.3-1.2-8.8v-4c0-5.8-0.9-8-3.4-8l-3-0.1v20.6l-7.1-0.2
						v-45.1L287.6,202.5z M283,221.8l4.1,0.1c2,0.1,2.4-0.6,2.4-4.6v-4.3c0-4-0.4-4.9-2.4-5L283,208V221.8z"/>
					<polygon class="st3" points="317,249 308.1,213.7 308.3,216.6 308.7,220.9 308.8,223.6 309.6,248.6 303,248.3 303,203.2 
						310.3,203.5 317.7,231.4 318.3,233.9 318.9,236.4 319.3,238.1 319.1,235.5 318.6,229.9 318.4,226.4 317.9,203.9 324.6,204.3 
						324.7,249.5 					"/>
					<polygon class="st3" points="338.4,250.3 331.4,249.8 331.4,204.8 338.4,205.3 					"/>
					<path class="st3" d="M351.8,242.8l-1.3,8.5l-6.6-0.6l7.1-44.5l8.3,0.7l8.4,45.8l-6.7-0.6l-1.7-8.8L351.8,242.8z M356.3,222.6
						l-0.6-4.5l-0.5-3.7l-0.3,3.5l-0.6,4.5l-1.8,14.8l5.9,0.5L356.3,222.6z"/>
				</g>
				<g>
					<path class="st3" d="M329.3,304.7c-1-0.2-2.1-0.3-3.1-0.3c-8.4,0-15.3,6.8-15.3,15.3c0,1.5,0.2,3,0.7,4.4
						C318.3,318.5,324.3,312,329.3,304.7z"/>
				</g>
			</g>
		</g>
		<g>
			<path d="M368.7,271.3c2.6,0,4.9,1.9,4.9,4.7c0,2.9-2.3,4.8-4.9,4.8c-2.6,0-4.9-1.9-4.9-4.8C363.8,273.2,366.1,271.3,368.7,271.3z
				 M368.7,279.8c2,0,3.6-1.6,3.6-3.8c0-2.2-1.6-3.7-3.6-3.7c-2,0-3.6,1.6-3.6,3.7C365.1,278.3,366.7,279.8,368.7,279.8z
				 M366.8,273.4h2c1.3,0,2.1,0.4,2.1,1.6c0,1-0.6,1.4-1.4,1.4l1.4,2.3h-1.1l-1.3-2.3h-0.7v2.3h-1.1V273.4z M367.8,275.6h0.9
				c0.6,0,1-0.1,1-0.7c0-0.6-0.6-0.7-1.1-0.7h-0.9V275.6z"/>
		</g>
	</g>
</g>
<g id="Layer_2">
</g>
</svg>
