<?xml version="1.0" encoding="utf-8"?>
<!-- Generator: Adobe Illustrator 19.1.0, SVG Export Plug-In . SVG Version: 6.00 Build 0)  -->
<svg version="1.1" id="Layer_1" xmlns="http://www.w3.org/2000/svg" xmlns:xlink="http://www.w3.org/1999/xlink" x="0px" y="0px"
	 viewBox="-133 135 500 500" style="enable-background:new -133 135 500 500;" xml:space="preserve">
<style type="text/css">
	.st0{fill:none;stroke:#000;stroke-width:3;}
	.st1{fill:#000;}
</style>
<g id="Layer_1_1_">
	<g>
		<path class="st0" d="M117,497.6C60.7,497.6,13.9,456,5.7,402c-3.7,0.4-7.5,0.7-11.2,1.1c-5.6,0.6-12-4.1-12-11.2
			c0,0.1-0.5-52.2-0.5-52.2c0-5.5,3.8-10.5,10.5-11.3c1.4-0.2,19.1-1.9,28.8-2.7c19.9-32,55.3-53.4,95.7-53.4s75.8,21.4,95.7,53.4
			c9.7,0.8,27.4,2.5,28.8,2.7c6.6,0.7,10.5,5.8,10.5,11.3c0,0-0.5,52.3-0.5,52.2c0,7.1-6.4,11.8-12,11.2c-3.7-0.4-7.4-0.7-11.2-1.1
			C220.1,456.1,173.3,497.6,117,497.6z"/>
		<g>
			<g>
				<g>
					<path class="st1" d="M62.6,395h7.6l6.1,13.9l6.4-13.9h7.7l4.5,25.9h-7.8L85,406h-0.1l-7.2,14.9h-3.1L67.7,406h-0.1l-2.5,14.9
						h-7.7L62.6,395z"/>
					<path class="st1" d="M111.9,420.9h-7.8V395h7.8V420.9z"/>
					<path class="st1" d="M130.7,415.2h9.3v5.7h-17.1V395h7.8L130.7,415.2L130.7,415.2z"/>
					<path class="st1" d="M165.7,395h9.6l-11.9,12.3l13,13.6h-10.1l-10-11.2h-0.1v11.2h-7.8V395h7.8v10.7h0.1L165.7,395z"/>
				</g>
				<g>
					<path class="st1" d="M85.6,324.5l-3.7-7.8h-1.7v7.8H75v-20.9h8.3c4.6,0,7.1,3.3,7.1,6.7c0,2.9-1.8,4.6-3.4,5.5l4.5,8.7H85.6z
						 M83,308.2h-2.9v4.2H83c1.4,0,2.2-1,2.2-2.1C85.3,309.2,84.4,308.2,83,308.2z"/>
					<path class="st1" d="M98.7,324.5v-20.9h14.2v4.6h-9.1v3.5h7.8v4.6h-7.8v3.7h9.1v4.6H98.7V324.5z"/>
					<path class="st1" d="M132.8,324.5l-1-3.1h-6.4l-1,3.1H119l7.6-20.9h4l7.6,20.9H132.8z M128.7,311.5l-1.9,5.6h3.6L128.7,311.5z"
						/>
					<path class="st1" d="M144.8,324.5v-20.9h5.1v16.3h8.8v4.6H144.8L144.8,324.5z"/>
				</g>
				<g>
					<polygon class="st1" points="38.3,355.7 37.7,351.3 37.2,347.6 36.9,351.2 36.3,355.8 34.5,370.9 40.4,370.6 					"/>
					<path class="st1" d="M125.7,342.3c-3.1,0-4.2,1.5-4.2,5.7v23.6c0,4.2,1.1,5.7,4,5.7c3.1,0,4.2-1.5,4.2-5.7V348
						C129.7,343.8,128.6,342.3,125.7,342.3z"/>
					<path class="st1" d="M154.1,343H150v13.8l4.1,0.1c2,0.1,2.4-0.6,2.4-4.6V348C156.5,344,156.1,343.1,154.1,343z"/>
					<g>
						<path class="st1" d="M240.8,335.7c-10.6-1.1-21.4-2.1-32.3-3c-18.2-31.7-52.3-53-91.4-53c-39.1,0-73.2,21.4-91.4,53
							c-11,0.8-21.8,1.8-32.4,3c-2.2,0-3.9,1.8-3.9,3.9l0.5,52.3c0,2.2,1.8,3.9,3.9,3.9c6.1-0.6,12.2-1.2,18.4-1.8
							c4.6,53.9,49.9,96.3,104.9,96.3S217.4,447.9,222,394c6.2,0.6,12.3,1.1,18.4,1.8c2.2,0,3.9-1.8,3.9-3.9l0.4-52.3
							C244.7,337.4,242.9,335.7,240.8,335.7z M198.4,339.8l7,0.5v45l-7-0.5V339.8z M117,288.7c33.6,0,63.1,17.2,80.4,43.2
							c-26-1.8-52.9-2.7-80.4-2.7s-54.3,0.9-80.4,2.7C53.9,305.9,83.4,288.7,117,288.7z M175.3,351.6l0.4,4.3l0.1,2.7l0.8,25
							l-6.6-0.3v-45.1l7.3,0.3l7.4,27.9l0.6,2.5l0.6,2.5l0.4,1.7l-0.2-2.6l-0.5-5.6l-0.2-3.5l-0.5-22.5l6.7,0.4l0.1,45.2L184,384
							l-8.9-35.3L175.3,351.6z M153.2,361.9l-3-0.1v20.6l-7.1-0.2v-45.1l11.5,0.4c4.5,0.1,6.1,0.5,7.3,2.2c1.2,1.6,1.6,4.2,1.6,8.5
							v3.2c0,6.1-1.1,7.9-5.2,8.5c4.2,1.1,5.2,3,5.2,9.5v5.6c0,3.9,0.4,5.5,1.4,8l-7.1-0.3c-0.8-2-1.2-5.3-1.2-8.8v-4
							C156.6,364.1,155.7,361.9,153.2,361.9z M136.8,351.1v17.3c0,6.6-0.3,8-2.3,10.4c-2,2.4-5.2,3.6-8.9,3.6c-3.6,0-7-1.4-8.9-3.6
							c-1.9-2.5-2.2-3.8-2.2-10.3v-17.4c0-6.6,0.3-7.9,2.2-10.3c2-2.3,5.2-3.6,8.9-3.6s7,1.4,8.9,3.6
							C136.5,343.4,136.8,344.6,136.8,351.1z M108.9,356v5.6l-9.9,0.2v20.6l-7,0.1v-45.1l17.8-0.3v5.6L99,342.8v13.3L108.9,356z
							 M85.8,337.5v45.1l-7,0.2v-45.1L85.8,337.5z M73,377.3v5.6l-18.1,0.8v-45l6.9-0.4v39.5L73,377.3z M32.9,340l8.3-0.6l8.3,44.6
							l-6.7,0.4l-1.6-8.3l-7.5,0.4l-1.3,8.6l-6.6,0.5L32.9,340z M10.8,387c-3.6,0.1-7-1.1-8.9-3.4c-1.9-2.4-2.3-3.7-2.3-10.3v-17.5
							c0-6.5,0.3-7.9,2.3-10.4c2-2.4,5.2-3.8,8.9-3.9c3.6-0.1,7,1.1,8.8,3.4c2,2.5,2.3,3.7,2.3,10.3v2.8l-7,0.2v-6
							c0-4.1-1.1-5.6-4-5.5c-3.1,0.1-4.2,1.6-4.2,5.9v23.7c0,4.2,1.1,5.7,4,5.6c3.1-0.1,4.2-1.6,4.2-5.9v-7.8l7-0.2v4.6
							c0,6.6-0.3,8-2.3,10.5C17.6,385.5,14.4,386.9,10.8,387z M99.8,467.4c-1.9,0.1-3.3,0.5-4.4,0.7c-0.5-0.4-1.1-0.8-1.2-1
							c-0.2-0.4-0.6-0.8-0.9-1.3c-0.2-0.5-0.2-1.9-0.2-2.8c0-2.3,0-3.3,0.6-4.4c0.4-0.6,0.9-2.5,1.3-2.9c0.4-0.4,1.3-1.9,1.3-1.9
							c0.4,0.9,1,0.6,1.5,1c0,0-0.2,1-0.5,1.4c-0.3,0.4,0,0.8,0.2,1.3c0.2,0.4,2.4,8.8,2.4,9S99.8,467.1,99.8,467.4z M112.8,468.5
							c-4.3-0.8-7.6-1.2-10.2-1.2c-0.6-0.9-1.6-5.5-1.5-6.7c0.1-1.1,0.2-2.7,0.3-3.1c0-0.4,0.8-2.1,1-2.4s0.4-0.2,0.4,0.1
							c0,0.4,0,0.9,0.3,1c0.3,0.1,0.6-1,0.7-1.3c0.1-0.3,0.7-0.7,0.7-0.7c0.2,0.2,0,1.1,0.4,1.1c0.2,0,0.3-0.2,0.3-0.4
							c0.3-1.2,0.2-1.2,1.2-1.7c0.6-0.3,2-2,2-2c7.5,3.2,13.8-1.3,18.5,1.1c0,0,0.1,2.9,0,3.9c-0.1,1,0.1,1.8,0.3,3.1
							c0.2,1.3-0.7,5-1,5.5c-0.2,0.5-0.5,0.6-0.5,0.9c0,0.2,0.5,0.1,0.7,0.5c0.2,0.4-0.1,0.8-0.2,1c0,0.2-0.1,0.5,0.1,0.8
							c0.1,0,0.1,0.1,0.2,0.1C120.4,468,120.7,470.1,112.8,468.5z M126.7,468c0.2,0,0.3-0.1,0.4-0.1c0.1,0,0.1,0.1,0.2,0.1
							C127.1,468.1,126.9,468.1,126.7,468z M130.4,468.3c-0.4-0.7-1.7-2.5-1.7-3s-0.2-4.2,0.3-5c0.4-0.5,0.6-1.2,0.8-1.5
							c0.2,0.4,0.5,1,0.5,1.8c0,0.8,0,3.8-0.2,4.3s-0.1,0.8,0,1c0.1,0.2-0.1,0.5-0.1,0.7s0.5,0.2,0.8,0.4c0.2,0.2,0.2,1,0.2,1.4
							C130.8,468.4,130.6,468.3,130.4,468.3z M129.6,458.5h0.3c0,0,0,0.1-0.1,0.3C129.7,458.7,129.7,458.6,129.6,458.5z
							 M199.6,434.6l-0.7-12.6l-4.6,12.3l-4.2-12.6l-1.3,13.1l-7.3-11.1l2.2,13l-9.9-8.8l5.5,12l-11.8-6l8.4,10.2l-13-2.7l10.7,7.7
							l-13.2,0.8l12.3,4.6l-12.6,4.2l13.1,1.3c-12.7,3.9-10.4,12.7-38.5,9c-0.1-0.3-0.8-0.8-1-1s-0.4-0.9-0.8-1.2
							c-0.3-0.2-0.5-1.1-0.5-1.5c0-0.4-0.4-2.3-0.3-3.8c0-0.5,0-0.9,0.3-1.3c0.2-0.4,0.1-0.6,0.3-1c0.2-0.4,0.3-1.1,0.3-1.8
							c0-0.8,0.6-4.3,0.6-4.3c1.4-0.2,2.8-1,3.5-2.5c0.1-0.2,0.8-0.9,1.7-2.2c0.9-1.3,1.4-5.2,1.6-5.6c0.2-0.3,0.7-2.6,0.8-2.9
							c0.1-0.3,1.4-1.7,2.1-2.8c0.7-1.1,0.3-1,1-1.7c0.7-0.8,1.8-0.4,2-0.2c0.3,0.1,4.5,0,4.9-0.2c0.5-0.1,1.4-0.7,1.6-0.7
							s0.7,0.2,1,0.1c0.4,0,1-0.6,1.2-0.8c0.1-0.2,0.3-0.2,0.5-0.4c0.2-0.2,0.4-0.8,0.4-1.3s-0.4-1.2-0.7-1.3
							c-0.2-0.1-0.9-0.1-1.2-0.2c-0.3-0.1-1-0.7-1.9-1.5c-0.9-0.7-2.9-1.9-3-2.1c-0.5-1-0.7-0.9-0.8-1.2c-0.2-0.4,0.1-0.6-0.1-0.9
							c-0.3-0.5-1.4,0.1-1.4,0.1c-0.1,0-0.9-0.6-1.2-1c-0.4-0.4-1-0.9-1.5-0.9c-0.4,0-0.6,0.3-0.5,0.7c0.1,0.5-0.2,0.5-0.1,0.7
							c0.1,0.2,0.2,0.5-0.1,0.7c-0.4,0.2-1.2,0.3-1.9,0.9c-0.6,0.6-4.1,3.1-8.5,3.7c-0.8,0.1-1.3-0.6-3.5-0.1
							c-3.2,0.7-20.7,1.2-22.4,1H107c-0.5,0-1.7-0.4-3.6-0.5c-1.9-0.1-4.9-0.4-6.3-0.4c-2,0-3.5,0.9-4.1,1.7
							c-0.5,0.6-1.2,1.2-1.5,2.3c-0.2,0.8,0.2,7.5-0.2,9.9c-0.3,1.5-1,5.1-1,5.1c-0.3,0.1-1.2,0.1-1.7,1.7c-0.5,1.7-1.2,1.8-1.6,2.3
							s-0.5,1.3-0.5,1.3c0.2-0.7,1.1-1.4,1.5-1.6c-0.7,0.6-1.4,2.6-1.4,3.4c0.3-0.8,1.2-1.7,1.5-1.8c-0.9,0.8-1.8,2.5-1.8,3.6
							c0.2-0.3,0.6-0.8,0.6-0.8c0,0.2-0.1,0.7-0.1,0.7c0.3-0.2,0.8-0.6,0.8-0.6c-0.8,0.9-1.3,2.5-1.3,2.5c0.3-0.8,1.3-1.6,1.3-1.6
							c-0.7,0.9-1,3.5-1,3.5c0.1-0.4,0.8-2.1,2-3c1.6-1.2,1.7-2.6,1.7-3.1c0.1-0.5,0.5-1.4,1.2-3.1s-0.4-2.8-0.4-2.8
							c0.2-1,0.5-2.6,0.8-5.4c0.3-2.7,0.6-4.4,0.5-6.5c-0.2-2.8,0.4-3,0.4-3c-0.2,1.5,0.4,5.1,0.7,6.2c0.2,1.1,0,8.2-0.3,9.4
							c-0.3,1.2-1.1,2.6-1.5,3.2c-0.4,0.6-0.5,1.4-0.5,2.3c0,0.9-0.1,9.2-0.3,9.5c-0.2,0.3-0.4,0.9-0.4,1.2c0,0.4,0.5,0.4,0.6,0.6
							c0.1,0.2,0.5,1,1,1.6c-5-1.1-15.5-7.5-36.9-9.5c-19-16-31.8-39.2-34-65.5c30.9-2.5,63-3.8,96-3.9c33,0,65.1,1.4,96,3.9
							C211.7,408.3,207,422.3,199.6,434.6z M228,387.1l-1.7-8.8l-7.5-0.5l-1.3,8.5l-6.6-0.6l7.1-44.5l8.3,0.7l8.4,45.8L228,387.1z"
							/>
						<polygon class="st1" points="222.7,353.1 222.2,349.4 221.9,352.9 221.3,357.4 219.5,372.2 225.4,372.7 223.3,357.6 						"/>
					</g>
				</g>
				<g>
					<path class="st1" d="M196.3,439.7c-1-0.2-2.1-0.3-3.1-0.3c-8.4,0-15.3,6.8-15.3,15.3c0,1.5,0.2,3,0.7,4.4
						C185.3,453.5,191.3,447,196.3,439.7z"/>
				</g>
			</g>
		</g>
		<g>
			<path class="st1" d="M235.7,406.3c2.6,0,4.9,1.9,4.9,4.7c0,2.9-2.3,4.8-4.9,4.8s-4.9-1.9-4.9-4.8
				C230.8,408.2,233.1,406.3,235.7,406.3z M235.7,414.8c2,0,3.6-1.6,3.6-3.8c0-2.2-1.6-3.7-3.6-3.7s-3.6,1.6-3.6,3.7
				C232.1,413.3,233.7,414.8,235.7,414.8z M233.8,408.4h2c1.3,0,2.1,0.4,2.1,1.6c0,1-0.6,1.4-1.4,1.4l1.4,2.3h-1.1l-1.3-2.3h-0.7
				v2.3h-1.1v-5.3H233.8z M234.8,410.6h0.9c0.6,0,1-0.1,1-0.7s-0.6-0.7-1.1-0.7h-0.9v1.4H234.8z"/>
		</g>
	</g>
</g>
<g id="Layer_2">
</g>
</svg>
