<?xml version="1.0" encoding="utf-8"?>
<!-- Generator: Adobe Illustrator 19.1.0, SVG Export Plug-In . SVG Version: 6.00 Build 0)  -->
<svg version="1.1" id="Layer_1" xmlns="http://www.w3.org/2000/svg" xmlns:xlink="http://www.w3.org/1999/xlink" x="0px" y="0px"
	 viewBox="-133 135 500 500" style="enable-background:new -133 135 500 500;" xml:space="preserve">
<style type="text/css">
	.st0{fill:#FFFFFF;}
</style>
<g id="Layer_2">
</g>
<g>
	<path class="st0" d="M135.1,356.2c0-6.2-3.7-10-15-10h-16.2l-13.7,73.6h18.7c15,0,17.5-5,18.7-15l7.5-43.6
		C136.3,358.7,136.3,356.2,135.1,356.2z"/>
	<path class="st0" d="M12.9,282.7v198.2h198.2V282.7H12.9z M162.5,360l-8.7,53.6c-2.5,16.2-8.7,31.2-43.6,31.2H60.3l21.2-122.2h46.1
		c26.2,0,34.9,13.7,36.2,31.2C163.8,355,162.5,357.5,162.5,360z"/>
</g>
</svg>
