<?xml version="1.0" encoding="utf-8"?>
<!-- Generator: Adobe Illustrator 19.1.0, SVG Export Plug-In . SVG Version: 6.00 Build 0)  -->
<svg version="1.1" id="Layer_1" xmlns="http://www.w3.org/2000/svg" xmlns:xlink="http://www.w3.org/1999/xlink" x="0px" y="0px"
	 viewBox="-133 135 500 500" style="enable-background:new -133 135 500 500;" xml:space="preserve">
<style type="text/css">
	.st0{fill:#FFFFFF;}
</style>
<g id="Layer_1_1_">
</g>
<g>
	<g>
		<path class="st0" d="M282.1,369.1c-2.9-2.4-6-4.8-10.1-10.5l-8.7-13.3L263,345c-0.1-0.1-0.3-0.3-0.3-0.4c0.4-0.3,1-0.6,1.5-0.8
			c3.5-1.7,9.3-4.8,9.3-15c0-5.9-1.8-13.9-18.1-13.9h-32.3v5l4.5,1.7c2.1,0.7,2.2,0.1,2.2,3.9v38c0,3.8-0.3,4.1-2.2,4.8l-4.5,1.7
			l-2.2,4.3h30.9v-4.3l-4.5-1.7c-2-0.7-2.2-1-2.2-4.8v-14.2c0-0.8,0-2.1,0.1-2.2l0.1-0.8l1.7,1.7c0.4,0,0.4,0,1.8,2.1l12.2,19.9
			c1.5,2.7,4.2,4.3,6.9,4.3h14.3v-3.9v-1.3H282.1z M252,340.2h-7c0-0.1,0-0.4,0-0.7v-15.7c0-1.8,0-1.8,3.5-1.8c8,0,9.1,5,9.1,10.5
			C257.5,336.7,255.8,339.1,252,340.2z"/>
	</g>
	<g>
		<path class="st0" d="M85.7,376.5c15.9,0,24.8-7.6,24.8-20.9c0-12.3-10-16-18-18.8c-7.3-2.7-11.8-4.5-11.8-9.5
			c0-3.5,2.8-6.2,6.5-6.2c6.3,0,10.7,4.1,13,11.9l0.3,1h3.6l3.8-7.6l0.1-0.3c0.4-0.8,0.8-1.8,0.8-2.8c0-5.9-7.2-9.4-19.1-9.4
			c-13.5,0-22.4,8-22.4,19.8c0,10.9,8.7,14.9,16.3,17.7c6.9,2.4,12.8,3.6,12.8,10.7c0,4.3-2.8,7.4-7,7.4c-10,0-12.5-10.5-13.2-14
			l-0.3-1.1h-3.6l-4.9,8.8c-0.6,1.3-1.1,2.4-1.1,3.6C66.2,373,76.1,376.5,85.7,376.5z"/>
	</g>
	<g>
		<path class="st0" d="M222.7,373v-18.1H217l-4.2,6.3c-3.1,4.6-3.9,5.9-11.6,5.9c-7.9,0-8.8,0-8.8-6.2v-13.2c0-0.8,0-1.3,0.1-1.4
			c0.1,0,0.4-0.1,1.3-0.1h6.3c2,0,2,0,3.6,3.1l2.4,4.2h4.3v-21.3H206l-2.2,4.2l-0.1,0.3c-1.5,2.8-1.5,2.8-3.6,2.8h-6.3
			c-0.7,0-1,0-1.1-0.1c0-0.1-0.1-0.6-0.1-1.4v-12.9c0-2.7,0-3.1,7.3-3.1c8.4,0,8.8,0.6,12.1,5.6l2.8,4.6h5.8v-16l-1.8-1.4h-49.2v5.2
			l4.6,1.7c2.2,0.8,2.4,1.1,2.4,4.8v37.2c0,3.8-0.3,3.9-2.4,4.8l-4.6,1.7v4.2h51.5L222.7,373z"/>
	</g>
	<g>
		<path class="st0" d="M31.3,375.4c21.3,0,32.5-11.8,32.5-33.9c0-18.9-9.4-27.8-29.6-27.8c-20.9,0-32.4,11.1-32.4,31.1
			C1.8,365.2,11.6,375.4,31.3,375.4z M32,321c6.2,0,14.4,2.2,14.4,21.6c0,15.4-2.1,25.7-12.5,25.7c-10.5,0-14.7-7-14.7-24.8
			C19.2,327.7,23,321,32,321z"/>
	</g>
	<g>
		<path class="st0" d="M120.5,325.2c1.7-2.7,2.2-3.2,8.6-3.2c2.1,0,2.1,0.3,2.1,1.8v39.8c0,3.6-0.3,3.9-2.4,4.6l-5.6,1.8v4.3h32
			v-4.3l-5.8-1.8c-2.1-0.6-2.4-1-2.4-4.5v-40c0-1.8,0-1.8,1.8-1.8c6.5,0,7.2,0.6,8.8,3.2l4.5,7h5.8v-15.9l-1.8-1.4h-54l-1.8,1.4
			v15.9h5.8L120.5,325.2z"/>
	</g>
	<g>
		<path class="st0" d="M-8.2,333.2h-4.2l-2.1,4.2l-0.1,0.1c-0.8,1.4-1.3,2.2-1.5,2.5h-8.6c0-0.3,0-0.6,0-1.1v-14
			c0-2.8,0-3.1,6.9-3.1c7.9,0,8.1,0.6,11.2,5.6l2.7,4.6h5.6v-15.9l-1.8-1.4h-46.4v5l4.5,1.7c2,0.7,2.2,0.1,2.2,3.9v38
			c0,3.8-0.3,4.1-2.2,4.8l-4.5,1.7v4.2h28.9v-4.2l-4.8-1.7c-2-0.7-2.2-1-2.2-4.8V349c0-0.8,0-1.3,0.1-1.4c0.1,0,0.4,0,1,0h5.6
			c1.7,0,1.7,0,3.4,3.1l2.2,4.2h4.2L-8.2,333.2L-8.2,333.2z"/>
	</g>
	<g>
		<path class="st0" d="M200.3,424.6l-0.8-27.8v-0.1c-0.1-1.7-0.1-3.5-0.1-5.2c0-2.1,0.1-2.2,1.7-3.1l3.8-1.8v-4.1h-18.2l-1.4,1.1
			l-0.1,0.4c-0.7,2.2-1.5,4.6-2.5,7l-11.4,27.6l-11.5-26.9c-1-2.4-2-4.9-2.9-7.7l-0.1-0.4l-1.5-1.1h-18.2v4.9l4.1,2
			c1.3,0.7,1.7,0.1,1.7,3.2c0,0.7-0.1,2-0.1,3.1l-1.7,26c-0.6,8.8-0.7,9.5-2.5,10.4l-3.8,1.7l-1-0.1c-2.7-2.2-5.8-6-9.4-11.4
			l-7.9-11.6l-0.3-0.3c-0.1-0.1-0.1-0.3-0.3-0.3c0.3-0.1,1.7-0.4,2.1-0.7c3.2-1.5,9.1-4.5,9.1-14c0-11.6-9.4-12.9-16.4-12.9H81.2
			v4.9l4.1,1.7c1.8,0.7,2,0.8,2,4.3v34.5c0,3.5-0.1,3.6-2,4.3l-4.1,1.7v4.1h26.1v-4.1l-4.1-1.7c-1.7-0.7-2-0.8-2-4.3v-13.2
			c0-0.7,0-2.8,0-2.9l0,0l1.5,1.7c0.1,0,0.1,0,0.1,0c0.3,0.1,1,1.3,1.3,1.8l10.9,18.5c1.4,2.5,3.9,4.1,6.3,4.1h34.2v-4.1l-4.6-1.8
			c-2.9-1.1-3.1-1.5-3.1-7.3l1-22.9l8.8,20.8c1.5,3.8,3.1,7.4,4.2,10.1c0.7,1.8,1.3,3.1,1.5,3.8l0.1,0.4l1.5,1h4.6l1.5-1l0.1-0.4
			c0.1-0.4,0.7-1.8,1.4-3.6c1.4-3.6,3.5-9.3,4.8-12.3l8-18.9l0.6,24c0.1,5.2-0.6,5.8-1.7,6.2l-4.5,2v4.1h25.7v-4.1l-4.1-2
			C201,431.5,200.4,431.4,200.3,424.6z M107.6,406.1h-6.3c0-0.1,0-0.3,0-0.6v-14.7c0-1.7,0-1.7,3.1-1.7c7,0,8,4.6,8,9.7
			C112.3,403,110.8,405.2,107.6,406.1z"/>
	</g>
	<g>
		<path class="st0" d="M230.9,402.6c-6.6-2.4-10.5-4.1-10.5-8.7c0-3.1,2.4-5.5,5.6-5.5c5.6,0,9.4,3.6,11.6,10.8l0.3,1h3.5l3.5-7
			l0.1-0.3c0.3-0.7,0.7-1.7,0.7-2.7c0-5.5-6.5-8.7-17.4-8.7c-12.2,0-20.3,7.3-20.3,18.1c0,10.1,7.9,13.7,14.7,16.3
			c6.2,2.2,11.4,3.2,11.4,9.4c0,3.9-2.5,6.7-6.2,6.7c-5.9,0-9.8-4.2-11.8-12.6l-0.3-1.1h-3.5l-4.3,8.1c-0.6,1.1-1,2.1-1,3.4
			c0,6,9.1,9.3,17.8,9.3c14.2,0,22.6-7.2,22.6-19.2C247.3,408.5,238.2,405.3,230.9,402.6z"/>
	</g>
	<g>
		<path class="st0" d="M74.5,425.5l-13.3-35.8c-0.7-1.7-1.3-3.5-2-5.6l-0.1-0.4l-1.5-1.1h-8.7l-1.3,1.1l-0.1,0.4
			c-0.8,2.2-1.4,4.1-2.2,5.9l-14.4,35.3c-2,4.8-2.5,6.2-5.3,7.6L23,434v4.1h21.3V434l-4.9-2.1c-1.5-0.6-1.5-0.8-1.5-1.1
			c0-1,0.7-2.8,1-3.6l2.5-7.3c0.8-2.5,1-2.5,2.7-2.5h10c1.5,0,1.5,0,2.1,1.7l3.4,9.8c0.7,2,0.7,2.4,0.7,2.4s-0.1,0.3-0.8,0.6
			l-4.8,2.1v4.1h26.4v-4.1l-3.4-1.7C75.7,431.2,76.3,430.8,74.5,425.5z M45,410.6c-0.1,0-0.1,0-0.3,0c0-0.1,0.1-0.3,0.1-0.4
			c0.1-0.3,0.1-0.4,0.1-0.6l4.2-11.5l4.1,11.9c0,0.1,0,0.3,0.1,0.4c0,0,0,0,0,0.1H45z"/>
	</g>
	<g>
		<path class="st0" d="M24.5,399.7h-4.1l-2.1,4.2c-0.6,1.1-1,2-1.4,2.2H9.5c0-0.1,0-0.6,0-1V392c0-2.5,0-2.8,6-2.8
			c7,0,7.3,0.4,10.1,5.2l2.5,4.3h5.3v-14.9l-1.7-1.4h-42.1v4.9l4.1,1.7c1.7,0.7,2,0.8,2,4.3v34.5c0,3.5-0.1,3.6-2,4.3l-4.1,1.7v4.1
			h26.4v-4.1l-4.5-1.5c-1.7-0.6-2-0.8-2-4.3v-13.5c0-0.7,0-1,0-1.3c0.1,0,0.4,0,0.8,0h5c1.5,0,1.5,0,2.9,2.8l2.1,3.9h4.1v-20.3H24.5
			z"/>
	</g>
	<path class="st0" d="M7,390.1v13.2c0,1.4,0.1,2.1,0.6,2.4h8.7c0.8-0.4,1.3-1.3,2.2-3.2l1.5-3.2h1.8v17.4H20l-1.7-3.2
		c-1.7-3.1-2-3.5-4.2-3.5h-5c-2,0-2.2,0.3-2.2,2.7v13.5c0,3.6,0.3,4.8,2.8,5.6l3.5,1.3v1.7h-23.6v-1.7l3.2-1.3
		c2.7-1,2.8-2.1,2.8-5.6v-16.4v-3.9v-15c0-3.6-0.3-4.6-2.8-5.6l-3.2-1.3v-1.7h40.3l0.8,0.6v12.8h-3.1l-2.1-3.6
		c-2.9-5-3.5-5.9-11.2-5.9C7.5,385.9,7,386.6,7,390.1z M76.1,431.7l2.5,1.3v1.7H55.1v-1.7l3.9-1.7c1-0.4,1.7-1,1.7-1.8
		c0-0.6-0.4-2-0.8-2.9l-3.4-9.8c-0.8-2.4-1.3-2.7-3.5-2.7H43c-2.5,0-3.1,0.4-4.1,3.5l-2.5,7.3c-0.4,1.4-1,2.9-1,4.1
		c0,1.4,1,1.8,2.5,2.4l3.9,1.7v1.7H23.4v-1.7l1.5-0.8c3.4-1.7,4.1-3.6,6.3-9.3l14-34.4c0.8-2,1.5-3.9,2.2-6l0.7-0.6h6.9l0.8,0.6
		c0.7,2,1.3,3.8,2,5.8l13,35.2C72.9,429.1,73.2,430.3,76.1,431.7z M53.7,408.9c0-0.4-0.1-0.8-0.3-1.1l-4.5-13.2
		c-0.4-1.1-0.6-1.5-1-1.5c-0.3,0-0.6,0.4-0.8,1.1l-4.6,13c-0.1,0.6-0.4,1.3-0.4,1.8c0,0.7,0.3,1,1.7,1h8.6
		C53.6,410.1,53.7,409.6,53.7,408.9z M132.1,432.9v1.7h-11.6c-2,0-3.9-1.4-5-3.4l-10.9-18.5c-1.4-2.2-1.7-2.5-2.7-2.5h-1.5
		c-1.3,0-1.5,0.4-1.5,2.7v13.2c0,3.6,0.3,4.6,2.8,5.6l3.2,1.3v1.7H81.6v-1.7l3.2-1.3c2.7-1,2.8-2.1,2.8-5.6v-16.4v-3.9v-15
		c0-3.6-0.3-4.6-2.8-5.6l-3.2-1.3v-1.7h27.8c8.4,0,15,2.1,15,11.5c0,12.2-10.5,12.3-10.5,14.4c0,0.7,0.4,1.1,0.8,1.7l7.9,11.5
		C126.4,426.9,129.4,430.7,132.1,432.9z M112.6,397c0-4.8-0.8-11.1-9.4-11.1c-3.8,0-4.5,0.4-4.5,3.1v14.7c0,1,0.1,1.5,0.4,2h7.4
		C110.2,404.6,112.6,402.2,112.6,397z M197.6,422.7l-0.8-27.8c-0.1-1.8-0.1-3.6-0.1-5.5c0-2.5,0.4-3.2,2.5-4.3l3.1-1.4V382h-16.4
		l-0.7,0.6c-0.8,2.4-1.7,4.9-2.5,7.2l-11.5,27.8c-0.6,1.4-0.7,2-1.3,2c-0.4,0-0.8-0.7-1.1-1.7l-11.6-27.4c-1.1-2.5-2.1-5.2-2.9-7.9
		l-0.8-0.6h-16.4v1.7l3.4,1.5c2.1,1,2.5,2.1,2.5,5.5c0,1-0.1,2.9-0.3,4.5l-1.5,24.7c-0.6,8.7-0.7,10.4-3.4,11.5l-3.1,1.4v1.7h18.8
		v-1.7l-3.8-1.4c-3.8-1.4-4.1-2.8-4.1-8.7l1.1-24.7c0-1.3,0.1-2,0.8-2c0.4,0,0.7,0.8,1.4,2.1l9.3,21.9c2.7,6.2,5,12.2,5.8,13.9
		l0.8,0.6h3.8l0.8-0.6c0.6-1.4,4.2-11.4,6.2-16l8.8-20.8c0.4-1,0.7-1.3,1.1-1.3c0.7,0,0.7,0.4,0.8,1.5l0.7,26.2
		c0.1,5-0.4,6.7-2.5,7.6l-3.6,1.5v1.7h22.9v-1.7l-3.2-1.5C198.3,430.5,197.8,429.6,197.6,422.7z M217.7,392c0-3.8,3.1-6.9,7-6.9
		c8.7,0,11.8,7.7,12.9,11.8h1.5l3.1-6.2c0.3-0.7,0.8-1.5,0.8-2.4c0-4.5-6-7.3-16-7.3c-10.9,0-18.9,6.3-18.9,16.7
		c0,17.5,26.1,10.8,26.1,25.8c0,4.5-3.1,8.1-7.6,8.1c-9.7,0-12.2-9.7-13.2-13.7h-1.5l-3.9,7.3c-0.4,1-0.8,1.8-0.8,2.8
		c0,4.9,8.6,7.7,16.4,7.7c12.5,0,21.2-5.8,21.2-17.8C244.6,399.1,217.7,404.7,217.7,392z M-19.1,318.5c8.7,0,9.3,1,12.5,6.3l2.2,3.9
		H-1V315l-0.8-0.7h-44.6v1.8l3.5,1.4c2.9,1.1,3.2,2.2,3.2,6v16.1v4.2v17.7c0,3.9-0.3,5-3.2,6l-3.5,1.4v1.8h26.1V369l-3.9-1.4
		c-2.9-1-3.2-2.2-3.2-6v-14.6c0-2.5,0.3-2.8,2.5-2.8h5.6c2.5,0,2.8,0.4,4.6,3.8l1.8,3.5h2v-18.8h-2l-1.8,3.5
		c-1.1,2.1-1.7,3.1-2.5,3.5H-27c-0.6-0.3-0.7-1.1-0.7-2.5v-14C-27.4,319.2-26.7,318.5-19.1,318.5z M279.4,369v1.8h-12.9
		c-2.1,0-4.3-1.4-5.6-3.6l-12.2-19.9c-1.5-2.4-1.8-2.8-2.9-2.8H244c-1.4,0-1.7,0.6-1.7,2.8v14.2c0,3.9,0.3,5,3.2,6l3.5,1.4v1.8
		h-25.8v-1.8l3.5-1.4c2.9-1.1,3.2-2.2,3.2-6v-17.7v-4.2v-16.1c0-3.9-0.3-5-3.2-6l-3.5-1.4v-1.8h30.9c9.3,0,16.7,2.2,16.7,12.3
		c0,13.2-11.6,13.3-11.6,15.6c0,0.7,0.6,1.3,1,1.8l8.7,12.3C272.9,362.5,276.4,366.6,279.4,369z M257.7,330.4
		c0-5.2-1-11.9-10.5-11.9c-4.2,0-4.9,0.4-4.9,3.2v15.7c0,1,0.1,1.7,0.4,2.1h8.3C255.1,338.5,257.7,335.9,257.7,330.4z M78.1,325.2
		c0-4.2,3.4-7.6,7.9-7.6c9.5,0,13,8.6,14.3,12.9h1.8l3.4-6.9c0.4-0.8,0.8-1.7,0.8-2.5c0-4.9-6.6-8-17.7-8c-12.2,0-21,7-21,18.4
		c0,19.2,29,11.8,29,28.2c0,5-3.4,8.8-8.4,8.8c-10.7,0-13.6-10.7-14.6-15h-1.8l-4.3,8c-0.6,1-1,2-1,2.9c0,5.5,9.4,8.6,18.1,8.6
		c13.9,0,23.4-6.3,23.4-19.5C108,332.9,78.1,339.2,78.1,325.2z M1.9,342.9c0-21,12.9-29.6,31-29.6c18.5,0,28.2,7.3,28.2,26.4
		c0,22.9-11.9,32.4-31.1,32.4S1.9,362.1,1.9,342.9z M16.5,341.5c0,16.7,3.5,26.2,16.1,26.2c12.2,0,13.9-12.5,13.9-27.1
		c0-15.1-4.9-23-15.9-23C19,317.6,16.5,328.1,16.5,341.5z M118.1,322.4c2.1-3.2,3.2-3.8,9.7-3.8c2.9,0,3.5,0.8,3.5,3.2v16.7v11.1
		v12.2c0,3.8-0.3,5-3.4,5.9l-4.6,1.5v1.8h29.2v-1.8l-4.6-1.5c-3.1-1-3.4-2.2-3.4-5.9v-12.3v-10.8v-16.8c0-2.4,0.4-3.2,3.2-3.2
		c6.7,0,8,0.7,10,3.8l4.1,6.3h3.5V315l-1-0.7h-53.2l-1,0.7v13.7h3.5L118.1,322.4z M220.1,370.2v-15.9h-3.5l-3.8,5.8
		c-3.2,4.8-4.3,6.6-12.8,6.6c-9.4,0-10.2-1.1-10.2-7.6V346c0-2.5,0.4-2.8,2.7-2.8h6.3c2.7,0,2.9,0.4,4.9,3.8l2,3.5h2.1v-18.8h-2.1
		l-2,3.4c-1.8,3.4-2.1,3.8-5,3.8h-6.2c-2.4,0-2.7-0.3-2.7-2.9V323c0-3.8,0.7-4.5,8.8-4.5c9.1,0,9.8,1,13.3,6.3l2.4,3.9h3.5V315
		l-1-0.7h-47.3v1.8l3.8,1.4c3.1,1.1,3.4,2.2,3.4,6v38.2c0,3.9-0.3,5-3.4,6l-3.8,1.4v1.8h49.5L220.1,370.2z"/>
	<g>
		<path class="st0" d="M6.3,468.4l0.3-1.7l1.8-11.2c0.3-2,0-2.2,0-2.7l0.1-0.4h3.1l3.5-0.1c0.4,0.6,0.1,2.4-0.1,2.7h-0.4
			c0-0.7-0.8-1.3-2-1.4l-1.7-0.1c-0.3,1.3-0.8,4.3-1.1,5.9H13c0.6,0,0.8-0.3,0.8-0.3s0,0.1,0,0.4c-0.3,1.4-1.3,1.4-2.1,1.4
			c-0.1,0-1.7,0-2.1,0c-0.3,2.1-0.7,4.1-0.8,5.6c0,0-0.1,1.1-0.1,1.7H6.3V468.4z"/>
		<path class="st0" d="M23.3,466c0,1,0.4,1.1,0.8,1.1c0.3,0,0.6-0.1,0.6-0.1l0.1,0.4c0,0-1.3,1.1-2.1,1.1c-1.5,0-1.3-2.4-1-3.4
			c-0.8,1.8-2.4,3.4-3.5,3.4s-2.1-1.3-2.1-3.8c0-4.6,2.5-8.8,5.6-8.8c0.7,0,2.2,0.4,3.1,0.4l-0.6,3.1c-0.1,0.6-0.1,1-0.8,4.8
			C23.4,464.8,23.3,465.5,23.3,466z M21,457.3c-1.7,0-3.2,3.4-3.2,7.3c0,1.7,0.7,2.4,1.3,2.4c0.8,0,2-1.5,2.4-2.2
			c0.4-2.4,1-5.5,1.1-7C22.7,457.6,21.9,457.3,21,457.3z"/>
		<path class="st0" d="M34.3,456.1c1,0,1.8,0.8,1.7,2.7c0,0.1,0,0.3,0,0.6c0.7-1.3,2.5-3.2,4.2-3.2c1,0,1.8,0.8,1.7,2.7
			c-0.1,1.3-1.3,7.4-1.3,9.7h-2c0-0.3,0.1-0.7,0.1-1.1c1-6.5,1-6.7,1.1-7c0.1-1.4,0-2.2-0.8-2.2c-1.1,0-2.5,1.1-3.2,2.2
			c-0.4,2.4-1.1,6.3-1.1,8.1h-2c0-0.3,0.1-0.7,0.1-1.1c1-6.5,1-6.7,1.1-7c0.1-1.4,0-2.2-0.8-2.2c-1.3,0-2.5,1.3-3.2,2.4
			c-0.1,1-0.6,3.6-1,6.3c0,0.6-0.1,1-0.1,1.4v0.4h-2v-0.3l1.5-9.1c0.1-0.6,0-1.4-0.6-1.4h-0.1l-0.1-0.4c0.4-0.6,1.4-1.3,2.2-1.3
			c0.6,0,0.7,0.6,0.7,1.1c0,0.6-0.3,1.5-0.3,2C30.8,458,32.5,456.1,34.3,456.1z"/>
		<path class="st0" d="M44.4,468.3c1.5-9.3,1.5-9.5,1.5-9.7c0-0.6-0.3-0.8-0.6-0.8h-0.1l-0.1-0.4c0.4-0.6,1.4-1.3,2.2-1.3
			c0.6,0,0.8,0.6,0.7,1.1c0,0.6-0.4,2.1-0.4,2.5c-0.1,1-0.6,4.2-1,6.7c-0.1,0.6-0.1,1-0.1,1.4c0,0.1,0,0.3,0,0.4L44.4,468.3
			L44.4,468.3z M47.5,451.6c0.6,0,1,0.6,1,1.3s-0.6,1.3-1.1,1.3c-0.6,0-1.1-0.6-1-1.3C46.4,452.1,47,451.6,47.5,451.6z"/>
		<path class="st0" d="M50.2,468.4V468c1-6,2.4-14.7,2.4-14.7c0.1-1.4,0-2.1-0.6-2.2l0.1-0.4c0,0,0.7-0.6,1.7-0.6
			c1.4,0,1.1,1.3,0.6,3.9c-0.7,3.5-1.8,10.7-2.1,13.3c0,0.4,0,0.7,0,1h-2.1V468.4z"/>
		<path class="st0" d="M62.8,458.5c0-0.7-0.3-1.5-0.8-1.7c0.1-0.4,0.7-0.6,1-0.6c0.8,0,1.3,0.6,1.3,1.5c0,1.7-1.1,4.2-1.7,5.2
			c-2.1,4.2-6.2,11.9-8.4,11.9c-1,0-1.5-0.6-1.5-1.5c0-0.3,0-0.7,0.1-1c0,0.4,0.7,0.7,1.3,0.7c0.8,0,2.2-0.7,4.3-4.2
			c-0.6-0.3-0.6-1.1-0.7-1.7l-0.8-7c-0.3-2.1-0.8-2.4-1.1-2.4c-0.1,0-0.1,0-0.1,0l-0.1-0.4c0.6-0.6,1.4-1.1,2.1-1.1
			c0.7,0,1,0.4,1,1.5c0,0.7,0.3,2.8,0.8,7.2c0,0.6,0.3,1.3,0.4,1.7C61,463.9,62.8,460.1,62.8,458.5z"/>
		<path class="st0" d="M79.4,452.1c2.5,0,4.2,2.2,4.2,5.9c0,6-3.5,10.7-8.1,10.7c-2.1,0-3.9-2.2-3.9-6
			C71.7,456.2,75.3,452.1,79.4,452.1z M76.7,467.3c2.4,0,4.6-4.1,4.6-8.4c0-2.9-1.1-5.2-2.8-5.2c-2.4,0-4.6,4.1-4.6,8.3
			C73.9,464.9,75,467.3,76.7,467.3z"/>
		<path class="st0" d="M85.4,457.8l-0.1-0.4c0.6-0.6,1.3-1.1,2-1.1s1,0.4,1,1.5c0,0.7,0.3,2.8,0.8,7.2c0.1,0.6,0.1,1.3,0.3,1.7
			c1.4-2.2,3.1-5.8,3.2-7.6c-0.4-1.3-1-1-1-1l-0.1-0.4c0.6-0.6,1.3-1.1,2-1.1c0.7,0,1,0.4,1,1.5c0,0.7,0.3,2.8,0.8,7.2
			c0.1,0.6,0.1,1.3,0.3,1.7c1.5-2.4,3.2-6.3,3.2-8c0-0.7-0.3-1.5-0.8-1.7c0.1-0.4,0.7-0.6,1-0.6c0.8,0,1.3,0.6,1.3,1.5
			c0,1.7-1.1,4.2-1.7,5.2c-0.7,1.4-1.5,2.8-2.4,4.3l-0.8,1.7l-0.6-0.3c-0.8-0.1-1.1-1.3-1.1-1.7l-0.7-5.6c-0.3,0.6-0.6,1.1-0.7,1.5
			c-0.7,1.4-1.5,2.8-2.4,4.3l-0.8,1.7l-0.6-0.3c-0.8-0.1-1.1-1.3-1.1-1.7l-0.8-7C86.2,457.3,85.4,457.8,85.4,457.8z"/>
		<path class="st0" d="M108.8,456.1c1,0,1.8,0.8,1.7,2.7c-0.1,1.3-1.3,7.4-1.3,9.7h-2c0-0.3,0.1-0.7,0.1-1.1c1-6.5,1-6.7,1.1-7
			c0.1-1.4,0-2.2-0.8-2.2c-1.3,0-2.5,1.3-3.2,2.4c-0.1,1-0.6,3.6-1,6.3c0,0.6-0.1,1-0.1,1.4c0,0.1,0,0.3,0,0.4h-2.1v-0.3l1.5-9.1
			c0.1-0.6,0-1.4-0.6-1.4h-0.1l-0.1-0.4c0.4-0.6,1.4-1.3,2.2-1.3c0.6,0,0.7,0.6,0.7,1.1c0,0.6-0.3,1.5-0.3,2
			C105.3,458,107,456.1,108.8,456.1z"/>
		<path class="st0" d="M112.9,463.9c0.1-4.3,2.7-7.9,5.2-7.9c1.8,0,2.7,1,2.7,2.5c0,2.5-2.8,4.1-5.6,4.1c-0.1,0-0.3,0-0.4,0
			c0,0.1,0,0.4,0,0.6c0,1.5,0.7,3.5,2.2,3.5c1.1,0,2.4-0.8,3.4-2.1c0.1,2.1-2.1,3.9-4.2,3.9C114.3,468.7,112.8,466.9,112.9,463.9z
			 M114.9,462c1.7-0.1,3.9-0.6,3.9-3.2c0-0.6-0.1-1.3-1-1.3C116.3,457.5,115.1,460,114.9,462z"/>
		<path class="st0" d="M128.5,466.7c0-0.3,0-0.6,0-0.8v-0.1c-1,1.7-2.4,2.8-3.6,2.8c-1.4,0-2.2-1.4-2.2-4.2c0-3.6,2-8.4,5.6-8.4
			c0.6,0,1.4,0.1,1.7,0.4l0.4-3.1c0.1-0.8,0.1-2.1-0.6-2.2l0.1-0.4c0,0,0.7-0.6,1.7-0.6c1.3,0,1.1,1.1,1,2.2c0,0.4-1,5-1.1,6
			c-0.6,3.2-1,6.5-1,7.7c0,1,0.3,1.3,0.7,1.3c0.1,0,0.4,0,0.6-0.1l0.1,0.4c-0.4,0.4-1.5,1.1-2.2,1.1
			C128.6,468.7,128.5,467.7,128.5,466.7z M129.9,457.6c0,0-0.6-0.3-1.7-0.3c-2.7,0-3.5,4.1-3.5,7c0,1.5,0.3,2.8,1.1,2.8
			c0.7,0,2.1-1.1,2.9-2.4c0.1-1.1,0.6-2.8,0.6-3.2L129.9,457.6z"/>
		<path class="st0" d="M139,466.5c0-0.3,0.1-0.7,0.4-1c0,0.7,1.5,1.5,2.8,1.5c1.3,0,2.9-0.6,2.9-2.7c0-2.7-4.5-3.9-4.5-7.4
			c0-2.5,1.7-4.8,4.5-4.8c1.8,0,2.9,0.8,2.9,1.3c0,0.7-0.3,1.8-0.8,2.4l-0.3-0.1c-0.1-1.7-1.5-2.4-2.2-2.4c-1,0-2.4,0.8-2.4,2.4
			c0,2.7,4.8,3.8,4.8,7.7c0,3.1-2.2,5.2-5.2,5.2C140.2,468.7,139,467.6,139,466.5z"/>
		<path class="st0" d="M149.6,468.3c1.5-9.3,1.5-9.5,1.5-9.7c0-0.6-0.3-0.8-0.6-0.8h-0.1l-0.1-0.4c0.4-0.6,1.4-1.3,2.2-1.3
			c0.6,0,0.8,0.6,0.7,1.1c0,0.6-0.4,2.1-0.4,2.5c-0.1,1-0.6,4.2-1,6.7c-0.1,0.6-0.1,1-0.1,1.4c0,0.1,0,0.3,0,0.4L149.6,468.3
			L149.6,468.3z M152.7,451.6c0.6,0,1,0.6,1,1.3s-0.6,1.3-1.1,1.3s-1.1-0.6-1-1.3S152.2,451.6,152.7,451.6z"/>
		<path class="st0" d="M163,456.1c1,0,1.8,0.8,1.7,2.7c-0.1,1.3-1.3,7.4-1.3,9.7h-2c0-0.3,0.1-0.7,0.1-1.1c1-6.5,1-6.7,1.1-7
			c0.1-1.4,0-2.2-0.8-2.2c-1.3,0-2.5,1.3-3.2,2.4c-0.1,1-0.6,3.6-1,6.3c0,0.6-0.1,1-0.1,1.4c0,0.1,0,0.3,0,0.4h-2v-0.3l1.5-9.1
			c0.1-0.6,0-1.4-0.6-1.4h-0.1l-0.1-0.4c0.4-0.6,1.4-1.3,2.2-1.3c0.6,0,0.7,0.6,0.7,1.1c0,0.6-0.3,1.5-0.3,2
			C159.3,458,161.1,456.1,163,456.1z"/>
		<path class="st0" d="M171.2,466.9c1.1,0,2.4-0.8,3.2-2.1c0.1,2.1-2.1,3.9-4.2,3.9c-1.8,0-3.4-1.8-3.4-4.8c0-3.9,2.4-7.9,5.3-7.9
			c1.5,0,3.1,0.6,3.1,2c0,1-1,1.8-1.8,1.1c0-0.8-0.3-1.7-1.5-1.7c-1.8,0-3.1,3.2-3.1,6C168.9,465.2,169.6,466.9,171.2,466.9z"/>
		<path class="st0" d="M176.9,463.9c0.1-4.3,2.7-7.9,5.2-7.9c1.8,0,2.7,1,2.7,2.5c0,2.5-2.8,4.1-5.6,4.1c-0.1,0-0.3,0-0.4,0
			c0,0.1,0,0.4,0,0.6c0,1.5,0.7,3.5,2.2,3.5c1.1,0,2.4-0.8,3.4-2.1c0.1,2.1-2.1,3.9-4.2,3.9C178.3,468.7,176.9,466.9,176.9,463.9z
			 M179,462c1.7-0.1,3.9-0.6,3.9-3.2c0-0.6-0.1-1.3-1-1.3C180.4,457.5,179.1,460,179,462z"/>
		<path class="st0" d="M193.4,468.4L193.4,468.4l1.7-10.4c0.1-0.8,0.1-1.4-0.1-1.7l-1.7,0.6l-0.3-1.1l3.6-1.8h0.3l0.3,1
			c0,0-0.3,1.4-0.4,1.8c0,0-0.7,4.1-1.5,9.5c-0.1,0.7-0.1,1.4-0.1,1.8h-1.7V468.4z"/>
		<path class="st0" d="M205.3,454.1c2.2,0,3.1,2.7,3.1,5.3c0,7.2-4.2,11.2-7.2,11.2c-1,0-2.5-0.6-2.5-2c0-0.3,0-0.6,0.1-0.8
			c0.4,0.8,1.5,1.3,2.4,1.3c2,0,4.1-2.1,4.9-6.5c-0.8,1-2.1,1.7-3.4,1.7c-1.4,0-2.7-1-2.7-3.4C200,457.5,201.8,454.1,205.3,454.1z
			 M204.6,455.4c-1.4,0-2.7,2-2.7,5.2c0,1.8,0.7,2.7,2,2.7c0.7,0,1.5-0.6,2.2-1.3c0.3-1.5,0.3-2.1,0.3-2.9
			C206.5,456.9,206,455.4,204.6,455.4z"/>
		<path class="st0" d="M208.8,469.3c0.1,0,0.3,0,0.6,0c2.2,0,5.6-1.1,5.6-5.3c0-2.1-1.1-2.4-2.1-2.5l0.3-0.7
			c1.5-0.8,2.5-2.4,2.5-3.9c0-0.8-0.3-1.7-1.4-1.7c-0.8,0-1.5,0.6-1.7,1.7c-0.3,0.1-0.6,0.3-0.7,0.3c-0.4,0-0.7-0.3-0.7-0.8
			c0-1.4,1.7-2.4,3.4-2.4c2.4,0,3.1,1.4,3.1,2.7c0,1.7-1.3,2.9-3.1,3.9c1.8,0.3,2.4,1.7,2.4,3.1c0,4.8-4.2,6.6-7.4,6.6
			C208.7,470.4,208.8,469.4,208.8,469.3z"/>
		<path class="st0" d="M225.7,454.1c2.2,0,3.1,2.7,3.1,5.3c0,7.2-4.2,11.2-7.2,11.2c-1,0-2.5-0.6-2.5-2c0-0.3,0-0.6,0.1-0.8
			c0.4,0.8,1.5,1.3,2.4,1.3c2,0,4.1-2.1,4.9-6.5c-0.8,1-2.1,1.7-3.4,1.7c-1.4,0-2.7-1-2.7-3.4C220.3,457.5,222,454.1,225.7,454.1z
			 M225,455.4c-1.4,0-2.7,2-2.7,5.2c0,1.8,0.7,2.7,2,2.7c0.7,0,1.5-0.6,2.2-1.3c0.3-1.5,0.3-2.1,0.3-2.9
			C226.7,456.9,226.2,455.4,225,455.4z"/>
	</g>
	<polygon class="st0" points="-5.4,462.2 -35.2,461 -5.4,459.7 	"/>
	<polygon class="st0" points="241.1,459 267.3,460.4 241.1,461.7 	"/>
	<g>
		<path class="st0" d="M255.3,424.6c2.9,0,5.6,2.1,5.6,5.5s-2.7,5.5-5.6,5.5c-2.9,0-5.6-2.1-5.6-5.5
			C249.7,426.9,252.3,424.6,255.3,424.6z M255.3,434.5c2.2,0,4.1-1.8,4.1-4.3c0-2.5-1.8-4.3-4.1-4.3c-2.2,0-4.1,1.8-4.1,4.3
			C251.1,432.6,252.9,434.5,255.3,434.5z M253,427h2.2c1.5,0,2.4,0.4,2.4,1.8c0,1.1-0.7,1.5-1.5,1.7l1.7,2.7h-1.3l-1.5-2.7h-0.7v2.7
			H253L253,427L253,427z M254.3,429.7h1.1c0.7,0,1.3-0.1,1.3-0.8c0-0.7-0.7-0.7-1.3-0.7h-1v1.5H254.3z"/>
	</g>
	<g>
		<g>
			<g>
				<g>
					<path class="st0" d="M114.4,312.3c0.1,0.1,0.4,0.3,0.7,0.4c0.7,0.3,0.8,0.7,0.8,0.7l-0.1,0.1c-0.6-0.1-0.6-0.1-0.8-0.6
						C114.7,312.7,114.6,312.4,114.4,312.3"/>
				</g>
			</g>
		</g>
		<g>
			<g id="Layer_2">
				<path class="st0" d="M77.3,303L77.3,303C77.3,303,77.3,303.2,77.3,303C77.3,303.2,77.3,303,77.3,303z"/>
			</g>
		</g>
	</g>
</g>
</svg>
