<?xml version="1.0" encoding="utf-8"?>
<!-- Generator: Adobe Illustrator 19.1.0, SVG Export Plug-In . SVG Version: 6.00 Build 0)  -->
<svg version="1.1" id="Logo" xmlns="http://www.w3.org/2000/svg" xmlns:xlink="http://www.w3.org/1999/xlink" x="0px" y="0px"
	 viewBox="-133 135.3 499.7 499.7" style="enable-background:new -133 135.3 499.7 499.7;" xml:space="preserve">
<style type="text/css">
	.st0{fill:#000;}
</style>
<g>
	<path class="st0" d="M228.9,351l20.2-2.1c-0.2,10.7-12.6,33.3-26.4,34.7C226.5,378.1,229.8,365.5,228.9,351L228.9,351z
		 M284.9,355.5c-13.1-0.2-34.7,1.2-43.2,20l17.3,24.2c-3.3,2.6-8.3,3.3-11.9,2.6v21.2c10.2,0.5,29.2-1,41.1-19.7l-16.6-24.9
		c2.6-3.3,8.8-3.3,13.3-2.6L284.9,355.5L284.9,355.5z M290.2,411.2c2.6,0,4.7,2.1,4.7,4.8c0,2.8-2,4.9-4.7,4.9s-4.7-2.1-4.7-4.9
		C285.5,413.3,287.5,411.2,290.2,411.2v-0.9c-3.1,0-5.7,2.4-5.7,5.7c0,3.3,2.6,5.7,5.7,5.7s5.7-2.5,5.7-5.6V416
		c0-3.2-2.6-5.7-5.7-5.7V411.2z"/>
	<path class="st0" d="M289,413.5h1.4c0.7,0,1.5,0.1,1.5,1c0,1-0.8,1.1-1.8,1.1H289v0.8h1.1l1.8,2.9h1.1l-1.9-2.9
		c1-0.1,1.8-0.6,1.8-1.8c0-1.3-0.7-1.9-2.3-1.9H288v6.6h1V413.5L289,413.5z M71.3,352.4c-18.9,0-34.3,15.3-34.3,34.3
		c0,18.9,15.3,34.3,34.3,34.3s34.3-15.3,34.3-34.3C105.6,367.7,90.2,352.4,71.3,352.4z M71.3,373.5c7.2,0,13.1,5.9,13.1,13.1
		s-5.9,13.1-13.1,13.1c-7.2,0-13.1-5.9-13.1-13.1C58.2,379.4,64.1,373.6,71.3,373.5z M-62.2,410.9l31.1-64.2L-8.5,380l21.6-31.8
		l30.4,62.7l-19.7,10.9L9.5,394l-18.1,26.6l-19-27.8l-15,29L-62.2,410.9L-62.2,410.9z M112.2,355.8l-6.4,21.1h17.6v44h23v-44h34.9
		v44h23.1v-44h19.7l-8.1-21.1h-47l-4.5,11.9l-4.5-11.9H112.2z"/>
</g>
</svg>
