<?xml version="1.0" encoding="utf-8"?>
<!-- Generator: Adobe Illustrator 19.1.0, SVG Export Plug-In . SVG Version: 6.00 Build 0)  -->
<svg version="1.1" id="Layer_1" xmlns="http://www.w3.org/2000/svg" xmlns:xlink="http://www.w3.org/1999/xlink" x="0px" y="0px"
	 viewBox="-133 135 500 500" style="enable-background:new -133 135 500 500;" xml:space="preserve">
<style type="text/css">
	.st0{fill-rule:evenodd;clip-rule:evenodd;fill:#FFFFFF;}
</style>
<g id="Layer_2">
</g>
<g>
	<path class="st0" d="M206.3,388c0-2.2-1.8-4-4-4c-2.2,0-4,1.8-4,4c0,2.2,1.8,4,4,4C204.5,392,206.3,390.2,206.3,388L206.3,388z"/>
	<path class="st0" d="M198.5,394.6l-31.7,10.9c3-2.9,4.2-6.5,4.2-10.6l-0.2-64.5c0-2.7-0.9-5.6-4.3-7L195,313
		c14.8-5.3,28.1,4.5,27.8,24c-0.2,12.5-0.7,27.1-15.3,32.4l-14,5l0,13.4C193.4,390.6,194,394.5,198.5,394.6L198.5,394.6z"/>
	<path class="st0" d="M135.8,333.9c3.6,2.4,4.3,5.3,4.3,8.4v50c0,7.6-8.9,9.4-9,1.9l-0.3-59l-27.4,9.3c3.7,2.7,4,5.1,4.1,8.2
		l0.3,28.5c-4.8-2.5-10.3-3.9-16.1-3.9l15.1-51.2c2.5-8.4-1.5-13.7-10.8-10.4l-79.5,27.6L0.2,381.6c3-3.1,6.1-4.9,9.7-6.1l49.4-17.1
		L24.9,467.5c-1.3,4.3-2.3,8.4-5.1,12.5l46.5-16.3l6.2-21.1c5.5,3.6,12.1,5.6,19.1,5.6c17.9,0,32.8-13.3,35.2-30.6
		c4.1-0.5,8.2-1.5,11.2-2.5c11.4-3.8,25.7-8.4,25.7-25.3l0.1-65.7L135.8,333.9z M91.6,443.6c-17,0-30.9-13.9-30.9-30.9
		c0-17,13.9-30.9,30.9-30.9c17,0,30.9,13.9,30.9,30.9C122.5,429.8,108.6,443.6,91.6,443.6z"/>
	<path class="st0" d="M193.4,358.6l-0.2-32.5c7.4-2.7,8,9.3,8.1,15C201.4,347.5,202.1,356.9,193.4,358.6L193.4,358.6z"/>
	<path class="st0" d="M205.9,388c0,1.9-1.6,3.5-3.5,3.5c-1.9,0-3.5-1.6-3.5-3.5c0-1.9,1.6-3.5,3.5-3.5
		C204.3,384.5,205.9,386.1,205.9,388L205.9,388z"/>
	<path class="st0" d="M200.9,390.1h0.6v-1.9h1.4c0.9,0,0.6,0.8,0.7,1.3l0.1,0.6h0.7c-0.2-0.4-0.2-0.5-0.2-1.1
		c-0.1-0.8-0.1-0.8-0.5-1.1c0.4-0.3,0.6-0.5,0.6-1.1c0-1-0.7-1.1-1.4-1.1h-1.9V390.1L200.9,390.1z"/>
	<path class="st0" d="M202.9,386.2c0.3,0,0.9,0.1,0.8,0.8c0,0.6-0.4,0.7-0.8,0.7h-1.4v-1.5H202.9L202.9,386.2z"/>
</g>
</svg>
