<?xml version="1.0" encoding="utf-8"?>
<!-- Generator: Adobe Illustrator 19.1.0, SVG Export Plug-In . SVG Version: 6.00 Build 0)  -->
<svg version="1.1" id="Layer_1" xmlns="http://www.w3.org/2000/svg" xmlns:xlink="http://www.w3.org/1999/xlink" x="0px" y="0px"
	 viewBox="-133 135 500 500" style="enable-background:new -133 135 500 500;" xml:space="preserve">
<style type="text/css">
	.st0{fill-rule:evenodd;clip-rule:evenodd;fill:#000;}
</style>
<g id="Layer_2">
</g>
<g>
	<path class="st0" d="M234,393.7c0-2.7-2.2-4.9-4.9-4.9c-2.7,0-4.9,2.2-4.9,4.9c0,2.7,2.2,4.9,4.9,4.9
		C231.8,398.7,234,396.5,234,393.7L234,393.7z"/>
	<path class="st0" d="M146.5,326.6c4.4,3,5.4,6.6,5.4,10.5v62c0,9.5-11.1,11.7-11.1,2.4l-0.4-73.1l-34,11.5c4.6,3.4,5,6.4,5,10.2
		l0.4,35.3c-6-3.1-12.8-4.9-19.9-4.9l18.8-63.5c3.1-10.4-1.9-16.9-13.4-12.9l-98.6,34.3l-20.3,47.5c3.7-3.8,7.5-6.1,12-7.6
		l61.3-21.2L9,492.3c-1.7,5.4-2.8,10.4-6.4,15.6l57.7-20.2l7.7-26.1c6.9,4.4,15,7,23.7,7c22.2,0,40.6-16.5,43.6-38
		c5.1-0.7,10.1-1.9,13.9-3.2c14.2-4.7,31.9-10.5,31.9-31.4l0.1-81.5L146.5,326.6z M91.7,462.7c-21.1,0-38.3-17.2-38.3-38.3
		c0-21.1,17.2-38.3,38.3-38.3c21.1,0,38.3,17.2,38.3,38.3C130,445.5,112.8,462.7,91.7,462.7z"/>
	<path class="st0" d="M219.9,300.7l-35.3,12.8c4.2,1.7,5.3,5.3,5.3,8.7l0.3,80c0,5.1-1.5,9.5-5.2,13.1l39.4-13.5
		c-5.6-0.1-6.3-4.9-6.3-8.4l0.1-16.6l17.4-6.3c18.1-6.5,18.8-24.6,19-40.2C254.8,306.2,238.2,294,219.9,300.7z M218,357.2l-0.2-40.3
		c9.1-3.4,10,11.6,10,18.6C227.8,343.5,228.8,355.1,218,357.2z"/>
	<path class="st0" d="M233.4,393.7c0,2.4-1.9,4.4-4.4,4.4c-2.4,0-4.4-1.9-4.4-4.3c0-2.4,2-4.4,4.4-4.4
		C231.5,389.4,233.4,391.3,233.4,393.7L233.4,393.7z"/>
	<path class="st0" d="M227.2,396.3h0.7V394h1.8c1.1,0,0.8,1,0.9,1.6l0.1,0.7h0.8c-0.3-0.5-0.2-0.6-0.3-1.3c-0.1-1-0.1-1-0.7-1.4
		c0.5-0.4,0.7-0.7,0.7-1.4c-0.1-1.2-0.9-1.4-1.7-1.4h-2.4V396.3L227.2,396.3z"/>
	<path class="st0" d="M229.7,391.5c0.4,0,1.1,0.1,1,1c-0.1,0.7-0.5,0.8-1,0.8h-1.8v-1.9H229.7L229.7,391.5z"/>
</g>
</svg>
