<?xml version="1.0" encoding="utf-8"?>
<!-- Generator: Adobe Illustrator 19.1.0, SVG Export Plug-In . SVG Version: 6.00 Build 0)  -->
<svg version="1.1" id="Layer_1" xmlns="http://www.w3.org/2000/svg" xmlns:xlink="http://www.w3.org/1999/xlink" x="0px" y="0px"
	 viewBox="0 0 500 500" style="enable-background:new 0 0 500 500;" xml:space="preserve">
<style type="text/css">
	.st0{opacity:0.51;fill:#343434;enable-background:new    ;}
	.st1{enable-background:new    ;}
	.st2{clip-path:url(#SVGID_2_);enable-background:new    ;}
	.st3{fill:#272727;}
	.st4{clip-path:url(#SVGID_4_);enable-background:new    ;}
	.st5{fill:#353535;}
	.st6{fill:#343434;}
	.st7{fill:#333333;}
	.st8{fill:#323232;}
	.st9{fill:#313131;}
	.st10{fill:#303030;}
	.st11{fill:#2F2F2F;}
	.st12{fill:#2E2E2E;}
	.st13{fill:#2D2D2D;}
	.st14{fill:#2C2C2C;}
	.st15{fill:#2B2B2B;}
	.st16{fill:#2A2A2A;}
	.st17{fill:#292929;}
	.st18{fill:#282828;}
	.st19{clip-path:url(#SVGID_6_);enable-background:new    ;}
	.st20{clip-path:url(#SVGID_8_);enable-background:new    ;}
	.st21{clip-path:url(#SVGID_10_);enable-background:new    ;}
	.st22{clip-path:url(#SVGID_12_);enable-background:new    ;}
	.st23{fill:#262626;}
	.st24{clip-path:url(#SVGID_14_);enable-background:new    ;}
	.st25{clip-path:url(#SVGID_16_);enable-background:new    ;}
	.st26{clip-path:url(#SVGID_18_);enable-background:new    ;}
	.st27{clip-path:url(#SVGID_20_);enable-background:new    ;}
	.st28{clip-path:url(#SVGID_22_);enable-background:new    ;}
	.st29{clip-path:url(#SVGID_24_);enable-background:new    ;}
	.st30{clip-path:url(#SVGID_26_);enable-background:new    ;}
	.st31{clip-path:url(#SVGID_28_);enable-background:new    ;}
	.st32{clip-path:url(#SVGID_30_);enable-background:new    ;}
	.st33{clip-path:url(#SVGID_32_);enable-background:new    ;}
	.st34{clip-path:url(#SVGID_34_);enable-background:new    ;}
	.st35{clip-path:url(#SVGID_36_);enable-background:new    ;}
	.st36{clip-path:url(#SVGID_38_);enable-background:new    ;}
	.st37{clip-path:url(#SVGID_40_);enable-background:new    ;}
	.st38{clip-path:url(#SVGID_42_);enable-background:new    ;}
	.st39{clip-path:url(#SVGID_44_);enable-background:new    ;}
	.st40{clip-path:url(#SVGID_46_);enable-background:new    ;}
	.st41{clip-path:url(#SVGID_48_);enable-background:new    ;}
	.st42{clip-path:url(#SVGID_50_);enable-background:new    ;}
	.st43{clip-path:url(#SVGID_52_);enable-background:new    ;}
	.st44{clip-path:url(#SVGID_54_);enable-background:new    ;}
	.st45{clip-path:url(#SVGID_56_);enable-background:new    ;}
	.st46{clip-path:url(#SVGID_58_);enable-background:new    ;}
	.st47{clip-path:url(#SVGID_60_);enable-background:new    ;}
	.st48{clip-path:url(#SVGID_62_);enable-background:new    ;}
	.st49{clip-path:url(#SVGID_64_);enable-background:new    ;}
	.st50{clip-path:url(#SVGID_66_);enable-background:new    ;}
	.st51{clip-path:url(#SVGID_68_);enable-background:new    ;}
	.st52{clip-path:url(#SVGID_70_);enable-background:new    ;}
	.st53{clip-path:url(#SVGID_72_);enable-background:new    ;}
	.st54{clip-path:url(#SVGID_74_);enable-background:new    ;}
	.st55{clip-path:url(#SVGID_76_);enable-background:new    ;}
	.st56{clip-path:url(#SVGID_78_);enable-background:new    ;}
	.st57{clip-path:url(#SVGID_80_);enable-background:new    ;}
	.st58{clip-path:url(#SVGID_82_);enable-background:new    ;}
	.st59{clip-path:url(#SVGID_84_);enable-background:new    ;}
	.st60{clip-path:url(#SVGID_86_);enable-background:new    ;}
	.st61{clip-path:url(#SVGID_88_);enable-background:new    ;}
	.st62{clip-path:url(#SVGID_90_);enable-background:new    ;}
	.st63{fill:none;}
	.st64{fill:#C5C5C5;}
	.st65{fill:#FFFFFF;}
</style>
<g id="Layer_2">
</g>
<g>
	<path class="st0" d="M441.3,175.1l-8.6,2c0-0.3-2.7,2.7-2.8,2.5c-0.1-0.3-0.3-0.4-0.4-0.6L413.8,168l7.7-3.4c0.1,0,0.1-0.1,0.1-0.1
		c0.1,0,0.1-0.1,0.2-0.1s0.1-0.1,0.1-0.1l0,0l0,0c0.1,0,0.1-0.1,0.1-0.1c0.1-0.1,0.1-0.1,0.1-0.1c0.1-0.1,0.1-0.1,0.1-0.1l0,0l0,0
		c0.1-0.1,0.1-0.1,0.1-0.1c0.1-0.1,0.1-0.1,0.1-0.1c0.1-0.1,0.1-0.1,0.1-0.1l0,0l0,0c0.1-0.1,0.1-0.1,0.1-0.1
		c0.1-0.1,0.1-0.1,0.1-0.1c0.1-0.1,0.1-0.1,0.1-0.1l0,0l0,0c0.1-0.1,11.6-21.2,11.6-21.2l-10.7,4c0-0.6-0.8,0.3-1.1,0l-14.6-10.2
		l18.4-8.2c0.1,0,0.1-0.1,0.2-0.1s0.1-0.1,0.2-0.1s0.1-0.1,0.1-0.1l0,0l0,0c0.1,0,0.1-0.1,0.1-0.1c0.1-0.1,0.1-0.1,0.1-0.1
		c0.1-0.1,0.1-0.1,0.1-0.1l0,0l0,0l0.1-0.1c0.1-0.1,0.1-0.1,0.1-0.1c0.1-0.1,0.1-0.1,0.1-0.1l0.1-0.1l0,0c0,0,0,0,0.1-0.1
		s0.1-0.1,0.1-0.1c0.1-0.1,0.1-0.1,0.1-0.2c0,0,0-0.1,0.1-0.1l12-21.6l-10.8,4c0-0.6-1.1,0.7-1.5,0.4l-25.2-17.8
		c0.1,0.1,0.1,0.1,0.1,0.1c-0.4-0.4-1.1-0.5-1.8-0.1l-50,22.3c-1.3,0.6-2.3,2.2-2.2,3.4l0.2,9L275,218.6L255.6,185
		c-0.1-0.1-0.2-0.3-0.4-0.4L208,218.4l-0.2-9.7c0-0.6-0.3-1-0.6-1.3l-42.8,24l-10,4.5l-0.1-3.2c0-0.6-0.3-1.1-0.6-1.3l-25.2-17.7
		c0.1,0.1,0.1,0.1,0.1,0.1c-0.4-0.4-1.1-0.5-1.8-0.1l-14.4,6.4c-1.2,0.5-2.3,2.2-2.2,3.4l0.4,17.3l-2.7,5l0,0
		c-0.1-0.1-0.3-0.2-0.5-0.2c-3.7-1.2,5.5,4.3-7,9.9c-18.6,8.3-27.6,25.1-27.3,37.6c0.1,6.7,2.2,9.8,6,12.5l-0.4-0.8
		c0.3,0.2,0.6,0.4,1,0.6l0,0c0.1,0.1,0.3,0.1,0.4,0.2c0.2,0.1,0.4,0.2,0.6,0.3c-1.3,1.5-3.1,2.8-5,3.7c-7.9,3.6,10,9.3,9.5,9.3
		c-0.4-0.1-1,0-1.7,0.3c-0.9,0.4-1.8,1.1-2.4,2.3l-7.1,19c-0.8,1.8-0.6,2.4,0.2,3c0,0,45.4,8.6,59.3-29.4c3.1-8.6-3.6,40.2-3.4,40.2
		c0.1,0,0.1-0.1,0.1-0.1c0.1-0.1,0.2-0.1,0.3-0.2c0.5-0.3,1.1-0.6,1.6-1c0.1-0.1,0.2-0.1,0.3-0.2c0.1-0.1,0.2-0.1,0.3-0.2
		c0.4-0.3,1-0.6,1.4-1c0.1-0.1,0.2-0.1,0.3-0.2l0.1-0.1c0.5-0.4,1.1-0.8,1.6-1.2l0.1-0.1c0.1-0.1,0.2-0.2,0.3-0.3
		c0.1-0.1,2.2-16.2,2.2-16.2l1.6,72.6c0,0.6,0.6,23,0.6,23l0.1,0.1h0.1c0,0,0.1,0,0.1,0.1c0,0,0,0,0.1,0h0.1c0.1,0,0.1,0,0.1,0.1
		c0,0,0,0,0.1,0h0.1c0.1,0,0.1,0,0.1,0h0.1c0.1,0,0.1,0,0.1,0c0.1,0,0.1,0,0.1,0c0.1,0,0.1,0,0.1,0h0.1c0.1,0,0.1,0,0.2-0.1h0.1l0,0
		h0.1c0.1,0,0.1-0.1,0.1-0.1s0,0,0.1,0l14.5-6.4c0.1,0,0.1-0.1,0.1-0.1s0.1-0.1,0.1-0.1c0.1,0,0.1-0.1,0.1-0.1l0,0l0,0
		c0.1,0,0.1-0.1,0.1-0.1s0.1-0.1,0.1-0.1c0.1-0.1,0.1-0.1,0.1-0.1c0,0,0,0,0.1-0.1l0,0l0.1-0.1c0.1-0.1,0.1-0.1,0.1-0.1
		c0.1-0.1,0.1-0.1,0.1-0.1l0.1-0.1l0,0c0,0,0-0.1,0.1-0.1c0.1-0.1,12.5-22.3,12.5-22.3l-13.2-56.2l1,0.7l25.4-9.3
		c0,0.6,0.3,1.1,0.7,1.3c0,0-0.1,0-0.1-0.1l0.8,73.4l0.1,0.1h0.1c0,0,0.1,0,0.1,0.1c0,0,0,0,0.1,0h0.1c0.1,0,0.1,0,0.1,0.1
		c0,0,0,0,0.1,0h0.1c0.1,0,0.1,0,0.1,0h0.1c0.1,0,0.1,0,0.1,0c0.1,0,0.1,0,0.1,0c0.1,0,0.1,0,0.1,0h0.1c0.1,0,0.1,0,0.2-0.1h0.1l0,0
		h0.1c0.1,0,0.1-0.1,0.1-0.1s0,0,0.1,0l14.5-6.4c0.1,0,0.1-0.1,0.1-0.1s0.1-0.1,0.1-0.1c0.1,0,0.1-0.1,0.1-0.1l0,0l0,0
		c0.1,0,0.1-0.1,0.1-0.1s0.1-0.1,0.1-0.1c0.1-0.1,0.1-0.1,0.1-0.1c0,0,0,0,0.1-0.1l0,0l0.1-0.1c0.1-0.1,0.1-0.1,0.1-0.1
		c0.1-0.1,0.1-0.1,0.1-0.1l0.1-0.1l0,0l0.1-0.1c0.1-0.1,12.5-22.3,12.5-22.3L202,331.7l17.3-7.7c0.1,0,0.1-0.1,0.2-0.1
		c0.1,0,0.1-0.1,0.2-0.1c0.1,0,0.1-0.1,0.1-0.1l0,0l0,0c0.1,0,0.1-0.1,0.1-0.1s0.1-0.1,0.1-0.1c0.1-0.1,0.1-0.1,0.1-0.1l0,0l0,0
		l0.1-0.1c0.1-0.1,0.1-0.1,0.1-0.1c0.1-0.1,0.1-0.1,0.1-0.1l0.1-0.1l0,0c0,0,0,0,0.1-0.1c0.1-0.1,0.1-0.1,0.1-0.1
		c0.1-0.1,0.1-0.1,0.1-0.2c0,0,0-0.1,0.1-0.1c0,0,0,0,0-0.1c0-0.1,12.7-22.5,12.7-22.5l-9.9,3.6c0-0.6-2.7,2-3.1,1.7l-13.1-9.2
		c0,0,0.1,0,0.1-0.1c0.1,0,0.1-0.1,0.1-0.1l0,0l0,0c0.1,0,0.1-0.1,0.1-0.1s0.1-0.1,0.1-0.1c0.1-0.1,0.1-0.1,0.1-0.1c0,0,0,0,0.1-0.1
		l0,0l0.1-0.1c0.1-0.1,0.1-0.1,0.1-0.1c0.1-0.1,0.1-0.1,0.1-0.1l0.1-0.1l0,0c0,0,0-0.1,0.1-0.1c0.1-0.1,0.1-0.1,0.1-0.2
		c0.1-0.1,0.1-0.1,0.1-0.2l0,0l0,0c0.1-0.1,0.1-0.1,0.1-0.2c0.1-0.1,0.1-0.2,0.1-0.3l0,0l0,0c0.1-0.1,0.1-0.3,0.2-0.4
		c0-0.1,0-0.1,0.1-0.1c0.1-0.1,0.1-0.3,0.1-0.3s0-0.1,0-0.1c0-0.1,0.1-0.3,0.1-0.4l-0.1-4.3l5.2,3.7c0,0,0.1,0,0.1,0.1
		c0,0,0.1,0,0.1,0.1c0,0,0,0,0.1,0l0,0h0.1h0.1l0,0h0.1c0.1,0,0.1,0,0.1,0h0.1c0.1,0,0.1,0,0.1,0c0.1,0,0.1,0,0.1,0s0.1,0,0.1,0
		c0.1,0,0.6-0.2,0.6-0.2c0.1,0-0.4,0.1-0.3,0.1h0.1c0,0,0,0,0.1,0c0.1,0,0.1-0.1,0.2-0.1c0,0,1.8-4.3,1.8-4.3l29.8-13.1l0.9,67.7
		c0.2,9,3.7,15.7,9.2,19.5c-0.1-0.1-0.1-0.1-0.2-0.1l4.3,2.9c0.4,0.3,0.7,0.5,1.1,0.7c0,0,0.1,0,0.1,0.1c0.1,0.1,0.2,0.1,0.3,0.2
		c0.3,0.2,0.6,0.3,0.9,0.5c0.1,0.1,0.3,0.1,0.4,0.2c0.1,0.1,0.3,0.1,0.4,0.2c0.1,0.1,0.2,0.1,0.3,0.1c0.3,0.1,0.5,0.2,0.8,0.3
		c0.2,0.1,0.4,0.2,0.7,0.3c0.3,0.1,0.6,0.2,0.8,0.3c0.1,0.1,0.3,0.1,0.4,0.1c0.1,0.1,0.3,0.1,0.4,0.1c0.1,0,0.1,0.1,0.3,0.1
		c0.4,0.1,0.9,0.2,1.3,0.3c0.1,0,0.2,0,0.3,0.1c0.4,0.1,1,0.1,1.4,0.2c0.1,0,0.1,0,0.2,0c0.5,0.1,1,0.1,1.5,0.1h0.1c0.5,0,1,0,1.5,0
		c0.1,0,0.1,0,0.3,0c0.5,0,1-0.1,1.5-0.1c0.1,0,0.2,0,0.3,0c0.5-0.1,1-0.1,1.5-0.2c0.1,0,0.1,0,0.3-0.1c0.6-0.1,1.1-0.2,1.7-0.3
		c0,0,0,0,0.1,0c0.6-0.1,1.1-0.3,1.7-0.4c0.1,0,0.1-0.1,0.2-0.1c0.4-0.1,0.8-0.3,1.2-0.3c0.1,0,0.2-0.1,0.3-0.1
		c0.3-0.1,0.6-0.2,1-0.3s0.6-0.2,1-0.3c0.3-0.1,0.6-0.3,1-0.4c0.2-0.1,0.4-0.2,0.6-0.3c0.2-0.1,0.4-0.2,0.6-0.3
		c0.5-0.3,1.1-0.5,1.6-0.8c0.1-0.1,0.3-0.1,0.4-0.2c0.1-0.1,0.3-0.1,0.4-0.2c0.3-0.1,0.6-0.3,0.8-0.4c0.1-0.1,0.3-0.1,0.3-0.2
		c0.4-0.3,1-0.5,1.4-0.8c0.1,0,0.1-0.1,0.1-0.1c0.1-0.1,0.2-0.1,0.3-0.2c0.4-0.3,0.8-0.5,1.3-0.8c0.1-0.1,0.3-0.1,0.4-0.3
		c0.1-0.1,0.1-0.1,0.3-0.1c0.1-0.1,0.3-0.2,0.4-0.3c0.5-0.3,1-0.6,1.4-1c0.1-0.1,0.2-0.1,0.3-0.3c0.1-0.1,0.2-0.2,0.3-0.3
		c0.4-0.3,0.9-0.6,1.3-1c0.1-0.1,0.3-0.2,0.4-0.3c0.1-0.1,0.1-0.1,0.2-0.1c0.6-0.4,1.1-1,1.7-1.4c0,0,0.1-0.1,0.1-0.1l0,0
		c0.6-0.5,1.1-1,1.7-1.6c0.1-0.1,0.1-0.1,0.1-0.1c0.1-0.1,0.3-0.3,0.4-0.4c0.4-0.4,0.8-0.8,1.2-1.2c0.1-0.1,0.2-0.2,0.3-0.3
		c0.1-0.1,0.2-0.2,0.3-0.3c0.4-0.4,0.8-0.8,1.1-1.3c0.1-0.1,0.3-0.3,0.3-0.4c0.1-0.1,0.1-0.1,0.1-0.2c0.6-0.6,1.1-1.3,1.6-1.9
		c0,0,0,0,0.1-0.1c0.1-0.1,0.1-0.1,0.1-0.2c0.5-0.6,1-1.2,1.4-1.8c0.1-0.1,0.1-0.2,0.2-0.3c0.1-0.2,0.3-0.4,0.4-0.6
		c0.1-0.1,0.3-0.3,0.3-0.4c0.3-0.5,0.7-1,1-1.5l0.1-0.1l0,0c0.4-0.5,0.7-1.1,1-1.7c0.1-0.2,0.2-0.3,0.3-0.5c0.2-0.3,0.4-0.6,0.6-1
		c0.1-0.1,0.1-0.1,0.1-0.2c0.3-0.4,0.5-0.9,0.8-1.3c0.1-0.2,0.2-0.4,0.3-0.6c0.3-0.6,0.7-1.3,1-1.9l0,0c0.3-0.5,12.1-21.6,12.4-22.1
		l-0.9-30.3l2.4,60l0.1,0.1h0.1h0.1l0,0h0.1c0.1,0,0.1,0,0.1,0.1c0,0,0,0,0.1,0h0.1c0.1,0,0.1,0,0.1,0h0.1c0.1,0,0.1,0,0.1,0
		s0.1,0,0.1,0c0.1,0,0.1,0,0.1,0c0.1,0,0.1,0,0.1,0s0.1,0,0.2-0.1h0.1l0,0c0.1,0,0.1-0.1,0.1-0.1c0.1,0,0.1,0,0.1-0.1c0,0,0,0,0.1,0
		l14.2-6.4c0.1,0,0.1-0.1,0.1-0.1c0.1,0,0.1-0.1,0.1-0.1c0.1,0,0.1-0.1,0.1-0.1l0,0l0,0c0.1,0,0.1-0.1,0.1-0.1
		c0.1,0,0.1-0.1,0.1-0.1c0.1-0.1,0.1-0.1,0.1-0.1c0,0,0,0,0.1-0.1l0,0l0.1-0.1c0.1-0.1,0.1-0.1,0.1-0.1c0.1-0.1,0.1-0.1,0.1-0.1
		l0.1-0.1l0,0l0.1-0.1c0.1-0.1,0.1-0.1,0.1-0.2c0.1-0.1,12.5-22.3,12.5-22.3l-12.4-9.7l12.7-5.7c0.6-0.3,1.1-0.5,1.7-0.8
		c0.1,0,0.1-0.1,0.2-0.1c0.3-0.1,0.6-0.3,0.8-0.4c0.1,0,0.1-0.1,0.1-0.1c0.3-0.2,0.6-0.4,1-0.6c0.1,0,0.1-0.1,0.1-0.1
		c0.5-0.3,1-0.6,1.6-1c0,0,0,0,0.1,0c0.1-0.1,0.1-0.1,0.2-0.1c0.4-0.3,0.8-0.6,1.2-0.9c0.1-0.1,0.1-0.1,0.2-0.1
		c0.1-0.1,0.2-0.2,0.3-0.3c0.3-0.3,0.6-0.5,1-0.7c0.1-0.1,0.2-0.1,0.3-0.2c0.1-0.1,0.1-0.1,0.3-0.2c0.3-0.3,0.6-0.5,0.9-0.8
		c0.1-0.1,0.2-0.2,0.3-0.3c0.1-0.1,0.1-0.1,0.1-0.1c0.4-0.3,0.8-0.7,1.1-1c0.1-0.1,0.1-0.1,0.2-0.2l0,0c0.4-0.4,0.9-0.8,1.3-1.3
		l0.1-0.1c0.1-0.1,0.2-0.2,0.3-0.3c0.3-0.3,0.6-0.7,1-1c0.1-0.1,0.1-0.1,0.2-0.2c0.1-0.1,0.1-0.2,0.2-0.3c0.3-0.4,0.6-0.7,1-1.1
		c0.1-0.1,0.2-0.2,0.3-0.3c0.1-0.1,0.1-0.1,0.1-0.1c0.4-0.5,0.8-1.1,1.3-1.7l0.1-0.1c0.1-0.1,16.1-27.5,16.1-27.9
		c0-0.1-6.9,3.8-6.9,3.4c0-0.1,0-0.3,0-0.4c0-0.4,0-0.9,0-1.3c-0.1-7.1-2.9-12.4-7.2-15.5l-20.9-15.2l8.4-3.8c0.1,0,0.1-0.1,0.2-0.1
		c0.1-0.1,0.1-0.1,0.2-0.1l0,0l0,0c0.1-0.1,0.1-0.1,0.2-0.1c0.1-0.1,0.1-0.1,0.2-0.1c0,0,0,0,0.1,0l0,0l0.1-0.1
		c0.1-0.1,0.1-0.1,0.1-0.1l0.1-0.1l0,0l0,0c0.1-0.1,0.1-0.1,0.1-0.1c0.1-0.1,0.1-0.1,0.1-0.1l0,0l0,0c0.1-0.1,0.1-0.1,0.1-0.1
		c0.1-0.1,0.1-0.1,0.1-0.2l0,0c0,0,0,0,0-0.1c0.1-0.1,0.1-0.1,0.1-0.2c0.1-0.1,0.1-0.1,0.1-0.2c0,0,0-0.1,0.1-0.1l0,0
		c0.1-0.1,0.1-0.3,0.2-0.3l0,0c0.1-0.1,0.1-0.3,0.2-0.4c0-0.1,0-0.1,0.1-0.1c0.1-0.1,0.1-0.2,0.1-0.3c0-0.1,0-0.1,0.1-0.2
		c0-0.1,0.1-0.2,0.1-0.3c0-0.1,0-0.1,0-0.2c0-0.1,0-0.2,0-0.3s0-0.1,0-0.2c0-0.1,0-0.2,0-0.3s0-0.1,0-0.2c0-0.1-0.1-0.1-0.1-0.3
		c0-0.1,0-0.1-0.1-0.1c0-0.1-0.1-0.1-0.1-0.3c0-0.1-0.1-0.1-0.1-0.1c-0.1-0.1-0.1-0.2-0.3-0.3l-31.7-28.4l12.1-22l0.7,32.2
		c0,0.6,0.3,1.1,0.7,1.4c0,0,0,0-0.1,0l25.2,17.7l0.1,0.1h0.1h0.1l0,0h0.1c0.1,0,0.1,0,0.1,0.1c0,0,0,0,0.1,0h0.1c0.1,0,0.1,0,0.1,0
		h0.1c0.1,0,0.1,0,0.1,0c0.1,0,0.1,0,0.1,0c0.1,0,0.1,0,0.1,0c0.1,0,0.1,0,0.1,0c0.1,0,0.1,0,0.2-0.1h0.1l0,0c0.1,0,0.1-0.1,0.1-0.1
		s0.1,0,0.1-0.1c0,0,0,0,0.1,0l50-22.3c0.1,0,0.1-0.1,0.2-0.1s0.1-0.1,0.2-0.1s0.1-0.1,0.1-0.1l0,0l0,0c0.1,0,0.1-0.1,0.1-0.1
		c0.1-0.1,0.1-0.1,0.1-0.1c0.1-0.1,0.1-0.1,0.1-0.1l0,0l0,0l0.1-0.1C429.2,197,441.3,175.1,441.3,175.1z M403.1,91.6
		c-0.1-0.1-0.1-0.1-0.1-0.2C403,91.5,403.1,91.6,403.1,91.6z M403.3,92.6c0-0.1,0-0.3-0.1-0.4C403.3,92.3,403.3,92.5,403.3,92.6z
		 M403.3,92c0-0.1-0.1-0.2-0.1-0.3C403.2,91.9,403.2,92,403.3,92z M340.3,120L340.3,120L340.3,120L340.3,120z M340.5,120.4
		L340.5,120.4C340.5,120.4,340.5,120.4,340.5,120.4C340.4,120.4,340.5,120.4,340.5,120.4z M340.5,120.9L340.5,120.9
		C340.5,120.9,340.5,120.8,340.5,120.9C340.5,120.8,340.5,120.9,340.5,120.9z M340.5,121.4L340.5,121.4L340.5,121.4L340.5,121.4z
		 M340.5,121.9L340.5,121.9L340.5,121.9L340.5,121.9z M340.3,122.5L340.3,122.5L340.3,122.5C340.3,122.4,340.3,122.5,340.3,122.5z
		 M340.1,119.7L340.1,119.7L340.1,119.7L340.1,119.7z M239.2,348.1c0.1,0.1,0.3,0.1,0.3,0.2c0,0-0.1,0-0.1-0.1
		C239.3,348.3,239.2,348.2,239.2,348.1z M167.7,284.7c-0.1,0-0.1,0.1-0.1,0.1c-0.1,0-0.1,0-0.1,0h-0.1c0.1-0.1,0.3-0.1,0.4-0.1
		C167.8,284.7,167.7,284.7,167.7,284.7z M167.3,284.8c-0.1,0-0.1,0-0.1,0s-0.1,0-0.1,0c-0.1,0-0.1,0-0.1,0l0,0
		C167.1,284.9,167.2,284.8,167.3,284.8C167.3,284.8,167.3,284.8,167.3,284.8z M166.8,284.9C166.7,284.9,166.7,284.9,166.8,284.9
		c-0.1,0-0.1,0-0.2,0c0,0,0,0-0.1,0C166.6,284.8,166.7,284.9,166.8,284.9S166.8,284.9,166.8,284.9z M166.5,284.8
		c-0.1,0-0.1,0-0.1-0.1c0,0-0.1,0-0.1-0.1h-0.1c0,0,0,0-0.1,0C166.3,284.7,166.4,284.8,166.5,284.8L166.5,284.8z M165.5,283.3
		c0,0.6,0.3,1.1,0.7,1.4c0,0,0,0-0.1,0l13.1,9.2l-23.3,10.4l-0.4-21.2l10-4.5L165.5,283.3z M55.3,287.7c0.1,0.1,0.2,0.1,0.3,0.2
		C55.6,287.9,55.5,287.9,55.3,287.7C55.4,287.8,55.3,287.8,55.3,287.7z M56.3,288.2c0.1,0.1,0.2,0.1,0.3,0.1c-0.1,0-0.1-0.1-0.2-0.1
		C56.4,288.3,56.4,288.2,56.3,288.2z M58.3,289.1c-0.1,0-0.1,0-0.1-0.1c0.1,0.1,0.3,0.1,0.4,0.1C58.5,289.1,58.5,289.1,58.3,289.1z
		 M57.6,288.8c-0.1,0-0.1-0.1-0.2-0.1c-0.1,0-0.1-0.1-0.1-0.1C57.4,288.7,57.5,288.8,57.6,288.8C57.6,288.8,57.6,288.8,57.6,288.8z
		 M68.4,290.7L68.4,290.7L68.4,290.7L68.4,290.7z M96.7,272.2c0.1-0.1,0.3-0.2,0.5-0.3c0.1-0.1,0.1-0.1,0.3-0.1
		c0.1-0.1,0.3-0.2,0.5-0.3c0.1-0.1,0.2-0.1,0.3-0.1c0.3-0.1,0.5-0.3,0.8-0.4c0.1-0.1,0.3-0.1,0.4-0.2s0.3-0.1,0.4-0.2
		c0.1-0.1,0.2-0.1,0.3-0.1c0.1-0.1,0.3-0.1,0.4-0.1c0.1-0.1,0.3-0.1,0.4-0.1c0.1,0,0.2-0.1,0.3-0.1c0.1-0.1,0.3-0.1,0.4-0.1
		c0.1,0,0.2-0.1,0.3-0.1s0.3-0.1,0.4-0.1s0.2-0.1,0.3-0.1s0.3-0.1,0.4-0.1c0.1,0,0.2-0.1,0.3-0.1c0.1,0,0.3-0.1,0.4-0.1
		c0.1,0,0.2,0,0.3-0.1c0.2,0,0.4-0.1,0.6-0.1c0.1,0,0.1,0,0.1,0c0.3,0,0.4-0.1,0.7-0.1c0.1,0,0.1,0,0.2,0c0.1,0,0.3,0,0.4,0
		c0.1,0,0.2,0,0.3,0c0.1,0,0.3,0,0.4,0c0.1,0,0.2,0,0.3,0c0.1,0,0.3,0,0.4,0s0.2,0,0.3,0s0.3,0,0.4,0s0.2,0,0.3,0c0.1,0,0.3,0,0.4,0
		c0.1,0,0.2,0,0.3,0c0.1,0,0.3,0,0.4,0c0.1,0,0.2,0,0.3,0c0.1,0,0.3,0,0.3,0.1c0.1,0,0.2,0,0.3,0c0.1,0,0.3,0,0.3,0.1
		c0.1,0,0.2,0,0.3,0c0.1,0,0.3,0.1,0.3,0.1s0.1,0,0.2,0l0.3,13l-13.4-9.4c0.1,0,0.1,0.1,0.1,0.1c-0.6-0.4-1.1-0.8-1.8-1.1
		c0,0,0,0,0.1-0.1C96.6,272.3,96.6,272.3,96.7,272.2z M69.6,290.7c0.1,0,0.1,0,0.2,0c0,0,0,0-0.1,0S69.7,290.7,69.6,290.7z
		 M72.3,290.6c0.1,0,0.2,0,0.3,0c0,0-0.1,0-0.1,0C72.5,290.6,72.4,290.6,72.3,290.6z M80.5,292.3c-0.1,0-0.1-0.1-0.1-0.1
		c0.1,0.1,0.1,0.1,0.3,0.1C80.5,292.3,80.5,292.3,80.5,292.3z M79.4,291.7C79.4,291.7,79.4,291.7,79.4,291.7s0.1,0.1,0.2,0.1
		C79.6,291.8,79.5,291.7,79.4,291.7z M78.4,291.4c0.1,0.1,0.3,0.1,0.4,0.1C78.6,291.4,78.5,291.4,78.4,291.4z M73.8,290.7
		c0.1,0,0.1,0,0.1,0S73.9,290.7,73.8,290.7z M75.1,290.8c0.1,0,0.2,0,0.3,0C75.3,290.8,75.2,290.8,75.1,290.8z M76.3,290.9
		c0.1,0,0.1,0,0.2,0C76.5,290.9,76.4,290.9,76.3,290.9z M77.5,291.1c0.1,0,0.1,0.1,0.3,0.1C77.7,291.2,77.6,291.2,77.5,291.1z
		 M104.7,287.5c0-0.5-0.1-1-0.1-1.5C104.7,286.5,104.7,287,104.7,287.5z M104.6,285.6c0-0.3-0.1-0.6-0.1-1
		C104.5,285,104.6,285.3,104.6,285.6z M104.4,284.2c-0.1-0.3-0.1-0.6-0.1-0.8C104.3,283.7,104.4,283.9,104.4,284.2z M104.2,282.9
		c-0.1-0.3-0.1-0.6-0.2-0.9C104.1,282.3,104.1,282.7,104.2,282.9z M103.9,281.8c-0.1-0.4-0.3-0.8-0.4-1.1
		C103.7,281,103.8,281.3,103.9,281.8z M103.5,280.4c-0.1-0.3-0.3-0.6-0.4-0.9C103.2,279.9,103.4,280.1,103.5,280.4z M103,279.2
		c-0.1-0.3-0.2-0.4-0.3-0.6C102.7,278.8,102.8,279,103,279.2z M102.5,278.2c-0.1-0.2-0.3-0.4-0.4-0.6
		C102.2,277.8,102.3,278,102.5,278.2z M101.9,277.3c-0.1-0.2-0.3-0.4-0.4-0.6C101.6,276.9,101.8,277.1,101.9,277.3z M101.3,276.5
		c-0.2-0.3-0.4-0.5-0.6-0.8C100.9,276,101.1,276.2,101.3,276.5z M100.5,275.5c-0.2-0.2-0.3-0.4-0.5-0.5
		C100.2,275.1,100.3,275.3,100.5,275.5z M99.7,274.8c-0.1-0.1-0.3-0.3-0.5-0.4C99.4,274.4,99.6,274.6,99.7,274.8z M99,274.1
		c-0.2-0.1-0.3-0.3-0.5-0.4C98.6,273.8,98.8,273.9,99,274.1z M67.5,266.7c0.1,0.1,0.3,0.3,0.4,0.4C67.7,266.9,67.6,266.8,67.5,266.7
		z M67.9,267.1c0.1,0.1,0.3,0.3,0.4,0.4C68.3,267.4,68.1,267.3,67.9,267.1z M66.7,290.6L66.7,290.6L66.7,290.6L66.7,290.6z
		 M65.4,290.5c-0.1,0-0.1,0-0.1,0c0.1,0,0.2,0,0.3,0C65.5,290.5,65.5,290.5,65.4,290.5z M64.1,290.3L64.1,290.3c0,0,0.1,0,0.1,0
		C64.2,290.3,64.1,290.3,64.1,290.3z M257.2,349.5c-0.1,0.1-0.3,0.1-0.4,0.1c0.3-0.1,0.5-0.1,0.8-0.2c-0.1,0-0.1,0-0.1,0.1
		C257.4,349.5,257.3,349.5,257.2,349.5z M255.5,349.9c-0.2,0.1-0.3,0.1-0.5,0.1c0.3-0.1,0.5-0.1,0.8-0.1
		C255.7,349.9,255.6,349.9,255.5,349.9L255.5,349.9z M253.7,350.2c-0.1,0-0.3,0-0.4,0.1c0.3-0.1,0.5-0.1,0.8-0.1c-0.1,0-0.1,0-0.2,0
		C253.8,350.2,253.7,350.2,253.7,350.2z M251.8,350.4c-0.1,0-0.2,0-0.3,0c0.3,0,0.5-0.1,0.8-0.1c-0.1,0-0.1,0-0.3,0
		C252,350.4,252,350.4,251.8,350.4z M250.1,350.6c-0.1,0-0.1,0-0.2,0c0.3,0,0.5,0,0.7,0c-0.1,0-0.2,0-0.3,0
		C250.2,350.6,250.2,350.6,250.1,350.6z M248.5,350.6c-0.1,0-0.1,0-0.2,0c0.3,0,0.4,0,0.7,0C248.9,350.6,248.7,350.6,248.5,350.6
		L248.5,350.6z M270.8,282.8l-24.7-17.4l20.2-9l10.1,7.1l0.9,40.8c0.1,5-1.8,10.4-5.2,14.8l-0.8-35
		C271.4,283.6,271.2,283.1,270.8,282.8z M250.5,326.1c-0.1-0.1-0.1-0.1-0.2-0.2C250.4,326,250.4,326.1,250.5,326.1z M250.1,325.8
		c-0.1-0.1-0.1-0.1-0.2-0.2C250,325.6,250,325.7,250.1,325.8z M249.7,325.3c-0.1-0.1-0.1-0.1-0.2-0.3
		C249.6,325.1,249.7,325.2,249.7,325.3z M249.3,324.8c-0.1-0.1-0.1-0.2-0.2-0.3C249.2,324.6,249.3,324.7,249.3,324.8z M249,324.2
		c-0.1-0.1-0.1-0.2-0.1-0.3C248.9,324.1,249,324.2,249,324.2z M248.7,323.7c-0.1-0.1-0.1-0.2-0.1-0.3
		C248.6,323.5,248.6,323.6,248.7,323.7z M248.5,323.1c-0.1-0.1-0.1-0.2-0.1-0.3C248.3,322.9,248.4,323,248.5,323.1z M248.2,322.5
		c-0.1-0.1-0.1-0.2-0.1-0.3C248.1,322.3,248.1,322.4,248.2,322.5z M247.9,321.8c0-0.1-0.1-0.2-0.1-0.3
		C247.9,321.6,247.9,321.7,247.9,321.8z M247.8,321.1c0-0.1-0.1-0.2-0.1-0.3C247.8,320.9,247.8,321.1,247.8,321.1z M247.6,320.4
		c0-0.1-0.1-0.2-0.1-0.3C247.6,320.2,247.6,320.3,247.6,320.4z M247.5,319.7c0-0.1,0-0.2-0.1-0.3
		C247.5,319.5,247.5,319.5,247.5,319.7z M247.4,318.8c0-0.1,0-0.2,0-0.3C247.4,318.6,247.4,318.8,247.4,318.8z M251.4,326.9
		c-0.1-0.1-0.1-0.1-0.2-0.2C251.3,326.8,251.3,326.9,251.4,326.9z M250.9,326.6c-0.1-0.1-0.1-0.1-0.2-0.2
		C250.8,326.5,250.9,326.5,250.9,326.6z M258.9,349c-0.1,0-0.2,0.1-0.3,0.1c0.1-0.1,0.3-0.1,0.4-0.1C258.9,349,258.9,349,258.9,349z
		 M260.5,348.4c0.1-0.1,0.2-0.1,0.3-0.1c0,0,0,0-0.1,0C260.7,348.3,260.7,348.4,260.5,348.4z M340.1,243.7
		C340.1,243.7,340.2,243.7,340.1,243.7C340.2,243.7,340.2,243.7,340.1,243.7z M339.4,243.4c0.1,0,0.1,0,0.1,0.1
		C339.5,243.4,339.4,243.4,339.4,243.4z M338.7,243.2C338.7,243.2,338.7,243.2,338.7,243.2L338.7,243.2L338.7,243.2z M337.9,243.1
		L337.9,243.1L337.9,243.1z M337.1,243.1L337.1,243.1L337.1,243.1z M336.2,243.2c0.1,0,0.1,0,0.1,0
		C336.3,243.2,336.2,243.2,336.2,243.2z M335.3,243.4L335.3,243.4L335.3,243.4z M334.3,243.7L334.3,243.7c0,0,0.1,0,0.1-0.1
		C334.4,243.6,334.4,243.6,334.3,243.7z M324.6,214.6L324.6,214.6C324.6,214.6,324.6,214.6,324.6,214.6
		C324.6,214.6,324.6,214.6,324.6,214.6z M324.2,214.6L324.2,214.6L324.2,214.6L324.2,214.6C324.3,214.6,324.3,214.6,324.2,214.6z
		 M323.9,214.6L323.9,214.6L323.9,214.6L323.9,214.6z M323.5,214.6C323.4,214.6,323.4,214.6,323.5,214.6
		C323.4,214.6,323.4,214.6,323.5,214.6L323.5,214.6L323.5,214.6z M323.3,214.5l13.4,9.4c-0.8,0.3-1.7,0.6-2.5,1l-13.9,6.2l-0.4-19.9
		L323.3,214.5C323.2,214.5,323.3,214.5,323.3,214.5L323.3,214.5z M246.2,266.4c0-0.1,0-0.3-0.1-0.4
		C246.2,266.1,246.2,266.2,246.2,266.4z M246.2,265.9c0-0.1-0.1-0.2-0.1-0.3C246.1,265.7,246.1,265.8,246.2,265.9z M247.4,350.5
		c-0.1,0-0.3,0-0.4,0c-0.1,0-0.1,0-0.2,0c-0.1,0-0.1,0-0.1,0C247,350.4,247.2,350.5,247.4,350.5z M245.5,350.2c-0.1,0-0.2,0-0.3-0.1
		l0,0c0.2,0.1,0.4,0.1,0.6,0.1C245.7,350.3,245.6,350.3,245.5,350.2z M243.9,349.9c-0.1,0-0.1,0-0.1,0c0.1,0.1,0.3,0.1,0.4,0.1
		C244.1,350,244.1,350,243.9,349.9z M240.6,348.8L240.6,348.8L240.6,348.8L240.6,348.8z M325.2,214.4
		C325.2,214.4,325.1,214.4,325.2,214.4L325.2,214.4c0.1,0,0.1,0,0.3-0.1C325.3,214.4,325.3,214.4,325.2,214.4z M293,140.8L293,140.8
		L293,140.8z M293.4,141.7C293.4,141.6,293.4,141.6,293.4,141.7C293.4,141.6,293.4,141.6,293.4,141.7z M293.3,141.2L293.3,141.2
		L293.3,141.2z M230.5,167.3c-0.1-0.1-0.1-0.1-0.2-0.2C230.4,167.1,230.5,167.2,230.5,167.3z M182.3,189.9c-0.1-0.1-0.1-0.1-0.1-0.2
		C182.3,189.8,182.3,189.9,182.3,189.9z M182.6,190.9c0-0.1,0-0.3-0.1-0.4C182.6,190.6,182.6,190.7,182.6,190.9z M182.5,190.3
		c0-0.1-0.1-0.2-0.1-0.3C182.5,190.1,182.5,190.3,182.5,190.3z M128.9,213.8c-0.1-0.1-0.1-0.1-0.1-0.2
		C128.8,213.7,128.8,213.7,128.9,213.8z M129.1,214.7c0-0.1,0-0.3-0.1-0.4C129.1,214.4,129.1,214.6,129.1,214.7z M129,214.2
		c0-0.1-0.1-0.2-0.1-0.3C129,214,129,214,129,214.2z M101.5,235.3L101.5,235.3L101.5,235.3z M101.3,236.8
		C101.3,236.7,101.3,236.7,101.3,236.8C101.3,236.7,101.3,236.7,101.3,236.8z M101.4,236.3L101.4,236.3
		C101.4,236.2,101.4,236.3,101.4,236.3z M101.5,235.8C101.5,235.8,101.5,235.7,101.5,235.8C101.5,235.7,101.5,235.8,101.5,235.8z
		 M101.3,234.3L101.3,234.3L101.3,234.3z M101.4,234.7L101.4,234.7C101.4,234.8,101.4,234.8,101.4,234.7z M101.1,233.9
		C101.1,233.9,101.1,233.9,101.1,233.9C101.1,233.9,101.1,233.9,101.1,233.9z M66.3,263.7c0-0.2-0.1-0.4-0.1-0.6
		C66.2,263.3,66.3,263.5,66.3,263.7z M67.5,266.7c-0.1-0.1-0.3-0.3-0.3-0.4C67.2,266.4,67.4,266.6,67.5,266.7z M67.1,266.1
		c-0.1-0.1-0.2-0.3-0.3-0.4C66.9,265.9,67,266,67.1,266.1z M66.8,265.6c-0.1-0.2-0.1-0.3-0.2-0.5C66.7,265.3,66.7,265.4,66.8,265.6z
		 M66.5,265c-0.1-0.2-0.1-0.4-0.1-0.6C66.5,264.7,66.5,264.9,66.5,265z M66.4,264.4c-0.1-0.2-0.1-0.4-0.1-0.6
		C66.3,264,66.3,264.2,66.4,264.4z M59.7,289.5c-0.1,0-0.2-0.1-0.3-0.1h-0.1C59.4,289.4,59.5,289.5,59.7,289.5z M54.6,287.4
		c-0.1-0.1-0.1-0.1-0.3-0.1c0,0,0,0-0.1,0C54.5,287.3,54.6,287.4,54.6,287.4z M140.9,407.3c0,0-0.1,0-0.1-0.1
		C140.8,407.2,140.9,407.2,140.9,407.3z M161.2,391.4L161.2,391.4c-0.1,0-0.2,0-0.2,0c-0.1,0-0.1,0-0.1,0
		C161,391.4,161.1,391.4,161.2,391.4C161.2,391.4,161.2,391.4,161.2,391.4z M160.7,391.4C160.6,391.4,160.6,391.4,160.7,391.4
		c-0.1,0-0.1,0-0.2,0l0,0c0.1,0,0.2,0.1,0.3,0.1C160.7,391.4,160.7,391.4,160.7,391.4z M160.4,391.4c-0.1,0-0.1,0-0.1-0.1
		c0,0-0.1,0-0.1-0.1c0,0-0.1,0-0.1-0.1l0,0C160.2,391.3,160.3,391.3,160.4,391.4L160.4,391.4z M161.5,391.3L161.5,391.3h-0.1h-0.1
		c0.1,0,0.3-0.1,0.4-0.1C161.6,391.3,161.5,391.3,161.5,391.3z M238.3,347.7c-0.1,0-0.1-0.1-0.1-0.1c-0.1-0.1-0.2-0.1-0.3-0.2
		C238,347.5,238.2,347.6,238.3,347.7z M358.1,229c-0.1-0.1-0.1-0.1-0.1-0.2l0,0C358.1,228.9,358.1,228.9,358.1,229z M361.8,240.9
		c0-0.4-0.1-0.9-0.1-1.3C361.7,239.9,361.8,240.4,361.8,240.9z M361.6,239.1c0-0.3-0.1-0.6-0.1-0.9
		C361.6,238.5,361.6,238.8,361.6,239.1z M361.5,237.7c-0.1-0.3-0.1-0.5-0.1-0.8C361.4,237.2,361.4,237.4,361.5,237.7z M361.3,236.4
		c-0.1-0.3-0.1-0.4-0.1-0.7C361.2,235.9,361.2,236.2,361.3,236.4z M361,235.2c-0.1-0.3-0.1-0.4-0.2-0.6
		C360.9,234.7,360.9,235,361,235.2z M360.7,234c-0.1-0.2-0.1-0.4-0.2-0.6C360.5,233.6,360.6,233.8,360.7,234z M360.2,232.9
		c-0.1-0.2-0.2-0.4-0.3-0.6C360.1,232.5,360.2,232.7,360.2,232.9z M359.8,231.8c-0.1-0.2-0.2-0.4-0.3-0.6
		C359.6,231.5,359.7,231.7,359.8,231.8z M359.3,230.8c-0.1-0.2-0.2-0.4-0.3-0.6C359.1,230.4,359.2,230.6,359.3,230.8z M358.8,229.9
		c-0.1-0.2-0.3-0.4-0.4-0.6C358.5,229.5,358.6,229.7,358.8,229.9z M352.4,202.4c-0.1,0-0.1,0-0.1,0c-0.1,0-0.1,0-0.1,0
		c-0.1,0-0.1,0-0.1,0l0,0C352.2,202.4,352.3,202.4,352.4,202.4L352.4,202.4z M351.9,202.4C351.8,202.4,351.8,202.4,351.9,202.4
		c-0.1,0-0.1,0-0.2,0c0,0,0,0-0.1,0C351.8,202.4,351.8,202.4,351.9,202.4S352,202.4,351.9,202.4z M351.5,202.3
		C351.5,202.3,351.5,202.3,351.5,202.3l-0.1-0.1h-0.1c0.1,0.1,0.2,0.1,0.3,0.1C351.6,202.3,351.5,202.3,351.5,202.3z M352.8,202.3
		c-0.1,0-0.1,0.1-0.1,0.1s-0.1,0-0.1,0h-0.1c0.1-0.1,0.3-0.1,0.4-0.1C352.9,202.3,352.9,202.3,352.8,202.3z"/>
	<g class="st1">
		<g>
			<defs>
				<path id="SVGID_1_" d="M113.3,211.5l25.2,17.7c0.9,0.6,0.7,2.6,0.3,3.6l-25.2-17.7C114,214,114.2,212.1,113.3,211.5z"/>
			</defs>
			<clipPath id="SVGID_2_">
				<use xlink:href="#SVGID_1_"  style="overflow:visible;"/>
			</clipPath>
			<g class="st2">
				<path class="st3" d="M113.3,211.5l25.2,17.7c0.9,0.6,0.7,2.6,0.3,3.6l-25.2-17.7C114,214,114.2,212.1,113.3,211.5"/>
			</g>
		</g>
	</g>
	<g class="st1">
		<g>
			<defs>
				<path id="SVGID_3_" d="M106,263.2l-25.2-17.7c-1.5-1-2.2-2.5-2.2-4.5c-0.1-3.4,3.1-7.9,7.4-9.9c7.4-3.3,16.3-0.3,17.4-0.1
					l25.2,17.7c-1.1-0.1-10-3.2-17.4,0.1c-4.3,1.9-7.6,6.4-7.4,9.9C103.9,260.7,104.6,262.2,106,263.2z"/>
			</defs>
			<clipPath id="SVGID_4_">
				<use xlink:href="#SVGID_3_"  style="overflow:visible;"/>
			</clipPath>
			<g class="st4">
				<path class="st5" d="M103.5,231l25.2,17.7c-1-0.1-8.7-2.7-15.7-0.6l-25.2-17.7C94.8,228.3,102.5,230.9,103.5,231"/>
				<path class="st6" d="M87.9,230.4l25.2,17.7c-0.5,0.2-1,0.3-1.5,0.6L86.4,231C86.8,230.8,87.3,230.6,87.9,230.4"/>
				<path class="st6" d="M86.4,231l25.1,17.7c-0.1,0-0.1,0.1-0.2,0.1c-0.3,0.1-0.4,0.2-0.6,0.3l-25.2-17.7c0.2-0.1,0.4-0.2,0.6-0.3
					C86.2,231.1,86.3,231,86.4,231"/>
				<path class="st7" d="M85.5,231.4l25.2,17.7c-0.3,0.1-0.4,0.3-0.7,0.4l-25.2-17.7C85,231.7,85.2,231.5,85.5,231.4"/>
				<path class="st8" d="M84.8,231.8l25.2,17.7c-0.2,0.1-0.4,0.3-0.6,0.4l-25.2-17.7C84.4,232,84.6,231.9,84.8,231.8"/>
				<path class="st9" d="M84.2,232.2l25.2,17.7c-0.2,0.1-0.4,0.3-0.5,0.4l-25.2-17.7C83.8,232.4,84,232.3,84.2,232.2"/>
				<path class="st10" d="M83.6,232.5l25.2,17.7c-0.2,0.1-0.3,0.3-0.5,0.4l-25.2-17.7C83.3,232.8,83.5,232.7,83.6,232.5"/>
				<path class="st11" d="M83.1,232.9l25.2,17.7c-0.1,0.1-0.3,0.3-0.4,0.4l-25.2-17.7C82.9,233.2,83,233.1,83.1,232.9"/>
				<path class="st11" d="M82.7,233.3l25.2,17.7c-0.1,0.1-0.3,0.3-0.4,0.4l-25.2-17.7C82.4,233.6,82.6,233.4,82.7,233.3"/>
				<path class="st12" d="M82.2,233.7l25.2,17.7c-0.1,0.1-0.3,0.3-0.4,0.4l-25.2-17.7C82,234,82.1,233.9,82.2,233.7"/>
				<path class="st13" d="M81.9,234.1l25.2,17.7c-0.1,0.1-0.3,0.3-0.4,0.4l-25.2-17.7C81.6,234.5,81.7,234.3,81.9,234.1"/>
				<path class="st14" d="M81.5,234.6l25.2,17.7c-0.1,0.1-0.3,0.3-0.4,0.4L81.1,235C81.2,234.9,81.4,234.7,81.5,234.6"/>
				<path class="st15" d="M81.1,235l25.2,17.7c-0.1,0.1-0.3,0.3-0.4,0.5l-25.2-17.7C80.8,235.3,81,235.2,81.1,235"/>
				<path class="st16" d="M80.7,235.5l25.2,17.7c-0.1,0.2-0.3,0.3-0.4,0.5L80.3,236C80.5,235.9,80.6,235.7,80.7,235.5"/>
				<path class="st17" d="M80.3,236l25.2,17.7c-0.1,0.2-0.3,0.4-0.4,0.6L80,236.6C80.1,236.4,80.2,236.2,80.3,236"/>
				<path class="st18" d="M80,236.6l25.2,17.7c-0.1,0.3-0.3,0.5-0.4,0.8l-25.2-17.7C79.7,237.1,79.8,236.9,80,236.6"/>
				<path class="st3" d="M79.6,237.4l25.2,17.7c-0.6,1.2-1,2.5-0.9,3.6c0.1,2,0.7,3.4,2.2,4.5l-25.2-17.7c-1.5-1-2.2-2.5-2.2-4.5
					C78.6,239.8,78.9,238.6,79.6,237.4"/>
			</g>
		</g>
	</g>
	<g>
		<polygon class="st17" points="113.6,215 138.8,232.8 132.8,245.3 107.6,227.5 		"/>
	</g>
	<g class="st1">
		<g>
			<defs>
				<path id="SVGID_5_" d="M107.6,227.5l25.2,17.7c-0.6,1.3-2,2.9-3.1,3.4c-0.4,0.2-0.7,0.2-1,0.1L103.5,231c0.3,0.1,0.6,0.1,1-0.1
					C105.6,230.4,107,228.9,107.6,227.5z"/>
			</defs>
			<clipPath id="SVGID_6_">
				<use xlink:href="#SVGID_5_"  style="overflow:visible;"/>
			</clipPath>
			<g class="st19">
				<path class="st3" d="M107.6,227.5l25.2,17.7c0,0.1-0.1,0.1-0.1,0.1l-25.2-17.7C107.6,227.7,107.6,227.6,107.6,227.5"/>
				<path class="st18" d="M107.6,227.7l25.2,17.7c-0.1,0.1-0.1,0.3-0.2,0.4L107.4,228C107.4,228,107.5,227.8,107.6,227.7"/>
				<path class="st17" d="M107.4,228.1l25.2,17.7c-0.1,0.1-0.1,0.3-0.3,0.4l-25.2-17.7C107.2,228.4,107.3,228.2,107.4,228.1"/>
				<path class="st16" d="M107.1,228.4l25.2,17.7c-0.1,0.1-0.1,0.3-0.3,0.3l-25.2-17.7C107,228.7,107,228.5,107.1,228.4"/>
				<path class="st15" d="M106.9,228.8l25.2,17.7c-0.1,0.1-0.2,0.2-0.3,0.3l-25.2-17.7C106.7,229,106.8,228.9,106.9,228.8"/>
				<path class="st14" d="M106.7,229.1l25.2,17.7c-0.1,0.1-0.2,0.2-0.3,0.3l-25.2-17.8C106.5,229.3,106.5,229.2,106.7,229.1"/>
				<path class="st13" d="M106.4,229.4l25.2,17.7c-0.1,0.1-0.2,0.2-0.3,0.3l-25.2-17.7C106.2,229.6,106.3,229.5,106.4,229.4"/>
				<path class="st12" d="M106.2,229.7l25.2,17.7c-0.1,0.1-0.1,0.2-0.3,0.3l-25.2-17.7C106,229.8,106.1,229.7,106.2,229.7"/>
				<path class="st11" d="M105.9,229.9l25.2,17.7c-0.1,0.1-0.1,0.1-0.3,0.2l-25.2-17.7C105.8,230.1,105.8,230,105.9,229.9"/>
				<path class="st11" d="M105.7,230.1l25.2,17.7c-0.1,0.1-0.1,0.1-0.2,0.2l-25.2-17.7C105.5,230.3,105.6,230.2,105.7,230.1"/>
				<path class="st10" d="M105.5,230.3l25.2,17.7c-0.1,0.1-0.1,0.1-0.2,0.2l-25.2-17.7C105.3,230.4,105.4,230.3,105.5,230.3"/>
				<path class="st9" d="M105.3,230.4l25.2,17.7c-0.1,0.1-0.1,0.1-0.2,0.1l-25.2-17.7C105.1,230.6,105.2,230.5,105.3,230.4"/>
				<path class="st8" d="M105.1,230.6l25.2,17.7c-0.1,0.1-0.1,0.1-0.2,0.1l-25.2-17.7C104.9,230.7,105,230.6,105.1,230.6"/>
				<path class="st7" d="M104.9,230.7l25.2,17.7c-0.1,0.1-0.1,0.1-0.2,0.1l-25.2-17.7C104.8,230.8,104.8,230.8,104.9,230.7"/>
				<path class="st6" d="M104.7,230.8l25.2,17.7c-0.1,0-0.1,0.1-0.1,0.1s0,0-0.1,0l-25.2-17.7c0,0,0,0,0.1,0
					C104.6,230.9,104.6,230.8,104.7,230.8"/>
				<path class="st6" d="M104.5,230.9l25.2,17.7c-0.1,0-0.1,0.1-0.2,0.1L104.3,231C104.4,231,104.4,231,104.5,230.9"/>
				<path class="st5" d="M104.3,231l25.2,17.7c-0.3,0.1-0.4,0.1-0.6,0.1L103.7,231C103.8,231.1,104.1,231.1,104.3,231"/>
				<path class="st6" d="M103.6,231l25.2,17.7h-0.1L103.6,231L103.6,231"/>
			</g>
		</g>
	</g>
	<g class="st1">
		<g>
			<defs>
				<path id="SVGID_7_" d="M93.5,270.5l25.2,17.7c-2.1-1.5-5.5-2.1-10.1-2c-5.9,0.2-12.7-0.6-17.5-4l-25.2-17.7
					c4.8,3.4,11.6,4.2,17.5,4C88,268.4,91.4,269,93.5,270.5z"/>
			</defs>
			<clipPath id="SVGID_8_">
				<use xlink:href="#SVGID_7_"  style="overflow:visible;"/>
			</clipPath>
			<g class="st20">
				<path class="st7" d="M93.5,270.5l25.2,17.7c-0.1-0.1-0.3-0.2-0.4-0.3l-25.2-17.7C93.2,270.3,93.4,270.4,93.5,270.5"/>
				<path class="st6" d="M93.1,270.3l25.2,17.7c-0.3-0.2-0.6-0.3-0.9-0.5l-25.2-17.7C92.5,269.9,92.8,270.1,93.1,270.3"/>
				<path class="st6" d="M92.2,269.7l25.2,17.7c-0.5-0.3-1-0.4-1.7-0.6l-25.2-17.7C91.1,269.3,91.7,269.5,92.2,269.7"/>
				<path class="st5" d="M90.5,269.2l25.2,17.7c-1.9-0.5-4.3-0.7-7.1-0.6c-3.6,0.1-7.5-0.1-11.1-1.1l-25.2-17.7
					c3.6,1,7.5,1.2,11.1,1.1C86.3,268.5,88.6,268.7,90.5,269.2"/>
				<path class="st6" d="M72.3,267.4l25.2,17.7c-1.1-0.3-2.3-0.7-3.4-1.2l-25.2-17.7C70,266.7,71.1,267.1,72.3,267.4"/>
				<path class="st6" d="M68.9,266.2L94.1,284c-0.7-0.3-1.4-0.7-2-1.1l-25.2-17.7C67.6,265.5,68.2,265.9,68.9,266.2"/>
				<path class="st7" d="M66.9,265.2L92,282.9c-0.3-0.2-0.6-0.4-1-0.6l-25.2-17.7C66.2,264.7,66.5,265,66.9,265.2"/>
			</g>
		</g>
	</g>
	<g class="st1">
		<g>
			<defs>
				<path id="SVGID_9_" d="M110.5,251.3l25.2,17.7c3.8,2.7,6.4,7,6.5,14.1c0.3,13-10.2,31-27.9,38.9c-15.7,7-24.5,4-27.4,2.4
					c-0.2-0.1-0.4-0.3-0.5-0.3l-25.2-17.7c0.1,0.1,0.3,0.2,0.5,0.3c2.9,1.7,11.7,4.6,27.4-2.4c17.7-7.9,28.2-25.9,27.9-38.9
					C117,258.3,114.3,253.9,110.5,251.3z"/>
			</defs>
			<clipPath id="SVGID_10_">
				<use xlink:href="#SVGID_9_"  style="overflow:visible;"/>
			</clipPath>
			<g class="st21">
				<path class="st3" d="M110.5,251.3l25.2,17.7c3.8,2.7,6.4,7,6.5,14.1c0.1,4.8-1.3,10.4-3.9,15.8l-25.2-17.7
					c2.7-5.4,4.1-10.9,3.9-15.8C117,258.3,114.3,253.9,110.5,251.3"/>
				<path class="st18" d="M113.1,281.3l25.2,17.7c-0.5,1-1,2-1.6,3l-25.2-17.7C112.1,283.2,112.7,282.2,113.1,281.3"/>
				<path class="st17" d="M111.6,284.2l25.2,17.7c-0.4,0.8-1,1.5-1.5,2.3l-25.2-17.7C110.6,285.8,111.1,285,111.6,284.2"/>
				<path class="st16" d="M110.1,286.5l25.2,17.7c-0.4,0.6-0.9,1.3-1.4,2l-25.2-17.7C109.2,287.9,109.6,287.2,110.1,286.5"/>
				<path class="st15" d="M108.8,288.5l25.2,17.7c-0.4,0.6-0.9,1.2-1.4,1.8l-25.2-17.7C107.8,289.7,108.3,289.1,108.8,288.5"/>
				<path class="st14" d="M107.4,290.3l25.2,17.7c-0.4,0.6-0.9,1.1-1.4,1.7L106,291.9C106.5,291.4,106.9,290.9,107.4,290.3"/>
				<path class="st13" d="M106,291.9l25.2,17.7c-0.4,0.5-1,1-1.4,1.5l-25.2-17.7C105.1,293,105.5,292.4,106,291.9"/>
				<path class="st12" d="M104.6,293.5l25.2,17.7c-0.4,0.5-1,1-1.5,1.5l-25.2-17.7C103.6,294.4,104.1,294,104.6,293.5"/>
				<path class="st11" d="M103.1,294.9l25.2,17.7c-0.5,0.5-1,1-1.5,1.4l-25.2-17.7C102.1,295.9,102.6,295.4,103.1,294.9"/>
				<path class="st11" d="M101.6,296.3l25.2,17.7c-0.5,0.4-1.1,1-1.6,1.4L100,297.7C100.5,297.3,101.1,296.8,101.6,296.3"/>
				<path class="st10" d="M100,297.7l25.2,17.7c-0.6,0.4-1.1,0.9-1.7,1.3l-25.2-17.7C98.8,298.6,99.4,298.2,100,297.7"/>
				<path class="st9" d="M98.2,299.1l25.2,17.7c-0.6,0.4-1.3,0.9-1.9,1.3l-25.2-17.7C97,299.9,97.6,299.5,98.2,299.1"/>
				<path class="st8" d="M96.3,300.4l25.2,17.7c-0.7,0.4-1.4,0.9-2.2,1.3l-25.2-17.7C94.9,301.3,95.6,300.8,96.3,300.4"/>
				<path class="st7" d="M94.2,301.7l25.2,17.7c-0.8,0.5-1.7,1-2.5,1.4l-25.2-17.7C92.5,302.7,93.4,302.2,94.2,301.7"/>
				<path class="st6" d="M91.7,303.1l25.2,17.7c-0.8,0.4-1.7,0.8-2.5,1.2c-0.3,0.1-0.6,0.3-0.9,0.4l-25.2-17.7
					c0.3-0.1,0.6-0.3,0.9-0.4C90,304,90.9,303.6,91.7,303.1"/>
				<path class="st6" d="M88.3,304.7l25.2,17.7c-2,0.8-3.8,1.5-5.5,2.1l-25.2-17.7C84.5,306.2,86.3,305.6,88.3,304.7"/>
				<path class="st5" d="M82.8,306.8l25.2,17.7c-8.3,2.6-14.1,2.2-17.6,1.2L65.1,308C68.6,309,74.5,309.4,82.8,306.8"/>
				<path class="st6" d="M65.1,308l25.2,17.7c-0.9-0.3-1.7-0.5-2.2-0.8l-25.2-17.7C63.5,307.5,64.2,307.8,65.1,308"/>
				<path class="st6" d="M62.9,307.3L88,325c-0.4-0.2-0.8-0.4-1.1-0.6c-0.1-0.1-0.1-0.1-0.2-0.1l-25.2-17.7c0.1,0.1,0.1,0.1,0.2,0.1
					C62.1,306.9,62.5,307.1,62.9,307.3"/>
				<path class="st7" d="M61.6,306.6l25.2,17.7c-0.1-0.1-0.3-0.1-0.4-0.3l-25.2-17.7C61.4,306.4,61.5,306.5,61.6,306.6"/>
			</g>
		</g>
	</g>
	<g class="st1">
		<g>
			<defs>
				<path id="SVGID_11_" d="M140.9,191.2l25.2,17.7c0.4,0.3,0.6,0.8,0.6,1.3l-25.2-17.7C141.5,192,141.3,191.5,140.9,191.2z"/>
			</defs>
			<clipPath id="SVGID_12_">
				<use xlink:href="#SVGID_11_"  style="overflow:visible;"/>
			</clipPath>
			<g class="st22">
				<path class="st3" d="M140.9,191.2l25.2,17.7c0.4,0.3,0.6,0.8,0.6,1.3l-25.2-17.7C141.5,192,141.3,191.5,140.9,191.2"/>
			</g>
		</g>
	</g>
	<g>
		<polygon class="st23" points="141.6,192.6 166.7,210.4 167.4,242.3 142.2,224.5 		"/>
	</g>
	<g class="st1">
		<g>
			<defs>
				<path id="SVGID_13_" d="M194.4,167.4l25.2,17.7c0.4,0.3,0.6,0.7,0.6,1.3L195,168.8C195,168.2,194.8,167.8,194.4,167.4z"/>
			</defs>
			<clipPath id="SVGID_14_">
				<use xlink:href="#SVGID_13_"  style="overflow:visible;"/>
			</clipPath>
			<g class="st24">
				<path class="st3" d="M194.4,167.4l25.2,17.7c0.4,0.3,0.6,0.7,0.6,1.3L195,168.8C195,168.2,194.8,167.8,194.4,167.4"/>
			</g>
		</g>
	</g>
	<g class="st1">
		<g>
			<defs>
				<path id="SVGID_15_" d="M150.2,304L125,286.3c0.4,0.3,1.1,0.4,1.7,0.1l25.2,17.7C151.2,304.4,150.7,304.3,150.2,304z"/>
			</defs>
			<clipPath id="SVGID_16_">
				<use xlink:href="#SVGID_15_"  style="overflow:visible;"/>
			</clipPath>
			<g class="st25">
				<path class="st6" d="M126.8,286.3l25.2,17.7c0,0,0,0-0.1,0L126.8,286.3C126.7,286.3,126.8,286.3,126.8,286.3"/>
				<path class="st6" d="M126.7,286.3l25.2,17.7c-0.1,0.1-0.1,0.1-0.3,0.1l-25.2-17.7C126.6,286.4,126.6,286.4,126.7,286.3"/>
				<path class="st5" d="M126.5,286.5l25.2,17.7c-0.4,0.1-0.7,0.1-1,0.1l-25.2-17.8C125.8,286.6,126.1,286.5,126.5,286.5"/>
				<path class="st6" d="M125.5,286.5l25.2,17.7c-0.1,0-0.1-0.1-0.2-0.1l-25.2-17.7C125.4,286.5,125.4,286.5,125.5,286.5"/>
				<path class="st6" d="M125.3,286.4l25.2,17.7c-0.1,0-0.1-0.1-0.1-0.1l-25.2-17.7C125.2,286.3,125.2,286.4,125.3,286.4"/>
				<path class="st7" d="M125.1,286.3l25.2,17.7l-0.1-0.1L125.1,286.3C125,286.3,125.1,286.3,125.1,286.3"/>
			</g>
		</g>
	</g>
	<g>
		<polygon class="st5" points="177.2,227.8 202.4,245.6 167.8,261 142.6,243.2 		"/>
	</g>
	<g>
		<polygon class="st23" points="142.6,243.2 167.8,261 168.5,294.3 143.3,276.5 		"/>
	</g>
	<g>
		<polygon class="st5" points="141.1,280 166.3,297.7 151.9,304.1 126.8,286.3 		"/>
	</g>
	<g class="st1">
		<g>
			<defs>
				<path id="SVGID_17_" d="M143.3,276.5l25.2,17.7c0,1.3-0.9,2.9-2.2,3.4L141.1,280C142.5,279.3,143.4,277.8,143.3,276.5z"/>
			</defs>
			<clipPath id="SVGID_18_">
				<use xlink:href="#SVGID_17_"  style="overflow:visible;"/>
			</clipPath>
			<g class="st26">
				<path class="st3" d="M143.3,276.5l25.2,17.7c0,0.5-0.1,1-0.4,1.6L143,278.1C143.2,277.6,143.3,277,143.3,276.5"/>
				<path class="st18" d="M143,278.1l25.2,17.7c-0.1,0.1-0.1,0.2-0.1,0.3l-25.2-17.7C142.9,278.3,142.9,278.2,143,278.1"/>
				<path class="st17" d="M142.8,278.3l25.2,17.7c-0.1,0.1-0.1,0.1-0.1,0.2l-25.2-17.7C142.7,278.5,142.8,278.4,142.8,278.3"/>
				<path class="st16" d="M142.7,278.6l25.2,17.7c-0.1,0.1-0.1,0.1-0.1,0.2l-25.2-17.7C142.6,278.6,142.6,278.6,142.7,278.6"/>
				<path class="st15" d="M142.6,278.7l25.2,17.7c-0.1,0.1-0.1,0.1-0.1,0.1l-25.2-17.7C142.5,278.8,142.5,278.8,142.6,278.7"/>
				<path class="st14" d="M142.5,278.9l25.2,17.7c-0.1,0.1-0.1,0.1-0.1,0.1L142.3,279C142.4,279,142.4,279,142.5,278.9"/>
				<path class="st13" d="M142.3,279l25.2,17.7c-0.1,0.1-0.1,0.1-0.1,0.1l-25.2-17.7C142.3,279.1,142.3,279.1,142.3,279"/>
				<path class="st12" d="M142.2,279.2l25.2,17.7c-0.1,0.1-0.1,0.1-0.1,0.1l-25.2-17.7C142.1,279.2,142.2,279.2,142.2,279.2"/>
				<path class="st11" d="M142.1,279.3l25.2,17.7c-0.1,0.1-0.1,0.1-0.1,0.1L142,279.3C142,279.3,142.1,279.3,142.1,279.3"/>
				<path class="st11" d="M142,279.3l25.2,17.7c-0.1,0.1-0.1,0.1-0.1,0.1l-25.2-17.7C141.9,279.5,142,279.4,142,279.3"/>
				<path class="st10" d="M141.9,279.5l25.2,17.7c-0.1,0.1-0.1,0.1-0.1,0.1l-25.2-17.7C141.8,279.5,141.8,279.5,141.9,279.5"/>
				<path class="st9" d="M141.8,279.6l25.2,17.7c-0.1,0.1-0.1,0.1-0.1,0.1l-25.2-17.7C141.6,279.7,141.7,279.6,141.8,279.6"/>
				<path class="st8" d="M141.6,279.7l25.2,17.7c-0.1,0.1-0.1,0.1-0.1,0.1l-25.2-17.7C141.5,279.7,141.6,279.7,141.6,279.7"/>
				<path class="st7" d="M141.4,279.8l25.2,17.7c-0.1,0.1-0.1,0.1-0.2,0.1l-25.2-17.7C141.3,279.9,141.4,279.8,141.4,279.8"/>
				<path class="st6" d="M141.3,279.9l25.2,17.7c-0.1,0-0.1,0.1-0.2,0.1l-25.2-17.7C141.2,279.9,141.3,279.9,141.3,279.9"/>
			</g>
		</g>
	</g>
	<g class="st1">
		<g>
			<defs>
				<path id="SVGID_19_" d="M203.7,280.2l-25.2-17.7c0.4,0.3,1,0.3,1.7,0.1l25.2,17.7C204.7,280.6,204.1,280.6,203.7,280.2z"/>
			</defs>
			<clipPath id="SVGID_20_">
				<use xlink:href="#SVGID_19_"  style="overflow:visible;"/>
			</clipPath>
			<g class="st27">
				<path class="st6" d="M180.2,262.6l25.2,17.7c0,0,0,0-0.1,0L180.2,262.6L180.2,262.6"/>
				<path class="st6" d="M180.2,262.6l25.2,17.7c-0.1,0.1-0.2,0.1-0.3,0.1L180,262.7C180,262.6,180.1,262.6,180.2,262.6"/>
				<path class="st5" d="M180,262.6l25.2,17.7c-0.4,0.1-0.7,0.1-1,0.1L179,262.7C179.2,262.8,179.6,262.8,180,262.6"/>
				<path class="st6" d="M179,262.7l25.2,17.7c-0.1,0-0.1-0.1-0.2-0.1l-25.2-17.7C178.8,262.6,178.9,262.7,179,262.7"/>
				<path class="st6" d="M178.8,262.6l25.2,17.7c-0.1,0-0.1-0.1-0.1-0.1l-25.2-17.7C178.6,262.6,178.7,262.6,178.8,262.6"/>
				<path class="st7" d="M178.6,262.6l25.2,17.7c0,0-0.1,0-0.1-0.1L178.6,262.6C178.6,262.5,178.6,262.5,178.6,262.6"/>
			</g>
		</g>
	</g>
	<g>
		<polygon class="st23" points="195,168.8 220.2,186.5 222,270.4 196.9,252.7 		"/>
	</g>
	<g>
		<polygon class="st5" points="194.6,256.1 219.8,273.9 205.4,280.3 180.2,262.6 		"/>
	</g>
	<g class="st1">
		<g>
			<defs>
				<path id="SVGID_21_" d="M196.9,252.7l25.2,17.7c0,1.3-1,2.9-2.2,3.4l-25.2-17.7C195.8,255.6,196.9,254,196.9,252.7z"/>
			</defs>
			<clipPath id="SVGID_22_">
				<use xlink:href="#SVGID_21_"  style="overflow:visible;"/>
			</clipPath>
			<g class="st28">
				<path class="st3" d="M196.9,252.7l25.2,17.7c0,0.4-0.1,1-0.4,1.5l-25.2-17.7C196.7,253.7,196.9,253.1,196.9,252.7"/>
				<path class="st18" d="M196.5,254.2l25.2,17.7c-0.1,0.1-0.1,0.2-0.1,0.3l-25.2-17.7C196.4,254.4,196.4,254.3,196.5,254.2"/>
				<path class="st17" d="M196.3,254.5l25.2,17.7c-0.1,0.1-0.1,0.1-0.1,0.3l-25.2-17.7C196.3,254.7,196.3,254.5,196.3,254.5"/>
				<path class="st16" d="M196.2,254.7l25.2,17.7c-0.1,0.1-0.1,0.1-0.1,0.2l-25.2-17.7C196.1,254.9,196.1,254.8,196.2,254.7"/>
				<path class="st15" d="M196.1,254.9l25.2,17.7c-0.1,0.1-0.1,0.1-0.1,0.2l-25.2-17.7C195.9,255,196,255,196.1,254.9"/>
				<path class="st14" d="M195.9,255.1l25.2,17.7c-0.1,0.1-0.1,0.1-0.1,0.1l-25.2-17.7C195.8,255.2,195.9,255.1,195.9,255.1"/>
				<path class="st13" d="M195.8,255.2L221,273c-0.1,0.1-0.1,0.1-0.1,0.1l-25.2-17.7C195.7,255.3,195.7,255.2,195.8,255.2"/>
				<path class="st12" d="M195.7,255.4l25.2,17.7c-0.1,0.1-0.1,0.1-0.1,0.1l-25.2-17.7C195.6,255.4,195.6,255.4,195.7,255.4"/>
				<path class="st11" d="M195.6,255.5l25.2,17.7c-0.1,0.1-0.1,0.1-0.1,0.1l-25.2-17.8C195.5,255.6,195.5,255.5,195.6,255.5"/>
				<path class="st11" d="M195.4,255.6l25.2,17.7c-0.1,0.1-0.1,0.1-0.1,0.1l-25.2-17.7C195.4,255.7,195.4,255.6,195.4,255.6"/>
				<path class="st10" d="M195.3,255.7l25.2,17.7c-0.1,0.1-0.1,0.1-0.1,0.1l-25.2-17.7C195.2,255.8,195.2,255.8,195.3,255.7"/>
				<path class="st9" d="M195.2,255.8l25.2,17.7c-0.1,0.1-0.1,0.1-0.1,0.1L195,255.9C195.1,255.9,195.1,255.8,195.2,255.8"/>
				<path class="st8" d="M195,255.9l25.2,17.7c-0.1,0-0.1,0.1-0.1,0.1L194.9,256C195,255.9,195,255.9,195,255.9"/>
				<path class="st7" d="M194.9,256l25.2,17.7c-0.1,0-0.1,0.1-0.1,0.1l-25.2-17.7C194.8,256,194.9,256,194.9,256"/>
				<path class="st6" d="M194.7,256.1l25.2,17.7c-0.1,0-0.1,0.1-0.1,0.1l-25.2-17.7C194.7,256.1,194.7,256.1,194.7,256.1"/>
			</g>
		</g>
	</g>
	<g class="st1">
		<g>
			<defs>
				<path id="SVGID_23_" d="M242.5,144.8l25.2,17.7c0.1,0.1,0.3,0.3,0.4,0.4l-25.2-17.7C242.8,145,242.7,144.9,242.5,144.8z"/>
			</defs>
			<clipPath id="SVGID_24_">
				<use xlink:href="#SVGID_23_"  style="overflow:visible;"/>
			</clipPath>
			<g class="st29">
				<path class="st3" d="M242.5,144.8l25.2,17.7c0.1,0.1,0.3,0.3,0.4,0.4l-25.2-17.7C242.8,145,242.7,144.9,242.5,144.8"/>
			</g>
		</g>
	</g>
	<g>
		<polygon class="st5" points="241,183.7 266.2,201.4 266.1,201.5 241,183.7 		"/>
	</g>
	<g>
		<polygon class="st3" points="241,183.7 266.1,201.5 257.5,226.4 232.3,208.6 		"/>
	</g>
	<g class="st1">
		<g>
			<defs>
				<path id="SVGID_25_" d="M227.1,269.9l-25.2-17.7c0.4,0.3,1,0.3,1.8-0.1l25.2,17.7C228.2,270.2,227.5,270.1,227.1,269.9z"/>
			</defs>
			<clipPath id="SVGID_26_">
				<use xlink:href="#SVGID_25_"  style="overflow:visible;"/>
			</clipPath>
			<g class="st30">
				<path class="st6" d="M203.8,252.1l25.2,17.7h-0.1L203.8,252.1C203.7,252.1,203.8,252.1,203.8,252.1"/>
				<path class="st6" d="M203.7,252.1l25.2,17.7c-0.1,0.1-0.2,0.1-0.3,0.1l-25.2-17.7C203.5,252.2,203.6,252.1,203.7,252.1"/>
				<path class="st5" d="M203.4,252.2l25.2,17.7c-0.4,0.1-0.8,0.1-1.1,0.1l-25.2-17.7C202.6,252.3,203,252.3,203.4,252.2"/>
				<path class="st6" d="M202.4,252.3l25.2,17.7c-0.1,0-0.1-0.1-0.2-0.1l-25.2-17.7C202.2,252.3,202.3,252.3,202.4,252.3"/>
				<path class="st6" d="M202.2,252.2l25.2,17.7c-0.1,0-0.1-0.1-0.1-0.1L202,252.1C202,252.1,202.1,252.2,202.2,252.2"/>
				<path class="st7" d="M202,252.1l25.2,17.7c0,0-0.1,0-0.1-0.1L202,252.1C202,252.1,202,252.1,202,252.1"/>
			</g>
		</g>
	</g>
	<g>
		<polygon class="st5" points="217,246.2 242.2,263.9 228.9,269.8 203.8,252.1 		"/>
	</g>
	<g>
		<polygon class="st3" points="225.4,229.1 250.6,246.9 246.5,258.9 221.3,241.2 		"/>
	</g>
	<g class="st1">
		<g>
			<defs>
				<path id="SVGID_27_" d="M221.3,241.2l25.2,17.7c-0.6,1.8-1.8,3.9-4.3,5L217,246.2C219.5,245.1,220.7,243,221.3,241.2z"/>
			</defs>
			<clipPath id="SVGID_28_">
				<use xlink:href="#SVGID_27_"  style="overflow:visible;"/>
			</clipPath>
			<g class="st31">
				<path class="st3" d="M221.3,241.2l25.2,17.7c-0.1,0.4-0.3,0.8-0.5,1.3l-25.2-17.7C221,242,221.2,241.6,221.3,241.2"/>
				<path class="st18" d="M220.8,242.4l25.2,17.7c-0.1,0.2-0.2,0.4-0.3,0.6L220.5,243C220.6,242.8,220.7,242.6,220.8,242.4"/>
				<path class="st17" d="M220.5,243l25.2,17.7c-0.1,0.1-0.2,0.3-0.3,0.4l-25.2-17.7C220.4,243.2,220.4,243.1,220.5,243"/>
				<path class="st16" d="M220.3,243.4l25.2,17.7c-0.1,0.1-0.1,0.2-0.3,0.3L220,243.7C220.1,243.6,220.2,243.5,220.3,243.4"/>
				<path class="st15" d="M220,243.7l25.2,17.7c-0.1,0.1-0.1,0.2-0.2,0.3L219.8,244C219.9,243.9,220,243.8,220,243.7"/>
				<path class="st14" d="M219.8,244l25.2,17.7c-0.1,0.1-0.1,0.2-0.2,0.3l-25.2-17.7C219.7,244.2,219.7,244.1,219.8,244"/>
				<path class="st13" d="M219.6,244.2l25.2,17.7c-0.1,0.1-0.1,0.1-0.2,0.3l-25.2-17.7C219.5,244.4,219.5,244.4,219.6,244.2"/>
				<path class="st12" d="M219.4,244.5l25.2,17.7c-0.1,0.1-0.1,0.1-0.2,0.2l-25.2-17.7C219.2,244.6,219.3,244.6,219.4,244.5"/>
				<path class="st11" d="M219.1,244.7l25.2,17.7c-0.1,0.1-0.1,0.1-0.3,0.2L219,244.9C219,244.9,219.1,244.8,219.1,244.7"/>
				<path class="st11" d="M219,244.9l25.2,17.7c-0.1,0.1-0.1,0.1-0.3,0.2l-25.2-17.7C218.8,245.1,218.8,245,219,244.9"/>
				<path class="st10" d="M218.7,245.1l25.2,17.7c-0.1,0.1-0.2,0.1-0.3,0.2l-25.2-17.7C218.5,245.3,218.6,245.2,218.7,245.1"/>
				<path class="st9" d="M218.4,245.3l25.2,17.7c-0.1,0.1-0.2,0.1-0.3,0.2l-25.2-17.7C218.3,245.5,218.3,245.4,218.4,245.3"/>
				<path class="st8" d="M218.1,245.5l25.2,17.7c-0.1,0.1-0.2,0.1-0.3,0.2l-25.2-17.7C217.9,245.6,218.1,245.6,218.1,245.5"/>
				<path class="st7" d="M217.8,245.8l25.2,17.7c-0.1,0.1-0.3,0.1-0.4,0.2L217.4,246C217.6,245.9,217.7,245.8,217.8,245.8"/>
				<path class="st6" d="M217.4,246l25.2,17.7c-0.1,0.1-0.3,0.1-0.4,0.2L217,246.2C217.2,246.1,217.3,246,217.4,246"/>
			</g>
		</g>
	</g>
	<g>
		<polygon class="st5" points="258.3,214.5 283.5,232.2 250.6,246.9 225.4,229.1 		"/>
	</g>
	<g class="st1">
		<g>
			<defs>
				<path id="SVGID_29_" d="M289.2,241.8L264,224c0.8,0.6,1.7,0.4,3.1-0.2l25.2,17.7C290.9,242.2,290,242.3,289.2,241.8z"/>
			</defs>
			<clipPath id="SVGID_30_">
				<use xlink:href="#SVGID_29_"  style="overflow:visible;"/>
			</clipPath>
			<g class="st32">
				<path class="st6" d="M267.1,223.8l25.2,17.7c-0.1,0-0.1,0.1-0.1,0.1L267,223.9C267.1,223.9,267.1,223.8,267.1,223.8"/>
				<path class="st6" d="M267,223.9l25.2,17.7c-0.3,0.1-0.5,0.2-0.8,0.3l-25.2-17.7C266.5,224.1,266.8,224,267,223.9"/>
				<path class="st5" d="M266.3,224.2l25.2,17.7c-0.6,0.2-1.1,0.3-1.6,0.1l-25.2-17.7C265.1,224.4,265.6,224.3,266.3,224.2"/>
				<path class="st6" d="M264.7,224.3l25.2,17.7c-0.1,0-0.2-0.1-0.3-0.1l-25.2-17.7C264.5,224.2,264.6,224.3,264.7,224.3"/>
				<path class="st6" d="M264.4,224.2l25.2,17.7c-0.1-0.1-0.1-0.1-0.2-0.1l-25.2-17.7C264.3,224.1,264.4,224.2,264.4,224.2"/>
				<path class="st7" d="M264.2,224.1l25.2,17.7c-0.1,0-0.1-0.1-0.1-0.1L264,224C264.1,224,264.2,224,264.2,224.1"/>
			</g>
		</g>
	</g>
	<g>
		<polygon class="st23" points="242.9,145.2 268,162.9 307.7,231.4 282.5,213.7 		"/>
	</g>
	<g>
		<polygon class="st5" points="280.6,217.9 305.7,235.6 292.3,241.6 267.1,223.8 		"/>
	</g>
	<g class="st1">
		<g>
			<defs>
				<path id="SVGID_31_" d="M282.5,213.7l25.2,17.7c0.8,1.3-0.2,3.4-2,4.2l-25.2-17.7C282.3,217,283.3,215,282.5,213.7z"/>
			</defs>
			<clipPath id="SVGID_32_">
				<use xlink:href="#SVGID_31_"  style="overflow:visible;"/>
			</clipPath>
			<g class="st33">
				<path class="st3" d="M282.5,213.7l25.2,17.7c0.4,0.7,0.3,1.6-0.1,2.4L282.5,216C282.9,215.3,282.9,214.4,282.5,213.7"/>
				<path class="st18" d="M282.5,216l25.2,17.7c-0.1,0.1-0.1,0.1-0.1,0.3l-25.2-17.7C282.4,216.2,282.5,216.1,282.5,216"/>
				<path class="st17" d="M282.3,216.3l25.2,17.7c-0.1,0.1-0.1,0.1-0.1,0.2l-25.2-17.7C282.3,216.4,282.3,216.3,282.3,216.3"/>
				<path class="st16" d="M282.2,216.5l25.2,17.7c-0.1,0.1-0.1,0.1-0.1,0.1l-25.1-17.7C282.2,216.5,282.2,216.5,282.2,216.5"/>
				<path class="st15" d="M282.2,216.6l25.2,17.7c-0.1,0.1-0.1,0.1-0.1,0.1L282,216.7C282.1,216.7,282.1,216.7,282.2,216.6"/>
				<path class="st14" d="M282,216.7l25.2,17.7c-0.1,0.1-0.1,0.1-0.1,0.1l-25.2-17.7C282,216.8,282,216.8,282,216.7"/>
				<path class="st13" d="M281.9,216.8l25.2,17.7c-0.1,0.1-0.1,0.1-0.1,0.1L281.8,217C281.8,217,281.9,216.9,281.9,216.8"/>
				<path class="st12" d="M281.8,217l25.2,17.7c-0.1,0.1-0.1,0.1-0.1,0.1l-25.2-17.7C281.7,217,281.8,217,281.8,217"/>
				<path class="st11" d="M281.7,217.1l25.2,17.7c-0.1,0.1-0.1,0.1-0.1,0.1l-25.2-17.7C281.6,217.2,281.6,217.2,281.7,217.1"/>
				<path class="st11" d="M281.6,217.2l25.2,17.7c-0.1,0.1-0.1,0.1-0.1,0.1l-25.2-17.7C281.5,217.3,281.5,217.2,281.6,217.2"/>
				<path class="st10" d="M281.5,217.4l25.2,17.7c-0.1,0.1-0.1,0.1-0.1,0.1l-25.2-17.7C281.3,217.4,281.4,217.4,281.5,217.4"/>
				<path class="st9" d="M281.3,217.4l25.2,17.7c-0.1,0.1-0.1,0.1-0.1,0.1l-25.2-17.7C281.2,217.5,281.3,217.5,281.3,217.4"/>
				<path class="st8" d="M281.1,217.5l25.2,17.7c-0.1,0.1-0.1,0.1-0.2,0.1l-25.2-17.7C281,217.6,281.1,217.6,281.1,217.5"/>
				<path class="st7" d="M280.9,217.7l25.2,17.7c-0.1,0.1-0.1,0.1-0.2,0.1l-25.2-17.7C280.8,217.7,280.9,217.7,280.9,217.7"/>
				<path class="st6" d="M280.8,217.8l25.2,17.7c-0.1,0.1-0.1,0.1-0.2,0.1l-25.2-17.8C280.6,217.9,280.7,217.8,280.8,217.8"/>
			</g>
		</g>
	</g>
	<g class="st1">
		<g>
			<defs>
				<path id="SVGID_33_" d="M305.1,118.3l25.2,17.7c0.4,0.3,0.8,0.9,0.8,1.7L305.9,120C305.9,119.3,305.6,118.7,305.1,118.3z"/>
			</defs>
			<clipPath id="SVGID_34_">
				<use xlink:href="#SVGID_33_"  style="overflow:visible;"/>
			</clipPath>
			<g class="st34">
				<path class="st3" d="M305.1,118.3l25.2,17.7c0.4,0.3,0.8,0.9,0.8,1.7L305.9,120C305.9,119.3,305.6,118.7,305.1,118.3"/>
			</g>
		</g>
	</g>
	<g>
		<polygon class="st23" points="305.9,120.1 331.1,137.8 331.8,171.1 306.6,153.4 		"/>
	</g>
	<g class="st1">
		<g>
			<defs>
				<path id="SVGID_35_" d="M352.2,97.3l25.2,17.7c0.9,0.6,1.1,2.1,0.3,3.7L352.4,101C353.2,99.4,353.1,97.9,352.2,97.3z"/>
			</defs>
			<clipPath id="SVGID_36_">
				<use xlink:href="#SVGID_35_"  style="overflow:visible;"/>
			</clipPath>
			<g class="st35">
				<path class="st3" d="M352.2,97.3l25.2,17.7c0.8,0.6,1.1,2,0.3,3.6l-25.2-17.7C353.2,99.3,353.1,97.9,352.2,97.3"/>
				<path class="st18" d="M352.5,100.9l25.2,17.7c0,0,0,0.1-0.1,0.1L352.5,100.9C352.5,101,352.5,100.9,352.5,100.9"/>
			</g>
		</g>
	</g>
	<g>
		<polygon class="st17" points="352.4,101 377.6,118.7 350.1,168.5 325,150.7 		"/>
	</g>
	<g class="st1">
		<g>
			<defs>
				<path id="SVGID_37_" d="M313.8,231.1l-25.2-17.7c0.5,0.4,1.3,0.4,2.2,0l25.2,17.7C315,231.5,314.3,231.5,313.8,231.1z"/>
			</defs>
			<clipPath id="SVGID_38_">
				<use xlink:href="#SVGID_37_"  style="overflow:visible;"/>
			</clipPath>
			<g class="st36">
				<path class="st6" d="M290.7,213.3l25.2,17.7h-0.1L290.7,213.3C290.7,213.3,290.7,213.3,290.7,213.3"/>
				<path class="st6" d="M290.7,213.3l25.2,17.7c-0.1,0.1-0.3,0.1-0.3,0.1l-25.2-17.7C290.5,213.5,290.5,213.4,290.7,213.3"/>
				<path class="st5" d="M290.4,213.5l25.2,17.7c-0.4,0.1-0.9,0.2-1.3,0.1l-25.2-17.7C289.5,213.7,289.8,213.6,290.4,213.5"/>
				<path class="st6" d="M289.1,213.5l25.2,17.7c-0.1,0-0.2-0.1-0.3-0.1l-25.2-17.7C288.9,213.5,289,213.5,289.1,213.5"/>
				<path class="st6" d="M288.8,213.5l25.2,17.7c-0.1,0-0.1-0.1-0.2-0.1l-25.2-17.7C288.7,213.4,288.8,213.4,288.8,213.5"/>
				<path class="st7" d="M288.6,213.3l25.2,17.7l-0.1-0.1L288.6,213.3C288.6,213.3,288.6,213.3,288.6,213.3"/>
			</g>
		</g>
	</g>
	<g>
		<polygon class="st23" points="306.9,165 332.1,182.7 332.9,220.5 307.7,202.7 		"/>
	</g>
	<g>
		<polygon class="st5" points="304.9,207.1 330,224.8 315.9,231.1 290.7,213.3 		"/>
	</g>
	<g class="st1">
		<g>
			<defs>
				<path id="SVGID_39_" d="M307.7,202.7l25.2,17.7c0.1,1.7-1.3,3.6-2.9,4.3l-25.2-17.7C306.4,206.4,307.7,204.4,307.7,202.7z"/>
			</defs>
			<clipPath id="SVGID_40_">
				<use xlink:href="#SVGID_39_"  style="overflow:visible;"/>
			</clipPath>
			<g class="st37">
				<path class="st3" d="M307.7,202.7l25.2,17.7c0,0.6-0.2,1.3-0.5,1.9l-25.2-17.7C307.5,204,307.7,203.4,307.7,202.7"/>
				<path class="st18" d="M307.2,204.6l25.2,17.7c-0.1,0.1-0.1,0.3-0.2,0.4L307,205C307.1,204.9,307.1,204.8,307.2,204.6"/>
				<path class="st17" d="M307,205l25.2,17.7c-0.1,0.1-0.1,0.2-0.2,0.3l-25.2-17.7C307,205.2,307,205.1,307,205"/>
				<path class="st16" d="M306.9,205.3l25.2,17.7c-0.1,0.1-0.1,0.1-0.2,0.3l-25.2-17.7C306.8,205.4,306.8,205.3,306.9,205.3"/>
				<path class="st15" d="M306.7,205.5l25.2,17.7c-0.1,0.1-0.1,0.1-0.1,0.2l-25.2-17.7C306.6,205.7,306.6,205.6,306.7,205.5"/>
				<path class="st14" d="M306.6,205.7l25.2,17.7c-0.1,0.1-0.1,0.1-0.1,0.2l-25.2-17.7C306.4,205.8,306.5,205.8,306.6,205.7"/>
				<path class="st13" d="M306.4,205.9l25.2,17.7c-0.1,0.1-0.1,0.1-0.1,0.2l-25.2-17.7C306.3,206,306.3,205.9,306.4,205.9"/>
				<path class="st12" d="M306.3,206l25.2,17.7c-0.1,0.1-0.1,0.1-0.1,0.1l-25.2-17.7C306.1,206.2,306.2,206.1,306.3,206"/>
				<path class="st11" d="M306.1,206.2l25.2,17.7c-0.1,0.1-0.1,0.1-0.1,0.1l-25.2-17.7C306,206.3,306.1,206.2,306.1,206.2"/>
				<path class="st11" d="M305.9,206.4l25.2,17.7c-0.1,0.1-0.1,0.1-0.1,0.1l-25.2-17.7C305.8,206.4,305.9,206.4,305.9,206.4"/>
				<path class="st10" d="M305.8,206.5l25.2,17.7c-0.1,0.1-0.1,0.1-0.2,0.1l-25.2-17.7C305.7,206.5,305.7,206.5,305.8,206.5"/>
				<path class="st9" d="M305.6,206.6l25.2,17.7c-0.1,0.1-0.1,0.1-0.2,0.1l-25.2-17.7C305.5,206.7,305.6,206.7,305.6,206.6"/>
				<path class="st8" d="M305.4,206.7l25.2,17.7c-0.1,0.1-0.1,0.1-0.2,0.1l-25.2-17.7C305.3,206.8,305.4,206.7,305.4,206.7"/>
				<path class="st7" d="M305.2,206.9l25.2,17.7c-0.1,0.1-0.1,0.1-0.2,0.1L305,207C305.1,206.9,305.2,206.9,305.2,206.9"/>
				<path class="st6" d="M305,206.9l25.2,17.7c-0.1,0.1-0.1,0.1-0.2,0.1l-25.2-17.7C304.9,207,305,207,305,206.9"/>
			</g>
		</g>
	</g>
	<g class="st1">
		<g>
			<defs>
				<path id="SVGID_41_" d="M360.9,210.1l-25.2-17.7c0.3,0.3,1.3,0.3,2.2-0.1L363,210C362.2,210.4,361.2,210.4,360.9,210.1z"/>
			</defs>
			<clipPath id="SVGID_42_">
				<use xlink:href="#SVGID_41_"  style="overflow:visible;"/>
			</clipPath>
			<g class="st38">
				<path class="st6" d="M337.9,192.2L363,210c0,0,0,0-0.1,0L337.9,192.2C337.8,192.2,337.8,192.2,337.9,192.2"/>
				<path class="st6" d="M337.8,192.2L363,210c-0.1,0.1-0.2,0.1-0.3,0.1l-25.2-17.7C337.6,192.3,337.7,192.3,337.8,192.2"/>
				<path class="st5" d="M337.5,192.4l25.2,17.7c-0.6,0.2-1.2,0.2-1.6,0.1l-25.2-17.7C336.3,192.6,336.9,192.6,337.5,192.4"/>
				<path class="st6" d="M335.9,192.5l25.2,17.7c-0.1,0-0.1,0-0.1-0.1l-25.2-17.7C335.8,192.4,335.9,192.4,335.9,192.5"/>
				<path class="st6" d="M335.8,192.4l25.2,17.7c0,0-0.1,0-0.1-0.1L335.8,192.4C335.8,192.4,335.8,192.4,335.8,192.4"/>
				<path class="st7" d="M335.7,192.4l25.2,17.7l0,0L335.7,192.4L335.7,192.4"/>
			</g>
		</g>
	</g>
	<g>
		<polygon class="st23" points="325,150.7 350.1,168.5 381.9,196.9 356.7,179.1 		"/>
	</g>
	<g>
		<polygon class="st5" points="354.5,184.8 379.7,202.6 363,210 337.9,192.2 		"/>
	</g>
	<g class="st1">
		<g>
			<defs>
				<path id="SVGID_43_" d="M356.7,179.1l25.2,17.7c1.3,1.3,0.1,4.7-2.2,5.7l-25.1-17.7C356.8,183.8,358.1,180.4,356.7,179.1z"/>
			</defs>
			<clipPath id="SVGID_44_">
				<use xlink:href="#SVGID_43_"  style="overflow:visible;"/>
			</clipPath>
			<g class="st39">
				<path class="st3" d="M356.7,179.1l25.2,17.7c0.8,0.8,0.7,2.2,0.1,3.4l-25.2-17.7C357.4,181.2,357.4,179.8,356.7,179.1"/>
				<path class="st18" d="M356.8,182.5l25.2,17.7c-0.1,0.1-0.1,0.3-0.2,0.3l-25.2-17.7C356.7,182.8,356.7,182.6,356.8,182.5"/>
				<path class="st17" d="M356.6,182.8l25.2,17.7c-0.1,0.1-0.1,0.2-0.2,0.3l-25.2-17.7C356.5,183,356.5,183,356.6,182.8"/>
				<path class="st16" d="M356.4,183.1l25.2,17.7c-0.1,0.1-0.1,0.1-0.1,0.2l-25.2-17.7C356.4,183.3,356.4,183.2,356.4,183.1"/>
				<path class="st15" d="M356.3,183.3l25.2,17.7c-0.1,0.1-0.1,0.1-0.1,0.2l-25.2-17.7C356.2,183.5,356.2,183.4,356.3,183.3"/>
				<path class="st14" d="M356.2,183.5l25.2,17.7c-0.1,0.1-0.1,0.1-0.1,0.2L356,183.7C356,183.7,356.1,183.6,356.2,183.5"/>
				<path class="st13" d="M356,183.7l25.2,17.7c-0.1,0.1-0.1,0.1-0.1,0.1l-25.2-17.7C355.9,183.8,356,183.7,356,183.7"/>
				<path class="st12" d="M355.8,183.8l25.2,17.7c-0.1,0.1-0.1,0.1-0.1,0.1L355.7,184C355.8,184,355.8,183.9,355.8,183.8"/>
				<path class="st11" d="M355.7,184l25.2,17.7c-0.1,0.1-0.1,0.1-0.1,0.1l-25.2-17.7C355.6,184.1,355.7,184,355.7,184"/>
				<path class="st11" d="M355.6,184.1l25.2,17.7c-0.1,0.1-0.1,0.1-0.1,0.1l-25.2-17.7C355.5,184.2,355.5,184.2,355.6,184.1"/>
				<path class="st10" d="M355.4,184.2l25.2,17.7c-0.1,0.1-0.1,0.1-0.1,0.1l-25.2-17.7C355.3,184.4,355.3,184.3,355.4,184.2"/>
				<path class="st9" d="M355.3,184.4l25.2,17.7c-0.1,0.1-0.1,0.1-0.2,0.1l-25.2-17.7C355.1,184.5,355.2,184.4,355.3,184.4"/>
				<path class="st8" d="M355.1,184.5l25.2,17.7c-0.1,0.1-0.1,0.1-0.2,0.1l-25.2-17.7C355,184.5,355,184.5,355.1,184.5"/>
				<path class="st7" d="M354.9,184.6l25.2,17.7c-0.1,0.1-0.1,0.1-0.2,0.1l-25.2-17.7C354.8,184.7,354.8,184.7,354.9,184.6"/>
				<path class="st6" d="M354.7,184.7l25.2,17.7c-0.1,0.1-0.1,0.1-0.2,0.1l-25.2-17.7C354.6,184.8,354.6,184.7,354.7,184.7"/>
			</g>
		</g>
	</g>
	<g>
		<polygon class="st23" points="380.4,102.6 405.6,120.4 405.9,136.1 380.7,118.3 		"/>
	</g>
	<g class="st1">
		<g>
			<defs>
				<path id="SVGID_45_" d="M415.2,69.1l25.2,17.7c0.4,0.3,0.6,0.8,0.6,1.3l-25.2-17.7C415.7,69.9,415.6,69.4,415.2,69.1z"/>
			</defs>
			<clipPath id="SVGID_46_">
				<use xlink:href="#SVGID_45_"  style="overflow:visible;"/>
			</clipPath>
			<g class="st40">
				<path class="st3" d="M415.2,69.1l25.2,17.7c0.4,0.3,0.6,0.8,0.6,1.3l-25.2-17.7C415.7,69.9,415.6,69.4,415.2,69.1"/>
			</g>
		</g>
	</g>
	<g>
		<polygon class="st23" points="415.8,70.5 440.9,88.3 441.2,102.1 416.1,84.3 		"/>
	</g>
	<g>
		<polygon class="st5" points="413.8,87.8 439,105.5 405.6,120.4 380.4,102.6 		"/>
	</g>
	<g class="st1">
		<g>
			<defs>
				<path id="SVGID_47_" d="M416.1,84.3l25.2,17.7c0,1.3-0.9,2.9-2.2,3.4l-25.2-17.7C415.2,87.1,416.1,85.6,416.1,84.3z"/>
			</defs>
			<clipPath id="SVGID_48_">
				<use xlink:href="#SVGID_47_"  style="overflow:visible;"/>
			</clipPath>
			<g class="st41">
				<path class="st3" d="M416.1,84.3l25.2,17.7c0,0.5-0.1,1.1-0.4,1.6l-25.2-17.7C415.9,85.3,416.1,84.8,416.1,84.3"/>
				<path class="st18" d="M415.7,85.9l25.2,17.8c-0.1,0.1-0.1,0.2-0.1,0.3l-25.2-17.7C415.6,86,415.7,86,415.7,85.9"/>
				<path class="st17" d="M415.6,86.2l25.2,17.7c-0.1,0.1-0.1,0.1-0.1,0.2l-25.2-17.7C415.5,86.3,415.5,86.2,415.6,86.2"/>
				<path class="st16" d="M415.4,86.4l25.2,17.7c-0.1,0.1-0.1,0.1-0.1,0.2l-25.2-17.7C415.4,86.5,415.4,86.4,415.4,86.4"/>
				<path class="st15" d="M415.3,86.6l25.2,17.7c-0.1,0.1-0.1,0.1-0.1,0.1l-25.2-17.7C415.2,86.6,415.2,86.6,415.3,86.6"/>
				<path class="st14" d="M415.2,86.7l25.2,17.7c-0.1,0.1-0.1,0.1-0.1,0.1L415,86.8C415.1,86.7,415.2,86.7,415.2,86.7"/>
				<path class="st13" d="M415,86.8l25.2,17.7c-0.1,0.1-0.1,0.1-0.1,0.1l-25.2-17.7C415,86.9,415,86.9,415,86.8"/>
				<path class="st12" d="M415,86.9l25.1,17.7c-0.1,0.1-0.1,0.1-0.1,0.1l-25.2-17.7C414.9,87,414.9,87,415,86.9"/>
				<path class="st11" d="M414.9,87.1l25.2,17.7c-0.1,0.1-0.1,0.1-0.1,0.1l-25.2-17.7C414.7,87.1,414.8,87.1,414.9,87.1"/>
				<path class="st11" d="M414.7,87.2l25.2,17.7c-0.1,0.1-0.1,0.1-0.1,0.1l-25.2-17.7C414.7,87.3,414.7,87.2,414.7,87.2"/>
				<path class="st10" d="M414.6,87.3l25.2,17.7c-0.1,0.1-0.1,0.1-0.1,0.1l-25.2-17.7C414.5,87.3,414.5,87.3,414.6,87.3"/>
				<path class="st9" d="M414.5,87.4l25.2,17.7c-0.1,0.1-0.1,0.1-0.1,0.1l-25.2-17.7C414.3,87.4,414.4,87.4,414.5,87.4"/>
				<path class="st8" d="M414.3,87.4l25.2,17.7c-0.1,0.1-0.1,0.1-0.1,0.1l-25.2-17.7C414.2,87.5,414.3,87.5,414.3,87.4"/>
				<path class="st7" d="M414.2,87.6l25.2,17.7c-0.1,0.1-0.1,0.1-0.2,0.1L414,87.6C414.1,87.6,414.1,87.6,414.2,87.6"/>
				<path class="st6" d="M414,87.6l25.2,17.7c-0.1,0-0.1,0.1-0.2,0.1l-25.2-17.7C413.9,87.7,414,87.7,414,87.6"/>
			</g>
		</g>
	</g>
	<g class="st1">
		<g>
			<defs>
				<path id="SVGID_49_" d="M410,106.2l25.2,17.7c0.4,0.3,0.6,0.7,0.6,1.3l-25.2-17.7C410.6,106.9,410.3,106.5,410,106.2z"/>
			</defs>
			<clipPath id="SVGID_50_">
				<use xlink:href="#SVGID_49_"  style="overflow:visible;"/>
			</clipPath>
			<g class="st42">
				<path class="st3" d="M410,106.2l25.2,17.7c0.4,0.3,0.6,0.7,0.6,1.3l-25.2-17.7C410.6,106.9,410.3,106.5,410,106.2"/>
			</g>
		</g>
	</g>
	<g>
		<polygon class="st23" points="381.2,137 406.3,154.8 406.7,171.9 381.5,154.1 		"/>
	</g>
	<g class="st1">
		<g>
			<defs>
				<path id="SVGID_51_" d="M388.8,197.8l-25.2-17.7c0.4,0.3,1,0.3,1.7,0.1l25.2,17.7C389.8,198.2,389.2,198.1,388.8,197.8z"/>
			</defs>
			<clipPath id="SVGID_52_">
				<use xlink:href="#SVGID_51_"  style="overflow:visible;"/>
			</clipPath>
			<g class="st43">
				<path class="st6" d="M365.4,180.1l25.2,17.7c0,0,0,0-0.1,0L365.4,180.1C365.3,180.2,365.3,180.1,365.4,180.1"/>
				<path class="st6" d="M365.3,180.2l25.2,17.7c-0.1,0.1-0.2,0.1-0.3,0.1l-25.2-17.7C365.1,180.2,365.3,180.2,365.3,180.2"/>
				<path class="st5" d="M365.1,180.2l25.2,17.7c-0.4,0.1-0.7,0.1-1,0.1l-25.2-17.7C364.4,180.3,364.7,180.3,365.1,180.2"/>
				<path class="st6" d="M364.1,180.3l25.2,17.7c-0.1,0-0.1-0.1-0.2-0.1l-25.2-17.7C363.9,180.2,364,180.3,364.1,180.3"/>
				<path class="st6" d="M363.9,180.2L389,198c-0.1,0-0.1-0.1-0.1-0.1l-25.2-17.7C363.7,180.2,363.8,180.2,363.9,180.2"/>
				<path class="st7" d="M363.7,180.2l25.2,17.7c0,0-0.1,0-0.1-0.1L363.7,180.2C363.7,180.1,363.7,180.1,363.7,180.2"/>
			</g>
		</g>
	</g>
	<g>
		<polygon class="st23" points="410.6,107.5 435.8,125.2 436.1,139.1 410.9,121.3 		"/>
	</g>
	<g>
		<polygon class="st5" points="408.7,124.7 433.9,142.5 406.3,154.8 381.2,137 		"/>
	</g>
	<g class="st1">
		<g>
			<defs>
				<path id="SVGID_53_" d="M410.9,121.3l25.2,17.7c0,1.4-1,2.9-2.2,3.4l-25.2-17.7C409.9,124.2,410.9,122.7,410.9,121.3z"/>
			</defs>
			<clipPath id="SVGID_54_">
				<use xlink:href="#SVGID_53_"  style="overflow:visible;"/>
			</clipPath>
			<g class="st44">
				<path class="st3" d="M410.9,121.3l25.2,17.7c0,0.5-0.1,1.1-0.4,1.5l-25.2-17.7C410.8,122.4,410.9,121.8,410.9,121.3"/>
				<path class="st18" d="M410.5,122.9l25.2,17.7c-0.1,0.1-0.1,0.2-0.1,0.3l-25.2-17.7C410.5,123.1,410.5,122.9,410.5,122.9"/>
				<path class="st17" d="M410.4,123.1l25.2,17.7c-0.1,0.1-0.1,0.1-0.1,0.2l-25.2-17.7C410.3,123.2,410.3,123.2,410.4,123.1"/>
				<path class="st16" d="M410.3,123.3l25.2,17.7c-0.1,0.1-0.1,0.1-0.1,0.2l-25.2-17.7C410.2,123.4,410.2,123.4,410.3,123.3"/>
				<path class="st15" d="M410.2,123.5l25.2,17.7c-0.1,0.1-0.1,0.1-0.1,0.1L410,123.6C410.1,123.6,410.1,123.6,410.2,123.5"/>
				<path class="st14" d="M410,123.6l25.2,17.7c-0.1,0.1-0.1,0.1-0.1,0.1l-25.2-17.7C410,123.8,410,123.7,410,123.6"/>
				<path class="st13" d="M409.9,123.8l25.2,17.7c-0.1,0.1-0.1,0.1-0.1,0.1l-25.2-17.7C409.8,123.9,409.8,123.8,409.9,123.8"/>
				<path class="st12" d="M409.8,123.9l25.2,17.7c-0.1,0.1-0.1,0.1-0.1,0.1l-25.2-17.7C409.7,124,409.8,123.9,409.8,123.9"/>
				<path class="st11" d="M409.6,124.1l25.2,17.7c-0.1,0.1-0.1,0.1-0.1,0.1l-25.2-17.7C409.6,124.1,409.6,124.1,409.6,124.1"/>
				<path class="st11" d="M409.5,124.1l25.2,17.7c-0.1,0.1-0.1,0.1-0.1,0.1l-25.2-17.7C409.5,124.3,409.5,124.2,409.5,124.1"/>
				<path class="st10" d="M409.4,124.3l25.2,17.7c-0.1,0.1-0.1,0.1-0.1,0.1l-25.2-17.7C409.3,124.3,409.4,124.3,409.4,124.3"/>
				<path class="st9" d="M409.3,124.4l25.2,17.7c-0.1,0.1-0.1,0.1-0.1,0.1l-25.2-17.7C409.2,124.5,409.3,124.4,409.3,124.4"/>
				<path class="st8" d="M409.1,124.5l25.2,17.7c-0.1,0.1-0.1,0.1-0.1,0.1L409,124.5C409.1,124.5,409.1,124.5,409.1,124.5"/>
				<path class="st7" d="M409,124.6l25.2,17.7c-0.1,0.1-0.1,0.1-0.2,0.1l-25.2-17.7C408.9,124.6,408.9,124.6,409,124.6"/>
				<path class="st6" d="M408.8,124.6l25.2,17.7c-0.1,0-0.1,0.1-0.1,0.1l-25.2-17.7C408.8,124.7,408.8,124.7,408.8,124.6"/>
			</g>
		</g>
	</g>
	<g class="st1">
		<g>
			<defs>
				<path id="SVGID_55_" d="M416.7,139.3l25.2,17.7c0.4,0.3,0.6,0.8,0.6,1.3l-25.2-17.7C417.3,140,417.1,139.5,416.7,139.3z"/>
			</defs>
			<clipPath id="SVGID_56_">
				<use xlink:href="#SVGID_55_"  style="overflow:visible;"/>
			</clipPath>
			<g class="st45">
				<path class="st3" d="M416.7,139.3l25.2,17.7c0.4,0.3,0.6,0.8,0.6,1.3l-25.2-17.7C417.3,140,417.1,139.5,416.7,139.3"/>
			</g>
		</g>
	</g>
	<g>
		<polygon class="st23" points="417.3,140.6 442.5,158.3 442.8,172.2 417.6,154.4 		"/>
	</g>
	<g>
		<polygon class="st5" points="415.4,157.8 440.5,175.6 390.5,197.9 365.4,180.1 		"/>
	</g>
	<g class="st1">
		<g>
			<defs>
				<path id="SVGID_57_" d="M417.6,154.4l25.2,17.7c0,1.3-0.9,2.9-2.2,3.4l-25.2-17.7C416.7,157.3,417.7,155.7,417.6,154.4z"/>
			</defs>
			<clipPath id="SVGID_58_">
				<use xlink:href="#SVGID_57_"  style="overflow:visible;"/>
			</clipPath>
			<g class="st46">
				<path class="st3" d="M417.6,154.4l25.2,17.7c0,0.5-0.1,1-0.4,1.6L417.2,156C417.5,155.5,417.6,154.9,417.6,154.4"/>
				<path class="st18" d="M417.2,156l25.2,17.7c-0.1,0.1-0.1,0.2-0.1,0.3l-25.2-17.7C417.1,156.2,417.1,156.1,417.2,156"/>
				<path class="st17" d="M417.1,156.2l25.2,17.7c-0.1,0.1-0.1,0.1-0.1,0.2L417,156.4C417,156.4,417,156.3,417.1,156.2"/>
				<path class="st16" d="M417,156.4l25.2,17.7c-0.1,0.1-0.1,0.1-0.1,0.2l-25.2-17.7C416.9,156.6,416.9,156.5,417,156.4"/>
				<path class="st15" d="M416.8,156.6l25.2,17.7c-0.1,0.1-0.1,0.1-0.1,0.1l-25.2-17.7C416.8,156.8,416.8,156.7,416.8,156.6"/>
				<path class="st14" d="M416.7,156.8l25.2,17.7c-0.1,0.1-0.1,0.1-0.1,0.1l-25.2-17.7C416.6,156.9,416.6,156.8,416.7,156.8"/>
				<path class="st13" d="M416.6,156.9l25.2,17.7c-0.1,0.1-0.1,0.1-0.1,0.1l-25.2-17.7C416.5,157,416.6,156.9,416.6,156.9"/>
				<path class="st12" d="M416.4,157.1l25.2,17.7c-0.1,0.1-0.1,0.1-0.1,0.1l-25.2-17.7C416.4,157.1,416.4,157.1,416.4,157.1"/>
				<path class="st11" d="M416.4,157.1l25.2,17.7c-0.1,0.1-0.1,0.1-0.1,0.1l-25.2-17.7C416.3,157.3,416.3,157.2,416.4,157.1"/>
				<path class="st11" d="M416.3,157.3l25.2,17.7c-0.1,0.1-0.1,0.1-0.1,0.1l-25.2-17.7C416.1,157.3,416.2,157.3,416.3,157.3"/>
				<path class="st10" d="M416.1,157.4l25.2,17.7c-0.1,0.1-0.1,0.1-0.1,0.1L416,157.5C416,157.5,416.1,157.4,416.1,157.4"/>
				<path class="st9" d="M416,157.5l25.2,17.7c-0.1,0.1-0.1,0.1-0.1,0.1l-25.2-17.7C415.9,157.5,415.9,157.5,416,157.5"/>
				<path class="st8" d="M415.9,157.6l25.2,17.7c-0.1,0.1-0.1,0.1-0.1,0.1l-25.2-17.7C415.7,157.6,415.8,157.6,415.9,157.6"/>
				<path class="st7" d="M415.7,157.6l25.2,17.7c-0.1,0.1-0.1,0.1-0.2,0.1l-25.2-17.7C415.6,157.8,415.6,157.7,415.7,157.6"/>
				<path class="st6" d="M415.5,157.8l25.2,17.7c-0.1,0-0.1,0.1-0.2,0.1l-25.2-17.7C415.4,157.8,415.5,157.8,415.5,157.8"/>
			</g>
		</g>
	</g>
	<g class="st1">
		<g>
			<defs>
				<path id="SVGID_59_" d="M143.8,293.8l25.2,17.7c0.4,0.3,0.6,0.7,0.6,1.3l-25.2-17.7C144.4,294.6,144.2,294.2,143.8,293.8z"/>
			</defs>
			<clipPath id="SVGID_60_">
				<use xlink:href="#SVGID_59_"  style="overflow:visible;"/>
			</clipPath>
			<g class="st47">
				<path class="st3" d="M143.8,293.8l25.2,17.7c0.4,0.3,0.6,0.7,0.6,1.3l-25.2-17.7C144.4,294.6,144.2,294.2,143.8,293.8"/>
			</g>
		</g>
	</g>
	<g class="st1">
		<g>
			<defs>
				<path id="SVGID_61_" d="M153,406.6l-25.1-17.7c0.4,0.3,1.1,0.4,1.7,0.1l25.2,17.7C154,407,153.4,407,153,406.6z"/>
			</defs>
			<clipPath id="SVGID_62_">
				<use xlink:href="#SVGID_61_"  style="overflow:visible;"/>
			</clipPath>
			<g class="st48">
				<path class="st6" d="M129.5,389l25.2,17.7c0,0,0,0-0.1,0L129.5,389L129.5,389"/>
				<path class="st6" d="M129.5,389l25.2,17.7c-0.1,0.1-0.1,0.1-0.3,0.1l-25.2-17.7C129.4,389,129.4,389,129.5,389"/>
				<path class="st5" d="M129.2,389.1l25.2,17.7c-0.4,0.1-0.7,0.1-1,0.1l-25.2-17.7C128.5,389.2,128.9,389.2,129.2,389.1"/>
				<path class="st6" d="M128.3,389.1l25.2,17.7c-0.1,0-0.1-0.1-0.2-0.1L128,389C128.1,389.1,128.2,389.1,128.3,389.1"/>
				<path class="st6" d="M128,389l25.2,17.7c-0.1,0-0.1-0.1-0.1-0.1L127.9,389C128,389,128,389,128,389"/>
				<path class="st7" d="M127.9,389l25.2,17.7l-0.1-0.1L127.9,389C127.8,388.9,127.8,389,127.9,389"/>
			</g>
		</g>
	</g>
	<g>
		<polygon class="st23" points="144.4,295.2 169.6,312.9 171.4,396.9 146.3,379.1 		"/>
	</g>
	<g>
		<polygon class="st5" points="144,382.5 169.2,400.3 154.7,406.8 129.5,389 		"/>
	</g>
	<g class="st1">
		<g>
			<defs>
				<path id="SVGID_63_" d="M146.3,379.1l25.2,17.7c0,1.3-1,2.9-2.2,3.4L144,382.5C145.2,382,146.3,380.4,146.3,379.1z"/>
			</defs>
			<clipPath id="SVGID_64_">
				<use xlink:href="#SVGID_63_"  style="overflow:visible;"/>
			</clipPath>
			<g class="st49">
				<path class="st3" d="M146.3,379.1l25.2,17.7c0,0.4-0.1,1-0.4,1.5l-25.2-17.7C146.1,380.1,146.3,379.6,146.3,379.1"/>
				<path class="st18" d="M145.9,380.6l25.2,17.7c-0.1,0.1-0.1,0.2-0.1,0.3L145.8,381C145.8,380.8,145.8,380.7,145.9,380.6"/>
				<path class="st17" d="M145.7,380.9l25.2,17.7c-0.1,0.1-0.1,0.1-0.1,0.3l-25.2-17.7C145.6,381,145.6,381,145.7,380.9"/>
				<path class="st16" d="M145.6,381.1l25.2,17.7c-0.1,0.1-0.1,0.1-0.1,0.2l-25.2-17.7C145.5,381.3,145.5,381.2,145.6,381.1"/>
				<path class="st15" d="M145.4,381.3l25.2,17.7c-0.1,0.1-0.1,0.1-0.1,0.2l-25.2-17.7C145.4,381.4,145.4,381.4,145.4,381.3"/>
				<path class="st14" d="M145.3,381.5l25.2,17.7c-0.1,0.1-0.1,0.1-0.1,0.1l-25.2-17.7C145.3,381.6,145.3,381.5,145.3,381.5"/>
				<path class="st13" d="M145.2,381.7l25.2,17.7c-0.1,0.1-0.1,0.1-0.1,0.1l-25.2-17.7C145.1,381.7,145.1,381.7,145.2,381.7"/>
				<path class="st12" d="M145.1,381.8l25.2,17.7c-0.1,0.1-0.1,0.1-0.1,0.1l-25.2-17.7C145,381.8,145,381.8,145.1,381.8"/>
				<path class="st11" d="M144.9,381.9l25.2,17.7c-0.1,0.1-0.1,0.1-0.1,0.1L144.8,382C144.9,382,144.9,381.9,144.9,381.9"/>
				<path class="st11" d="M144.8,382l25.2,17.7c-0.1,0.1-0.1,0.1-0.1,0.1l-25.2-17.7C144.7,382.1,144.7,382,144.8,382"/>
				<path class="st10" d="M144.7,382.1l25.2,17.7c-0.1,0.1-0.1,0.1-0.1,0.1l-25.2-17.7C144.6,382.2,144.6,382.2,144.7,382.1"/>
				<path class="st9" d="M144.6,382.2l25.2,17.7c-0.1,0.1-0.1,0.1-0.1,0.1l-25.2-17.7C144.5,382.3,144.5,382.2,144.6,382.2"/>
				<path class="st8" d="M144.4,382.3l25.2,17.7c-0.1,0-0.1,0.1-0.1,0.1l-25.2-17.7C144.4,382.4,144.4,382.4,144.4,382.3"/>
				<path class="st7" d="M144.3,382.4l25.2,17.7c-0.1,0-0.1,0.1-0.1,0.1l-25.2-17.7C144.2,382.4,144.2,382.4,144.3,382.4"/>
				<path class="st6" d="M144.2,382.5l25.2,17.7c-0.1,0-0.1,0.1-0.1,0.1L144,382.5C144,382.5,144.1,382.5,144.2,382.5"/>
			</g>
		</g>
	</g>
	<g class="st1">
		<g>
			<defs>
				<path id="SVGID_65_" d="M176.5,325.4l-25.2-17.7c0.4,0.3,1,0.3,1.7,0.1l25.2,17.7C177.5,325.8,176.9,325.8,176.5,325.4z"/>
			</defs>
			<clipPath id="SVGID_66_">
				<use xlink:href="#SVGID_65_"  style="overflow:visible;"/>
			</clipPath>
			<g class="st50">
				<path class="st6" d="M153,307.8l25.2,17.7c0,0,0,0-0.1,0L153,307.8L153,307.8"/>
				<path class="st6" d="M153,307.8l25.2,17.7c-0.1,0.1-0.2,0.1-0.3,0.1l-25.2-17.7C152.8,307.8,152.9,307.8,153,307.8"/>
				<path class="st5" d="M152.7,307.8l25.2,17.7c-0.4,0.1-0.7,0.1-1,0.1l-25.2-17.7C152,308,152.3,308,152.7,307.8"/>
				<path class="st6" d="M151.7,307.9l25.2,17.7c-0.1,0-0.1-0.1-0.2-0.1l-25.2-17.7C151.6,307.8,151.6,307.9,151.7,307.9"/>
				<path class="st6" d="M151.5,307.8l25.2,17.7c-0.1,0-0.1-0.1-0.1-0.1l-25.2-17.7C151.4,307.8,151.5,307.8,151.5,307.8"/>
				<path class="st7" d="M151.4,307.8l25.2,17.7c0,0-0.1,0-0.1-0.1L151.4,307.8C151.3,307.7,151.4,307.8,151.4,307.8"/>
			</g>
		</g>
	</g>
	<g>
		<polygon class="st5" points="170.3,300.1 195.4,317.8 178.2,325.5 153,307.8 		"/>
	</g>
	<g class="st1">
		<g>
			<defs>
				<path id="SVGID_67_" d="M208,265.3l25.2,17.7c0.4,0.3,0.6,0.8,0.6,1.3l-25.2-17.7C208.6,266,208.3,265.5,208,265.3z"/>
			</defs>
			<clipPath id="SVGID_68_">
				<use xlink:href="#SVGID_67_"  style="overflow:visible;"/>
			</clipPath>
			<g class="st51">
				<path class="st3" d="M208,265.3l25.2,17.7c0.4,0.3,0.6,0.8,0.6,1.3l-25.2-17.7C208.6,266,208.3,265.5,208,265.3"/>
			</g>
		</g>
	</g>
	<g>
		<polygon class="st23" points="208.6,266.6 233.8,284.4 234,298.2 208.9,280.4 		"/>
	</g>
	<g>
		<polygon class="st5" points="206.6,283.9 231.8,301.6 214.5,309.3 189.4,291.6 		"/>
	</g>
	<g class="st1">
		<g>
			<defs>
				<path id="SVGID_69_" d="M208.9,280.4l25.2,17.7c0,1.3-0.9,2.9-2.2,3.4l-25.2-17.7C208,283.3,208.9,281.7,208.9,280.4z"/>
			</defs>
			<clipPath id="SVGID_70_">
				<use xlink:href="#SVGID_69_"  style="overflow:visible;"/>
			</clipPath>
			<g class="st52">
				<path class="st3" d="M208.9,280.4l25.2,17.7c0,0.5-0.1,1-0.4,1.6L208.5,282C208.7,281.5,208.9,280.9,208.9,280.4"/>
				<path class="st18" d="M208.5,282l25.2,17.7c-0.1,0.1-0.1,0.2-0.1,0.3l-25.2-17.7C208.4,282.2,208.5,282.1,208.5,282"/>
				<path class="st17" d="M208.3,282.3l25.2,17.7c-0.1,0.1-0.1,0.1-0.1,0.2l-25.2-17.7C208.3,282.4,208.3,282.3,208.3,282.3"/>
				<path class="st16" d="M208.2,282.5l25.2,17.7c-0.1,0.1-0.1,0.1-0.1,0.2l-25.2-17.7C208.1,282.6,208.2,282.5,208.2,282.5"/>
				<path class="st15" d="M208.1,282.7l25.2,17.7c-0.1,0.1-0.1,0.1-0.1,0.1L208,282.8C208,282.8,208.1,282.7,208.1,282.7"/>
				<path class="st14" d="M208,282.8l25.2,17.7c-0.1,0.1-0.1,0.1-0.1,0.1l-25.2-17.7C207.9,282.9,208,282.8,208,282.8"/>
				<path class="st13" d="M207.9,283l25.2,17.7c-0.1,0.1-0.1,0.1-0.1,0.1l-25.2-17.7C207.8,283,207.8,283,207.9,283"/>
				<path class="st12" d="M207.8,283l25.2,17.7c-0.1,0.1-0.1,0.1-0.1,0.1l-25.2-17.7C207.7,283.2,207.7,283.1,207.8,283"/>
				<path class="st11" d="M207.6,283.2l25.2,17.7c-0.1,0.1-0.1,0.1-0.1,0.1l-25.2-17.7C207.6,283.3,207.6,283.2,207.6,283.2"/>
				<path class="st11" d="M207.5,283.3l25.2,17.7c-0.1,0.1-0.1,0.1-0.1,0.1l-25.2-17.7C207.4,283.4,207.4,283.4,207.5,283.3"/>
				<path class="st10" d="M207.4,283.4l25.2,17.7c-0.1,0.1-0.1,0.1-0.1,0.1l-25.2-17.7C207.3,283.5,207.3,283.4,207.4,283.4"/>
				<path class="st9" d="M207.3,283.5l25.2,17.7c-0.1,0.1-0.1,0.1-0.1,0.1l-25.2-17.7C207.2,283.5,207.2,283.5,207.3,283.5"/>
				<path class="st8" d="M207.1,283.6l25.2,17.7c-0.1,0.1-0.1,0.1-0.1,0.1L207,283.7C207,283.7,207.1,283.6,207.1,283.6"/>
				<path class="st7" d="M206.9,283.7l25.2,17.7c-0.1,0.1-0.1,0.1-0.2,0.1l-25.2-17.7C206.9,283.7,206.9,283.7,206.9,283.7"/>
				<path class="st6" d="M206.8,283.8l25.2,17.7c-0.1,0-0.1,0.1-0.2,0.1l-25.2-17.7C206.7,283.9,206.7,283.8,206.8,283.8"/>
			</g>
		</g>
	</g>
	<g class="st1">
		<g>
			<defs>
				<path id="SVGID_71_" d="M197.5,386.8l-25.2-17.7c0.4,0.3,1.1,0.4,1.7,0.1l25.2,17.7C198.6,387.2,198,387.1,197.5,386.8z"/>
			</defs>
			<clipPath id="SVGID_72_">
				<use xlink:href="#SVGID_71_"  style="overflow:visible;"/>
			</clipPath>
			<g class="st53">
				<path class="st6" d="M174.1,369.1l25.2,17.7c0,0,0,0-0.1,0L174.1,369.1L174.1,369.1"/>
				<path class="st6" d="M174.1,369.1l25.2,17.7c-0.1,0.1-0.1,0.1-0.3,0.1l-25.2-17.7C173.9,369.2,174,369.2,174.1,369.1"/>
				<path class="st5" d="M173.8,369.3L199,387c-0.4,0.1-0.7,0.1-1,0.1l-25.2-17.7C173.1,369.4,173.5,369.3,173.8,369.3"/>
				<path class="st6" d="M172.9,369.3L198,387c-0.1,0-0.1-0.1-0.2-0.1l-25.2-17.7C172.7,369.3,172.8,369.3,172.9,369.3"/>
				<path class="st6" d="M172.6,369.2l25.2,17.7c-0.1,0-0.1-0.1-0.1-0.1l-25.2-17.7C172.5,369.1,172.5,369.2,172.6,369.2"/>
				<path class="st7" d="M172.5,369.1l25.2,17.7l-0.1-0.1L172.5,369.1C172.4,369.1,172.4,369.1,172.5,369.1"/>
			</g>
		</g>
	</g>
	<g>
		<polygon class="st23" points="189.4,291.6 214.5,309.3 216,377 190.8,359.3 		"/>
	</g>
	<g>
		<polygon class="st5" points="188.6,362.7 213.7,380.4 199.2,386.9 174.1,369.1 		"/>
	</g>
	<g class="st1">
		<g>
			<defs>
				<path id="SVGID_73_" d="M190.8,359.3L216,377c0,1.3-1,2.9-2.2,3.4l-25.2-17.7C189.8,362.1,190.8,360.5,190.8,359.3z"/>
			</defs>
			<clipPath id="SVGID_74_">
				<use xlink:href="#SVGID_73_"  style="overflow:visible;"/>
			</clipPath>
			<g class="st54">
				<path class="st3" d="M190.8,359.3L216,377c0,0.4-0.1,1-0.4,1.5l-25.2-17.7C190.7,360.2,190.8,359.7,190.8,359.3"/>
				<path class="st18" d="M190.5,360.7l25.2,17.7c-0.1,0.1-0.1,0.2-0.1,0.3l-25.2-17.7C190.3,360.9,190.4,360.9,190.5,360.7"/>
				<path class="st17" d="M190.3,361.1l25.2,17.7c-0.1,0.1-0.1,0.1-0.1,0.3l-25.2-17.7C190.2,361.2,190.3,361.1,190.3,361.1"/>
				<path class="st16" d="M190.1,361.2l25.2,17.7c-0.1,0.1-0.1,0.1-0.1,0.2L190,361.4C190.1,361.4,190.1,361.3,190.1,361.2"/>
				<path class="st15" d="M190,361.4l25.2,17.7c-0.1,0.1-0.1,0.1-0.1,0.2l-25.2-17.7C190,361.6,190,361.5,190,361.4"/>
				<path class="st14" d="M189.9,361.6l25.2,17.7c-0.1,0.1-0.1,0.1-0.1,0.1l-25.2-17.7C189.8,361.8,189.8,361.7,189.9,361.6"/>
				<path class="st13" d="M189.8,361.8l25.2,17.7c-0.1,0.1-0.1,0.1-0.1,0.1l-25.2-17.7C189.7,361.9,189.7,361.8,189.8,361.8"/>
				<path class="st12" d="M189.6,361.9l25.2,17.7c-0.1,0.1-0.1,0.1-0.1,0.1l-25.2-17.7C189.6,362,189.6,361.9,189.6,361.9"/>
				<path class="st11" d="M189.5,362l25.2,17.7c-0.1,0.1-0.1,0.1-0.1,0.1l-25.2-17.7C189.4,362.1,189.4,362.1,189.5,362"/>
				<path class="st11" d="M189.4,362.1l25.2,17.7c-0.1,0.1-0.1,0.1-0.1,0.1l-25.2-17.7C189.3,362.2,189.4,362.2,189.4,362.1"/>
				<path class="st10" d="M189.3,362.3l25.2,17.7c-0.1,0.1-0.1,0.1-0.1,0.1l-25.2-17.7C189.2,362.3,189.3,362.3,189.3,362.3"/>
				<path class="st9" d="M189.1,362.4l25.2,17.7c-0.1,0.1-0.1,0.1-0.1,0.1L189,362.5C189.1,362.5,189.1,362.4,189.1,362.4"/>
				<path class="st8" d="M189,362.5l25.2,17.7c-0.1,0-0.1,0.1-0.1,0.1l-25.2-17.7C188.9,362.5,188.9,362.5,189,362.5"/>
				<path class="st7" d="M188.9,362.5l25.2,17.7c-0.1,0-0.1,0.1-0.1,0.1l-25.2-17.7C188.7,362.6,188.8,362.6,188.9,362.5"/>
				<path class="st6" d="M188.7,362.6l25.2,17.7c-0.1,0-0.1,0.1-0.1,0.1l-25.2-17.7C188.6,362.6,188.7,362.6,188.7,362.6"/>
			</g>
		</g>
	</g>
	<g class="st1">
		<g>
			<defs>
				<path id="SVGID_75_" d="M258.1,243l25.2,17.7c0.4,0.3,0.6,0.8,0.6,1.3l-25.2-17.7C258.6,243.7,258.4,243.2,258.1,243z"/>
			</defs>
			<clipPath id="SVGID_76_">
				<use xlink:href="#SVGID_75_"  style="overflow:visible;"/>
			</clipPath>
			<g class="st55">
				<path class="st3" d="M258.1,243l25.2,17.7c0.4,0.3,0.6,0.8,0.6,1.3l-25.2-17.7C258.6,243.7,258.4,243.2,258.1,243"/>
			</g>
		</g>
	</g>
	<g class="st1">
		<g>
			<defs>
				<path id="SVGID_77_" d="M307.5,221l25.2,17.7c0.4,0.3,0.6,0.7,0.6,1.3l-25.2-17.8C308,221.7,307.8,221.3,307.5,221z"/>
			</defs>
			<clipPath id="SVGID_78_">
				<use xlink:href="#SVGID_77_"  style="overflow:visible;"/>
			</clipPath>
			<g class="st56">
				<path class="st3" d="M307.5,221l25.2,17.7c0.4,0.3,0.6,0.7,0.6,1.3l-25.2-17.8C308,221.7,307.8,221.3,307.5,221"/>
			</g>
		</g>
	</g>
	<g>
		<polygon class="st23" points="258.7,244.3 283.8,262.1 285,313.4 259.8,295.7 		"/>
	</g>
	<g class="st1">
		<g>
			<defs>
				<path id="SVGID_79_" d="M289.1,322.6l-25.2-17.7c-2.5-1.8-4-5-4.1-9.2l25.2,17.7C285,317.7,286.5,320.9,289.1,322.6z"/>
			</defs>
			<clipPath id="SVGID_80_">
				<use xlink:href="#SVGID_79_"  style="overflow:visible;"/>
			</clipPath>
			<g class="st57">
				<path class="st3" d="M259.8,295.7l25.2,17.7c0.1,4.3,1.6,7.4,4.1,9.2l-25.2-17.7C261.4,303.1,259.9,299.9,259.8,295.7"/>
			</g>
		</g>
	</g>
	<g>
		<polygon class="st23" points="308.1,222.3 333.2,240.1 334.4,292.4 309.2,274.7 		"/>
	</g>
	<g class="st1">
		<g>
			<defs>
				<path id="SVGID_81_" d="M274.6,342.5l-25.2-17.7c6.4,4.5,15.8,5.2,26,0.6c19.1-8.5,34.2-31.3,33.8-50.6l25.2,17.7
					c0.4,19.3-14.7,42.2-33.8,50.6C290.4,347.6,281,347.1,274.6,342.5z"/>
			</defs>
			<clipPath id="SVGID_82_">
				<use xlink:href="#SVGID_81_"  style="overflow:visible;"/>
			</clipPath>
			<g class="st58">
				<path class="st3" d="M309.2,274.7l25.2,17.7c0.1,7.2-1.8,14.9-5.5,22.2l-25.2-17.7C307.3,289.6,309.4,281.9,309.2,274.7"/>
				<path class="st18" d="M303.8,296.9l25.2,17.7c-0.7,1.3-1.4,2.7-2.2,4l-25.2-17.7C302.4,299.6,303.1,298.2,303.8,296.9"/>
				<path class="st17" d="M301.5,300.9l25.2,17.7c-0.6,1-1.3,2.1-2,3.1L299.6,304C300.3,303,301,302,301.5,300.9"/>
				<path class="st16" d="M299.6,304l25.2,17.7c-0.6,0.9-1.2,1.8-1.8,2.6l-25.2-17.7C298.4,305.7,299.1,304.9,299.6,304"/>
				<path class="st15" d="M297.8,306.6l25.2,17.7c-0.6,0.8-1.1,1.5-1.8,2.3L296,308.9C296.7,308.1,297.2,307.4,297.8,306.6"/>
				<path class="st14" d="M296,308.9l25.2,17.7c-0.6,0.7-1.1,1.4-1.8,2.1L294.2,311C294.9,310.4,295.4,309.7,296,308.9"/>
				<path class="st13" d="M294.2,311.1l25.2,17.7c-0.6,0.6-1.2,1.3-1.8,2L292.5,313C293.1,312.3,293.7,311.7,294.2,311.1"/>
				<path class="st12" d="M292.5,313l25.2,17.7c-0.6,0.6-1.2,1.2-1.8,1.8l-25.2-17.7C291.2,314.3,291.9,313.6,292.5,313"/>
				<path class="st11" d="M290.6,314.8l25.2,17.7c-0.6,0.6-1.2,1.1-1.8,1.7l-25.2-17.7C289.4,316,290,315.4,290.6,314.8"/>
				<path class="st11" d="M288.8,316.5l25.2,17.7c-0.6,0.6-1.3,1.1-1.9,1.7l-25.2-17.7C287.5,317.6,288.1,317.1,288.8,316.5"/>
				<path class="st10" d="M286.9,318.2l25.2,17.7c-0.6,0.5-1.3,1.1-2,1.6l-25.2-17.7C285.5,319.2,286.2,318.7,286.9,318.2"/>
				<path class="st9" d="M284.8,319.7l25.2,17.7c-0.7,0.5-1.4,1-2.2,1.5l-25.2-17.7C283.4,320.7,284.1,320.2,284.8,319.7"/>
				<path class="st8" d="M282.7,321.2l25.2,17.7c-0.8,0.5-1.5,1-2.3,1.5l-25.2-17.7C281.2,322.3,282,321.8,282.7,321.2"/>
				<path class="st7" d="M280.4,322.7l25.2,17.7c-0.8,0.5-1.7,1-2.5,1.4l-25.2-17.7C278.7,323.7,279.5,323.2,280.4,322.7"/>
				<path class="st6" d="M277.8,324.1l25.2,17.7c-0.8,0.4-1.6,0.8-2.4,1.1c-0.2,0.1-0.4,0.2-0.6,0.3l-25.2-17.7
					c0.2-0.1,0.4-0.2,0.6-0.3C276.2,324.9,277.1,324.6,277.8,324.1"/>
				<path class="st6" d="M274.8,325.6l25.2,17.7c-1.3,0.6-2.5,1-3.8,1.4L271,327C272.3,326.6,273.6,326.1,274.8,325.6"/>
				<path class="st5" d="M271,327l25.2,17.7c-5.6,1.8-10.8,1.9-15.3,0.7l-25.2-17.7C260.2,328.9,265.4,328.8,271,327"/>
				<path class="st6" d="M255.7,327.7l25.2,17.7c-1.1-0.3-2-0.6-3.1-1.1l-25.1-17.7C253.7,327,254.7,327.4,255.7,327.7"/>
				<path class="st6" d="M252.7,326.6l25.2,17.7c-0.8-0.3-1.5-0.7-2.2-1.1l-25.2-17.7C251.3,325.9,252,326.3,252.7,326.6"/>
				<path class="st7" d="M250.6,325.4l25.2,17.7c-0.4-0.3-0.8-0.4-1.1-0.7l-25.2-17.7C249.8,325,250.2,325.3,250.6,325.4"/>
			</g>
		</g>
	</g>
	<g>
		<polygon class="st5" points="345.8,221.9 371,239.7 359.5,244.8 334.4,227 		"/>
	</g>
	<g>
		<polygon class="st23" points="334.4,227 359.5,244.8 359.9,264.1 334.8,246.4 		"/>
	</g>
	<g class="st1">
		<g>
			<defs>
				<path id="SVGID_83_" d="M353.2,222l25.2,17.7c-1.8-1.3-4.5-1.4-7.4-0.1l-25.2-17.7C348.7,220.6,351.4,220.7,353.2,222z"/>
			</defs>
			<clipPath id="SVGID_84_">
				<use xlink:href="#SVGID_83_"  style="overflow:visible;"/>
			</clipPath>
			<g class="st59">
				<path class="st7" d="M353.2,222l25.2,17.7c-0.1-0.1-0.2-0.1-0.3-0.2l-25.2-17.7C353.1,221.9,353.1,221.9,353.2,222"/>
				<path class="st6" d="M352.9,221.8l25.2,17.7c-0.2-0.1-0.4-0.2-0.6-0.3l-25.2-17.7C352.5,221.5,352.7,221.7,352.9,221.8"/>
				<path class="st6" d="M352.4,221.5l25.2,17.7c-0.3-0.1-0.5-0.2-0.8-0.3l-25.2-17.7C351.8,221.3,352.1,221.4,352.4,221.5"/>
				<path class="st5" d="M351.5,221.2l25.2,17.7c-1.3-0.3-2.8-0.3-4.4,0.2l-25.2-17.7C348.7,220.9,350.3,220.8,351.5,221.2"/>
				<path class="st6" d="M347.1,221.4l25.2,17.7c-0.4,0.1-0.8,0.3-1.1,0.4L346,221.9C346.4,221.7,346.8,221.5,347.1,221.4"/>
				<path class="st6" d="M346,221.8l25.2,17.7c-0.1,0-0.1,0.1-0.2,0.1l-25.2-17.7C345.9,221.9,345.9,221.9,346,221.8"/>
			</g>
		</g>
	</g>
	<g>
		<polygon class="st5" points="347.8,259.3 373,277 360.4,282.7 335.2,264.9 		"/>
	</g>
	<g class="st1">
		<g>
			<defs>
				<path id="SVGID_85_" d="M342.8,322.2l-25.2-17.7c0.4,0.3,1,0.3,1.7,0.1l25.2,17.7C343.8,322.5,343.2,322.5,342.8,322.2z"/>
			</defs>
			<clipPath id="SVGID_86_">
				<use xlink:href="#SVGID_85_"  style="overflow:visible;"/>
			</clipPath>
			<g class="st60">
				<path class="st6" d="M319.4,304.5l25.2,17.7c0,0,0,0-0.1,0L319.4,304.5C319.3,304.5,319.3,304.5,319.4,304.5"/>
				<path class="st6" d="M319.3,304.5l25.2,17.7c-0.1,0.1-0.2,0.1-0.3,0.1L319,304.7C319.1,304.6,319.2,304.5,319.3,304.5"/>
				<path class="st5" d="M319,304.6l25.2,17.7c-0.4,0.1-0.7,0.1-1,0.1L318,304.7C318.3,304.7,318.7,304.7,319,304.6"/>
				<path class="st6" d="M318,304.7l25.2,17.7c-0.1,0-0.1-0.1-0.2-0.1l-25.2-17.7C317.9,304.6,318,304.6,318,304.7"/>
				<path class="st6" d="M317.8,304.6l25.2,17.7c-0.1,0-0.1-0.1-0.1-0.1l-25.2-17.7C317.7,304.5,317.8,304.5,317.8,304.6"/>
				<path class="st7" d="M317.7,304.5l25.2,17.7c0,0-0.1,0-0.1-0.1L317.7,304.5C317.6,304.5,317.6,304.5,317.7,304.5"/>
			</g>
		</g>
	</g>
	<g class="st1">
		<g>
			<defs>
				<path id="SVGID_87_" d="M366.9,203.2l25.2,17.7c4.3,3.1,7.1,8.4,7.2,15.5c0.3,15.7-11.6,34-26.3,40.5l-25.2-17.7
					c14.8-6.5,26.6-24.8,26.3-40.5C374,211.7,371.3,206.4,366.9,203.2z"/>
			</defs>
			<clipPath id="SVGID_88_">
				<use xlink:href="#SVGID_87_"  style="overflow:visible;"/>
			</clipPath>
			<g class="st61">
				<path class="st3" d="M366.9,203.2l25.2,17.7c4.3,3.1,7.1,8.4,7.2,15.5c0.1,6-1.5,12.4-4.5,18.4l-25.2-17.7
					c2.9-6,4.6-12.4,4.5-18.4C374,211.7,371.3,206.4,366.9,203.2"/>
				<path class="st18" d="M369.7,237.1l25.2,17.7c-0.6,1.1-1.1,2.2-1.8,3.2l-25.2-17.7C368.6,239.4,369.1,238.3,369.7,237.1"/>
				<path class="st17" d="M367.9,240.4l25.2,17.7c-0.5,0.8-1,1.7-1.5,2.5l-25.2-17.7C366.9,242,367.4,241.2,367.9,240.4"/>
				<path class="st16" d="M366.4,242.8l25.2,17.7c-0.4,0.7-1,1.4-1.5,2.1l-25.2-17.7C365.5,244.2,366,243.5,366.4,242.8"/>
				<path class="st15" d="M364.9,244.9l25.2,17.7c-0.4,0.6-1,1.2-1.4,1.8l-25.2-17.7C364,246.2,364.5,245.5,364.9,244.9"/>
				<path class="st14" d="M363.5,246.8l25.2,17.7c-0.4,0.6-0.9,1.1-1.4,1.7l-25.2-17.8C362.6,247.9,363.1,247.3,363.5,246.8"/>
				<path class="st13" d="M362.1,248.4l25.2,17.7c-0.4,0.5-0.9,1-1.4,1.5l-25.2-17.7C361.3,249.4,361.7,249,362.1,248.4"/>
				<path class="st12" d="M360.7,249.9l25.2,17.7c-0.4,0.5-1,1-1.4,1.4l-25.2-17.7C359.9,250.9,360.3,250.4,360.7,249.9"/>
				<path class="st11" d="M359.3,251.3l25.2,17.7c-0.4,0.4-1,0.9-1.4,1.3l-25.2-17.7C358.4,252.2,358.9,251.8,359.3,251.3"/>
				<path class="st11" d="M357.9,252.6l25.2,17.7c-0.5,0.4-1,0.8-1.5,1.3l-25.2-17.7C356.9,253.5,357.4,253.1,357.9,252.6"/>
				<path class="st10" d="M356.5,253.9l25.2,17.7c-0.5,0.4-1,0.8-1.5,1.2L355,255.1C355.5,254.7,356,254.3,356.5,253.9"/>
				<path class="st9" d="M355,255.1l25.2,17.7c-0.5,0.4-1.1,0.8-1.6,1.1l-25.2-17.7C353.9,255.9,354.4,255.5,355,255.1"/>
				<path class="st8" d="M353.3,256.2l25.2,17.7c-0.6,0.4-1.1,0.8-1.7,1.1l-25.2-17.7C352.2,257,352.7,256.6,353.3,256.2"/>
				<path class="st7" d="M351.6,257.3l25.2,17.7c-0.6,0.4-1.3,0.8-1.9,1.1l-25.2-17.7C350.3,258,351,257.7,351.6,257.3"/>
				<path class="st6" d="M349.7,258.4l25.2,17.7c-0.6,0.3-1.2,0.6-1.8,0.9l-25.2-17.7C348.5,259,349,258.7,349.7,258.4"/>
			</g>
		</g>
	</g>
	<g>
		<polygon class="st23" points="335.2,264.9 360.4,282.7 361,312.5 335.8,294.7 		"/>
	</g>
	<g>
		<polygon class="st5" points="333.6,298.1 358.8,315.9 344.5,322.3 319.4,304.5 		"/>
	</g>
	<g class="st1">
		<g>
			<defs>
				<path id="SVGID_89_" d="M335.8,294.7l25.2,17.7c0,1.3-1,2.9-2.2,3.4l-25.2-17.7C334.8,297.6,335.8,295.9,335.8,294.7z"/>
			</defs>
			<clipPath id="SVGID_90_">
				<use xlink:href="#SVGID_89_"  style="overflow:visible;"/>
			</clipPath>
			<g class="st62">
				<path class="st3" d="M335.8,294.7l25.2,17.7c0,0.4-0.1,1-0.4,1.5l-25.2-17.7C335.7,295.7,335.8,295.2,335.8,294.7"/>
				<path class="st18" d="M335.4,296.2l25.2,17.7c-0.1,0.1-0.1,0.2-0.1,0.3l-25.2-17.7C335.3,296.4,335.4,296.3,335.4,296.2"/>
				<path class="st17" d="M335.3,296.5l25.2,17.7c-0.1,0.1-0.1,0.1-0.1,0.3l-25.2-17.8C335.2,296.6,335.2,296.6,335.3,296.5"/>
				<path class="st16" d="M335.1,296.7l25.2,17.7c-0.1,0.1-0.1,0.1-0.1,0.2L335,296.9C335.1,296.8,335.1,296.8,335.1,296.7"/>
				<path class="st15" d="M335,296.9l25.2,17.7c-0.1,0.1-0.1,0.1-0.1,0.2l-25.2-17.7C334.9,297,335,297,335,296.9"/>
				<path class="st14" d="M334.9,297.1l25.2,17.7c-0.1,0.1-0.1,0.1-0.1,0.1l-25.2-17.7C334.8,297.1,334.9,297.1,334.9,297.1"/>
				<path class="st13" d="M334.7,297.2l25.2,17.7c-0.1,0.1-0.1,0.1-0.1,0.1l-25.2-17.7C334.7,297.3,334.7,297.3,334.7,297.2"/>
				<path class="st12" d="M334.6,297.3l25.2,17.7c-0.1,0.1-0.1,0.1-0.1,0.1l-25.2-17.7C334.5,297.5,334.6,297.4,334.6,297.3"/>
				<path class="st11" d="M334.5,297.5l25.2,17.7c-0.1,0.1-0.1,0.1-0.1,0.1l-25.2-17.7C334.4,297.5,334.5,297.5,334.5,297.5"/>
				<path class="st11" d="M334.4,297.6l25.2,17.7c-0.1,0.1-0.1,0.1-0.1,0.1l-25.2-17.7C334.3,297.7,334.4,297.7,334.4,297.6"/>
				<path class="st10" d="M334.2,297.7l25.2,17.7c-0.1,0.1-0.1,0.1-0.1,0.1l-25.2-17.7C334.2,297.8,334.2,297.7,334.2,297.7"/>
				<path class="st9" d="M334.1,297.8l25.2,17.7c-0.1,0.1-0.1,0.1-0.1,0.1L334,297.8C334,297.8,334.1,297.8,334.1,297.8"/>
				<path class="st8" d="M334,297.9l25.2,17.7c-0.1,0-0.1,0.1-0.1,0.1L333.8,298C333.9,298,334,297.9,334,297.9"/>
				<path class="st7" d="M333.8,298l25.2,17.7c-0.1,0-0.1,0.1-0.1,0.1L333.7,298C333.8,298,333.8,298,333.8,298"/>
				<path class="st6" d="M333.7,298l25.2,17.7c-0.1,0-0.1,0.1-0.1,0.1l-25.2-17.7C333.6,298.1,333.7,298.1,333.7,298"/>
			</g>
		</g>
	</g>
	<polygon class="st63" points="250.7,200.4 242.8,186.7 235.7,207.1 	"/>
	<path class="st63" d="M338.2,244.9l8.1-3.6c5.2-2.3,9.5-8.6,9.3-14.2c-0.1-5.2-4.3-7.3-9.3-5.3l-8.4,3.8L338.2,244.9z"/>
	<path class="st64" d="M65.2,305.2c-1.2-0.7-1.6-1.1-0.7-3.3l5.5-13c0.2-0.4,0.4-0.8,0.7-1.1l0,0c-0.4-0.1-1,0-1.7,0.3
		c-0.9,0.4-1.8,1.1-2.4,2.3l-5.5,13c-1,2.2-0.6,2.5,0.7,3.3c2.9,1.7,11.7,4.6,27.4-2.4c0.4-0.2,0.8-0.4,1.3-0.6
		C76.1,309.5,67.9,306.8,65.2,305.2z"/>
	<path class="st64" d="M89.6,229.6c-0.5,0.3-1,0.5-1.5,0.8c6.9-2.1,14.5,0.5,15.5,0.6c0.3,0.1,0.6,0.1,1-0.1
		c0.6-0.3,1.3-0.8,1.8-1.5C104.1,228.8,96.2,226.6,89.6,229.6z"/>
	<path class="st64" d="M99.5,274.3c-0.1-5.3-4.5-7.5-12.7-7.2c-10.5,0.3-23.7-2.4-24-17.6c-0.3-12.2,8.3-28.4,25.8-36.9
		c-0.6,0.3-1.2,0.5-1.8,0.8c-18.6,8.3-27.6,25.1-27.3,37.6c0.3,15.2,13.5,17.9,24,17.6c8.3-0.3,12.6,2,12.7,7.2
		c0.1,3.9-2.7,8.1-6.7,10.6c0.6-0.2,1.3-0.4,2-0.8C96.2,283.5,99.6,278.7,99.5,274.3z"/>
	<path class="st64" d="M180.2,207.7l-0.7-31.9c0-1.3,0.9-2.9,2.2-3.4l11.1-5c-0.1,0-0.1,0-0.1,0.1l-14.4,6.4
		c-1.3,0.6-2.3,2.2-2.2,3.4l0.7,31.9l-31.1,13.9l0,0L180.2,207.7z"/>
	<path class="st64" d="M126.8,286.3l3.2-1.5c-1.1,0.4-2.2-0.3-2.2-1.5l-1.8-83.9c0-1.3,1-2.9,2.2-3.4l11.1-5c-0.1,0-0.1,0-0.2,0.1
		l-14.3,6.4c-1.2,0.5-2.3,2.2-2.2,3.4l1.8,83.9C124.4,286.2,125.5,286.9,126.8,286.3z"/>
	<path class="st64" d="M181.3,259.6l-0.7-33.3l-3.4,1.5l0.7,33.3c0,1.3,1,2,2.4,1.4l3.2-1.5C182.3,261.5,181.3,260.8,181.3,259.6z"
		/>
	<polygon class="st64" points="235.7,207.1 235.7,207.1 254.1,199 242.7,178.9 242.5,179 241,183.5 250.7,200.4 	"/>
	<path class="st64" d="M266.3,221l-4.6-8.1l-3.4,1.5l4.6,8.1c1.1,1.9,2.1,2.2,4.3,1.3l2.9-1.3C268.2,223.2,267.3,222.8,266.3,221z"
		/>
	<path class="st64" d="M205,248.2L241,146c0.2-0.5,0.5-1,1-1.5c-0.3-0.1-0.8-0.1-1.1,0.1l-1.2,0.5c-0.8,0.4-1.7,1.4-2,2.3
		l-35.9,102.2c-0.7,2,0.3,3.2,2.1,2.4l3.1-1.4C205.2,251.2,204.4,250,205,248.2z"/>
	<path class="st64" d="M339.1,190.8l-32.3-30.7l0.1,4.8l28.7,27.4c0.3,0.3,1.3,0.3,2.2-0.1l3.2-1.4
		C340.2,191.1,339.3,191.1,339.1,190.8z"/>
	<path class="st64" d="M336.1,104.8c0.4-0.8,1.5-2,2.3-2.3l12-5.3c-0.1,0-0.1,0.1-0.3,0.1l-15.2,6.8c-0.7,0.3-1.8,1.5-2.3,2.3
		l-26.1,47.1l0.1,4.5L336.1,104.8z"/>
	<path class="st64" d="M290.7,213.3l3.1-1.4c-1.5,0.5-2.6-0.3-2.7-1.9l-1.8-82.7c-0.1-1.7,1.1-3.6,2.9-4.3l11-4.9
		c-0.1,0.1-0.2,0.1-0.3,0.1l-14.1,6.3c-1.7,0.8-2.9,2.7-2.9,4.3l1.8,82.7C287.8,213.2,289,214.1,290.7,213.3z"/>
	<path class="st64" d="M408.4,106c-0.1,0-0.1,0-0.1,0.1l-24.1,10.7l0,0L408.4,106z"/>
	<path class="st64" d="M415.1,139.1c-0.1,0-0.1,0-0.2,0.1l-30,13.4l0,0L415.1,139.1z"/>
	<path class="st64" d="M366.4,177.2l-1.8-83.9c0-1.3,0.9-2.9,2.2-3.4l46.8-20.8c-0.1,0-0.1,0-0.2,0.1l-50,22.3
		c-1.3,0.6-2.3,2.2-2.2,3.4l1.8,83.9c0,1.3,1,2,2.4,1.4l3.2-1.5C367.4,179.1,366.5,178.4,366.4,177.2z"/>
	<path class="st64" d="M130.6,386.1l-1.8-83.9c0-1.3,1-2.9,2.2-3.4l11.3-5c-0.1,0-0.1,0-0.1,0.1l-14.5,6.4c-1.2,0.5-2.3,2.2-2.2,3.4
		l1.8,83.9c0,1.3,1.1,1.9,2.4,1.4l3.2-1.5C131.6,387.9,130.6,387.3,130.6,386.1z"/>
	<path class="st64" d="M175.1,366.3l-1.5-67.7l-3.4,1.5l1.5,67.7c0,1.3,1.1,1.9,2.4,1.4l3.2-1.5
		C176.2,368.1,175.2,367.5,175.1,366.3z"/>
	<path class="st64" d="M154.1,304.8l-0.3-13.8c0-1.3,0.9-2.9,2.2-3.4l50.4-22.4c-0.1,0-0.1,0-0.2,0.1l-53.5,23.8
		c-1.3,0.6-2.3,2.2-2.2,3.4l0.3,13.8c0,1.3,1,2,2.4,1.4l3.2-1.5C155,306.8,154.1,306.1,154.1,304.8z"/>
	<path class="st64" d="M293.2,280.8l-1.1-51.4c0-1.3,0.9-2.9,2.2-3.4l11.6-5.2c-0.1,0-0.1,0-0.1,0.1l-14.9,6.6
		c-1.3,0.6-2.3,2.2-2.2,3.4l1.1,51.4c0.2,8.3-5.3,17.5-13.1,21.9c0.6-0.2,1.1-0.4,1.8-0.7C287.1,299.6,293.3,289.7,293.2,280.8z"/>
	<path class="st64" d="M243.7,303.8l-1.1-52.3c0-1.3,1-2.9,2.2-3.4l11.6-5.2c-0.1,0-0.1,0-0.2,0.1l-14.9,6.6
		c-1.2,0.5-2.3,2.2-2.2,3.4l1.1,52.3c0.4,19.3,16.1,28.4,35,20c0.5-0.3,1-0.4,1.5-0.7C258.8,331.6,244.2,322.5,243.7,303.8z"/>
	<path class="st64" d="M355.6,227c0.1,5.7-4.1,12-9.3,14.2l-8.1,3.6l0,0l11.4-5.1c5.2-2.3,9.5-8.6,9.3-14.2
		c-0.1-5.3-4.6-7.4-9.7-5.2l-3.1,1.3C351.2,219.7,355.5,221.8,355.6,227z"/>
	<path class="st64" d="M320.4,301.6l-1.8-83.9c0-1.3,0.9-2.9,2.2-3.4l26.4-11.8c-0.3,0.1-0.4,0.2-0.7,0.3l-29.1,13
		c-1.3,0.6-2.3,2.2-2.2,3.4l1.8,83.9c0,1.3,1,2,2.4,1.4l3.2-1.5C321.3,303.5,320.4,302.8,320.4,301.6z"/>
	<path class="st65" d="M117.1,265.4c-0.4-17.2-15.5-18.3-25.1-18.1c-9.6,0.2-13.4-1.7-13.4-6.4c-0.1-3.4,3.1-7.9,7.4-9.9
		c0.6-0.3,1.3-0.5,1.9-0.7c0.5-0.3,1-0.6,1.5-0.8c6.6-2.9,14.5-0.8,16.8-0.2c0.5-0.6,1-1.2,1.2-1.8l6-12.5c0.4-1.1,0.6-3.5-0.8-3.8
		c-3.5-1.1-12.5-3.4-24.2,1.2c-17.5,8.5-26,24.7-25.8,36.9c0.3,15.2,13.5,17.9,24,17.6c8.3-0.3,12.6,2,12.7,7.2
		c0.1,4.5-3.3,9.2-8.1,11.3c-0.6,0.3-1.3,0.5-2,0.8c-0.4,0.3-1,0.6-1.5,0.8c-7.9,3.5-16.6,0.8-17.3,0.7c-0.3,0.3-0.5,0.6-0.7,1.1
		l-5.5,13c-1,2.2-0.6,2.5,0.7,3.3c2.7,1.6,10.9,4.4,25.2-1.5C107.4,295.6,117.4,278.1,117.1,265.4z"/>
	<path class="st65" d="M126,199.5l1.8,83.9c0,1.2,1,1.8,2.2,1.5l11.1-5c1.3-0.6,2.3-2.2,2.2-3.4l-0.7-33.3l34.5-15.4l0,0l3.4-1.5
		l0.7,33.3c0,1.2,1,1.9,2.2,1.5l11.1-5c1.2-0.5,2.3-2.2,2.2-3.4l-1.8-83.9c0-1.2-1-1.8-2.2-1.5l-11.1,5c-1.3,0.6-2.3,2.2-2.2,3.4
		l0.7,32l-34.5,15.4l0,0l-3.4,1.5l-0.7-31.9c0-1.2-1-1.9-2.2-1.5l-11.1,5C127,196.6,126,198.3,126,199.5z"/>
	<path class="st65" d="M221.3,241.2l4.1-12.1l32.9-14.6l0,0l3.4-1.5l4.6,8.1c1,1.8,2,2.2,3.8,1.5l10.5-4.6c1.8-0.8,2.7-2.9,2-4.2
		L243,145.2c-0.2-0.3-0.6-0.6-1-0.6c-0.4,0.4-0.8,1-1,1.5l-35.9,102.2c-0.6,1.8,0.2,3.1,1.8,2.5l10.2-4.5
		C219.5,245.1,220.7,243,221.3,241.2z M241,183.7l0.1-0.1l-0.1-0.1l1.5-4.5l0.1-0.1l11.4,20l-18.4,8.2l0,0l-3.4,1.5L241,183.7z"/>
	<path class="st65" d="M289.4,127.4l1.8,82.7c0.1,1.5,1.1,2.4,2.7,1.9l11-4.9c1.6-0.7,2.9-2.7,2.9-4.3l-0.8-37.8l0,0l-0.1-4.8
		l32.3,30.7c0.3,0.3,1.1,0.3,1.9,0l13.5-6c2.3-1,3.6-4.4,2.2-5.7l-31.7-28.4l27.5-49.7c1.3-2.4,0.1-4.6-2-3.8l-12,5.3
		c-0.7,0.3-1.8,1.5-2.3,2.3l-29.4,53l-0.1-4.5l0,0l-0.7-33.3c-0.1-1.5-1.2-2.4-2.7-1.8l-11,4.9C290.5,123.8,289.3,125.8,289.4,127.4
		z"/>
	<path class="st65" d="M417.6,154.4l-0.3-13.8c0-1.2-1-1.9-2.2-1.5l-30.2,13.5l0,0l-3.4,1.5l-0.4-17.1l27.5-12.3
		c1.2-0.5,2.3-2,2.2-3.4l-0.3-13.8c0-1.2-1-1.8-2.2-1.5l-24.3,10.8l0,0l-3.4,1.5l-0.3-15.7l33.4-14.9c1.3-0.6,2.3-2.2,2.2-3.4
		l-0.3-13.8c0-1.2-1-1.9-2.2-1.5l-46.7,20.8c-1.3,0.6-2.3,2.2-2.2,3.4l1.8,83.9c0,1.2,1,1.9,2.2,1.5l46.7-20.8
		C416.7,157.3,417.7,155.7,417.6,154.4z"/>
	<path class="st65" d="M146.3,379.1l-1.8-83.9c0-1.2-1-1.8-2.2-1.5l-11.3,5c-1.2,0.5-2.3,2.2-2.2,3.4l1.8,83.9c0,1.2,1,1.8,2.2,1.5
		l11.3-5C145.2,382,146.3,380.4,146.3,379.1z"/>
	<path class="st65" d="M156.3,306.3c0.1,0,0.1,0,0.2-0.1l13.9-6.2l0,0L156.3,306.3z"/>
	<path class="st65" d="M190.8,359.3l-1.5-67.7l17.3-7.7c1.3-0.6,2.3-2.2,2.2-3.4l-0.3-13.8c0-1.2-1-1.9-2.2-1.5L156,287.6
		c-1.3,0.6-2.3,2.2-2.2,3.4l0.3,13.8c0,1.2,1,1.9,2.2,1.5l14-6.2l0,0l3.4-1.5l1.5,67.7c0,1.2,1,1.8,2.2,1.5l11.3-5
		C189.8,362.1,190.8,360.5,190.8,359.3z"/>
	<path class="st65" d="M309.2,274.7l-1.1-52.3c0-1.2-1-1.8-2.2-1.5l-11.6,5.2c-1.3,0.6-2.3,2.2-2.2,3.4l1.1,51.4
		c0.2,8.9-6,18.8-14.8,22.7c-0.6,0.3-1.2,0.5-1.8,0.7c-0.5,0.3-1.1,0.6-1.7,0.8c-8.6,3.8-15-0.5-15.2-9.3l-1.1-51.4
		c0-1.2-1-1.9-2.2-1.5l-11.6,5.2c-1.2,0.5-2.3,2.2-2.2,3.4l1.1,52.3c0.4,18.6,15.1,27.8,33.1,20.8
		C295.3,315.6,309.6,293.5,309.2,274.7z"/>
	<path class="st65" d="M335.8,294.7l-0.6-29.8l12.7-5.7c14.8-6.5,26.6-24.8,26.3-40.5c-0.3-15.1-12.4-22.4-27-16.3l-26.4,11.8
		c-1.3,0.6-2.3,2.2-2.2,3.4l1.8,83.9c0,1.2,1,1.9,2.2,1.5l11-4.9C334.8,297.6,335.8,295.9,335.8,294.7z M345.8,221.9
		c0.1-0.1,0.3-0.1,0.4-0.1l3.1-1.3c5.2-2.3,9.6-0.2,9.7,5.2c0.1,5.7-4.1,12-9.3,14.2l-11.4,5.1l0,0l-3.4,1.5l-0.4-19.4L345.8,221.9z
		"/>
</g>
</svg>
