<?xml version="1.0" encoding="utf-8"?>
<!-- Generator: Adobe Illustrator 19.1.0, SVG Export Plug-In . SVG Version: 6.00 Build 0)  -->
<svg version="1.1" id="Layer_1" xmlns="http://www.w3.org/2000/svg" xmlns:xlink="http://www.w3.org/1999/xlink" x="0px" y="0px"
	 viewBox="-133 135 500 500" style="enable-background:new -133 135 500 500;" xml:space="preserve">
<style type="text/css">
	.st0{fill:#FFFFFF;}
</style>
<g id="Layer_2">
</g>
<path id="Steelhead_Logo_copy_2" class="st0" d="M48.3,349.8c0,5.9-0.2,49.8-0.2,50.4V421h32.4v-10.4h-20l-0.2-21
	c3.2-0.2,11.9-0.2,12.9-0.2h0.5v-10.8h-0.5c-1.1,0-10.4-0.2-12.8-0.2v-18.7l21.6,0.2l0.2-10.2l-34-0.4V349.8z M35.6,349.2H1.8v0.5
	c0,5.9-0.2,49.8-0.2,50.4V421H34v-10.4H14v-21c3.2-0.2,12.9-0.2,14-0.2h0.5v-11H28c-1.1,0-11.3,0-13.8,0v-18.7h21.4L35.6,349.2z
	 M-56.9,385v-0.2l-6.3-6.5h-17.6l-0.2-15.3v-2.7h12.6l0.2,8.1H-57l-0.2-12.2l-6.1-6.8l-22.3,0.2l-6.7,7.2v25l6.5,7.7l17.4-0.2v17.8
	v2h-12.9v-7.9h-11.5l-0.2,13.3l5.6,5.8h25l5.6-6.5v-0.2C-56.9,413.6-56.9,391.5-56.9,385L-56.9,385z M-7.6,349.8l-39.6-0.2L-47,360
	l14,0.2c0,4.7,0.2,40.6,0.2,60.1v0.5h11.3v-0.5c0-2.3-0.2-53.8-0.2-60.1l14.4-0.2L-7.6,349.8z M135.6,409.3
	c-4-0.2-13.3-0.2-20.5-0.2c-3.8,0-6.8,0-8.1,0v-59.9h-12l-0.5,71.4l41.9,0.2l-0.2-11.5C136.1,409.3,135.6,409.3,135.6,409.3z
	 M157,349.4h-1.6l-0.2,20.7h-17.3v-20.7h-11.5v49.1l11.3-0.2v-17.1c2,0,5.4,0.2,10.1,0.2c3.2,0,6.3,0,7.4,0l0.4,39.9l11.1,0.2V421
	c0-0.7-0.2-64.2,0.2-70.5v-0.5h-0.5C165.2,349.4,160,349.4,157,349.4L157,349.4z M194.9,359.8l29.3,0.2h0.4l3.8-11.1l-45.9-0.2
	l0.2,72.8h0.5c0,0,7.2,0,13.7,0c4.5,0,7.6,0,9.2,0h0.4l2.7-10.6h-2c-2.7,0-8.6-0.2-12.4,0c0-2.7,0-15.3,0.2-21.2h21.8l3.1-10.8
	l-25-0.2C194.7,373.5,194.9,362.3,194.9,359.8L194.9,359.8z M256.6,349.4l-0.2-0.4l-11-0.2l-0.2,0.4c-0.2,0.5-14.2,46.4-18.5,61.3
	l-3.6,11.1l13.1,0.2l4.1-13.7c3.1,0,14.4,0.2,18.9,0l3.4,14l12.9-0.2l-0.2-0.5C274.7,415.9,257.3,352.1,256.6,349.4L256.6,349.4z
	 M242.9,398.1L242.9,398.1L242.9,398.1L242.9,398.1z M243.6,397.6c1.3-4,2.9-10.4,4.3-16.7c1.1-4,2-7.7,2.7-10.4l5.9,27.2
	c-1.8,0-6.3,0-9.5,0C245.6,397.6,244.4,397.6,243.6,397.6L243.6,397.6z M325.6,358.6v-0.2l-6.8-8.6h-0.9c-4.1,0-22.7-0.2-31.1-0.4
	h-0.4l0.2,71.6v0.5h31.6h0.2l7.4-7.9v-0.2C326.4,403.3,325.6,358.9,325.6,358.6L325.6,358.6z M314.8,406.8l-3.8,3.8l-13.3-0.2
	l-0.2-50.5l13.7,0.2l3.4,3.8C314.8,366.7,314.8,394.7,314.8,406.8L314.8,406.8z"/>
</svg>
