<?xml version="1.0" encoding="utf-8"?>
<!-- Generator: Adobe Illustrator 19.1.0, SVG Export Plug-In . SVG Version: 6.00 Build 0)  -->
<svg version="1.1" id="Layer_1" xmlns="http://www.w3.org/2000/svg" xmlns:xlink="http://www.w3.org/1999/xlink" x="0px" y="0px"
	 viewBox="-133 135 500 500" style="enable-background:new -133 135 500 500;" xml:space="preserve">
<style type="text/css">
	.st0{fill-rule:evenodd;clip-rule:evenodd;fill:#FFFFFF;}
	.st1{fill:#FFFFFF;}
</style>
<g id="Layer_2">
</g>
<path class="st0" d="M128,415.7h78.3v-55.9C179.8,389.5,134.6,413.9,128,415.7L128,415.7z"/>
<path class="st0" d="M91.7,247.3c10.9,2,14.5,9.8,14.1,9.6c24.8-3,35,3.9,47.2,14.8c14.7,13,24.6,26.8,28.6,30.7
	c8.3,8.2,17.7,9.6,22.6,9.8c-6.2-17.8-15-39.3-45.1-56C131.8,240.9,97.4,244.9,91.7,247.3L91.7,247.3z"/>
<path class="st0" d="M71.6,253.7c-8.1,7.8-7.3,18.9-6.4,24.2c-15,13.2-19.9,35.3-18.6,57c-0.2,11,3.9,27.1,3.2,35.7
	c0.2,4.8-0.4,11.8-7.7,22.7c-6.7,10.1-7.9,16.2-8.2,21.5H17.1c0,0,0-86.1,0-86.3C20.3,280.6,57.7,259.2,71.6,253.7L71.6,253.7z"/>
<path class="st0" d="M76.5,253.5c-8.5,8-2.8,20.1-2.8,20.1c0.9-1.6,14.3-9.8,22.8-11c-32.4,14.3-37.4,31.7-32.7,62.2
	c2.1,13.1,4.7,21.5,6,35.1c-7.9,6.6-13,17-13,17c1.9-12-2.9-28.2-4.7-44.1c-2.5-21.3,1.9-40.5,16.7-55.5
	C68.8,277.4,63.7,261.7,76.5,253.5L76.5,253.5z"/>
<path class="st0" d="M122.4,346.4c66.6-31.7,76-11,76-11c10.7,23.1-49.6,56.5-53.8,58c-1.9,1.8-64.9,33.1-79,10.2
	c-0.5-2-6.6-18.3,37.4-52.1c21.8-16.8,50.2-28.5,73.7-34.9c-11.4,1.6-31.6,4.2-73.9,27.2c-38,21.9-64.7,57.4-57.3,71.8
	c20.5,19.1,73.3-4.6,96.8-16.2c35.7-16.4,85.6-53.5,77.1-74.2C200.8,300.5,122.2,345,122.4,346.4L122.4,346.4z"/>
<polygon class="st0" points="7.1,434.8 58.3,434.8 54.3,443 42.3,443 42.3,467.1 23.3,467.1 23.3,443 11.4,443 7.1,434.8 "/>
<path class="st0" d="M65.8,434.8h24.6l17.3,32.3H88.4l-2.5-6.4H69.4l-2.8,6.4H47.8L65.8,434.8L65.8,434.8z M72.6,452.7h9.9l-4.9-9.8
	L72.6,452.7L72.6,452.7z"/>
<polygon class="st0" points="75.9,479.8 121.2,479.8 117.5,487.4 94.8,487.4 94.8,491.8 116,491.8 116,499.2 94.8,499.2 94.8,504 
	120.1,504 120.1,511.8 75.9,511.8 75.9,479.8 "/>
<path class="st0" d="M124.1,479.8h20.1V504h24.1l-4,7.8h-34.2c-5.1,0-6-4.4-6-4.4V479.8L124.1,479.8z"/>
<path class="st0" d="M171.1,479.8h20.2V504h24l-3.9,7.8h-34.2c-5.1,0-6.1-4.4-6.1-4.4V479.8L171.1,479.8z"/>
<path class="st1" d="M207.8,487.4c-1.8,0-3.4,0.7-4.7,1.9c-1.3,1.3-2,3-2,4.8c0,1.8,0.7,3.4,2,4.7c1.3,1.3,3,2,4.8,2
	c1.8,0,3.4-0.7,4.8-2c1.3-1.2,2-2.9,2-4.8c0-1.8-0.7-3.4-1.9-4.7C211.3,488,209.6,487.4,207.8,487.4L207.8,487.4z M207.8,488.3
	c1.6,0,3,0.6,4.1,1.7c1.1,1.1,1.6,2.5,1.6,4.1c0,1.5-0.6,2.9-1.7,4c-1.1,1.1-2.6,1.7-4.2,1.7c-1.5,0-2.9-0.6-4-1.7
	c-1.1-1.1-1.7-2.5-1.7-4c0-1.5,0.6-3,1.7-4.1C204.9,488.9,206.2,488.3,207.8,488.3L207.8,488.3z M205,490.2v7.5h1.6v-3.2h1.2
	l1.5,3.2h1.8l-1.7-3.4c1.1-0.2,1.7-1,1.7-2.1c0-1.3-1.1-2.1-3.2-2.1H205L205,490.2z M206.7,491.2h1c1.2,0,1.8,0.4,1.8,1.2
	c0,0.8-0.6,1.2-1.8,1.2h-1.1V491.2L206.7,491.2z"/>
<path class="st0" d="M149.5,443c0,0-13.7-1-17.3,0.8c0,0.2-6.6,0.4-6.8,7.2c0.6,9.8,13.1,8.4,13.1,8.4c2.6,0.6,13.2-1.2,13.2-1.2
	v8.1c0,0-8.5,1.6-16.5,1.6c-2.3-0.8-29.2,1.2-29.7-15.2c-2.8-18.7,30.3-17.9,30.3-17.9c11.5,0,17.1,1.4,17.1,1.4L149.5,443
	L149.5,443z"/>
<path class="st0" d="M174.5,451.8c0-4.9,2.1-10,8.1-9.8c4.7,0,7.9,4.4,7.5,9.8c0.4,5.6-2.3,9-7.5,9
	C176.9,460.7,174.5,456.7,174.5,451.8L174.5,451.8z M154.5,451.3c0-9.2,11.9-16.6,27.5-16.6c15.6,0,28.2,5.8,28.2,16.6
	c0.1,11.2-12.7,16.6-28.2,16.6C166.4,467.9,154.4,462.1,154.5,451.3L154.5,451.3z"/>
<path class="st0" d="M23.3,479.8h37.8c0,0,10.5,0.8,9.6,7.6c0.9,6.4-5.9,7.6-5.9,7.6s6,0.8,6.8,7.4c0.9,8.2-9,9.4-9,9.4H23.3V479.8
	L23.3,479.8z M41.5,486v5.8H51c0,0,3.4,0,2.6-3.2c0-2.2-2.4-2.6-2.4-2.6H41.5L41.5,486z M41.5,498.4v6.2H51c0,0,4.1-0.2,3.4-3.4
	c0-2-3.2-2.8-3.2-2.8H41.5L41.5,498.4z"/>
<path class="st0" d="M191.4,341.3c-4.4-9.9-34.2-5-66.7,11.1c-32.4,16-55.2,37.1-50.8,47c4.4,9.9,34.2,4.9,66.6-11.1
	C173,372.2,195.8,351.2,191.4,341.3z M111.7,392.1c-9,3-21.6,3.6-29.4-7.2c-0.2-0.4,3.6-3.2,3.8-3.2c1.5,2.9,8.8,8.8,26.1,4.8
	c-12.8,0.8-20.6-10.6-13.9-13.6c1.7-1,25.6-15.3,29-12.6C132.7,375.6,122.5,388.5,111.7,392.1z"/>
</svg>
