<?xml version="1.0" encoding="utf-8"?>
<!-- Generator: Adobe Illustrator 19.1.0, SVG Export Plug-In . SVG Version: 6.00 Build 0)  -->
<svg version="1.1" id="Layer_1" xmlns="http://www.w3.org/2000/svg" xmlns:xlink="http://www.w3.org/1999/xlink" x="0px" y="0px"
	 viewBox="-133 135 500 500" style="enable-background:new -133 135 500 500;" xml:space="preserve">
<style type="text/css">
	.st0{fill:#FFFFFF;}
</style>
<g id="Layer_1_1_">
	<g>
		<path class="st0" d="M130,418.9h71.3v-50.8C177.1,395.1,136,417.2,130,418.9L130,418.9z"/>
		<path class="st0" d="M96.9,265.9c10,1.8,13.2,8.9,12.9,8.7c22.6-2.7,31.9,3.6,43,13.4c13.4,11.8,22.4,24.3,26,27.9
			c7.5,7.4,16.1,8.7,20.6,8.9c-5.6-16.1-13.7-35.7-41.1-50.9C133.4,260.1,102.1,263.7,96.9,265.9L96.9,265.9z"/>
		<path class="st0" d="M108.4,280.9c16.3,0.6,20.9,8.3,20.9,8.3c11,10.3,19.6,32.4,27.6,38.4c3.1-0.9,5.6-1.8,14.4-2
			c-6.2-0.6-17-18-17-18.1c-3.1-5.7-10.9-17.8-22.6-24C119.5,277.2,108.4,280.9,108.4,280.9L108.4,280.9z"/>
		<path class="st0" d="M78.6,271.7c-7.4,7.1-6.7,17.2-5.8,21.9c-13.7,12-18.2,32.1-16.9,51.8c-0.2,10,3.6,24.6,2.9,32.5
			c0.2,4.4-0.3,10.7-7,20.7c-6.1,9.1-7.2,14.7-7.5,19.6H29c0,0,0-78.2,0-78.4C31.8,296.2,65.9,276.8,78.6,271.7L78.6,271.7z"/>
		<path class="st0" d="M83,271.5c-7.7,7.2-2.6,18.3-2.6,18.3c0.8-1.4,13-8.9,20.7-10c-29.5,13-34.1,28.8-29.8,56.5
			c1.9,11.9,4.3,19.6,5.5,31.9c-7.2,6-11.8,15.4-11.8,15.4c1.7-10.9-2.6-25.6-4.3-40c-2.3-19.4,1.7-36.8,15.3-50.4
			C76,293.2,71.4,279,83,271.5L83,271.5z"/>
		<path class="st0" d="M124.9,356c60.7-28.8,69.3-10,69.3-10c9.8,21-45.2,51.3-49,52.7c-1.7,1.6-59.2,30.1-72,9.2
			c-0.5-1.8-6-16.7,34.1-47.3c19.9-15.2,45.8-25.9,67.2-31.7c-10.4,1.5-28.8,3.8-67.4,24.7c-34.6,19.9-58.9,52.2-52.3,65.2
			c18.7,17.4,66.8-4.2,88.3-14.7c32.6-14.9,78-48.6,70.3-67.4C196.4,314.3,124.7,354.7,124.9,356L124.9,356z"/>
		<polygon class="st0" points="19.8,436.2 66.4,436.2 62.8,443.7 51.9,443.7 51.9,465.6 34.5,465.6 34.5,443.7 23.7,443.7 		"/>
		<path class="st0" d="M73.3,436.2h22.5l15.8,29.4H94l-2.2-5.8H76.7l-2.5,5.8H57L73.3,436.2L73.3,436.2z M79.5,452.6h9.1l-4.4-8.9
			L79.5,452.6L79.5,452.6z"/>
		<path class="st0" d="M73.3,436.2h22.5l15.8,29.4H94l-2.2-5.8H76.7l-2.5,5.8H57L73.3,436.2L73.3,436.2z M79.5,452.6h9.1l-4.4-8.9
			L79.5,452.6L79.5,452.6z"/>
		<polygon class="st0" points="82.5,477.2 123.8,477.2 120.4,484.1 99.7,484.1 99.7,488.1 119,488.1 119,494.8 99.7,494.8 
			99.7,499.1 122.8,499.1 122.8,506.2 82.5,506.2 		"/>
		<path class="st0" d="M126.4,477.2h18.3v21.9h21.9l-3.6,7.1h-31.2c-4.6,0-5.5-4-5.5-4v-25H126.4z"/>
		<path class="st0" d="M169.3,477.2h18.4v21.9h21.9l-3.6,7.1h-31.2c-4.6,0-5.5-4-5.5-4L169.3,477.2L169.3,477.2z"/>
		<path class="st0" d="M149.5,443.7c0,0-12.5-0.9-15.7,0.7c0,0.2-6,0.4-6.2,6.5c0.5,8.9,12,7.6,12,7.6c2.4,0.6,12-1.1,12-1.1v7.4
			c0,0-7.7,1.5-15.1,1.5c-2.1-0.7-26.6,1.1-27.1-13.8c-2.6-17,27.6-16.3,27.6-16.3c10.5,0,15.6,1.3,15.6,1.3L149.5,443.7
			L149.5,443.7z"/>
		<path class="st0" d="M172.3,451.7c0-4.4,1.9-9.1,7.4-8.9c4.3,0,7.2,4,6.9,8.9c0.3,5.1-2.1,8.1-6.9,8.1
			C174.6,459.8,172.3,456.2,172.3,451.7L172.3,451.7z M154.2,451.3c0-8.3,10.8-15,25.1-15c14.2,0,25.7,5.3,25.7,15
			c0.1,10.2-11.5,15-25.7,15C165,466.3,154,461.1,154.2,451.3L154.2,451.3z"/>
		<path class="st0" d="M172.3,451.7c0-4.4,1.9-9.1,7.4-8.9c4.3,0,7.2,4,6.9,8.9c0.3,5.1-2.1,8.1-6.9,8.1
			C174.6,459.8,172.3,456.2,172.3,451.7 M154.2,451.3c0-8.3,10.8-15,25.1-15c14.2,0,25.7,5.3,25.7,15c0.1,10.2-11.5,15-25.7,15
			C165,466.3,154,461.1,154.2,451.3"/>
		<path class="st0" d="M34.5,477.2H69c0,0,9.6,0.7,8.8,6.9c0.8,5.8-5.3,6.9-5.3,6.9s5.5,0.7,6.2,6.7c0.9,7.4-8.2,8.5-8.2,8.5H34.7
			v-29H34.5z M51.2,482.8v5.3h8.6c0,0,3.1,0,2.4-2.9c0-2-2.2-2.4-2.2-2.4H51.2v11.3v5.6h8.6c0,0,3.8-0.2,3.1-3.1
			c0-1.8-2.9-2.5-2.9-2.5h-8.8L51.2,482.8L51.2,482.8z"/>
		<path class="st0" d="M34.5,477.2H69 M69,477.2c0,0,9.6,0.7,8.8,6.9c0.8,5.8-5.3,6.9-5.3,6.9s5.5,0.7,6.2,6.7
			c0.9,7.4-8.2,8.5-8.2,8.5 M70.4,506.2H34.6v-29 M51.2,482.8v5.3h8.6 M59.7,488.1c0,0,3.1,0,2.4-2.9c0-2-2.2-2.4-2.2-2.4
			 M59.9,482.8h-8.8 M51.2,494.1v5.6h8.6 M59.7,499.7c0,0,3.8-0.2,3.1-3.1c0-1.8-2.9-2.5-2.9-2.5 M59.9,494.1h-8.8"/>
		<path class="st0" d="M187.8,351.3c-4-9-31.2-4.5-60.8,10.1c-29.5,14.6-50.3,33.7-46.3,42.7c3.9,9,31.1,4.5,60.7-10.1
			C171,379.4,191.8,360.3,187.8,351.3z M115.1,397.5c-8.2,2.7-19.7,3.2-26.8-6.6c-0.1-0.3,3.3-2.9,3.5-2.9c1.4,2.6,8,8,23.8,4.4
			c-11.6,0.7-18.8-9.6-12.7-12.3c1.5-0.9,23.3-13.9,26.4-11.4C134.3,382.5,124.9,394.2,115.1,397.5z"/>
	</g>
</g>
<g id="Layer_2">
</g>
</svg>
