<?xml version="1.0" encoding="utf-8"?>
<!-- Generator: Adobe Illustrator 19.1.0, SVG Export Plug-In . SVG Version: 6.00 Build 0)  -->
<svg version="1.1" id="Layer_1" xmlns="http://www.w3.org/2000/svg" xmlns:xlink="http://www.w3.org/1999/xlink" x="0px" y="0px"
	 viewBox="-133 135 500 500" style="enable-background:new -133 135 500 500;" xml:space="preserve">
<style type="text/css">
	.st0{fill:#FFFFFF;}
</style>
<g id="Layer_1_1_">
	<g>
		<path class="st0" d="M-5.7,385c0-67.8,54.9-122.7,122.7-122.7S239.7,317.2,239.7,385s-55,122.7-122.7,122.7
			C49.2,507.7-5.7,452.8-5.7,385z M117,466.5c45,0,81.5-36.5,81.5-81.5S162,303.5,117,303.5S35.5,340,35.5,385S72,466.5,117,466.5z
			 M117,426.5c23.4,0,42.3-18.9,42.3-42.3c0-23.4-18.9-42.3-42.3-42.3s-42.3,18.9-42.3,42.3C74.7,407.6,93.6,426.5,117,426.5z"/>
		<path class="st0" d="M196.8,507.4c5.8,0,10.7-4.5,10.7-10.6s-4.9-10.6-10.7-10.6c-5.8,0-10.8,4.5-10.8,10.6
			S190.9,507.4,196.8,507.4z M188.1,496.8c0-5,3.8-8.8,8.7-8.8c4.8,0,8.6,3.8,8.6,8.8c0,5.1-3.8,8.9-8.6,8.9
			C191.9,505.6,188.1,501.9,188.1,496.8z M194.5,497.6h2.1l3.2,5.3h2.1l-3.5-5.4c1.8-0.2,3.2-1.2,3.2-3.4c0-2.4-1.4-3.5-4.3-3.5
			h-4.7v12.2h1.9L194.5,497.6L194.5,497.6z M194.5,496v-3.8h2.5c1.3,0,2.7,0.3,2.7,1.8c0,1.9-1.4,2-3,2H194.5z"/>
	</g>
</g>
<g id="Layer_2">
</g>
</svg>
