<?xml version="1.0" encoding="utf-8"?>
<!-- Generator: Adobe Illustrator 19.1.0, SVG Export Plug-In . SVG Version: 6.00 Build 0)  -->
<svg version="1.1" id="Layer_1" xmlns="http://www.w3.org/2000/svg" xmlns:xlink="http://www.w3.org/1999/xlink" x="0px" y="0px"
	 viewBox="-133 135 500 500" style="enable-background:new -133 135 500 500;" xml:space="preserve">
<style type="text/css">
	.st0{fill:#000;}
</style>
<g id="Layer_1_1_">
	<g>
		<g>
			<g>
				<g>
					<g>
						<g>
							<path class="st0" d="M165.4,335.2c1.7,2.5,5.2,4,10.4,4.5l0,0c4.5,0.4,9.5,0.2,15.1-0.4c-3.7,7.2-9.6,18.9-12.9,25.7
								c-2.2,0.2-4.5,0.3-6.9,0.3h-2.5v0.3c0,0.1,0.3,5.7,5.9,6.9c-4,9.2-9.1,22.7-9.6,30.5c-0.1,2.4,0.3,4.2,1.3,5.3
								c0.9,1,2.3,1.5,4.1,1.4c4.3-0.2,7.9-3.2,8.1-3.3l0.2-0.2l-0.2-0.2c0,0-1.1-1.4-1.5-2.9c-0.5-2.4,0.4-12,6.7-26.1
								c0.8-1.7,1.6-3.4,2.4-5.2c1.9-0.4,3.9-0.8,6-1.2l9-1.8c9-1.5,13-1.2,13.1-1.2h0.3v-0.3c0-0.1-0.1-2-1.5-3.5
								c-1.3-1.4-2.9-2.9-11.4-2l-7.5,1.1c-1.2,0.2-2.4,0.4-3.7,0.6c5.5-10.5,11.5-20.5,15.2-26.1c7.3-1,14.9-2.1,22.9-2.6
								c20.7-1.4,27.1,2.9,27.1,2.9l0.2,0.1l0.1-0.3c0,0,1.3-3.1-1.8-6.1c-4.6-4.4-12.9-6.1-25.5-5.2c-4.7,0.3-11.1,1.2-17.9,2.1
								c-6.4,0.9-13,1.8-19.4,2.4l-2.2,0.2c-7.1,0.7-13.8,1.4-18.4,1.2c-3.1-0.1-5.6-0.8-5.9-0.9l-0.3-0.1l-0.1,0.3l0,0l0,0l0,0l0,0
								c0,0,0,0.1,0,0.3C164.3,332.5,164.4,333.8,165.4,335.2z M255.5,360c0.2,1.3,0.8,2.4,1.8,3.2c2.3,1.8,3.5,1.7,3.5,1.7h0.2
								v-0.2c0,0,0.2-1.4,2.7-4c1.5-1.6,2.2-3,2.1-4.3c-0.1-1-0.6-1.9-1.6-2.7c0,0-0.1,0.1-0.1,0.2c0.1-0.1,0.1-0.2,0.1-0.2
								c-3.7-2.4-6.2,0.1-7.7,2.2C255.7,357.2,255.3,358.6,255.5,360z M53.3,323.2c29.1-6.6,47,0.2,47.2,0.3l0.5,0.2l-0.2-0.6
								c-0.1-0.1-1.3-3-5.5-4.7c-0.2-0.1-18.5-7.2-44-1.9c-16.1,3.3-35.9,10.2-59.9,35.4C-27,371.2-36.8,389.7-40,396.2
								c1.6-6.1,5.1-21.7,5.1-38.7c0-2.8-0.1-5.6-0.3-8.4c-1.2-16.5-6.5-25.3-16.3-27.1c-4.7-0.8-9.6,0.8-12.3,2.9
								c-6,4.4-9.2,12.1-10,14.7c-0.7,2.6-0.6,6.6,0.2,7c0.2,0.1,0.5,0.1,0.8-0.6c0-0.1,1.5-4.2,4-8.6c2.6-4.5,7.3-9.4,11.6-9.5
								c6.8-0.1,10.1,6.6,10.7,21.6c0.6,13.8-1.8,32-6.9,54.2l-0.3,1.3c-1,4.6-0.4,7.6,1.9,9.9c3,2.8,7.9,3.5,8.1,3.5h0.2l0.1-0.2
								c0-0.1,4.8-13.2,18.7-33.6C-1.7,350.8,25.3,329.6,53.3,323.2z M214.8,422.2c-7.4,0.3-26.2-2.1-31.8-2.8
								c-13-1.7-26.2-3.4-38.7-4.1c10.5-21.1,14.4-39,14.4-39.2c0.1-0.6,0.2-1.2,0.2-1.6c0-1.9-0.9-2.8-1.8-3.7l-0.1-0.1
								c-0.9-0.9-2.8-1.7-4.2-1.5c-0.6,0.1-1,0.4-1.2,0.8c-0.1,0.1-7.4,12-13.7,19.4c-5.4,6.4-6.4,6.2-6.5,6.2l-0.2-0.2
								c-0.4-1.1,0.7-4.9,3.3-11.2c3.2-7.8,4.7-11.7,2.3-14c-1.2-1.2-4.8-1.4-5-1.4h-0.2l-0.1,0.2l-0.5,1.3
								c-1.8,2.8-8.1,12-15.2,20.8c-4.8,5.9-7.4,7.4-8.2,6.9c-0.3-0.2-1.9-2.1,2-15.3c1.8-6.3,4.2-11.2,6.2-15.6
								c0.2-0.3,0.3-0.6,0.4-0.9c0.9-0.1,1.8-0.3,2.7-0.4l7.5-1.2c9.9-1.4,14.6-0.5,14.6-0.4l0.3,0.1V364c0-0.1,0-2.2-1.5-3.3
								c-1.6-1.2-3.7-2.1-13-1.2l-7.2,0.8c-0.3,0-0.6,0.1-0.9,0.1l0.4-0.9c1.3-3,2.7-6.5,0.3-8.5c-1.3-1.1-4.5-2-4.6-2l-0.2-0.1
								l-0.1,0.2l-1.4,3.5c-0.5,1.1-2.2,4.7-4.3,8.9c-3.8,0.4-7.8,0.6-11.8,0.7l-1.1-0.2l-1.4-0.2v0.3c0,0-0.2,4.8,6,5.5
								c1.5,0.2,3.2,0.2,5.1,0c-0.3,0.5-0.5,1-0.8,1.5c-3.3,6-7.5,12.8-15.8,22.6c-5.5,6.5-6.9,6.3-7.2,6.1c-0.4-0.3-1-3.4,3-12.7
								l0.7-1.6c2.9-6.8,3.6-8.6,1.5-10.7c-1.2-1.2-4.4-2.3-4.5-2.3h-0.1l-0.1,0.1c0,0-0.6,0.6-0.9,1.2l0,0
								c-0.1,0.1-10.2,13.2-16.5,20.5c-5.6,6.4-6.9,6.5-7.1,6.4l-0.2-0.3c-0.4-1.2,0.4-5.1,3.8-12.4l0.4-0.9
								c3.2-6.7,4.9-10.4,1.8-14.5c-2.5-3.3-6.1-3.5-10.8-0.5c-4.9,3.1-10.4,9.2-12.7,11.9c0.9-2,2.4-5.4,3-6.8
								c0.3-0.8,0.4-1.5,0.4-2.2c0-1.4-0.6-2.6-1.8-3.4c-0.7-0.5-2-1.2-3-1.7c-1.3-0.6-2.4,1-3.9,3.2l-0.7,1
								c-1.5,2.2-5.8,8.2-13.6,17.7c-4.6,5.6-7.1,7.3-7.8,6.9c-0.1-0.1-0.2-0.2-0.3-0.4c-0.4-1.2-0.1-4.6,2.3-10.4
								c1.7-4.3,3.9-8.2,4.8-9.8l0.5-0.9c0.6-1.4,1.1-3-0.6-4.3c-0.9-0.7-2.9-1.4-3.9-1.6c-1.2-0.3-1.9,0.9-2.7,2.1
								c0,0-0.4,0.7-0.5,0.9c-0.6-1.1-1.8-2.5-3.3-3.3c-5.6-2.9-15.2-0.5-24.2,11.3c-5.4,7.2-7.8,14.4-6.6,19.8
								c0.7,3,2.5,5.2,5.2,6.3c5.6,2.4,10.9-2.3,14.8-6.5c2.4-2.7,4.5-5.5,5.5-6.9c-0.1,0.7-0.2,1.6-0.2,2.6c0,2.5,0.6,5.6,3.3,7.2
								c5.3,3.3,9.9-1.6,13.3-5.2c1.9-2.1,4.5-5.3,7.6-9.6c-2.1,4.9-4,10.7-4.4,12.2c-0.1,0.3-0.1,0.6-0.1,0.8c0,1.2,0.7,2.1,1.8,3
								c1.3,1.1,4.7,1.7,5.4,0.7l1.7-2.7c2.6-4.1,7.4-11.8,12.9-17.7c6.2-6.7,9.7-9,11-9.7c-1,2.2-4.2,9.4-5.5,13.6
								c-1.3,4-1.9,7.2-1.9,9.7c0,3.3,1.1,5.5,3.3,6.7c5.7,3.2,10.7-1.7,15.3-7.5c2.8-3.5,5.7-7.6,7.3-9.8c0,0.1-0.1,0.4-0.1,0.4
								c-0.8,2.8-1.6,5.9-1.6,8.7s0.7,5.3,2.9,6.9c5.5,4.2,11.7-2.2,15.9-7.3c2.5-3,5.6-7.2,7.9-10.5c0,0.1-0.1,0.2-0.1,0.3
								l-0.1,0.6c-1,3.8-1.4,7.1-1.4,9.8c0,4.1,1.1,7,3.2,8.5c6.5,4.3,12.6-2,17.2-8c1.8-2.4,3.4-4.6,4.7-6.5
								c-1.7,6.4-1,10.1,2.3,12.5c5,3.7,12-3.9,14.8-7.3c2.7-3.3,4.7-6.2,5.9-7.8c-1.6,4.4-6.2,16.6-11.6,27.9
								c-9.1,0-17.7,0.8-25.4,2.9c-19,5.2-28.4,16.3-29,24.4c-0.4,4.9,2.1,8.8,7,11.2c8.5,4.1,33.2,3.2,50.8-26.4
								c1.1-1.9,2.2-3.8,3.2-5.7c11,0.9,22.2,2.8,32.3,4.6l4.3,0.7c19.4,3.3,32.2,3.9,39.2,2c3.4-0.9,6-2.5,7.9-4.5
								c2-2.2,2.8-5,2.9-5.1l0.2-0.8l-0.6,0.5C227.4,418.9,223.8,421.9,214.8,422.2z M-2.1,391c-7.3,8.8-10,9.8-11.1,9.1
								c-0.2-0.1-0.3-0.4-0.3-0.8c-0.3-2.3,1.3-8.5,6.1-14.8C-1,376.1,6,371.8,8.1,373.7c0.6,0.5,0.7,1.3,0.8,2.4
								C5,381.9,1.3,386.9-2.1,391z M130.6,422.7c-9.4,17.1-20.9,23.1-25.4,24.8c-5.3,2.1-12.2,3-15.8,0.3c-1.3-1-1.9-3-1.6-5.4
								c0.7-5.4,6-13.4,18.7-18.1c7.2-2.7,15.8-3.5,24.9-3.4C131.2,421.5,130.9,422.1,130.6,422.7z M96.1,344.9
								c-2.1-0.3-3.7,0.6-5.3,2.9c-1.1,1.5-1.6,3.2-1.4,4.5c0.2,1,0.7,1.9,1.5,2.5c2.4,1.8,4.3,1.9,4.4,1.9h0.2l0.1-0.2
								c0,0,0.8-2,2.4-4.1l0.3-0.4c0.8-1,1.8-2.3,1.8-3.7v-0.1c0-0.8-0.4-1.6-1.1-2.3C98.9,345.9,97.7,345.1,96.1,344.9z
								 M308.1,365.7c0,0-0.3-0.8-1-1.4c-2.3-1.9-7.9-2-12.2-0.3c-8,3.2-15.5,13-18.7,17.5c1.1-2.4,2.6-5.8,3-7.2
								c0.3-0.9,0.4-1.6,0.4-2.2c0-0.8-0.3-1.3-0.6-1.8l-0.1-0.1c-0.5-0.8-3.2-1.7-3.7-1.9c-0.9-0.3-1.4-0.2-1.7,0.4l-0.8,1
								c-2.6,3.4-9.6,12.5-15.7,19.3c-4.7,5.3-6.6,7.2-7.3,7.2c0,0-0.1,0-0.2-0.1c-0.4-0.7-0.1-4,3.2-11.9l1.6-3.7
								c2.3-5.3,3.3-7.7,1.3-9.6c-1.2-1.2-4.7-2.2-4.9-2.3h-0.2l-0.2,0.3l-2.4,3.7c-2.9,4.1-8.4,11.4-13,16.8c-1.7,2-7,8.1-8.7,7.7
								c-0.1,0-0.2-0.1-0.2-0.2c-0.6-1.4,0.5-6.9,3-12.4c2.2-4.8,3.9-7.7,4.6-9l0.3-0.5c0.6-1,0.8-1.8,0.6-2.5
								c-0.1-0.6-0.5-1.1-1.3-1.5c-0.6-0.4-3-1.8-3.9-2c-1.1-0.3-1.8,0.8-2.7,2.1c0,0-0.3,0.4-0.4,0.7c-0.7-1.3-1.7-2.3-3.1-3.1
								c-5.4-2.9-14.9-0.7-23.9,11c-6.9,8.9-7.4,15.2-6.6,19c0.7,3.1,2.6,5.6,5.2,6.9c4.6,2.2,10.4-2.4,14.5-6.5
								c2.3-2.4,4.4-5,5.4-6.2c-0.1,0.6-0.2,1.3-0.2,2.2c0,2.4,0.5,5.6,3.1,7.2c4.2,2.6,8.8,1,13.9-4.9c3-3.4,5.3-6.2,7.4-9.1
								c-0.9,3.1-1.4,5.6-1.4,7.7c0,3.1,1,5.2,3.2,6.6c4.9,3.2,10.4-2.5,15.6-8.6c2.1-2.4,7.3-9.3,9.6-12.3c-1,2.3-3.1,7.6-3.1,7.6
								l-1.6,4.3c-1.4,3.7-2.5,6.4-2.8,7.9c-0.1,0.3-0.1,0.5-0.1,0.8c0,1.3,0.6,2.5,1.7,3.4c1.2,1,3.7,1.6,4.9,1.3
								c0.4-0.1,0.6-0.3,0.7-0.5l0.3-0.6c1.6-3.7,5.2-12.3,12.8-22.5c8.2-11,15.5-14.6,18.2-15.6c4.1-1.5,7.8-1.6,7.8-1.6h0.3
								L308.1,365.7z M212.7,390.7c-6,6.9-10,9.7-11.3,9.4c-0.1,0-0.1-0.2-0.2-0.3c-0.5-1.8,1.2-8.8,6.4-15.9
								c6.8-9.2,13.8-12.3,15.3-10.9c0.6,0.5,0.8,1.4,0.9,2.8C219.9,381.6,216.2,386.6,212.7,390.7z"/>
						</g>
					</g>
				</g>
			</g>
		</g>
	</g>
</g>
<g id="Layer_2">
</g>
</svg>
