<?xml version="1.0" encoding="utf-8"?>
<!-- Generator: Adobe Illustrator 19.1.0, SVG Export Plug-In . SVG Version: 6.00 Build 0)  -->
<svg version="1.1" id="Layer_1" xmlns="http://www.w3.org/2000/svg" xmlns:xlink="http://www.w3.org/1999/xlink" x="0px" y="0px"
	 viewBox="-133 135 500 500" style="enable-background:new -133 135 500 500;" xml:space="preserve">
<style type="text/css">
	.st0{fill:#000;}
</style>
<g>
	<path class="st0" d="M90.2,469.6c8.2,2.5,16.9,3.8,25.9,3.8s17.7-1.3,25.9-3.8l-25.9-56.2L90.2,469.6z"/>
	<path class="st0" d="M26.8,384.2c0,35.8,21.3,66.8,51.8,81l-48-106.9C28.1,366.5,26.8,375.2,26.8,384.2z"/>
	<path class="st0" d="M163.4,308.2l-33,74.1h-26.6l-33-74.1c-10.3,6.3-19.2,14.5-26.2,24.2l40.9,96.5l18.3-40.6h26.6l18.3,40.6
		l40.9-96.5C182.6,322.7,173.7,314.4,163.4,308.2z"/>
	<path class="st0" d="M142.6,299c-8.1-2.4-16.7-3.8-25.6-3.8c-8.9,0-17.5,1.3-25.6,3.8l25.6,57.4L142.6,299z"/>
	<path class="st0" d="M201.7,358.2l-48,106.9c30.5-14.2,51.8-45.2,51.8-81C205.5,375.1,204.2,366.4,201.7,358.2z"/>
	<path class="st0" d="M117,262C49.3,262-6,317.2-6,385c0,67.7,55.3,123,123,123s123-55.2,123-123C240,317.3,184.8,262,117,262z
		 M116.1,490.1c-58.4,0-104.9-47.1-104.9-105.5c0-58.4,51.2-105.2,103.8-105.8l5.9,0.3c53.3,0.3,101.2,46.6,101.2,105
		C222.1,442.5,174.5,490.1,116.1,490.1z"/>
</g>
<g id="Layer_2">
</g>
</svg>
