<?xml version="1.0" encoding="utf-8"?>
<!-- Generator: Adobe Illustrator 19.2.1, SVG Export Plug-In . SVG Version: 6.00 Build 0)  -->
<svg version="1.1" xmlns="http://www.w3.org/2000/svg" xmlns:xlink="http://www.w3.org/1999/xlink" x="0px" y="0px"
	 viewBox="0 0 500 500" style="enable-background:new 0 0 500 500;" xml:space="preserve">
<style type="text/css">
	.st0{fill:#000;}
</style>
<g id="Layer_1">
	<g>
		<path class="st0" d="M58.5,202.7h94.6v94.6H58.5V202.7z M110,220.8c-4.1,1.9-16,11.1-22.4,15.9c7.8-2.6,26.5-6.7,36.1-7
			C120.7,227.7,112.3,222,110,220.8z M72.6,280.1c2.6-1.2,27.7-9.5,50.7-10.9c0.5-1.9,3-8.4,3.5-10.2c-23.9,1.7-43.3,8.8-51.1,12.4
			L72.6,280.1z M125.5,231c0,0-23.2,23.3-26.9,26.7c7.1-2.6,21.5-5.6,30.7-6.1c1.1-3.3,2.2-5.6,2.2-5.6l12.3-1.2
			C143.8,244.7,134.5,237.2,125.5,231z M76.6,269c7.3-7.5,33.6-31.8,33.6-31.8c-13.7,3.2-28,7.5-33.1,9.9l-7.7,7.9
			c6.4-1.4,8.5-1.6,13.2-2.3L76.6,269z M221,285.3l3.5-11h-22.7c-2.7,0-5.7,0-5.7,0s1.1-2,2.5-4.4l25.6-44.8v-9.8h-40.3l-3,11.2
			h20.7c4.1,0,5.5,0.1,5.5,0.1s-1,2.4-2.8,5.5l-25.4,43.7v9.5H221L221,285.3z M239.9,236c4.5,0,8-3.6,8-8c0-4.5-3.5-8-7.9-8
			c-4.5,0-8.1,3.6-8.1,8C231.9,232.4,235.5,236,239.9,236L239.9,236z M233.4,285.4h13l0-46.5l-12.9,2.9L233.4,285.4L233.4,285.4z
			 M259.1,285.3l-0.1-68.7l13.3-3l0.1,71.7H259.1L259.1,285.3z M284.9,285.3l-0.1-68.7l13.3-3l0.1,71.7H284.9L284.9,285.3z
			 M409.5,285.3l14.1-49.6h-13.4l-3.8,17.7c-1.4,6.3-2.4,14-2.7,16.2c0,0-1.4-8.3-3.7-17.5l-4-16.4h-12.2l-4.6,16.7
			c-2.3,8.4-3.6,17.2-3.6,17.2s-1.5-9.7-2.8-15.4l-4-18.5h-13.3l13.8,49.6h12.1l2.5-10.2c1.2-4.6,3.3-13.2,4.3-17.4
			c0.8-3.6,0.9-4.3,1.2-6.4c0.3,1.9,0.4,2.6,0.8,4.9c0.6,3.3,1.7,8,2.8,12l4.5,17H409.5L409.5,285.3z M336.1,246.9
			c1.7,2.2,2.6,6.6,2.6,13.3c0,11.7-2.4,16.8-8,16.8c-2.5,0-5.4-1.4-6.6-4.1c-1.1-2.5-1.6-6.8-1.6-12.5c0-4.9,0.5-8.4,1.4-11
			c1.1-3.1,3.6-5,6.7-5C332.8,244.3,334.8,245.3,336.1,246.9L336.1,246.9z M346.7,279.5c4.3-4.8,6.2-10.7,6.2-19.2
			c0-8-1.7-13.5-5.7-18.1c-4.3-5-9.8-7.5-16.9-7.5c-13.4,0-22.3,10.4-22.3,26c0,15.6,8.8,25.7,22.3,25.7
			C337.9,286.4,342.9,283.8,346.7,279.5L346.7,279.5z"/>
		<path class="st0" d="M434.3,225.2v2.2h0.6c0.6,0,0.9-0.1,1.1-0.3c0.2-0.2,0.3-0.5,0.3-0.9c0-0.7-0.4-1.1-1.4-1.1H434.3L434.3,225.2z
			 M436.6,231.3l-0.6-1.1c-0.5-0.9-0.8-1.3-1.2-1.7c-0.1-0.1-0.2-0.2-0.5-0.2v3.1h-1.2v-7.1h2.2c1.6,0,2.3,0.9,2.3,2
			c0,1.1-0.7,1.9-1.8,1.9c0.3,0.1,0.7,0.8,1.1,1.4l1,1.7H436.6L436.6,231.3z M435.2,222.5c-2.8,0-5,2.3-5,5.3c0,3,2.2,5.3,5,5.3
			c2.8,0,5.1-2.3,5.1-5.3C440.3,224.8,438,222.5,435.2,222.5L435.2,222.5z M435.2,234.1c-3.4,0-6.3-2.8-6.3-6.3
			c0-3.6,2.8-6.3,6.3-6.3c3.4,0,6.3,2.8,6.3,6.3C441.5,231.4,438.6,234.1,435.2,234.1L435.2,234.1z"/>
	</g>
</g>
<g id="Layer_2">
</g>
</svg>
