<svg id="Layer_1" xmlns="http://www.w3.org/2000/svg" viewBox="156 -156 512 512">
  <style>
    .st0{fill:#D5B2AD}
  </style>
  <path class="st0" d="M654.6 88.2L415.5-150.9c-3.4-3.4-7.3-5.1-11.8-5.1-4.4 0-8.4 1.7-11.8 5.1l-25.7 25.7c-3.4 3.4-5.1 7.3-5.1 11.8s1.7 8.4 5.1 11.8L567.9 100 366.3 301.6c-3.4 3.4-5.1 7.4-5.1 11.8 0 4.5 1.7 8.4 5.1 11.8l25.6 25.7c3.4 3.4 7.3 5.1 11.8 5.1s8.4-1.7 11.8-5.1l239.1-239.1c3.4-3.4 5.1-7.4 5.1-11.8s-1.7-8.4-5.1-11.8z"/>
  <path class="st0" d="M462.7 100c0-4.4-1.7-8.4-5.1-11.8L218.5-150.9c-3.4-3.4-7.4-5.1-11.8-5.1s-8.4 1.7-11.8 5.1l-25.6 25.7c-3.4 3.4-5.1 7.3-5.1 11.8s1.7 8.4 5.1 11.8L370.9 100 169.4 301.6c-3.4 3.4-5.1 7.4-5.1 11.8 0 4.5 1.7 8.4 5.1 11.8l25.6 25.7c3.4 3.4 7.4 5.1 11.8 5.1s8.4-1.7 11.8-5.1l239.1-239.1c3.3-3.4 5.1-7.3 5-11.8z"/>
</svg>
