<svg id="Layer_1" xmlns="http://www.w3.org/2000/svg" viewBox="156 -156 512 512">
  <style>
    .st0{fill:#413557}
  </style>
  <path class="st0" d="M169.3 111.8l239.1 239.1c3.4 3.4 7.3 5.1 11.8 5.1 4.4 0 8.4-1.7 11.8-5.1l25.7-25.7c3.4-3.4 5.1-7.3 5.1-11.8s-1.7-8.4-5.1-11.8L256 100l201.6-201.6c3.4-3.4 5.1-7.4 5.1-11.8 0-4.5-1.7-8.4-5.1-11.8L432-150.9c-3.4-3.4-7.3-5.1-11.8-5.1-4.5 0-8.4 1.7-11.8 5.1L169.3 88.2c-3.4 3.4-5.1 7.4-5.1 11.8s1.7 8.4 5.1 11.8z"/>
  <path class="st0" d="M361.2 100c0 4.4 1.7 8.4 5.1 11.8l239.1 239.1c3.4 3.4 7.4 5.1 11.8 5.1s8.4-1.7 11.8-5.1l25.6-25.7c3.4-3.4 5.1-7.3 5.1-11.8 0-4.5-1.7-8.4-5.1-11.8L453 100l201.6-201.6c3.4-3.4 5.1-7.4 5.1-11.8 0-4.5-1.7-8.4-5.1-11.8L629-150.9c-3.4-3.4-7.4-5.1-11.8-5.1s-8.4 1.7-11.8 5.1L366.3 88.2c-3.4 3.4-5.1 7.3-5.1 11.8z"/>
</svg>
